<svg xmlns="http://www.w3.org/2000/svg" xmlns:xlink="http://www.w3.org/1999/xlink" viewBox="0 0 5320.9 168" xmlns:v="https://vecta.io/nano"><g fill="#0f0f0f"><use xlink:href="#B"/><use xlink:href="#B"/><use xlink:href="#B"/><use xlink:href="#B"/><use xlink:href="#B"/></g><defs ><path id="B" d="M.047 166.36c1.467-.86 4.257-1.403 6.201-1.206s3.969-.346 4.5-1.205c.718-1.162 1.246-1.109 2.06.208 1.558 2.52 2.3 1.272 3.077-5.176.524-4.345.237-5.643-1.246-5.643-1.059 0-1.926-1.2-1.926-2.667s.468-2.667 1.039-2.667 1.904 1.2 2.961 2.667c2.013 2.792 5.333 3.623 5.333 1.333 0-.733 1.176-1.333 2.614-1.333s3.343-.781 4.234-1.735 3.315-1.486 5.386-1.182c2.25.33 3.766-.058 3.766-.965 0-.835 1.5-2.088 3.333-2.785 2.571-.977 3.333-2.217 3.333-5.42 0-4.966 4.347-9.138 9.591-9.202 2.55-.031 4.276-1.204 5.954-4.044 2.151-3.642 2.994-4 9.409-4 3.875 0 7.046.481 7.046 1.069s2.216 1.132 4.926 1.209c3.669.104 5.568 1.022 7.445 3.598 2.811 3.858 4.963 4.491 4.963 1.458 0-1.1.6-2 1.333-2s1.333 1.5 1.333 3.333.6 3.333 1.333 3.333 1.333 1.826 1.333 4.058c0 5.763 4.976 10.636 11.796 11.55 4.727.634 5.537 1.205 5.537 3.9 0 1.737.6 3.158 1.333 3.158s1.333-1.2 1.333-2.667c0-1.699.889-2.667 2.45-2.667 1.347 0 4.797-2.684 7.667-5.964 5.64-6.448 9.211-7.588 10.55-3.37.914 2.881 2.68 3.469 4 1.333.453-.733 2.289-1.333 4.079-1.333 2.627 0 3.255-.677 3.255-3.512 0-5.268 8.246-11.798 11.186-8.858.53.53 3.122 1.102 5.76 1.271s5.381.892 6.096 1.607c.845.845 2.113.793 3.621-.149 1.627-1.016 4.352-1.048 9.12-.105 6.581 1.301 6.912 1.219 10.278-2.559 1.913-2.147 4.301-3.587 5.307-3.201 2.541.975 9.966-2.943 9.966-5.26 0-1.046.6-1.902 1.333-1.902s1.333-1.2 1.333-2.667.6-2.667 1.333-2.667a1.34 1.34 0 0 1 1.333 1.333c0 .733 1.16 1.333 2.577 1.333 1.952 0 2.552-.895 2.473-3.691-.18-6.329 5.996-16.309 10.093-16.309 1.1 0 2.96-.96 4.132-2.132 1.954-1.954 2.369-1.832 4.966 1.47 2.442 3.105 2.999 3.307 4.029 1.466.658-1.175 2.109-2.136 3.225-2.136 2.833 0 5.221-2.693 6.34-7.149l.951-3.789 2.537 2.925c1.396 1.609 2.797 3.62 3.114 4.469.379 1.015 1.431.689 3.07-.95 1.792-1.792 2.025-2.667.827-3.111-1.974-.732-2.265-5.729-.333-5.729.733 0 1.333.899 1.333 1.997 0 3.288 9.636 12.254 15 13.956 4.551 1.444 6.909 4.046 3.667 4.046a1.34 1.34 0 0 0-1.333 1.333c0 1.925 4.966 1.644 5.889-.333.622-1.333.933-1.333 1.556 0 .428.917 1.355 1.667 2.061 1.667 1.405 0 7.828 6.045 7.828 7.368 0 1.573 3.822 4.632 5.788 4.632 1.249 0 2.291 1.854 2.827 5.027 1.333 7.89 2.516 9.13 6.835 7.162 2.834-1.291 3.862-1.303 4.635-.051.736 1.191 2.258.862 5.864-1.265 5.536-3.266 8.194-3.616 9.171-1.207.53 1.307.944 1.285 1.918-.099 2.062-2.933 10.07-1.424 11.628 2.191 1.062 2.462 2.069 2.946 4.948 2.377 2.235-.442 4.362.032 5.571 1.242 1.076 1.076 2.549 1.956 3.274 1.956s1.622.75 1.994 1.667c.529 1.303.949 1.279 1.926-.112 1.007-1.434 1.414-1.348 2.101.442.469 1.221.852 3.672.852 5.445s.767 3.224 1.704 3.224c2.42 0 5.73 4.23 6.873 8.781l.974 3.883 1.844-3.332c1.014-1.833 1.865-2.582 1.891-1.665s1.497 1.667 3.269 1.667 3.572.75 4 1.667c.622 1.333.933 1.333 1.556 0 .925-1.981 4.556-2.247 4.556-.333 0 .733.86 1.333 1.91 1.333s2.291 1.2 2.757 2.667 1.963 2.667 3.328 2.667 3.475.993 4.689 2.208c2.055 2.055 2.418 1.962 5.25-1.333 2.967-3.453 7.399-4.813 7.399-2.27 0 .699 2.159 1.867 4.799 2.596 5.503 1.52 9.868-.332 9.868-4.187 0-3.278 4.942-3.014 6 .321.693 2.185 2.017 2.667 7.328 2.667 3.984 0 7.252.771 8.482 2 3.128 3.128 5.375 2.388 8.097-2.667 2.794-5.189 7.427-6.436 7.427-2 0 4.222 5.067 3.353 7.729-1.325 1.249-2.195 3.321-3.995 4.605-4 1.442-.005 2.333-1.028 2.333-2.675 0-1.467.75-2.75 1.667-2.853 4.221-.472 12.41.595 13.107 1.708 1.299 2.075 5.227-.301 5.227-3.162 0-2.887-1.439-2.847 19.907-.559 2.95.316 5.715 1.817 7.788 4.227 2.447 2.844 3.475 3.315 4.305 1.972 1.814-2.935 5.333 1.789 5.333 7.16 0 2.576.6 5.054 1.333 5.507s1.333 1.389 1.333 2.079c0 .78-104.53 1.239-276.33 1.214L.048 166.36zm524.67-8.277c0-.323-.6-.959-1.333-1.412s-1.333-.189-1.333.588.6 1.412 1.333 1.412 1.333-.265 1.333-.588zm54.667 5.861c0-4.137 4.631-10.179 8.179-10.67 5.868-.812 9.155.169 9.155 2.731 0 1.467.343 2.667.762 2.667 1.564 0 4.571-3.884 4.571-5.905 0-2.476 6.163-2.94 6.968-.525.305.916 2.69-.474 5.722-3.333 5.348-5.044 6.191-5.347 13.739-4.928 3.48.193 4.585-.349 5.155-2.532.782-2.989 4.306-3.686 6.672-1.32 1.054 1.054 2.25 1.032 4.324-.077 3.251-1.74 32.597-1.373 36.419.456 1.954.935 2.333.461 2.333-2.915 0-2.217-.75-4.299-1.667-4.627s-1.184-1.11-.594-1.739 1.487-.564 2 .153 2.727 2.192 4.928 3.286 4.97 3.043 6.156 4.331c2.805 3.047 3.844 2.959 3.844-.324 0-1.778-.889-2.667-2.667-2.667s-2.667-.889-2.667-2.667c0-2.283.889-2.667 6.177-2.667 6.683 0 9.483 2.074 12.443 9.22 1.7 4.104 7.068 6.077 12.693 4.666 2.308-.579 4.216.398 7.825 4.007 2.625 2.625 5.693 4.773 6.818 4.773s2.044.6 2.044 1.333.9 1.333 2 1.333c2.26 0 2.731-2.201.621-2.904-2.505-.835.5-11.019 3.418-11.581 1.424-.274 3.568-1.627 4.765-3.007 1.602-1.847 3.979-2.508 9.019-2.508 3.764 0 6.844.6 6.844 1.333s1.2 1.333 2.667 1.333c1.865 0 2.667-.889 2.667-2.958 0-3.419 5.933-9.042 9.541-9.042 1.57 0 2.459-.964 2.459-2.667 0-1.467.6-2.667 1.333-2.667s1.333-1.2 1.333-2.667.6-2.667 1.333-2.667a1.34 1.34 0 0 1 1.333 1.333c0 .733.643 1.333 1.429 1.333 1.91 0 5.238-3.418 5.238-5.381 0-.92.923-1.217 2.227-.717 1.225.47 2.691.103 3.258-.815.764-1.237 1.696-.903 3.596 1.288 1.411 1.627 3.244 2.957 4.075 2.957s1.51.943 1.51 2.095c0 2.695 3.21 5.905 5.905 5.905 1.206 0 2.095-1.131 2.095-2.667 0-1.796.889-2.667 2.722-2.667 1.497 0 4.01-1.2 5.585-2.667 3.796-3.536 10.043-3.44 13.203.204 1.369 1.579 2.49 3.379 2.49 4s1.2 1.129 2.667 1.129 2.667-.6 2.667-1.333c0-2.26 3.957-1.477 7.036 1.392 1.609 1.499 3.134 2.099 3.389 1.333.613-1.838 6.551-1.797 7.166.049.767 2.302 7.742-1.49 7.742-4.21 0-1.288.75-2.692 1.667-3.119 1.333-.622 1.333-.933 0-1.556-.917-.428-1.667-2.828-1.667-5.333 0-4.317.244-4.556 4.667-4.556 3.778 0 4.667.508 4.667 2.667 0 2.074.889 2.667 4 2.667 2.2 0 4-.6 4-1.333 0-2.501 4.277-1.341 6.778 1.839 3.524 4.48 13.222 5.891 13.222 1.923 0-.707.884-2.17 1.964-3.25s2.709-4.487 3.619-7.571c2.143-7.263 3.917-8.953 9.322-8.882 10.115.133 16.208 2.25 20.565 7.145 4.019 4.516 4.745 4.797 12.4 4.797 4.532 0 8.131.59 8.131 1.333 0 .733 2.979 1.333 6.621 1.333h6.621l.886-6.679c.865-6.52 1.008-6.698 6.046-7.504 2.838-.454 5.16-1.348 5.16-1.988s3.3-1.163 7.333-1.163c5.239 0 7.333.51 7.333 1.786 0 1.882 5.401 4.881 8.79 4.881 2.471 0 8.543 5.908 8.543 8.312 0 .971 1.2 2.631 2.667 3.688s2.667 2.69 2.667 3.628c0 1.106 1.907 1.706 5.421 1.706 2.982 0 6.732.694 8.333 1.543 3.304 1.75 7.579 6.282 7.579 8.035 0 .643 3.658 1.06 8.129.926 5.291-.159 8.488.337 9.157 1.42 1.73 2.799 10.051 2.132 16.573-1.328 4.93-2.615 6.141-3.953 6.141-6.784 0-2.027.922-3.88 2.169-4.359 2.234-.857 5.831 1.26 5.831 3.433 0 1.436 2.144 4.183 6.333 8.113 1.65 1.548 3 3.606 3 4.574s.6 1.76 1.333 1.76 1.333 1.2 1.333 2.667.525 2.667 1.167 2.667 1.527 1.8 1.967 4c.871 4.353 2.248 4.75 14.287 4.118 4.218-.221 6.622.325 7.83 1.781 1.927 2.321 6.75 2.87 6.75.767 0-.733 1.135-1.333 2.522-1.333 1.578 0 2.835-1.247 3.359-3.333.692-2.757 1.639-3.333 5.478-3.333 2.553 0 4.641-.573 4.641-1.273 0-2.67 6.916-8.062 10.394-8.103 3.854-.045 8.273-2.696 8.273-4.962 0-1.921 4.511-3.463 5.086-1.739.258.775 2.424 1.41 4.811 1.41 3.358 0 4.692-.769 5.889-3.396 2.033-4.461 1.998-4.604-1.119-4.604-1.9 0-2.667-.889-2.667-3.093 0-3.863 5.621-8.907 9.926-8.907 2.678 0 3.311.749 3.657 4.322.535 5.537 4.594 6.763 5.848 1.766 1.039-4.14 5.903-4.837 5.903-.845 0 2.686 1.346 3.359 9.667 4.834 4.327.767 5 .547 5-1.635 0-1.386 1.2-3.386 2.667-4.443 1.632-1.176 2.684-3.489 2.711-5.961.104-9.473 7.949-12.273 22.38-7.987 5.277 1.567 6.909 2.669 6.909 4.667 0 1.726.907 2.615 2.667 2.615 1.467 0 2.667.6 2.667 1.333s3.3 1.333 7.333 1.333 7.333.6 7.333 1.333 3.3 1.333 7.333 1.333h7.333v-5.786c0-4.906.516-6.021 3.396-7.333 1.868-.851 4.568-1.547 6-1.547s2.604-.6 2.604-1.333 2.763-1.333 6.141-1.333c4.605 0 7.132.834 10.102 3.333 2.179 1.833 5.394 3.333 7.146 3.333 1.82 0 3.796 1.143 4.611 2.667.935 1.746 2.792 2.667 5.38 2.667 2.174 0 3.953.6 3.953 1.333a1.34 1.34 0 0 1-1.333 1.333c-.733 0-1.333 1.2-1.333 2.667s.6 2.667 1.333 2.667 1.333.9 1.333 2c0 1.504 1.612 2 6.506 2 5.816 0 7.106.582 12.16 5.488 5.379 5.22 5.976 5.457 12.252 4.854 4.058-.39 7.204-.036 8.173.92.866.855 2.647 1.96 3.957 2.457 2.718 1.029 13.353-2.255 14.047-4.338.253-.759 1.61-1.38 3.015-1.38 1.939 0 2.556-.946 2.556-3.921 0-2.157.546-4.259 1.213-4.671 2.112-1.305 5.454.779 5.454 3.402 0 1.388.6 2.524 1.333 2.524s1.333 1.2 1.333 2.667.792 2.667 1.76 2.667 3.049 1.483 4.625 3.295c2.792 3.212 2.976 3.24 7.24 1.108l6.69-3.295c4.902-2.345 12.996-1.252 16.473 2.226 1.833 1.833 4.698 3.333 6.366 3.333 2.6 0 8.847 5.235 8.847 7.415 0 .4 1.65 2.796 3.667 5.323 3.254 4.079 4.379 4.595 10 4.595 3.483 0 6.333.499 6.333 1.108s1.449 1.884 3.221 2.832 3.527 2.895 3.902 4.327c.586 2.24 1.704 2.555 8.021 2.263 4.745-.22 8.129.314 9.57 1.51 3.398 2.82 11.879 1.894 17.474-1.908 2.708-1.84 5.3-3.114 5.759-2.831s.971-1.286 1.139-3.489c.187-2.449-.224-3.677-1.057-3.162-.749.463-1.362-.094-1.362-1.237s-.505-2.079-1.121-2.079-3.723-2.55-6.902-5.667c-4.439-4.352-5.262-5.767-3.546-6.098 1.23-.237 2.236-.874 2.236-1.415s3-1.752 6.667-2.692c5.421-1.389 7.913-1.389 13.333 0 3.667.94 6.667 2.195 6.667 2.79s.943 1.081 2.095 1.081c4.443 0 9.391 7.978 7.332 11.824-1.222 2.284-4.55 3.551-13.403 5.103-3.977.697-5.307 1.885-3.024 2.7.917.327 1.667 1.705 1.667 3.061s1.2 2.847 2.667 3.312 2.667 2.006 2.667 3.423.6 2.577 1.333 2.577a1.34 1.34 0 0 1 1.333 1.333c0 .886-164.22 1.333-490 1.333h-490zm231.33-6.606c.453-.733 1.731-1.333 2.841-1.333 2.329 0 5.826-3.144 5.826-5.238 0-.786.6-1.429 1.333-1.429s1.333-1.165 1.333-2.588.6-2.959 1.333-3.412 1.286-2.439 1.228-4.412-.408-2.838-.778-1.921-2.722 1.667-5.228 1.667-4.556.637-4.556 1.416c0 .898-4.02 1.352-11 1.242-16.512-.26-18.333-.118-18.333 1.437 0 2.094 3.497 5.238 5.826 5.238 1.109 0 2.387.6 2.841 1.333s1.768 1.333 2.922 1.333 3.077 1.05 4.273 2.333c2.268 2.433 6.804 5.453 8.392 5.588.507.043 1.292-.522 1.745-1.255zm49.314-12.277c3.311-.885 6.019-2.085 6.019-2.667s1.068-1.057 2.372-1.057 3.237-1.2 4.294-2.667 2.64-2.667 3.517-2.667 1.831-.709 2.12-1.576c.651-1.952 15.545-1.777 17.527.206 1.773 1.773 19.503 1.807 19.503.037 0-.733-.9-1.333-2-1.333s-2-.504-2-1.119c0-2.969-17.767-8.608-24.528-7.785-9.472 1.153-17.37 3.265-17.875 4.779-.267.802-1.636 1.459-3.042 1.459s-2.556.6-2.556 1.333-.62 1.333-1.378 1.333c-2.149 0-10.622 9.005-10.622 11.289 0 2.465.889 2.51 8.648.435zm14.019-2.39c0-.733-.265-1.333-.588-1.333s-.959.6-1.412 1.333-.189 1.333.588 1.333 1.412-.6 1.412-1.333zm74.667-5.333c0-.733 1.5-1.333 3.333-1.333 3.865 0 4.125-.732 1.273-3.584-1.549-1.549-4.036-1.918-10.02-1.485-8.73.631-13.409 3.248-8.23 4.602 1.637.428 2.977 1.309 2.977 1.956s2.4 1.178 5.333 1.178 5.333-.6 5.333-1.333zm427.55-3c-.37-.917-.673-.167-.673 1.667s.303 2.583.673 1.667.37-2.417 0-3.333zm-420.88-10.333c0-3.158-.845-3.346-3.429-.762s-2.396 3.429.762 3.429c1.778 0 2.667-.889 2.667-2.667zm643.33 42.667c.453-.733 2.289-1.333 4.079-1.333s3.255-.572 3.255-1.271c0-2.487 8.64-3.743 15.743-2.288 5.257 1.077 6.924 1.997 6.924 3.822 0 2.177-1.452 2.403-15.412 2.403-9.935 0-15.119-.474-14.588-1.333zm42 .111c0-.672-1.65-1.825-3.667-2.561-3.301-1.206-2.975-1.35 3.269-1.444 6.108-.093 7.477-.662 11.468-4.772 3.237-3.333 5.7-4.667 8.62-4.667 2.248 0 4.359-.75 4.691-1.667.483-1.333 1.168-1.333 3.426 0 1.553.917 4.331 1.667 6.174 1.667s3.351.6 3.351 1.333.636 1.333 1.412 1.333 1.041-.6.588-1.333c-.508-.822 1.764-1.333 5.921-1.333 3.71 0 6.745-.5 6.745-1.111 0-1.417 2.319-1.669 14.86-1.613 7.439.033 10.383-.449 10.895-1.784.438-1.143 1.958-1.589 4.049-1.189 1.841.352 4.138-.033 5.105-.856l4.855-4.045c2.63-2.165 2.865-2.982 1.559-5.423-.846-1.581-1.34-3.004-1.097-3.163 5.376-3.524 8.189-4.816 10.49-4.816 3.314 0 6.618-2.948 6.618-5.905 0-1.578 1.408-2.095 5.706-2.095 4.176 0 6.221-.715 7.628-2.667 1.967-2.73 8-3.735 8-1.333 0 .733-.9 1.333-2 1.333s-2 .343-2 .762c0 1.597 3.904 4.571 6 4.571 2.474 0 6 3.078 6 5.238 0 .786.6 1.429 1.333 1.429s1.333-.9 1.333-2c0-5.457 4 .657 5.888 9 .456 2.017 1.418 3.667 2.138 3.667s1.308 1.128 1.308 2.506 2.313 4.889 5.139 7.801 5.543 6.906 6.037 8.875c.522 2.081 2.278 4.104 4.194 4.833 1.813.689 3.296 1.568 3.296 1.953s-38.1.7-84.667.7c-50.424 0-84.667-.494-84.667-1.222zm87.843-2.652c1.449-.917 1.237-1.359-.988-2.066-3.195-1.014-5.957.156-4.798 2.032.957 1.548 3.372 1.562 5.786.033zm36.157-29.459a1.34 1.34 0 0 0-1.333-1.333 1.34 1.34 0 0 0-1.333 1.333 1.34 1.34 0 0 0 1.333 1.333 1.34 1.34 0 0 0 1.333-1.333zm55.333 32c1.053-1.704 12.697-1.704 15.333 0 1.4.905-.725 1.299-7.079 1.313-5.718.013-8.774-.473-8.255-1.313zm26.588-.709c1.424-1.077 3.524-1.96 4.667-1.964s3.996-1.803 6.34-4 5.194-3.994 6.333-3.994 2.072-.5 2.072-1.111.828-1.111 1.84-1.111 4.717-1.353 8.234-3.006c3.946-1.855 7.709-2.725 9.827-2.271 12.23 2.618 12.099 2.621 12.099-.349 0-1.55.6-2.818 1.333-2.818s1.333-1.5 1.333-3.333c0-2.373.722-3.333 2.505-3.333 1.542 0 3.161-1.583 4.211-4.12 1.55-3.742 2.146-4.06 6.495-3.47 2.634.358 7.189 1.367 10.122 2.244 8.961 2.678 13.882 3.051 17.958 1.363 3.52-1.458 4.23-1.284 7.303 1.79 1.873 1.873 3.405 4.082 3.405 4.91s.75 1.24 1.667.917 1.568-1.667 1.447-2.986c-.286-3.124 2.639-5.981 6.125-5.981 1.821 0 2.762-.86 2.762-2.524 0-2.624 2.452-4.143 6.686-4.143 1.357 0 2.849-1.2 3.314-2.667s1.656-2.667 2.645-2.667 2.038-.718 2.331-1.595c.332-.996 2.842-1.476 6.684-1.277 5.829.302 6.174.123 6.579-3.393.459-3.987 4.649-5.945 6.458-3.019 1.611 2.607 7.97.419 7.97-2.741 0-1.453.56-2.641 1.244-2.641s1.634-1.232 2.112-2.737c.738-2.326 1.191-2.476 3.013-1 1.598 1.295 1.889 1.313 1.142.07-.735-1.224.436-1.667 4.411-1.667 4.468 0 5.412-.451 5.412-2.588 0-1.423.552-2.929 1.226-3.346 1.341-.829 5.441 2.709 5.441 4.695 0 .681 1.75 1.238 3.889 1.238s4.137.745 4.44 1.655c.414 1.242 1.036 1.158 2.493-.333 4.841-4.958 9.178-11.83 9.178-14.543 0-5.12 3.11-6.797 12.869-6.944 5.558-.083 9.221.435 9.525 1.348.272.816 1.645 1.483 3.05 1.483s2.556.508 2.556 1.129 1.12 2.421 2.49 4c1.993 2.297 3.973 2.871 9.921 2.871 4.087 0 7.802.6 8.256 1.333s3.777 1.333 7.387 1.333c6.994 0 7.213-.247 8.24-9.284.286-2.514 1.387-3.49 4.698-4.163 2.379-.484 5.13-1.547 6.114-2.364 2.209-1.833 13.275-1.047 13.955.991.273.817 2.805 1.486 5.628 1.486 3.961 0 5.326.608 5.979 2.667.465 1.467 1.406 2.667 2.09 2.667s1.243.9 1.243 2 .6 2 1.333 2 1.333.9 1.333 2 .471 2 1.046 2c1.026 0 5.621 6.98 5.621 8.539 0 .437-1.5.794-3.333.794s-3.333.6-3.333 1.333 1.8 1.333 4 1.333c3.111 0 4-.593 4-2.667 0-2.205.889-2.667 5.136-2.667 3.89 0 6.153.973 9.333 4.012 2.309 2.206 4.198 4.541 4.198 5.188 0 1.674 9.426 2.619 13 1.304 1.767-.65 3-.589 3 .149 0 .689 1.276 1.936 2.836 2.771 2.212 1.184 3.092 1.121 4-.286.929-1.44 1.384-1.463 2.257-.114.852 1.317 2.61 1.023 7.969-1.333 6.232-2.741 6.878-3.429 6.907-7.357.028-3.919.414-4.333 4.032-4.333 3.036 0 4 .608 4 2.524 0 1.388.9 2.869 2 3.291s2 1.986 2 3.476c0 1.82.875 2.709 2.667 2.709 1.778 0 2.667.889 2.667 2.667 0 1.467.6 2.667 1.333 2.667s1.333 1.2 1.333 2.667.6 2.667 1.333 2.667 1.333 1.243 1.333 2.762c0 4.907 2.957 6.336 13.112 6.336 9.419 0 9.603.068 14.775 5.451 2.994 3.117 6.484 5.451 8.149 5.451 2.529 0 5.015 1.549 12.986 8.093 1.919 1.576 5.645-1.307 5.645-4.368 0-2.569 4.943-6.458 7.138-5.615 1.018.391 2.786-.224 3.928-1.366 2.565-2.565 15.003-2.881 16.156-.41.622 1.333.933 1.333 1.555 0 .48-1.028 3.504-1.667 7.889-1.667s7.409-.639 7.889-1.667c.622-1.333.933-1.333 1.555 0 1.511 3.239 4.556 1.775 4.556-2.191 0-2.122.841-4.18 1.87-4.575 2.343-.899 3.464.175 3.464 3.321 0 2.001 1.067 2.444 5.889 2.444 3.4 0 6.223.704 6.68 1.667.435.917.526-.433.201-3s-.28-3.917.097-3 1.802 1.667 3.164 1.667 2.848.6 3.301 1.333c1.393 2.255 3.333 1.479 3.333-1.333 0-2.316.889-2.667 6.762-2.667 6.66 0 10.571 2.004 10.571 5.416 0 2.762 7.16 7.914 11 7.915 2.017.001 3.667.629 3.667 1.396 0 2.43 6.435 7.939 9.273 7.939 1.5 0 2.727.453 2.727 1.007s2.224 1.703 4.942 2.554c4.449 1.392 5.188 1.263 7.408-1.298 1.948-2.246 2.7-2.468 3.574-1.054 1.34 2.167 8.431 2.393 9.132.291.618-1.856 5.611-2.004 5.611-.167 0 .733 1.843 1.333 4.095 1.333 4.085 0 7.905 2.531 7.905 5.238 0 .786-.75 1.438-1.667 1.449-1.111.014-1 .451.333 1.313 2.628 1.698 4 1.665 4-.095 0-.786.917-2.346 2.038-3.467 1.809-1.809 2.522-1.817 6.333-.071 8.591 3.935 10.783 3.868 13.652-.415 3.244-4.841 7.309-5.294 7.309-.814 0 2.957.379 3.101 6.599 2.504 4.94-.475 7.142-.09 8.762 1.529 3.133 3.133 7.306 2.791 7.306-.599 0-2.614 2.81-6.571 4.667-6.571 1.776 0 4.667-3.905 4.667-6.305 0-1.372.72-3.215 1.6-4.095 1.87-1.87 8.571-2.147 9.652-.398.409.661 4.344 1.62 8.745 2.131 6.65.772 8.002 1.357 8.002 3.464 0 1.395.9 2.536 2 2.536s2 .6 2 1.333 1.2 1.333 2.667 1.333c1.481 0 2.667.889 2.667 2 0 1.1.558 2 1.24 2s1.432 1.35 1.667 3 .876 2.85 1.426 2.667 3.7-.333 7-.333c4.24 0 6-.545 6-1.857 0-3.889 4.446-3.646 8.56.469l4.055 4.055-377.31-.042-374.72-2zm231.41-11.291c0-.733.9-1.333 2-1.333 2.638 0 2.594-5.225-.076-9.037-1.462-2.087-3.434-2.963-6.667-2.963-4.224 0-4.591.323-4.591 4.048 0 2.359 1.251 5.384 3 7.252 3.109 3.321 6.333 4.356 6.333 2.034zm-169.33-3.857c0-2.533-3.044-4.654-4.536-3.162-1.913 1.913-.673 5.686 1.87 5.686 1.728 0 2.667-.889 2.667-2.524zm313.33-7.476c0-1.244-1.259-2-3.333-2-3.237 0-4.257 1.298-2.444 3.111 1.677 1.677 5.778.889 5.778-1.111zm-73.333-15.067c0-1.884-3.127-4.267-5.6-4.267-2.716 0-3.28 3.423-.733 4.45 2.677 1.08 6.333.974 6.333-.184zm-14.53-16.6c2.102-2.383 3.831-5.083 3.842-6s.621-1.667 1.355-1.667 1.333-.9 1.333-2 .6-2 1.333-2 1.333-1.2 1.333-2.667.75-2.685 1.667-2.707c.929-.023.638-.64-.657-1.394-2.292-1.335-2.708-1.154-8.055 3.517-.891.778-3.57 2.275-5.954 3.326s-4.333 2.664-4.333 3.585-.6 1.674-1.333 1.674-1.333 2.4-1.333 5.333c0 4.864.307 5.333 3.491 5.333 2.266 0 4.832-1.521 7.312-4.333zm-60.136-21.667c0-2.444-.711-3.333-2.667-3.333-4.693 0-3.156 6.054 1.667 6.561.55.058 1-1.395 1-3.228zm529.33 76.667c0-.733 1.2-1.333 2.667-1.333s2.667.6 2.667 1.333-1.2 1.333-2.667 1.333-2.667-.6-2.667-1.333zm20 .09c0-.684 1.124-1.6 2.498-2.036 1.577-.501 2.776-2.504 3.252-5.437.831-5.124 3.597-8.617 6.822-8.617 3.044 0 2.568-2.337-.687-3.37-3.472-1.102-11.884.383-11.884 2.097 0 2.421-7.321 1.333-8.988-1.336-2.633-4.216 2.358-6.725 13.38-6.725 9.295 0 12.942 1.623 12.942 5.762 0 2.334 2.809 3.571 8.109 3.571 2.14 0 3.891.6 3.891 1.333s1.2 1.333 2.667 1.333c1.647 0 2.671.892 2.677 2.333.013 3.142 5.855 5.657 13.256 5.709 3.337.023 7.057.795 8.266 1.715 1.257.956 4.54 1.449 7.667 1.151 5.251-.501 5.468-.706 5.468-5.143 0-5.062 2.459-8.405 6.238-8.479 1.336-.026 3.886-.855 5.667-1.841 4.205-2.329 13.411-1.142 16.251 2.096 1.655 1.887 4.056 2.459 10.333 2.459 4.562 0 8.177-.589 8.177-1.333 0-.733 1.38-1.333 3.067-1.333s3.787-.72 4.667-1.6c1.244-1.244 1.956-1.244 3.2 0 .88.88 3.619 1.6 6.088 1.6s5.724.662 7.236 1.471c2.012 1.077 2.996 1.071 3.67-.02.511-.827 3.793-1.382 7.373-1.247 5.318.201 6.958-.322 9.333-2.98 3.863-4.323 7.958-6.557 12.015-6.557 1.843 0 3.352-.6 3.352-1.333 0-1.865 3.664-1.673 4.297.225.711 2.133 24.036 2.109 24.747-.025.633-1.898 14.956-2.089 14.956-.2 0 .733.813 1.333 1.807 1.333s4.584 2.7 7.98 6c3.997 3.884 7.356 6 9.527 6 1.844 0 3.353.6 3.353 1.333s1.05 1.352 2.333 1.376c2.495.045 7 2.963 7 4.533 0 2.517 4.352 4.758 9.238 4.758 2.986 0 5.428.6 5.428 1.333 0 .88-45.333 1.333-133.33 1.333-81.577 0-133.33-.483-133.33-1.244zm274.67-.09c0-1.671 1.415-1.671 4 0 1.617 1.045 1.426 1.296-1 1.313-1.65.011-3-.58-3-1.313zm32 0a1.34 1.34 0 0 1 1.333-1.333 1.34 1.34 0 0 1 1.333 1.333 1.34 1.34 0 0 1-1.333 1.333 1.34 1.34 0 0 1-1.333-1.333zm6.225-1.121c.599-2.292 8.75-6.879 12.223-6.879.854 0 1.552-.6 1.552-1.333s1.2-1.333 2.667-1.333 2.667-.6 2.667-1.333 2.7-1.333 6-1.333 6 .6 6 1.333 2.7 1.333 6 1.333 6-.6 6-1.333 1.532-1.333 3.406-1.333c1.973 0 5.199-1.708 7.667-4.058 2.344-2.232 5.911-4.407 7.928-4.833s3.667-1.3 3.667-1.942 1.2-1.167 2.667-1.167 2.667-.6 2.667-1.333 1.5-1.333 3.333-1.333 3.333-.6 3.333-1.333 1.765-1.333 3.921-1.333 4.292.6 4.745 1.333 1.989 1.333 3.412 1.333 2.588.6 2.588 1.333 1.116 1.333 2.481 1.333 4.691 1.5 7.392 3.333 5.485 3.333 6.186 3.333 1.274 1.2 1.274 2.667c0 1.778.889 2.667 2.667 2.667 1.467 0 2.667.6 2.667 1.333 0 2.112 4.965 1.548 5.813-.66.421-1.096 3.185-2.961 6.143-4.145 4.945-1.979 7.223-4.529 4.045-4.529-.733 0-1.333-.9-1.333-2 0-1.291 1.3-2.003 3.667-2.008 2.633-.007 4.277-1.081 5.831-3.813 1.19-2.093 4.04-4.635 6.333-5.65s4.169-2.324 4.169-2.91c0-1.008 1.201-2.667 5-6.903.917-1.022 1.667-2.801 1.667-3.954 0-1.439 1.253-2.095 4-2.095 3.682 0 4-.37 4-4.667 0-3.585.55-4.667 2.372-4.667 1.305 0 3.237-1.2 4.294-2.667s3.032-2.667 4.39-2.667 3.368-.9 4.468-2 3.157-2 4.571-2 2.572-.656 2.572-1.458c0-1.838 13.603-.178 14.865 1.814 1.293 2.042 5.21.059 4.343-2.199-.501-1.304.275-2.089 2.356-2.385 2.14-.304 3.031-1.247 2.872-3.04-.216-2.451 4.046-7.399 6.373-7.399.588 0 2.569 1.5 4.402 3.333s4.225 3.333 5.315 3.333 2.353.6 2.806 1.333c1.693 2.739 5.698 1.282 7.333-2.667.911-2.2 2.184-4 2.828-4s1.172-1.126 1.172-2.503.871-3.226 1.936-4.11c2.371-1.968 7.397-.584 7.397 2.037 0 3.05 4.08 2.213 7.571-1.553 2.377-2.564 4.035-3.256 6.39-2.665 1.973.495 3.939.039 5.181-1.203 2.383-2.383 7.702-2.624 9.878-.448 1.182 1.182 2.766.226 6.629-4 2.792-3.054 5.813-5.553 6.714-5.553 2.039 0 2.143-2.197.162-3.421-1.034-.639-.947-1.239.289-2.002.99-.612 2.524-.46 3.496.347 1.296 1.075 2.444.636 4.557-1.743 1.892-2.129 3.023-2.63 3.424-1.514.756 2.105 6.004 2.172 8.073.103 1.192-1.192 2.374-1.195 4.97-.012 2.625 1.196 4.01 1.175 6.036-.09 1.446-.903 2.63-2.098 2.63-2.655s2.4-1.013 5.333-1.013 5.333-.343 5.333-.762c0-1.238-3.153-3.986-5.667-4.937-2.855-1.081-3.021-4.07-.349-6.288 1.604-1.331 2.138-1.245 2.79.453.443 1.155 1.95 2.463 3.349 2.907s2.544 1.967 2.544 3.384.85 2.577 1.889 2.577 2.239.75 2.667 1.667c.622 1.333.933 1.333 1.555 0 .477-1.021 3.473-1.667 7.733-1.667 3.826 0 7.627-.672 8.448-1.493 1.101-1.101 2.569-1.016 5.6.325 2.259 1 4.107 2.272 4.107 2.826s.936 1.008 2.079 1.008 1.708-.6 1.255-1.333.091-1.333 1.21-1.333 4.134-2.1 6.701-4.667 5.587-4.667 6.711-4.667c1.155 0 2.044-1.159 2.044-2.667 0-1.467.85-2.667 1.889-2.667s2.191-.75 2.561-1.667c.538-1.333.694-1.333.778 0 .124 1.963 6.772 2.291 6.772.333 0-.733 2.4-1.333 5.333-1.333s5.333.6 5.333 1.333 1.5 1.333 3.333 1.333 3.333-.454 3.333-1.008 1.683-1.753 3.741-2.664c4.562-2.019 10.899.306 10.916 4.005.013 1.644 1.094 2.346 3.677 2.376 2.017.023 4.831.923 6.255 2s3.721 1.958 5.106 1.958c2.104 0 2.373.658 1.639 4-.687 3.127-.419 4 1.227 4 1.158 0 2.106.6 2.106 1.333s1.8 1.333 4 1.333 4 .577 4 1.281 1.126 2.355 2.501 3.667 2.961 3.885 3.524 5.719 2.137 4.304 3.499 5.49 2.492 3.586 2.51 5.333c.025 2.365 1.329 3.773 5.104 5.51 2.788 1.283 6.432 2.333 8.097 2.333s4.71 1.8 6.765 4c3.573 3.825 9.333 5.471 9.333 2.667 0-.733 1.597-1.333 3.548-1.333 3.688 0 11.119 6.844 11.119 10.24 0 .968.6 1.76 1.333 1.76s1.333 1.2 1.333 2.667.6 2.667 1.333 2.667 1.333 2.1 1.333 4.667.6 4.667 1.333 4.667 1.333 1.2 1.333 2.667c0 1.481.889 2.667 2 2.667 1.1 0 2 .6 2 1.333s.9 1.333 2 1.333 2-.6 2-1.333 2.1-1.333 4.667-1.333 4.667-.638 4.667-1.417 1.35-1.229 3-1c2.539.353 3.067-.279 3.432-4.11.257-2.688-.269-4.96-1.295-5.594-3.018-1.865-.195-2.808 2.907-.971 2.351 1.392 3.097 1.411 3.574.092.332-.917 2.054-1.667 3.826-1.667s3.222-.6 3.222-1.333 1.2-1.333 2.667-1.333 2.667.643 2.667 1.429c0 .849.722.714 1.78-.333.979-.969 3.379-2.954 5.333-4.412 2.581-1.925 3.553-3.84 3.553-7 0-2.864.645-4.35 1.889-4.35 1.039 0 2.129-.721 2.423-1.601s2.294-1.703 4.444-1.828c5.785-.335 5.911-.392 5.911-2.666 0-1.152.93-3.026 2.068-4.163 2.091-2.091 2.522-2.085 20.445.312 3.216.43 6.743 1.678 7.839 2.774s2.869 1.655 3.942 1.244c2.703-1.037 10.994 3.063 15.241 7.537 3.116 3.283 4.498 3.724 11.667 3.724 4.697 0 8.132.581 8.132 1.375 0 .756 2.25 1.284 5 1.171 9.053-.369 9.667-.833 9.667-7.303 0-5.362.309-5.929 3.333-6.11l5-.333c.917-.073 2.267-.883 3-1.799 2.044-2.554 11.858-1.191 15.437 2.143 1.686 1.571 4.495 2.856 6.243 2.856 3.105 0 6.985 2.723 6.988 4.905 0 .602 2.266 3.645 5.032 6.762 4.219 4.752 5.832 5.667 9.998 5.667 2.732 0 4.968.6 4.968 1.333s.756 1.333 1.68 1.333 3.401 1.595 5.504 3.545c2.938 2.724 5.406 3.626 10.653 3.893l7.83.455c.55.059 1 1.007 1 2.107 0 1.358 1.36 2 4.239 2 4.858 0 13.095-2.685 13.095-4.268 0-.586 1.2-1.065 2.667-1.065 2.159 0 2.667-.889 2.667-4.667 0-3.851.489-4.667 2.798-4.667 1.539 0 4.596 1.924 6.793 4.276 3.378 3.617 4.175 3.953 5.168 2.178 1.519-2.715 7.92-1.626 10.316 1.755 2.562 3.614 4.258 2.999 4.258-1.542 0-3.378.519-4 3.333-4 1.833 0 3.333.6 3.333 1.333 0 2.289 3.321 1.459 5.333-1.333 1.057-1.467 2.469-2.667 3.138-2.667s2.349-1.307 3.735-2.904c1.933-2.229 2.884-2.539 4.09-1.333 2.323 2.323 9.038 2.004 9.038-.429 0-1.1.75-2.071 1.667-2.157a338.33 338.33 0 0 0 5.667-.631c12.176-1.443 37.385-1.608 39.014-.257 1.349 1.12 2.341.9 4.053-.896 1.671-1.754 1.829-2.541.6-2.997-.917-.34-1.619-1.918-1.561-3.507s.408-2.139.778-1.222 1.216 1.667 1.879 1.667c1.141 0 4.723 2.63 8.624 6.333 2.637 2.503 4.453 2.007 3.666-1-.383-1.467-1.527-2.667-2.542-2.667s-1.845-1.2-1.845-2.667c0-2.227.889-2.667 5.394-2.667 5.782 0 9.265 2.594 13.51 10.063 1.461 2.57 3.51 4.091 5.902 4.382 2.016.245 5.44 2.345 7.61 4.667 2.304 2.465 4.98 4.048 6.431 3.805 1.367-.229 2.486.221 2.486 1s1.75 1.417 3.889 1.417 4.117.686 4.397 1.525c.825 2.475 6.101-1.041 6.785-4.522l.591-3.003.991 3c.545 1.65 1.521 3 2.169 3s1.178.643 1.178 1.429c0 1.458 3.907 5.957 4.397 5.064 2.66-4.851 3.539-5.888 5.28-6.231 1.132-.223 3.59 1.127 5.463 3s4.333 3.406 5.466 3.406 2.061.6 2.061 1.333c0 2.289 3.321 1.459 5.333-1.333 1.913-2.654 6.667-3.724 6.667-1.5 0 1.639 7.622 2.979 11.464 2.015 1.762-.442 3.203-1.382 3.203-2.088s.917-2.201 2.037-3.321c1.625-1.625 2.434-1.708 4-.408 1.079.896 1.963 2.467 1.963 3.492 0 1.404 1.488 1.724 6.034 1.299 4.042-.378 6.651.054 7.905 1.307 2.094 2.094 7.395 2.548 7.395.633 0-.681-.9-2.138-2-3.238s-2-3.243-2-4.762c0-1.566.866-2.762 2-2.762 1.1 0 2-.623 2-1.385s1.313-.162 2.918 1.333 3.405 2.719 4 2.719 1.082.9 1.082 2c0 3.102 7.617 2.641 8.621-.523.44-1.388 1.981-2.831 3.423-3.209s2.622-1.685 2.622-2.906c0-3.011 4.252-7.274 5.004-5.018.303.91 1.727 1.655 3.163 1.655 2.637 0 4.004-.88 9.836-6.333 3.676-3.437 7.33-3.936 7.33-1 0 1.1-.6 2-1.333 2s-1.333 1.067-1.333 2.372-1.2 3.237-2.667 4.294c-3.095 2.231-3.725 7.358-.764 6.222 1.046-.402 2.644.163 3.549 1.254 1.314 1.583 1.861 1.636 2.709.265.859-1.39 1.391-1.371 2.784.104 1.365 1.444 1.376 1.949.056 2.433-2.988 1.096-1.762 5.215 3.017 10.136 5.227 5.382 7.978 5.278 9.102-.343.414-2.068 1.146-5.329 1.628-7.248.755-3.008.443-3.503-2.269-3.594-1.729-.058-2.395-.408-1.478-.778s1.667-1.573 1.667-2.672.75-1.738 1.667-1.417 1.49 1.57 1.275 2.778c-.532 2.978 1.464 2.764 4.392-.472 3.155-3.487 8.391-3.391 12.239.224l3.077 2.891 1.473-4.224c1.082-3.106 2.291-4.224 4.564-4.224 1.701 0 3.361.75 3.69 1.667.406 1.13 1.457.702 3.268-1.333 1.468-1.65 3.349-3 4.18-3s1.51-.504 1.51-1.119c0-1.808 6.461-4.292 7.364-2.83 1.384 2.24 5.821 1.384 7.317-1.411 1.075-2.009 2.698-2.658 6.38-2.552 2.716.078 12.588-.229 21.938-.684 11.346-.552 17-.368 17 .552 0 .758 1.279 1.378 2.842 1.378 2.564 0 2.774-.555 2.149-5.667-.381-3.117-.41-4.917-.064-4s1.204 1.667 1.907 1.667 2.003.611 2.889 1.358c9.127 7.698 10.277 8.142 10.277 3.975 0-1.778-.889-2.667-2.667-2.667s-2.667-.889-2.667-2.667c0-2.283.889-2.667 6.177-2.667 6.29 0 11.156 3.287 11.156 7.537 0 .988.6 1.796 1.333 1.796s1.333 1.2 1.333 2.667c0 2.159.889 2.667 4.667 2.667 2.567 0 4.667.6 4.667 1.333s.86 1.333 1.91 1.333 2.291 1.2 2.757 2.667 2.014 2.667 3.441 2.667 3.787.6 5.243 1.333l5.297 2.667c4.152 2.09 6.685 1.585 6.685-1.333 0-1.778.889-2.667 2.667-2.667 1.467 0 2.667.807 2.667 1.793 0 2.8 4.693 6.369 7.141 5.43 1.206-.463 2.193-1.677 2.193-2.699 0-2.948 3.846-2.161 7.217 1.476 1.699 1.833 4.07 3.333 5.27 3.333s2.18.6 2.18 1.333 1.2 1.333 2.667 1.333c1.778 0 2.667-.889 2.667-2.667 0-4.172 8.46-2.811 12.435 2 .714.864 1.34.746 1.778-.333.372-.917 1.606-1.667 2.743-1.667s3.337-1.43 4.889-3.179c2.637-2.971 4.908-3.743 16.822-5.723 2.567-.427 5.117-1.448 5.667-2.27.634-.947 1.301-.396 1.822 1.505 1.481 5.403 3.178 3.148 3.178-4.222 0-4.471-.635-7.521-1.667-8.006-.917-.431.08-.546 2.214-.255 4.343.592 11.453-1.465 11.453-3.314 0-1.84 5.029-1.431 5.709.464.406 1.13 1.457.702 3.268-1.333 1.468-1.65 3.042-3 3.498-3s1.961-.97 3.345-2.155c2.455-2.102 2.473-7.179.025-7.179-.648 0-1.178-.6-1.178-1.333s1.2-1.333 2.667-1.333 2.667-.6 2.667-1.333c0-2.175 3.911-1.52 6.758 1.132 2.554 2.38 2.401 6.868-.234 6.868-1.901 0-1.377 4.004.809 6.191 1.1 1.1 2.001 3.007 2.002 4.238s1.478 3.954 3.282 6.052c2.952 3.433 3.485 3.609 5.332 1.762 1.129-1.129 2.052-2.454 2.052-2.945s1.726-2.506 3.836-4.477c3.4-3.176 3.946-4.821 4.801-14.483.946-10.691 2.552-14.163 6.191-13.384 2.69.576 5.172 3.272 5.172 5.618 0 1.346 1.192 2.095 3.333 2.095 1.833 0 3.333-.6 3.333-1.333a1.34 1.34 0 0 1 1.333-1.333c.733 0 1.333 2.065 1.333 4.588s.6 4.959 1.333 5.412 1.333 2.289 1.333 4.079.6 3.255 1.333 3.255 1.333.935 1.333 2.079.6 1.708 1.333 1.255 1.333.082 1.333 1.191 2.1 4.054 4.667 6.547 4.667 5.449 4.667 6.569 1.72 2.749 3.822 3.62c3.754 1.555 5.851 4.458 7.518 10.407.973 3.473 5.994 4.192 5.994.857 0-1.402.726-1.864 2.099-1.337 1.154.443 3.052-.147 4.216-1.312 1.771-1.771 1.816-2.303.273-3.257-1.014-.627-1.329-1.623-.7-2.212s1.412-.323 1.739.594 1.745 1.667 3.151 1.667 2.556.6 2.556 1.333.85 1.333 1.889 1.333 2.193.75 2.565 1.667c.536 1.321.927 1.311 1.884-.045 1.297-1.837 5.662-.848 5.662 1.283 0 1.73 3.46 5.095 5.238 5.095.786 0 1.428-1.2 1.428-2.667 0-4.091 1.839-3.203 8.974 4.337 3.317 3.504 3.589 3.566 6.019 1.368s2.662-2.151 5.08.996c1.394 1.815 2.548 4.349 2.565 5.632.037 2.967.828 2.936 4.152-.161 3.759-3.502 14.126-4.753 18.056-2.178 1.683 1.103 4.582 2.005 6.441 2.005s3.38.6 3.38 1.333c0 1.737 7.593 1.737 8.667 0 1.446-2.34 7.98-1.469 10 1.333 2.526 3.505 6.667 3.505 6.667 0 0-3.898 2.099-3.256 3.948 1.206 1.623 3.917 5.421 5.875 8.848 4.56 1.253-.481 1.871-2.872 1.871-7.242 0-3.588.6-6.524 1.333-6.524s1.333-1.031 1.333-2.291 1.523-3.6 3.385-5.199c2.672-2.296 4.497-2.76 8.667-2.2 4.636.622 5.282.381 5.282-1.971 0-4.267 3.431-6.359 7.436-4.535 4.21 1.918 7.231 1.96 7.231.101 0-.786.75-2.212 1.667-3.17s2.533-2.992 3.591-4.521c1.444-2.086 2.359-2.418 3.667-1.333 1.258 1.044 1.742 1.03 1.742-.051 0-.823 1.5-1.497 3.333-1.497 2.376 0 3.333-.721 3.333-2.511 0-3.937 4.751-4.402 6.753-.661 1.042 1.948 2.897 3.172 4.806 3.172 1.709 0 3.108.6 3.108 1.333s1.05 1.314 2.333 1.291c2.382-.043 9.667-10.576 9.667-13.978 0-1.02.696-3.383 1.547-5.251 1.454-3.19 2.141-3.396 11.333-3.396 5.635 0 9.786.566 9.786 1.333 0 .733.905 1.333 2.012 1.333s3.896 1.8 6.198 4c3.572 3.413 5.221 4 11.242 4 3.881 0 7.428.6 7.881 1.333 1.158 1.873 11.8 1.666 13.733-.267.88-.88 1.609-3.13 1.62-5 .029-4.939 1.38-6.375 6.983-7.426 2.748-.516 4.997-1.394 4.997-1.953 0-.795 8.083-.876 13.511-.136.464.063 1.158 1.315 1.542 2.782.534 2.043 1.819 2.667 5.489 2.667 2.635 0 4.792.573 4.792 1.273s1.5 2.773 3.333 4.606 3.333 3.961 3.333 4.727.56 1.394 1.243 1.394 1.624 1.2 2.09 2.667c.678 2.138 2.017 2.667 6.754 2.667 5.037 0 6.723.768 11.445 5.216 5.861 5.52 10.934 7.341 14.756 5.296 2.317-1.24 7.712.957 7.712 3.142 0 2.307 9.105.762 15.642-2.654 5.876-3.07 7.018-4.263 7.021-7.333 0-5.677 4.176-4.661 8.417 2.049 1.987 3.143 4.807 6.576 6.266 7.628s2.653 2.98 2.653 4.285.6 2.372 1.333 2.372 1.333 1.5 1.333 3.333.6 3.333 1.333 3.333 1.333 1.2 1.333 2.667c0 2.062.889 2.667 3.921 2.667 2.157 0 4.292.6 4.745 1.333 1.176 1.902 3.333 1.649 3.333-.391 0-.948 1.931-2.298 4.292-3 2.948-.876 4.532-2.315 5.057-4.596.516-2.238 1.098-2.781 1.787-1.667 1.215 1.965 8.864 2.242 8.864.32 0-.733 1.131-1.333 2.513-1.333 1.832 0 3.097-1.785 4.667-6.584 1.184-3.621 2.154-7.989 2.154-9.706s1.2-3.987 2.667-5.044 2.667-2.415 2.667-3.017 1.05-2.179 2.333-3.504c1.89-1.951 3.185-2.18 6.811-1.202 2.666.719 4.752 2.256 5.156 3.799.9 3.441 3.033 3.32 3.033-.171 0-4.387 3.373-7.001 6.72-5.209 3.09 1.654 4.4.946 11.153-6.029 2.494-2.576 4.076-3.407 4.444-2.333.936 2.729 8.846 2.011 11.016-1 2.151-2.985 6.121-3.547 7.056-1 .489 1.333.964 1.333 2.378 0 1.135-1.071 5.923-1.667 13.391-1.667 12.73 0 15.842-.678 15.842-3.451 0-1.008 1.65-2.199 3.667-2.648s4.862-1.147 6.323-1.551c2.348-.65 2.442-.477.811 1.488-1.612 1.942-1.559 2.113.419 1.354 1.443-.554 4.413.674 8.189 3.386 6.107 4.386 8.055 3.553 3.155-1.348-3.913-3.913-2.436-6.233 4.026-6.322 5.567-.077 10.744 3.461 10.744 7.343 0 .962.56 1.749 1.243 1.749s1.624 1.2 2.09 2.667c.562 1.77 2.017 2.667 4.328 2.667 2.218 0 4.968 1.592 7.577 4.386 2.284 2.447 6.748 5.206 10.095 6.24 3.3 1.02 6.602 2.296 7.337 2.837 1.576 1.158 5.996-1.749 5.996-3.944 0-.836.6-1.52 1.333-1.52s1.334.45 1.335 1 1.534 2.782 3.407 4.96c2.804 3.26 3.624 3.613 4.645 2 .682-1.078 1.248-2.41 1.26-2.96.045-2.207 7.522-.875 9.354 1.667 1.057 1.467 2.99 2.667 4.294 2.667s2.372.6 2.372 1.333c0 2.492 5.149 1.347 6-1.333s6-3.825 6-1.333c0 .733 1.15 1.333 2.556 1.333s2.795.719 3.088 1.597c.407 1.22 1.533 1.182 4.778-.162 2.335-.967 4.245-2.171 4.245-2.675s.766-1.964 1.702-3.244c2.116-2.894 6.298-1.592 6.298 1.96 0 2.81 3.398 3.465 4.45.857.538-1.333.694-1.333.778 0 .063.996 1.984 1.667 4.772 1.667h4.667l.043 7.667.043 7.667 3.301-3.752c2.994-3.404 3.495-3.559 5.386-1.667 1.147 1.147 2.986 2.086 4.086 2.086 4.097 0 10.273 9.98 10.093 16.309-.08 2.796.52 3.691 2.473 3.691 1.418 0 2.577-.6 2.577-1.333a1.34 1.34 0 0 1 1.333-1.333c.733 0 1.333 1.2 1.333 2.667s.6 2.667 1.333 2.667 1.333.856 1.333 1.902c0 2.316 7.425 6.235 9.966 5.26 1.006-.386 3.394 1.054 5.307 3.201 3.366 3.778 3.697 3.86 10.278 2.559 4.769-.943 7.493-.912 9.12.105 1.508.942 2.776.994 3.621.149.715-.715 3.458-1.439 6.096-1.607s5.229-.741 5.76-1.271c2.94-2.94 11.186 3.59 11.186 8.858 0 2.834.628 3.512 3.255 3.512 1.79 0 3.625.6 4.079 1.333 1.32 2.136 3.086 1.547 4-1.333 1.226-3.863 4.355-3.282 8.978 1.667l4.048 4.333-333.73.336c-183.55.185-334.08-.047-334.51-.516s-.031-1.12.886-1.447c1.096-.391 1.667-3.495 1.667-9.061 0-7.295-.369-8.583-2.667-9.312-1.467-.466-2.667-1.406-2.667-2.09 0-2.171-3.97-1.345-8.054 1.674-2.17 1.605-3.946 3.705-3.946 4.667s-.6 1.749-1.333 1.749-1.333 1.2-1.333 2.667-.6 2.667-1.333 2.667-1.333 1.5-1.333 3.333.6 3.333 1.333 3.333a1.34 1.34 0 0 1 1.333 1.333c0 .883-67.747 1.333-200.57 1.333h-200.57l-.426-3c-.327-2.299-1.438-3.098-4.76-3.418-3.87-.373-4.333-.053-4.333 3v3.418h-230.75c-153.49 0-230.47-.446-229.92-1.333.453-.733-.411-1.333-1.921-1.333s-2.745.6-2.745 1.333c0 .886-123.29 1.333-367.21 1.333-355.95 0-367.19-.075-366.57-2.454zm533.78-3.146c0-2.154-.394-2.539-1.484-1.45-.816.816-1.081 2.136-.588 2.933 1.379 2.232 2.072 1.736 2.072-1.484zm1481.9 2.124c1.16-.445 2.109-1.945 2.109-3.333s.6-2.524 1.333-2.524a1.34 1.34 0 0 0 1.333-1.333c0-.733-1.15-1.333-2.556-1.333s-2.86-.75-3.232-1.667c-1.019-2.51-3.501 1.557-3.526 5.778-.028 4.77 1 5.77 4.537 4.413zm-671.47-6.868c.518-5.36-2.592-5.926-4.887-.889-1.81 3.971-.903 6.228 2.261 5.63 1.402-.265 2.362-1.997 2.627-4.74zm-161.39 1.011c-1.282-2.052-3.109-2.667-7.932-2.667-3.447 0-6.638-.6-7.091-1.333-1.394-2.255-3.333-1.479-3.333 1.333 0 1.751.889 2.667 2.588 2.667 1.423 0 2.959.6 3.412 1.333s3.794 1.333 7.423 1.333c6.265 0 6.515-.135 4.934-2.667zm296.31-2.088c0-4.575-5.084-11.246-8.572-11.246-3.167 0-2.603 6.22.905 9.966 3.43 3.663 7.667 4.37 7.667 1.28zm59.524-14.579c2.171-2.171 1.848-2.443-1.415-1.191-1.16.445-2.109 1.345-2.109 2 0 1.746 1.257 1.457 3.524-.809zm-1308-5.58c-1.014-1.014-4.864 3-4.864 5.07 0 .93 1.25.338 2.801-1.326 1.54-1.653 2.469-3.338 2.064-3.744zm904.47-3.087c2.813-2.2 2.954-2.612.905-2.637-2.279-.028-6.238 2.855-6.238 4.542 0 1.422 1.989.711 5.333-1.905zm568.39 0c.559-2.137.041-2.667-2.606-2.667-2.988 0-7.113 2.651-7.113 4.571 0 .419 2.03.762 4.511.762 3.39 0 4.684-.663 5.208-2.667zm-680.39-1.333c0-.733-2.1-1.333-4.667-1.333s-4.667.6-4.667 1.333 2.1 1.333 4.667 1.333 4.667-.6 4.667-1.333zm323.1.456c1.517-1.517-1.953-4.456-5.263-4.456-2.281 0-3.17.748-3.17 2.667 0 2.039.889 2.667 3.778 2.667 2.078 0 4.173-.395 4.655-.877zm104.9-3.567c0-.978-.379-2.157-.842-2.62-1.256-1.257-6.025 1.662-5.117 3.131 1.188 1.923 5.959 1.513 5.959-.511zm-1185.8-2.898c2.645-1.105 5.846-3.205 7.114-4.667s2.836-2.657 3.484-2.657 2.53-2.55 4.181-5.667c4.516-8.526 3.728-15.569-1.006-9-1.057 1.467-2.69 2.667-3.628 2.667s-1.706.6-1.706 1.333-.957 1.333-2.128 1.333-4.02.986-6.333 2.19c-7.75 4.036-8.826 4.476-10.95 4.476-4.823 0-8.434 9.431-4.256 11.117 3.37 1.36 10.548.829 15.228-1.126zm777.77-.086c0-1.564-3.884-4.571-5.905-4.571-2.343 0-2.435.23-1.286 3.224.737 1.921 7.191 3.13 7.191 1.347zm-809.33-2.632c0-1.002-6.352-7.273-7.368-7.273-1.615 0-4.632 3.846-4.632 5.905 0 1.594 1.434 2.095 6 2.095 3.3 0 6-.327 6-.727zm1227.2-1.382c1.389-3.62.893-5.891-1.286-5.891-2.695 0-5.905 3.21-5.905 5.905 0 2.793 6.118 2.781 7.191-.014zm-1174.4-2.462c2.777-2.777 2.378-3.429-2.095-3.429-3.111 0-4 .593-4 2.667 0 3.122 3.32 3.537 6.095.762zm889.9-3.35c0-1.423-.6-2.959-1.333-3.412-.756-.467-1.333.653-1.333 2.588 0 1.877.6 3.412 1.333 3.412s1.333-1.165 1.333-2.588zm-324-6.079c0-1.1-.6-2-1.333-2s-1.333.9-1.333 2 .6 2 1.333 2 1.333-.9 1.333-2zm522.56-4.238c-.061-1.4-.39-1.723-.778-.762-.37.917-1.523 1.667-2.561 1.667-1.903 0-2.595 2.849-1.064 4.381 1.291 1.291 4.52-2.585 4.403-5.286zm694.77 2.159c0-.69-.6-1.255-1.333-1.255s-1.333.935-1.333 2.079.6 1.708 1.333 1.255 1.333-1.389 1.333-2.079zm-24-5.255c0-.733 2.1-1.333 4.667-1.333 5.016 0 5.614-.62 3-3.112-3.758-3.583-9.125-6.22-12.62-6.201-6.569.036-14.341 3.454-14.806 6.514-.365 2.4.253 2.799 4.333 2.799 2.618 0 4.759.6 4.759 1.333s2.4 1.333 5.333 1.333 5.333-.6 5.333-1.333zm273.64 62.667c.916-1.467 2.121-2.667 2.678-2.667s1.013-2.1 1.013-4.667.6-4.667 1.333-4.667 1.333-1.5 1.333-3.333.6-3.333 1.333-3.333 1.333.9 1.333 2c0 3.033 2.153 2.4 4.963-1.458 1.876-2.576 3.775-3.494 7.444-3.598 2.709-.077 4.926-.621 4.926-1.209s3.171-1.069 7.046-1.069c6.415 0 7.257.358 9.409 4 1.678 2.84 3.404 4.013 5.954 4.044 5.244.065 9.591 4.236 9.591 9.202 0 3.203.762 4.443 3.333 5.42 8.456 3.215 2.567 4-30.011 4-33.011 0-33.328-.027-31.679-2.667zm-2759-18c0-3.591.867-4.025 4-2 1.333.862 1.444 1.299.333 1.313-.917.011-1.667.92-1.667 2.02s-.6 2-1.333 2-1.333-1.5-1.333-3.333zm465.33-5.191c0-1.868 3.833-4.087 5.016-2.904.677.677-2.973 4.762-4.254 4.762-.419 0-.762-.836-.762-1.857zm-445-2.437c-3.718-1.793-3.89-3.706-.333-3.706 1.467 0 2.667-.6 2.667-1.333s1.165-1.333 2.588-1.333 2.959-.6 3.412-1.333c1.247-2.017 7.261-1.596 9.524.667 1.1 1.1 1.357 2 .571 2s-1.428.643-1.428 1.429c0 4.707-10.224 6.879-17 3.611zm-2005.4-3.112c-2.898-3.284 1.105-5.927 8.978-5.927 5.873 0 6.762.351 6.762 2.667 0 2.074-.889 2.667-4 2.667-2.2 0-4 .6-4 1.333 0 2.039-5.774 1.488-7.74-.739zm18.407-.594c0-1.778.889-2.667 2.667-2.667 3.158 0 3.346.845.762 3.429s-3.429 2.396-3.429-.762zm1081.3-1.333c0-2.2.535-4 1.189-4s1.565-1.5 2.025-3.333c.696-2.773 1.633-3.333 5.573-3.333 7.765 0 11.908 6.586 7.408 11.775-1.965 2.266-3.99 2.892-9.352 2.892-6.715 0-6.844-.075-6.844-4zm272 0c0-.733 1.085-1.333 2.412-1.333s3.529-.817 4.895-1.815c2.557-1.869 7.36-1.453 7.36.638 0 .648-.9 1.178-2 1.178s-2 .6-2 1.333-2.4 1.333-5.333 1.333-5.333-.6-5.333-1.333zm-1390.7-3.013c0-.924 1.2-2.429 2.667-3.345 2.401-1.499 2.667-1.332 2.667 1.679 0 2.456-.709 3.345-2.667 3.345-1.467 0-2.667-.756-2.667-1.679zm1938.9-2.156c-1.417-.898-1.325-1.301.454-1.984 2.64-1.013 5.026.146 3.935 1.911-.941 1.523-2.071 1.542-4.388.073zm-140.22-3.594c0-1.564 3.884-4.571 5.905-4.571 2.599 0 2.653.966.19 3.429-1.862 1.862-6.095 2.656-6.095 1.143zm241.67-1.233c-.917-1.041-1.667-4.018-1.667-6.616s-.6-4.723-1.333-4.723-1.333-.9-1.333-2c0-1.535 1.704-2 7.333-2h7.333v5.796c0 8.87-6.026 14.435-10.333 9.543zm456.48-2.781c-1.208-3.148-1.133-3.224 3.191-3.224 3.111 0 4 .593 4 2.667 0 3.301-5.961 3.763-7.191.558zm-2400.3-2.667c.445-1.16.809-2.36.809-2.667s.9-.558 2-.558 2-.6 2-1.333 1.2-1.333 2.667-1.333c3.122 0 3.537 3.32.762 6.095-2.728 2.728-9.3 2.565-8.238-.204zm1123.5.776c0-.733 1.2-1.333 2.667-1.333s2.667.6 2.667 1.333-1.2 1.333-2.667 1.333-2.667-.6-2.667-1.333zm806.67 0c0-.733 1.2-1.333 2.667-1.333s2.667.6 2.667 1.333-1.2 1.333-2.667 1.333-2.667-.6-2.667-1.333zm-1413.3-2.667c0-.733 1.2-1.333 2.667-1.333s2.667.6 2.667 1.333-1.2 1.333-2.667 1.333-2.667-.6-2.667-1.333zm-566.67-3.333c0-2.245 1.15-2.498 3.779-.832 1.419.899 1.329 1.3-.442 1.98-3.102 1.191-3.336 1.11-3.336-1.148zm2176.6.591c-.479-.775-.503-2.873-.055-4.663.719-2.866 1.131-3.057 3.459-1.603 3.171 1.98 3.463 5.742.533 6.866-2.78 1.067-2.921 1.045-3.938-.6zm-1167.3-3.179c0-1.143.6-2.079 1.333-2.079s1.333.565 1.333 1.255-.6 1.626-1.333 2.079-1.333-.111-1.333-1.255zm-706-.745c-1.231-1.992.482-4 3.412-4 1.423 0 2.588-.6 2.588-1.333s1.2-1.333 2.667-1.333 2.667-.6 2.667-1.333 3.3-1.333 7.333-1.333 7.333.343 7.333.762c0 1.709-3.976 4.571-6.349 4.571-1.397 0-2.969.429-3.493.953-.836.836-11.932 4.163-14.412 4.321-.507.032-1.292-.541-1.745-1.275zm1700.7-5.333c0-.733-.643-1.333-1.428-1.333-1.499 0-5.238-3.263-5.238-4.571 0-.419 1.2-.762 2.667-.762s2.667.6 2.667 1.333.9 1.333 2 1.333c1.111 0 2 1.185 2 2.667 0 1.467-.6 2.667-1.333 2.667a1.34 1.34 0 0 1-1.333-1.333zm-1952-2.667a1.34 1.34 0 0 1 1.333-1.333 1.34 1.34 0 0 1 1.333 1.333 1.34 1.34 0 0 1-1.333 1.333 1.34 1.34 0 0 1-1.333-1.333zm2046.7 0a1.34 1.34 0 0 1 1.333-1.333 1.34 1.34 0 0 1 1.333 1.333 1.34 1.34 0 0 1-1.333 1.333 1.34 1.34 0 0 1-1.333-1.333zm1806.7-2.667c0-.733.9-1.333 2-1.333s2 .6 2 1.333-.9 1.333-2 1.333-2-.6-2-1.333zm-3309-3c.84-2.523 5.001-2.882 5.001-.431 0 1.237-1.14 2.098-2.778 2.098-1.629 0-2.548-.689-2.223-1.667zm1590.6.498c-1.417-.898-1.325-1.301.454-1.984 2.64-1.013 5.026.146 3.935 1.911-.941 1.523-2.071 1.542-4.388.073zm-2158.4-5.6c1.134-5.668 1.592-6.01 4.353-3.249 2.649 2.649 1.173 6.363-2.843 7.152-2.033.399-2.255-.175-1.51-3.903zm2540.1 2.276c-1.001-2.608.363-4.841 2.956-4.841 1.309 0 1.865 1.014 1.588 2.896-.517 3.516-3.458 4.775-4.544 1.946zm-43.255-2.31c-1.079-1.541-3.911-4.958-6.294-7.594s-4.333-5.875-4.333-7.198-.6-2.406-1.333-2.406-1.333-1.2-1.333-2.667.84-2.667 1.867-2.667c1.475 0 1.732-1.821 1.227-8.667l-.64-8.667h6.191c6.182 0 6.19.007 5.773 4.333-.352 3.651-1.048 4.438-4.418 5-3.022.504-4.088 1.459-4.36 3.905-.198 1.781.108 3.581.679 4 1.694 1.242 8.347 11.922 8.347 13.4 0 .749.6 1.362 1.333 1.362s1.333 2.4 1.333 5.333c0 5.966-1.136 6.679-4.039 2.531zm-787.96-2.42c0-2.198.836-2.778 4-2.778 4.381 0 5.364 1.874 1.667 3.179-1.283.453-3.083 1.173-4 1.6-1.049.489-1.667-.253-1.667-2.001zm72 1.222a1.34 1.34 0 0 1 1.333-1.333 1.34 1.34 0 0 1 1.333 1.333 1.34 1.34 0 0 1-1.333 1.333 1.34 1.34 0 0 1-1.333-1.333zm329.02.39c1.659-.319 4.059-.307 5.333.027s-.083.595-3.016.58-3.976-.288-2.318-.607zm-341.02-3.057a1.34 1.34 0 0 1 1.333-1.333 1.34 1.34 0 0 1 1.333 1.333 1.34 1.34 0 0 1-1.333 1.333 1.34 1.34 0 0 1-1.333-1.333zm1377.3-1.333c0-1.781.889-2.667 2.678-2.667 2.344 0 2.47.332 1.013 2.667-.916 1.467-2.121 2.667-2.678 2.667s-1.013-1.2-1.013-2.667zm-3315.7-2.318c.669-3.476 5.082-3.863 5.082-.446 0 1.908-.856 2.764-2.764 2.764s-2.626-.718-2.318-2.318zm1150.4.985a1.34 1.34 0 0 1 1.333-1.333 1.34 1.34 0 0 1 1.333 1.333 1.34 1.34 0 0 1-1.333 1.333 1.34 1.34 0 0 1-1.333-1.333zm262.67 0a1.34 1.34 0 0 1 1.333-1.333 1.34 1.34 0 0 1 1.333 1.333 1.34 1.34 0 0 1-1.333 1.333 1.34 1.34 0 0 1-1.333-1.333zm1214.1-.776c-1.169-3.045-1.073-3.224 1.715-3.224 2.09 0 4.143 2.366 4.143 4.776 0 1.614-5.168.246-5.857-1.551zm1045.9-.558c0-3.124 2.069-3.455 4.762-.762s2.386 3.429-1.429 3.429c-2.444 0-3.333-.711-3.333-2.667zm-3444.4-.889c-2.749-2.749 1.03-8.444 5.604-8.444 1.476 0 3.054-.6 3.507-1.333s2.289-1.333 4.079-1.333 3.255-.6 3.255-1.333 2.4-1.333 5.333-1.333 5.333.354 5.333.787-3.056 3.733-6.792 7.333c-6.187 5.963-7.355 6.546-13.111 6.546-3.476 0-6.719-.4-7.208-.889zm1453.8.127c0-1.348 3.76-4.571 5.333-4.571s5.333 3.223 5.333 4.571c0 .419-2.4.762-5.333.762s-5.333-.343-5.333-.762zm2428-1.905c0-3.158.845-3.346 3.429-.762s2.396 3.429-.762 3.429c-1.778 0-2.667-.889-2.667-2.667zm383.65 1.87c-.438-.438-.492-1.591-.12-2.562.524-1.367 1.585-1.448 4.703-.361 2.963 1.033 3.552 1.704 2.231 2.541-2.093 1.327-5.669 1.527-6.814.382zm-4038.3-3.87c0-1.111 1.185-2 2.667-2s2.667.889 2.667 2-1.185 2-2.667 2-2.667-.889-2.667-2zm969.82 0c-.422-1.1-2.203-2-3.958-2-2.302 0-3.191-.743-3.191-2.667 0-2.032.889-2.667 3.733-2.667 2.053 0 4.389.656 5.19 1.457 1.054 1.054 2.21 1.054 4.179 0 3.738-2 4.231-1.859 4.231 1.21 0 1.467-.6 2.667-1.333 2.667s-1.333.9-1.333 2c0 1.251-1.264 2-3.375 2-1.856 0-3.72-.9-4.143-2zm2198.2 0c-.913-1.1-2.522-2-3.575-2s-1.544-.6-1.091-1.333 4.353-1.333 8.667-1.333 8.213-.6 8.667-1.333c.999-1.616 8.667-1.796 8.667-.204 0 .621 1.35 1.781 3 2.576s2.25 1.487 1.333 1.537-1.667.99-1.667 2.09c0 1.619-2.13 2-11.17 2-8.302 0-11.596-.513-12.83-2zm263 1.117c-.917-.37-1.667-1.887-1.667-3.371 0-1.913.614-2.463 2.109-1.889 1.16.445 2.36.809 2.667.809s.558 1.2.558 2.667c0 2.695-.639 3.005-3.667 1.784zm-3329.7-3.784c0-1.111 1.185-2 2.667-2 3.179 0 3.537 2.047.558 3.191s-3.224 1.053-3.224-1.191zm484.86.31c-2.398-1.757-2.383-2.075.488-10.44 3.435-10.009 7.096-15.164 9.982-14.056 2.275.873 2.894 11.519.67 11.519-.733 0-1.333 1.2-1.333 2.667s-.6 2.667-1.333 2.667-1.333.834-1.333 1.852-1.05 3.146-2.333 4.728c-2.037 2.511-2.647 2.646-4.806 1.063zm1662.5-.541c-2.2-1.198-4.97-3.286-6.156-4.64s-2.563-2.463-3.061-2.463c-1.441 0-7.45-6.404-7.45-7.939 0-.767-.6-1.394-1.333-1.394s-1.333-1.2-1.333-2.667-.6-2.667-1.333-2.667-1.333-1.2-1.333-2.667-.6-2.667-1.333-2.667c-.795 0-1.333-5.085-1.333-12.588 0-6.954.597-12.957 1.333-13.412s1.333-1.732 1.333-2.841c0-2.257 3.122-5.826 5.095-5.826.707 0 1.65.949 2.095 2.109 1.339 3.488.91 23.004-.524 23.891-2.066 1.277-1.5 5.027 1.258 8.333 1.376 1.65 2.85 3 3.274 3 1.075 0 5.259 3.512 13.742 11.535 5.988 5.664 7.186 7.535 6.827 10.667-.527 4.603-3.969 5.391-9.768 2.234zm-798.33-.959c-1.283-.974-2.333-3.355-2.333-5.291 0-4.14 2.118-4.682 3.333-.853.465 1.467 1.406 2.667 2.09 2.667s1.244 1.2 1.244 2.667c0 3.087-1.071 3.287-4.333.811zm149.36.303c-.792-2.064 2.461-7.407 3.735-6.134.432.432-.069 2.414-1.112 4.405-1.349 2.574-2.107 3.074-2.623 1.729zm204.31-2.447c0-4.474.652-4.872 3.429-2.095s2.36 6.095-.762 6.095c-2.074 0-2.667-.889-2.667-4zm1336 2c-1.833-1.048-2.583-1.927-1.667-1.953s1.667-.947 1.667-2.047c0-2.612 4.934-2.59 7.558.034 2.486 2.486 1.393 5.983-1.85 5.918-1.306-.026-3.875-.905-5.709-1.953zm1060-.667c0-2.272.889-2.667 6-2.667 3.3 0 6 .384 6 .853 0 1.819-4.841 4.397-8.333 4.438-2.792.032-3.667-.594-3.667-2.624zm-4651.6.466c-1.264-.513-1.267-1.219-.012-3.228 2.2-3.524 3.631-3.224 3.631.762 0 3.326-.56 3.707-3.619 2.466zm2669.7-.374c-.422-.683-.157-1.618.588-2.079s1.355.098 1.355 1.241c0 2.342-.8 2.687-1.943.837zm-1296.5-3.488c-.851-1.868-1.5-4.418-1.442-5.667.064-1.389.366-1.624.778-.604.37.917 1.523 1.667 2.561 1.667 1.21 0 1.889 1.438 1.889 4 0 4.894-1.707 5.166-3.786.604zm246.45-.604c0-.733 1.236-1.333 2.745-1.333s2.375.6 1.921 1.333-1.689 1.333-2.745 1.333-1.921-.6-1.921-1.333zm246.67 0c0-.733 1.5-1.333 3.333-1.333s3.333.6 3.333 1.333-1.5 1.333-3.333 1.333-3.333-.6-3.333-1.333zm859.67-9.444c-11.314-11.557-12.618-14.556-6.333-14.556 2.2 0 4 .6 4 1.333s.62 1.333 1.378 1.333c2.471 0 10.622 9.174 10.622 11.956 0 1.491.6 2.711 1.333 2.711s1.333 1.8 1.333 4-.45 3.95-1 3.889-5.65-4.861-11.333-10.667zm528.33 9.444c0-.733.9-1.333 2-1.333s2 .6 2 1.333-.9 1.333-2 1.333-2-.6-2-1.333zm1302.7 0a1.34 1.34 0 0 1 1.333-1.333 1.34 1.34 0 0 1 1.333 1.333 1.34 1.34 0 0 1-1.333 1.333 1.34 1.34 0 0 1-1.333-1.333zm-3586.7-2.667c0-.733.9-1.333 2-1.333s2 .6 2 1.333-.9 1.333-2 1.333-2-.6-2-1.333zm3633.3-2.667c0-3.232.563-4 2.933-4 2.282 0 2.578.356 1.333 1.6-.88.88-1.6 2.68-1.6 4s-.6 2.4-1.333 2.4-1.333-1.8-1.333-4zm-4088-.667c0-1.1.251-2 .558-2s1.507-.364 2.667-.809c1.512-.58 2.109-.014 2.109 2 0 1.92-.844 2.809-2.667 2.809-1.481 0-2.667-.889-2.667-2zm353.86-.109c.445-1.16.809-2.36.809-2.667s1.505-.558 3.345-.558c3.011 0 3.178.266 1.679 2.667-2.027 3.246-7.049 3.726-5.833.558zm566.32-1.377c-1.77-3.884-.785-8.94 1.587-8.149.843.281 2.079 2.414 2.746 4.74s1.726 4.229 2.353 4.229 1.14.6 1.14 1.333-1.404 1.333-3.119 1.333c-2.07 0-3.654-1.173-4.708-3.486zm2453.2-1.278c0-3.817.464-4.676 2.333-4.322 1.537.291 2.476 1.918 2.751 4.764.349 3.613-.034 4.322-2.333 4.322-2.266 0-2.751-.84-2.751-4.764zm-3831.8.919c-1.321-.837-.732-1.508 2.231-2.541 3.118-1.087 4.179-1.005 4.703.361 1.24 3.231-3.116 4.6-6.934 2.18zm1395.1-.121c-1.078-1.743 1.991-3.222 3.518-1.695.854.853.597 1.579-.74 2.092-1.126.432-2.376.253-2.778-.397zm2310-6.701c0-3.667.6-6.667 1.333-6.667s1.333-1.5 1.333-3.333c0-3.542 1.011-3.864 7.833-2.5 3.442.688 4.167 1.465 4.167 4.463 0 3.641-3.842 9.371-6.283 9.371-.717 0-2.39 1.2-3.717 2.667-3.699 4.087-4.667 3.258-4.667-4zm768.33 4.45c-1.762-.711-2.215-5.47-.857-9.008.445-1.16 2.245-2.109 4-2.109 1.947 0 3.191-.779 3.191-2 0-1.1.75-2.03 1.667-2.066s-.861-1.292-3.95-2.791-5.979-3.869-6.423-5.267c-.552-1.74-2.042-2.542-4.717-2.542-3.745 0-3.91-.253-3.91-6 0-5.66.208-6 3.676-6 4.859 0 11.68 2.01 14.326 4.222 8.353 6.982 8.824 7.809 7.91 13.901-.813 5.422-.656 5.876 2.032 5.876 3.303 0 6.723 2.889 6.723 5.68 0 1.029-3.589 3.471-7.976 5.429-7.612 3.396-12.036 4.151-15.691 2.675zm-898.19-2.559c-1.403-3.655-.88-10.618.988-13.173 2.095-2.865 4.869-1.711 4.869 2.028 0 2.332.99 2.588 10 2.588 5.778 0 10-.563 10-1.333a1.34 1.34 0 0 1 1.333-1.333c1.908 0 1.65 6.556-.333 8.444-5.318 5.064-25.192 7.121-26.857 2.78zm948.03.077c-.461-1.202-.839-4.237-.839-6.743v-4.558h7.333c4.033 0 7.333.6 7.333 1.333s.9 1.333 2 1.333c1.111 0 2 1.185 2 2.667 0 1.956-.889 2.667-3.333 2.667-1.833 0-3.333.53-3.333 1.178s-1.35 1.471-3 1.828-3.972 1.062-5.161 1.565c-1.387.587-2.462.132-3-1.271zm-654.6-.248c-1.503-.383-2.139-1.38-1.667-2.612.421-1.096.765-2.243.765-2.55s3-.558 6.667-.558 6.667-.6 6.667-1.333 3.3-1.333 7.333-1.333h7.333v-6c0-5.511.272-6 3.333-6 1.833 0 3.333-.6 3.333-1.333s1.5-1.333 3.333-1.333 3.333-.6 3.333-1.333.9-1.333 2-1.333 2-.6 2-1.333 1.2-1.333 2.667-1.333 2.667.468 2.667 1.039-1.2 1.904-2.667 2.961-2.667 2.69-2.667 3.628-.6 1.706-1.333 1.706-1.334.75-1.335 1.667-1.351 3.288-3 5.27l-4.998 6.137c-1.1 1.394-3.398 3.269-5.107 4.168-3.122 1.642-24.116 2.969-28.657 1.812zm-4033.2-2.242c-3.611-2.741-2.835-3.477 3.667-3.477 5.111 0 6 .395 6 2.667 0 2.031-.875 2.657-3.667 2.624-2.017-.023-4.717-.839-6-1.814zm2028.3.523c0-.733 1.2-1.333 2.667-1.333s2.667.6 2.667 1.333-1.2 1.333-2.667 1.333-2.667-.6-2.667-1.333zm2688.7 0c.453-.733 1.089-1.333 1.412-1.333s.588.6.588 1.333-.636 1.333-1.412 1.333-1.041-.6-.588-1.333zm-3992.7-2.667a1.34 1.34 0 0 1 1.333-1.333 1.34 1.34 0 0 1 1.333 1.333 1.34 1.34 0 0 1-1.333 1.333 1.34 1.34 0 0 1-1.333-1.333zm1405.4-1c-.073-2.104.658-3 2.45-3 1.405 0 2.823-.75 3.151-1.667s1.049-1.245 1.603-.73c1.129 1.049-2.389 5.063-4.436 5.063-.725 0-1.62.75-1.99 1.667s-.72.317-.778-1.333zm790.89.339c-2.408-2.735-2.089-3.339 1.762-3.339 3.089 0 7.238 2.62 7.238 4.571 0 1.59-7.408.576-9-1.233zm894.33-.672c0-3.231 5.789-3.735 8.762-.762 2.899 2.899 2.37 3.429-3.428 3.429-4.444 0-5.333-.444-5.333-2.667zm1016 0c0-2.23.889-2.667 5.428-2.667 4.733 0 9.238 2.229 9.238 4.571 0 .419-3.3.762-7.333.762-6.444 0-7.333-.323-7.333-2.667zm-1333.3-1.556c0-.611.9-1.111 2-1.111s2 .5 2 1.111-.9 1.111-2 1.111-2-.5-2-1.111zm909.33.222a1.34 1.34 0 0 1 1.333-1.333 1.34 1.34 0 0 1 1.333 1.333 1.34 1.34 0 0 1-1.333 1.333 1.34 1.34 0 0 1-1.333-1.333zm-680.48-4.241c-2.834-1.586-2.759-2.694.427-6.368 2.354-2.714 2.822-2.811 4.667-.966 4.558 4.558.469 10.447-5.093 7.334zm249.81-5.759c0-5.511.272-6 3.333-6 3.988 0 4.321 2.584 1.046 8.128-3.198 5.413-4.379 4.839-4.379-2.128zm-3076 2.782c0-1.135 1.528-2.448 3.395-2.917 6.327-1.588 5.964 2.154-.395 4.075-2.21.668-3 .362-3-1.158zm559.24.402c-1.005-1.626 1.989-4.072 3.695-3.018.585.362 1.064 1.522 1.064 2.579 0 2.263-3.436 2.58-4.759.439zm143.43-2.375c0-.655.949-1.555 2.109-2 3.262-1.252 3.585-.98 1.415 1.191-2.267 2.267-3.524 2.555-3.524.809zm-1278.1-1.611c-1.082-1.75 3.338-3.144 4.928-1.554.887.887.412 1.572-1.422 2.052-1.514.396-3.092.172-3.506-.498zm3438.1-1.199a1.34 1.34 0 0 1 1.333-1.333c.733 0 1.333-2.1 1.333-4.667s.6-4.667 1.333-4.667 1.333-3 1.333-6.667-.6-6.667-1.333-6.667a1.34 1.34 0 0 1-1.333-1.333c0-.733 1.509-1.333 3.353-1.333 3.79 0 8.634 6.563 8.642 11.709 0 3.774-3.239 11.725-5.851 14.337-2.202 2.202-8.81 2.667-8.81.62zm-69.816-3.333c-.755-1.968.176-6 1.387-6 1.446 0 4.429 3.977 4.429 5.905 0 2.677-4.795 2.755-5.816.095zm719.15.667c0-.733.9-1.333 2-1.333s2 .6 2 1.333-.9 1.333-2 1.333-2-.6-2-1.333zm-4489.3-2.095c0-2.342 4.505-4.571 9.238-4.571 4.54 0 5.429.437 5.429 2.667 0 2.343-.889 2.667-7.333 2.667-4.033 0-7.333-.343-7.333-.762zm3892-3.312c-1.099-2.653-1.233-4.529-.385-5.377 1.707-1.707 5.749-.118 5.749 2.261 0 1.021.6 1.857 1.333 1.857s1.333 1.2 1.333 2.667c0 4.543-6.002 3.491-8.031-1.407zm-2165.7-1.146c-.482-1.844-.096-2.779 1.148-2.779 2.127 0 2.349 1.188.706 3.779-.857 1.353-1.302 1.113-1.855-1zm2099 1.221a1.34 1.34 0 0 1 1.333-1.333 1.34 1.34 0 0 1 1.333 1.333 1.34 1.34 0 0 1-1.333 1.333 1.34 1.34 0 0 1-1.333-1.333zm1066.7 0c0-.733-1.127-1.333-2.503-1.333s-3.25-.9-4.163-2-2.522-2-3.575-2-1.544-.6-1.091-1.333c1.361-2.202 8.06-1.506 11.129 1.156 2.95 2.558 3.912 6.844 1.537 6.844a1.34 1.34 0 0 1-1.333-1.333zm-260-5.333c0-1.467.6-2.667 1.333-2.667s1.333 1.2 1.333 2.667-.6 2.667-1.333 2.667-1.333-1.2-1.333-2.667zm-766.47-6.667c.767-2.2 1.636-4 1.931-4s.536 1.8.536 4c0 2.603-.674 4-1.931 4-1.566 0-1.667-.755-.536-4zm-782.87-2.667a1.34 1.34 0 0 1 1.333-1.333c.733 0 1.333-3.3 1.333-7.333V.004h4.727c4.726 0 4.727.001 3.87 5-1.558 9.095-3.551 12.333-7.59 12.333-2.021 0-3.675-.6-3.675-1.333z"/></defs></svg>