<svg xmlns="http://www.w3.org/2000/svg" width="265.016" zoomAndPan="magnify" viewBox="0 0 198.762 242.23" height="322.974" preserveAspectRatio="xMidYMid meet" xmlns:v="https://vecta.io/nano"><defs><clipPath id="A"><path d="M253.629 174.055h198.762v242.242H253.629zm0 0" clip-rule="nonzero"/></clipPath><clipPath id="B"><path d="M334 289h45v84.32h-45zm0 0" clip-rule="nonzero"/></clipPath><clipPath id="C"><path d="M322.723 268H345v21h-22.277zm0 0" clip-rule="nonzero"/></clipPath><clipPath id="D"><path d="M349 205.613h28V284h-28zm0 0" clip-rule="nonzero"/></clipPath></defs><g clip-path="url(#A)" transform="translate(-253.629 -174.059)"><path d="M353.078 174.059h.867l3.742 1.934 4.945 2.527 8.188 3.895 7.219 3.332c.156.019 1.391.543 3.707 1.563l5.348 2.266 5.414 1.996 4.477 1.598 2.34.801 3.609 1.133 5.613 1.598 6.617 1.664 4.145.93 5.949 1.133 6.281 1.133 6.215 1 5.012.797c.047 0 1.648.313 4.813.934l4.781.965.031.031-.199 9.922c-.133 6.613-.469 15.16-1.004 25.637l-1.27 21.973c-.312 4.172-.668 7.746-1.07 10.719a132.11 132.11 0 0 1-1.402 8.457l-1.738 8.055-1.672 7.125c-.488 2.043-1.066 4.238-1.734 6.594l-1.203 4.262c-.137.488-.336 1.109-.602 1.863s-.582 1.688-.937 2.797-.914 2.707-1.672 4.793l-1.871 4.992-1.805 4.461c-.711 1.734-1.625 3.82-2.738 6.262l-2.004 4.262-2.441 4.359-2.539 4.461c-.289.465-.98 1.645-2.07 3.531l-2.141 3.594-1.535 2.398a67.33 67.33 0 0 1-1.672 2.527l-1.473 2.133c-.555.82-1.09 1.574-1.602 2.262s-.914 1.266-1.203 1.734-.715 1.063-1.27 1.797a65.15 65.15 0 0 0-1.605 2.195c-.512.734-1.07 1.488-1.672 2.266l-1.535 1.996c-.426.555-1.324 1.609-2.707 3.164s-3.008 3.328-4.879 5.324-3.52 3.707-4.945 5.129-2.375 2.32-2.84 2.695-1.562 1.332-3.277 2.863l-3.141 2.797-2.805 2.465-2.941 2.531c-.469.375-1.004.82-1.605 1.328l-2.504 2.098c-1.07.891-1.883 1.543-2.441 1.965s-1.09.801-1.605 1.133-1.445.91-2.805 1.73l-2.676 1.664a22.93 22.93 0 0 1-1.434.898c-.535.313-1.094.668-1.672 1.066l-1.27.867c-.27.176-.848.488-1.738.93a113.53 113.53 0 0 1-3.207 1.531c-1.25.578-2.117.957-2.609 1.133l-.734.266-.801-.199c-.535-.133-1.113-.355-1.738-.664l-3.141-1.598c-1.473-.758-2.316-1.223-2.539-1.398s-.793-.566-1.707-1.168l-2.07-1.328-2.738-1.668-2.809-1.73c-.512-.332-1.047-.711-1.605-1.133a74.1 74.1 0 0 1-1.902-1.496l-2.84-2.363-3.074-2.598c-.871-.73-2.141-1.844-3.812-3.328l-3.207-2.797c-.469-.379-1.492-1.266-3.074-2.664l-2.641-2.363-2.371-2.363-2.941-2.996-3.676-3.996-3.41-3.797-1.668-2.062-1.738-2.195c-.426-.555-.848-1.133-1.27-1.734l-1.34-1.863-1.27-1.73a35.82 35.82 0 0 1-.969-1.367c-.266-.398-.633-.918-1.102-1.562s-.867-1.223-1.203-1.73l-1.336-2c-.559-.82-.98-1.465-1.27-1.93l-1.406-2.195c-.645-1-1.066-1.687-1.27-2.066s-.758-1.332-1.668-2.863l-1.805-2.996c-.289-.465-1.016-1.742-2.172-3.828l-2.609-4.727c-.578-1.066-1.09-2.066-1.535-2.996s-1.07-2.332-1.871-4.195l-1.203-2.863c0-.043-.402-1.066-1.203-3.062L269 319.945c-.445-1.156-1.07-2.91-1.871-5.262s-1.605-4.859-2.406-7.523-1.695-5.902-2.676-9.723l-2.07-8.52-1.672-8.125c-.711-3.551-1.137-5.883-1.27-6.992s-.422-4.504-.867-10.187l-.871-12.852-.465-9.187-.738-15.914-.465-15.645v-4.594l.434-.234c.289-.156 1.078-.344 2.371-.566l5.348-.867 10.359-1.73 9.957-1.73c2.008-.355 4.656-.91 7.953-1.664s6.148-1.465 8.555-2.133 4.48-1.285 6.215-1.863l4.078-1.332a103.25 103.25 0 0 0 2.809-.93c.891-.312 2.672-.977 5.344-2a147.33 147.33 0 0 0 7.52-3.094l3.742-1.598c.156-.023 1.281-.523 3.375-1.5l5.684-2.664 5.012-2.395a229.23 229.23 0 0 0 6.148-3.129l3.676-1.934zm0 0"/></g><path fill="#7f0000" d="M99.742 5.125h.824l3.551 1.84 4.695 2.406 7.77 3.707 6.848 3.168c.148.02 1.32.516 3.52 1.488l5.074 2.156 5.137 1.898 4.25 1.523 2.219.758 3.422 1.078 5.328 1.52 6.277 1.586 3.934.887 5.645 1.078 5.961 1.074 5.898.953 4.758.758c.039 0 1.563.297 4.563.887l4.535.922.031.031-.187 9.441c-.129 6.293-.445 14.426-.953 24.395l-1.203 20.91c-.297 3.969-.637 7.371-1.016 10.199a126.2 126.2 0 0 1-1.332 8.047l-1.648 7.668-1.586 6.781a160.87 160.87 0 0 1-1.648 6.27l-1.141 4.059c-.129.465-.32 1.055-.57 1.773a103.37 103.37 0 0 0-.891 2.66c-.336 1.055-.867 2.578-1.586 4.563l-1.773 4.754-1.715 4.242c-.676 1.648-1.543 3.633-2.598 5.957l-1.902 4.055-2.316 4.152-2.41 4.242c-.273.445-.93 1.566-1.965 3.359l-2.031 3.422-1.457 2.281c-.656 1.035-1.184 1.836-1.586 2.406l-1.395 2.027c-.527.785-1.035 1.5-1.523 2.156s-.863 1.203-1.141 1.648-.676 1.012-1.203 1.711a64.21 64.21 0 0 0-1.523 2.09c-.484.695-1.016 1.414-1.586 2.152l-1.457 1.902c-.402.527-1.258 1.531-2.57 3.012s-2.852 3.168-4.629 5.066-3.34 3.527-4.691 4.879-2.254 2.207-2.695 2.566-1.48 1.27-3.109 2.727l-2.98 2.66-2.664 2.344-2.789 2.41c-.445.355-.953.781-1.523 1.266l-2.379 1.996c-1.012.844-1.785 1.469-2.312 1.867s-1.035.762-1.523 1.078a110.61 110.61 0 0 1-2.664 1.648l-2.535 1.582a20.13 20.13 0 0 1-1.363.855c-.508.297-1.035.637-1.586 1.016l-1.203.824c-.254.168-.805.465-1.652.887s-1.859.906-3.043 1.457-2.008.906-2.473 1.078l-.699.254-.758-.191c-.508-.129-1.059-.34-1.652-.633l-2.98-1.523c-1.395-.715-2.195-1.16-2.41-1.328s-.75-.539-1.617-1.109l-1.965-1.27-2.598-1.582-2.664-1.648a24.38 24.38 0 0 1-1.523-1.078 77.9 77.9 0 0 1-1.809-1.422l-2.695-2.25-2.914-2.473c-.828-.695-2.031-1.754-3.617-3.168l-3.043-2.66c-.445-.359-1.418-1.203-2.918-2.535l-2.504-2.25-2.254-2.25-2.789-2.852-3.488-3.801-3.234-3.609-1.586-1.965-1.648-2.094c-.402-.527-.801-1.074-1.203-1.645l-1.27-1.777-1.203-1.645c-.359-.488-.668-.918-.922-1.301a50.05 50.05 0 0 0-1.047-1.488c-.441-.613-.824-1.16-1.141-1.648l-1.27-1.898c-.527-.781-.93-1.395-1.203-1.84l-1.332-2.09c-.613-.949-1.016-1.605-1.203-1.965s-.719-1.266-1.586-2.723l-1.715-2.852c-.273-.445-.961-1.66-2.059-3.645l-2.477-4.5c-.547-1.012-1.035-1.965-1.457-2.852s-1.016-2.215-1.773-3.992l-1.145-2.723c0-.043-.379-1.016-1.141-2.914l-1.773-4.5c-.426-1.098-1.016-2.766-1.777-5.004s-1.523-4.625-2.285-7.16-1.605-5.621-2.535-9.254l-1.965-8.109-1.586-7.73c-.676-3.379-1.078-5.598-1.207-6.652s-.398-4.285-.824-9.695l-.824-12.227-.441-8.746L5.82 54.23 5.375 39.34v-4.371l.414-.223c.273-.145 1.023-.324 2.25-.535l5.074-.824 9.832-1.648 9.449-1.648c1.902-.336 4.418-.867 7.547-1.582s5.832-1.395 8.117-2.027 4.246-1.227 5.895-1.777l3.871-1.266 2.664-.887c.844-.297 2.535-.93 5.07-1.902s4.918-1.953 7.137-2.945 3.402-1.5 3.551-1.52 1.215-.496 3.203-1.426l5.391-2.535 4.758-2.281c1.563-.762 3.508-1.754 5.832-2.977l3.488-1.84zm0 0"/><g clip-path="url(#B)" transform="translate(-253.629 -174.059)"><path d="M348.707 365.262l.91 5.07 3.258 3c.293-.059 3.274-3 3.274-3l.91-5.07-4.18.359zm4.172-73.316h.008 18.926l.184-2.062h-19.109-.008-19.109l.18 2.063h18.93zm-22.242.672l1.227 5.246h21.016.008 21.016l1.227-5.246zm7.129 11.84h15.07.094H368l4.043-5.785h-38.32zm15.07.629h-11.437l7.129 59.684 4.352.313v.004l.008-.004c.516 0 4.352-.312 4.352-.312l7.129-59.684H352.93zm0 0"/></g><g clip-path="url(#C)" transform="translate(-257.106 -174.059)"><path fill="#fff" d="M344.645 287.664s-5.242 1.883-10.488-2.625-7.219-14.395-11.375-16.211c0 0 4.906.672 9.332 6.188s5.52 11.367 12.531 12.648zm0 0"/></g><path d="M98.371 115.152s-1.977-2.02-4.973-3.23-11.578-1.145-15.598-9.953 3.203-23.008-1.77-28.387c0 0 6.402.672 7.629 12.039s-1.09 12.781 2.316 17.625 10.965 5.379 12.395 11.906zm1.293-.07s-1.359-3.969-5.449-7.465-7.629-4.91-8.719-15.199 3.406-21.125 4.973-28.387-1.496-11.84-1.496-11.84 10.148 2.289 11.305 10.492-9.773 16.68-10.078 26.504c-.41 13.051 10.148 20.246 9.465 25.895zm0 0" fill="#fff"/><g clip-path="url(#D)" transform="translate(-257.106 -174.059)"><path fill="#fff" d="M356.566 283.762s-6.676-8.543-6.676-17.355 8.648-18.988 13.828-27.867.633-27.895-9.902-32.648c0 0 12.262-.27 19.438 14.441s.453 26.367-6.723 37.129-12.848 20.313-9.965 26.301zm0 0"/></g><path d="M103.25 113.715s-5.629-3.586-2.18-13.363 16.621-17.309 19.344-33.719c0 0 4.906 14.797-1.727 26.547-6.625 11.746-15.801 11.656-15.254 20.535zm1.637 1.527s-1.18-5.828 3.633-9.148 12.531-5.742 12.531-14.621c0 0 2.996 7.625-.543 13.813s-12.715 6.637-15.621 9.957zm3.906-1.168s10.441-.895 15.711-10.672c0 0 1.086 11.93-15.711 10.672zm0 0" fill="#fff"/></svg>