<?xml version="1.0" encoding="UTF-8" standalone="no"?>
<svg
   width="244.5"
   zoomAndPan="magnify"
   viewBox="0 0 183.375 216.32094"
   height="288.42792"
   preserveAspectRatio="xMidYMid meet"
   version="1.0"
   id="svg33"
   sodipodi:docname="l_ineluttabile_domani.svg"
   inkscape:version="1.1.1 (1:1.1+202109281946+c3084ef5ed)"
   xmlns:inkscape="http://www.inkscape.org/namespaces/inkscape"
   xmlns:sodipodi="http://sodipodi.sourceforge.net/DTD/sodipodi-0.dtd"
   xmlns="http://www.w3.org/2000/svg"
   xmlns:svg="http://www.w3.org/2000/svg">
  <sodipodi:namedview
     id="namedview35"
     pagecolor="#ffffff"
     bordercolor="#666666"
     borderopacity="1.0"
     inkscape:pageshadow="2"
     inkscape:pageopacity="0.0"
     inkscape:pagecheckerboard="0"
     showgrid="false"
     fit-margin-top="0"
     fit-margin-left="0"
     fit-margin-right="0"
     fit-margin-bottom="0"
     inkscape:zoom="1.107868"
     inkscape:cx="121.40435"
     inkscape:cy="145.32417"
     inkscape:window-width="3440"
     inkscape:window-height="1371"
     inkscape:window-x="0"
     inkscape:window-y="32"
     inkscape:window-maximized="1"
     inkscape:current-layer="svg33" />
  <defs
     id="defs11">
    <clipPath
       id="id1">
      <path
         d="m 261.03125,186.35156 h 183.375 v 216.38672 h -183.375 z m 0,0"
         clip-rule="nonzero"
         id="path2" />
    </clipPath>
    <clipPath
       id="id2">
      <path
         d="m 311,233.46875 h 82 V 303 h -82 z m 0,0"
         clip-rule="nonzero"
         id="path5" />
    </clipPath>
    <clipPath
       id="id3">
      <path
         d="m 302,302 h 100.82422 v 24.99219 H 302 Z m 0,0"
         clip-rule="nonzero"
         id="path8" />
    </clipPath>
  </defs>
  <path
     stroke-linecap="butt"
     fill-opacity="1"
     fill="#000000"
     fill-rule="evenodd"
     stroke-linejoin="miter"
     d="m 92.00357,7.8196026 h 0.742185 l 3.195302,1.5976585 c 2.128899,1.0625019 3.539051,1.7578159 4.222643,2.0898469 0.68359,0.328126 3.01171,1.402346 6.98826,3.218756 3.97264,1.816409 6.02732,2.730473 6.16014,2.750004 0.13281,0.01953 1.18749,0.44922 3.16405,1.292971 1.98046,0.843751 3.49998,1.468753 4.56638,1.871097 1.06251,0.402345 2.60547,0.953126 4.62109,1.64844 2.01561,0.69922 3.28905,1.140628 3.82029,1.320315 0.53125,0.183594 1.19923,0.40625 1.99609,0.664063 0.80079,0.253908 1.82422,0.566408 3.08203,0.933596 1.2539,0.367188 2.85155,0.808595 4.78904,1.320315 1.9414,0.511719 3.82421,0.972658 5.64843,1.375002 1.82811,0.402345 3.00389,0.660157 3.53905,0.769532 0.53124,0.109375 2.22264,0.421877 5.0742,0.937503 2.85545,0.511719 4.64061,0.824219 5.36327,0.933594 0.72265,0.109375 2.49218,0.38672 5.30466,0.824221 2.8164,0.441406 4.24217,0.660158 4.28124,0.660158 0.0352,0 1.40624,0.257812 4.10545,0.773438 2.69921,0.51172 4.05858,0.777345 4.07812,0.796877 l 0.0273,0.02734 -0.16797,8.199233 c -0.11718,5.464853 -0.40235,12.523459 -0.85546,21.179724 -0.45704,8.656264 -0.82032,14.710961 -1.08594,18.15628 -0.26563,3.449224 -0.57031,6.402355 -0.91406,8.859391 -0.33984,2.457034 -0.73828,4.78907 -1.1953,6.988293 -0.45704,2.199222 -0.95313,4.417979 -1.48438,6.656259 -0.53125,2.23829 -1.0078,4.19923 -1.42577,5.88673 -0.41798,1.68751 -0.91407,3.50392 -1.48438,5.44923 -0.57031,1.94141 -0.91015,3.11719 -1.02734,3.51954 -0.11327,0.40234 -0.28515,0.91797 -0.51171,1.53906 -0.22656,0.625 -0.49609,1.39454 -0.79688,2.31251 -0.30468,0.91797 -0.78124,2.23829 -1.42968,3.96094 -0.64453,1.72266 -1.17577,3.10156 -1.59374,4.12891 -0.42187,1.02344 -0.9336,2.25391 -1.54297,3.6836 -0.60937,1.42969 -1.3867,3.15626 -2.33983,5.17189 -0.94922,2.01953 -1.51953,3.19141 -1.71093,3.52344 -0.18751,0.32813 -0.88281,1.53126 -2.08202,3.60157 -1.19532,2.07423 -1.91798,3.30079 -2.16797,3.68751 -0.2461,0.38671 -0.83594,1.35546 -1.76563,2.91407 -0.93358,1.5625 -1.54296,2.55077 -1.82811,2.97266 -0.28516,0.42188 -0.72265,1.08203 -1.30859,1.98047 -0.58985,0.89843 -1.0664,1.59766 -1.42968,2.08984 -0.35938,0.4961 -0.77735,1.08204 -1.25391,1.76173 -0.47264,0.67969 -0.92968,1.30078 -1.36717,1.8711 -0.43751,0.57031 -0.78126,1.04687 -1.02735,1.42969 -0.24609,0.38672 -0.60937,0.88281 -1.08593,1.48437 -0.47266,0.60547 -0.92968,1.21094 -1.36719,1.81641 -0.43749,0.60548 -0.91406,1.23047 -1.42577,1.8711 -0.51563,0.64453 -0.95312,1.1914 -1.3125,1.65235 -0.36327,0.45703 -1.13281,1.32812 -2.30858,2.61328 -1.17969,1.28126 -2.57031,2.75001 -4.16796,4.40235 -1.59374,1.64844 -3.0039,3.0625 -4.21873,4.23439 -1.21875,1.17578 -2.02734,1.91796 -2.42578,2.23046 -0.39843,0.3086 -1.33203,1.09766 -2.79687,2.36329 -1.46093,1.26562 -2.35546,2.03516 -2.67967,2.31251 -0.32422,0.27343 -1.12109,0.95312 -2.39453,2.03516 -1.27343,1.08203 -2.11327,1.77735 -2.51171,2.08984 -0.39843,0.3125 -0.85546,0.67969 -1.36718,1.10156 -0.51562,0.42188 -1.22656,1 -2.14062,1.73438 -0.91406,0.73047 -1.60546,1.27344 -2.08202,1.6211 -0.47656,0.34766 -0.92969,0.66016 -1.36719,0.9375 -0.4375,0.27344 -1.23827,0.75 -2.39843,1.42969 -1.16015,0.67578 -1.91796,1.13672 -2.28124,1.375 -0.35937,0.23829 -0.76953,0.48438 -1.22656,0.74219 -0.45703,0.25782 -0.92968,0.55079 -1.425775,0.87891 -0.496092,0.33203 -0.855466,0.57032 -1.082027,0.71484 -0.230468,0.14845 -0.722655,0.40626 -1.484371,0.77344 -0.761715,0.36719 -1.675776,0.78906 -2.738273,1.26563 -1.066402,0.47657 -1.808587,0.78906 -2.226554,0.9336 l -0.624999,0.21875 -0.687498,-0.16406 c -0.453123,-0.10938 -0.949214,-0.29297 -1.480463,-0.55079 -0.535155,-0.2539 -1.425777,-0.69531 -2.683585,-1.32031 -1.253903,-0.62109 -1.976556,-1.00781 -2.167962,-1.15626 -0.1875,-0.14452 -0.671873,-0.46484 -1.45312,-0.96093 -0.781248,-0.4961 -1.367184,-0.86329 -1.769526,-1.10157 -0.398436,-0.23829 -1.175778,-0.69532 -2.33593,-1.37499 -1.160153,-0.67969 -1.960931,-1.15626 -2.39843,-1.4297 -0.437498,-0.27344 -0.894528,-0.58594 -1.367183,-0.93751 -0.476561,-0.34764 -1.019528,-0.75781 -1.624995,-1.23436 -0.609372,-0.47657 -1.417964,-1.12892 -2.425774,-1.95313 -1.007808,-0.82814 -1.882805,-1.54298 -2.62499,-2.14844 -0.742186,-0.60548 -1.824213,-1.51955 -3.249991,-2.75002 -1.425776,-1.23047 -2.339835,-1.99999 -2.738271,-2.3125 -0.398437,-0.30858 -1.273434,-1.04296 -2.624992,-2.19922 -1.351558,-1.15625 -2.101556,-1.80469 -2.253899,-1.95313 -0.152344,-0.14843 -0.828122,-0.79687 -2.023431,-1.95313 -1.199215,-1.15624 -2.03515,-1.98047 -2.511711,-2.47656 -0.47656,-0.49609 -1.519527,-1.59376 -3.136709,-3.30079 -1.617182,-1.70703 -2.585928,-2.75 -2.910147,-3.13672 -0.324217,-0.38282 -0.796872,-0.95312 -1.425776,-1.70313 -0.628904,-0.75391 -1.12109,-1.35938 -1.484371,-1.81641 -0.359374,-0.46094 -0.722653,-0.9375 -1.082027,-1.42969 -0.36328,-0.49609 -0.742185,-1.01172 -1.140622,-1.54297 -0.398436,-0.53125 -0.761715,-1.00782 -1.085933,-1.42969 -0.320311,-0.42188 -0.597654,-0.79688 -0.824216,-1.12891 -0.230468,-0.32813 -0.542967,-0.76172 -0.941404,-1.29297 -0.402343,-0.53125 -0.742185,-1.00782 -1.02734,-1.42969 -0.285155,-0.42188 -0.667966,-0.97266 -1.140621,-1.65235 -0.476561,-0.67578 -0.835935,-1.20704 -1.085935,-1.59375 -0.246092,-0.38672 -0.644529,-0.99219 -1.195308,-1.81642 -0.554686,-0.82421 -0.914059,-1.39452 -1.085933,-1.70312 -0.171875,-0.3125 -0.64453,-1.10156 -1.425778,-2.36719 -0.781247,-1.26562 -1.292965,-2.08985 -1.539058,-2.47657 -0.249998,-0.38672 -0.867184,-1.4375 -1.855462,-3.16406 -0.988278,-1.72266 -1.730463,-3.02345 -2.222649,-3.90626 -0.496092,-0.87891 -0.933591,-1.70312 -1.312495,-2.47657 -0.382813,-0.76953 -0.914061,-1.92578 -1.597652,-3.46484 -0.683591,-1.53907 -1.02734,-2.32813 -1.02734,-2.36719 0,-0.0352 -0.343749,-0.87892 -1.02734,-2.53127 -0.683593,-1.64844 -1.214841,-2.95312 -1.597652,-3.90625 -0.378905,-0.95313 -0.910154,-2.40235 -1.597652,-4.34376 -0.683591,-1.94531 -1.367182,-4.01953 -2.050774,-6.21876 -0.687498,-2.19922 -1.445308,-4.87891 -2.285149,-8.03126 -0.835935,-3.15626 -1.425777,-5.50392 -1.765619,-7.04298 -0.343749,-1.54297 -0.82031,-3.777354 -1.425776,-6.714859 -0.609334,-2.933596 -0.972614,-4.85938 -1.085895,-5.77735 C 9.9178962,89.323647 9.671803,86.515048 9.2889921,81.819727 8.9100878,77.128313 8.6639946,73.585339 8.5468073,71.202522 8.4335265,68.819706 8.3007141,66.28845 8.1483713,63.608759 7.9960272,60.932973 7.7889974,56.550153 7.5233725,50.460299 7.2538424,44.370446 7.12103,40.061845 7.12103,37.530589 v -3.796881 l 0.3710937,-0.191406 c 0.2499985,-0.128907 0.9218711,-0.285157 2.0273365,-0.468751 1.1015588,-0.183594 2.6210848,-0.421876 4.5624858,-0.714845 1.941399,-0.29297 4.886703,-0.769533 8.843722,-1.42969 3.953112,-0.660157 6.785133,-1.13672 8.496066,-1.429689 1.714838,-0.296876 3.976549,-0.753908 6.78904,-1.37891 2.816398,-0.621094 5.249984,-1.207032 7.304664,-1.757815 2.050774,-0.550782 3.820301,-1.066408 5.30467,-1.542972 1.480465,-0.476562 2.640617,-0.84375 3.480458,-1.097657 0.835935,-0.257814 1.632807,-0.515627 2.394523,-0.77344 0.761717,-0.253906 2.281243,-0.804687 4.562486,-1.648439 2.281243,-0.843752 4.42186,-1.695316 6.417948,-2.558599 1.996087,-0.863282 3.06249,-1.300784 3.195302,-1.320314 0.132812,-0.01953 1.093747,-0.429688 2.878897,-1.238283 1.789058,-0.808595 3.40624,-1.539066 4.851547,-2.199223 1.445308,-0.660158 2.871084,-1.324221 4.27733,-1.984378 1.406245,-0.660158 3.15624,-1.519534 5.246076,-2.585942 l 3.140616,-1.5937524 h 0.742184 z m 0,0"
     stroke="#000000"
     stroke-width="0.265061"
     stroke-opacity="1"
     stroke-miterlimit="4"
     id="path13" />
  <path
     stroke-linecap="butt"
     fill-opacity="1"
     fill="#000000"
     fill-rule="evenodd"
     stroke-linejoin="miter"
     d="m 89.132485,9.6906996 h 0.742185 l 3.195302,1.5937524 c 2.1289,1.062501 3.535146,1.761722 4.222644,2.089847 0.683591,0.332032 3.011704,1.402346 6.984354,3.218756 3.97655,1.816409 6.03123,2.734379 6.16404,2.750004 0.13281,0.01953 1.1875,0.453126 3.16405,1.292971 1.97656,0.843751 3.49999,1.468753 4.56249,1.871097 1.0664,0.406251 2.60546,0.957032 4.62108,1.652346 2.01562,0.695314 3.28906,1.136721 3.8242,1.320315 0.53125,0.183594 1.19531,0.402344 1.99609,0.660157 0.79687,0.257814 1.82421,0.570314 3.08202,0.933596 1.2539,0.367188 2.85155,0.808595 4.78904,1.320315 1.9414,0.515625 3.82422,0.972657 5.64843,1.378908 1.82422,0.402344 3.0039,0.660157 3.53514,0.769532 0.53516,0.109375 2.22656,0.421877 5.07812,0.933596 2.85155,0.515626 4.64061,0.828126 5.36326,0.937501 0.72266,0.109375 2.49218,0.382814 5.30467,0.824221 2.81248,0.441408 4.24217,0.660156 4.27732,0.660156 0.0391,0 1.40625,0.257814 4.10937,0.769534 2.69921,0.515626 4.05858,0.781251 4.07811,0.796875 l 0.0273,0.02734 -0.17187,8.199232 c -0.11328,5.464853 -0.39844,12.527366 -0.85547,21.183629 -0.45702,8.656266 -0.81641,14.707057 -1.08202,18.156282 -0.26563,3.449224 -0.57032,6.398448 -0.91407,8.85939 -0.33984,2.457035 -0.74218,4.785164 -1.19921,6.984386 -0.45313,2.203132 -0.94922,4.421892 -1.48046,6.660172 -0.53516,2.23438 -1.00781,4.19923 -1.42578,5.88673 -0.41797,1.6875 -0.91406,3.50001 -1.48437,5.44532 -0.57032,1.94532 -0.91407,3.11719 -1.02734,3.52345 -0.11328,0.40234 -0.28515,0.91406 -0.51172,1.53906 -0.23047,0.625 -0.49609,1.39453 -0.80078,2.3125 -0.30469,0.91406 -0.77733,2.23438 -1.42578,3.96094 -0.64452,1.72267 -1.17968,3.09768 -1.59765,4.12501 -0.41796,1.02735 -0.92968,2.25392 -1.53905,3.68751 -0.60938,1.42969 -1.38671,3.15236 -2.33984,5.17189 -0.94922,2.01562 -1.51953,3.1914 -1.71092,3.51954 -0.19141,0.33203 -0.88282,1.53124 -2.08203,3.60546 -1.19923,2.07033 -1.92188,3.3008 -2.16796,3.6836 -0.2461,0.38672 -0.83595,1.35938 -1.76953,2.91799 -0.92968,1.55859 -1.53906,2.55077 -1.82421,2.97265 -0.28517,0.41798 -0.72266,1.08204 -1.3125,1.98048 -0.58984,0.89843 -1.0625,1.59375 -1.42578,2.08984 -0.35937,0.49609 -0.77734,1.08204 -1.2539,1.76173 -0.47656,0.67578 -0.9336,1.30078 -1.37109,1.86718 -0.43359,0.57032 -0.77734,1.04688 -1.02344,1.43359 -0.24999,0.38283 -0.60936,0.87892 -1.08592,1.48438 -0.47657,0.60548 -0.92969,1.21095 -1.36719,1.81642 -0.43749,0.60546 -0.91406,1.22657 -1.42578,1.87109 -0.51562,0.64063 -0.95311,1.19141 -1.3125,1.64844 -0.36327,0.46095 -1.13281,1.33204 -2.31248,2.61329 -1.17968,1.28516 -2.56641,2.7539 -4.16406,4.40235 -1.59765,1.65235 -3.00389,3.0625 -4.22264,4.23828 -1.21483,1.17189 -2.02342,1.91407 -2.42186,2.22658 -0.39844,0.3125 -1.33203,1.10156 -2.79687,2.36719 -1.46484,1.26562 -2.35546,2.03516 -2.67968,2.30859 -0.32422,0.27735 -1.12109,0.95313 -2.39843,2.03516 -1.27343,1.08204 -2.10937,1.78125 -2.5078,2.09376 -0.39844,0.31249 -0.85547,0.67578 -1.37109,1.09766 -0.51172,0.42187 -1.22656,0.99999 -2.13671,1.73437 -0.91406,0.73438 -1.60937,1.27344 -2.08203,1.62501 -0.47656,0.34765 -0.93359,0.66015 -1.37109,0.9336 -0.4375,0.27343 -1.23437,0.7539 -2.39452,1.42968 -1.16015,0.67969 -1.92187,1.13672 -2.281243,1.375 -0.363281,0.23829 -0.76953,0.48829 -1.22656,0.7461 -0.457029,0.25391 -0.933591,0.54688 -1.425776,0.87891 -0.496093,0.32812 -0.855467,0.56641 -1.085935,0.71484 -0.226561,0.14843 -0.722653,0.40235 -1.480463,0.76954 -0.761716,0.36718 -1.675776,0.78906 -2.738272,1.26562 -1.066404,0.47657 -1.808589,0.78906 -2.226556,0.93751 l -0.628904,0.21875 -0.683591,-0.16406 c -0.45703,-0.11329 -0.949216,-0.29297 -1.484371,-0.5508 -0.531249,-0.2578 -1.425776,-0.69921 -2.679679,-1.3203 -1.253902,-0.625 -1.976556,-1.00783 -2.167961,-1.15626 -0.191406,-0.14843 -0.675779,-0.46875 -1.453121,-0.96484 -0.781248,-0.4922 -1.371089,-0.85938 -1.769526,-1.09766 -0.398436,-0.23829 -1.179683,-0.69922 -2.339835,-1.37501 -1.160153,-0.67969 -1.957026,-1.15624 -2.394524,-1.43359 -0.437499,-0.27343 -0.894529,-0.58594 -1.37109,-0.9336 -0.472655,-0.34766 -1.015622,-0.76172 -1.624994,-1.23827 -0.609374,-0.47657 -1.414059,-1.12892 -2.421867,-1.95313 -1.00781,-0.82423 -1.882807,-1.53907 -2.624992,-2.14454 -0.742185,-0.60548 -1.824213,-1.52344 -3.253896,-2.75001 -1.425776,-1.23047 -2.33593,-1.99999 -2.738272,-2.3125 -0.398436,-0.3125 -1.273434,-1.04687 -2.621086,-2.19922 -1.351558,-1.15626 -2.101555,-1.80859 -2.253899,-1.95313 -0.152343,-0.14843 -0.828122,-0.80078 -2.027336,-1.95313 -1.19531,-1.15626 -2.031245,-1.98438 -2.507805,-2.47656 -0.476561,-0.4961 -1.523433,-1.59767 -3.13671,-3.30079 -1.617182,-1.70704 -2.585928,-2.75391 -2.910145,-3.13672 -0.324219,-0.38672 -0.80078,-0.95314 -1.425778,-1.70704 -0.628904,-0.75 -1.12109,-1.35547 -1.484369,-1.81641 -0.359374,-0.45703 -0.722655,-0.9336 -1.082029,-1.42969 -0.36328,-0.4961 -0.742184,-1.00782 -1.14062,-1.53907 -0.402343,-0.53124 -0.761717,-1.01172 -1.085935,-1.43359 -0.324218,-0.41797 -0.597654,-0.79688 -0.828122,-1.12501 -0.226562,-0.33203 -0.539061,-0.76172 -0.941403,-1.29296 -0.398436,-0.53125 -0.73828,-1.00782 -1.023435,-1.42969 -0.285155,-0.42188 -0.667966,-0.97266 -1.144527,-1.65235 -0.472655,-0.67969 -0.835934,-1.21093 -1.082028,-1.59376 -0.246093,-0.38671 -0.644529,-0.99218 -1.199215,-1.81641 -0.550779,-0.82812 -0.910153,-1.39453 -1.082027,-1.70702 -0.171875,-0.31251 -0.648436,-1.10157 -1.425778,-2.36719 -0.781247,-1.26563 -1.292963,-2.08986 -1.539056,-2.47267 -0.25,-0.38672 -0.867186,-1.44141 -1.855464,-3.16406 -0.988278,-1.72657 -1.730463,-3.02736 -2.226554,-3.90626 -0.492187,-0.88282 -0.929686,-1.70703 -1.312497,-2.47657 -0.378904,-0.76953 -0.910153,-1.92579 -1.593745,-3.46875 -0.687498,-1.53907 -1.02734,-2.32813 -1.02734,-2.3633 0,-0.0391 -0.343749,-0.88281 -1.02734,-2.53125 -0.683593,-1.65234 -1.218746,-2.95312 -1.597652,-3.90626 -0.378904,-0.95312 -0.914059,-2.40234 -1.59765,-4.34766 -0.683593,-1.94531 -1.367184,-4.01563 -2.054682,-6.21876 -0.683591,-2.19922 -1.445307,-4.875 -2.281242,-8.03126 -0.835934,-3.15235 -1.425776,-5.50001 -1.7695253,-7.04298 C 9.3280541,103.05805 8.8514941,100.81976 8.2421204,97.886161 7.6366533,94.952562 7.2733741,93.026778 7.1600933,92.108808 7.0468125,91.190836 6.7968128,88.386145 6.4179085,83.690824 6.0390029,78.995504 5.7890031,75.456436 5.6757223,73.073619 5.5624416,70.686897 5.4296291,68.155641 5.2772864,65.479855 5.1249436,62.800164 4.9140058,58.417344 4.6483823,52.32749 4.3827588,46.241543 4.2499463,41.929034 4.2499463,39.39778 v -3.792975 l 0.3710925,-0.195312 c 0.2460931,-0.128907 0.9218724,-0.281251 2.0234312,-0.464845 1.1054654,-0.183594 2.6249917,-0.421876 4.566391,-0.718751 1.937494,-0.29297 4.886703,-0.769533 8.839815,-1.42969 3.957019,-0.660157 6.789042,-1.13672 8.499973,-1.42969 1.710932,-0.292969 3.97655,-0.750001 6.78904,-1.375003 2.816398,-0.625001 5.249984,-1.21094 7.300758,-1.761721 2.054682,-0.550782 3.824207,-1.062502 5.304671,-1.539066 1.48437,-0.476562 2.644522,-0.84375 3.480457,-1.101563 0.835936,-0.257814 1.636714,-0.511721 2.398431,-0.769534 0.757809,-0.257812 2.281241,-0.808595 4.562484,-1.652345 2.281243,-0.843752 4.421861,-1.695316 6.417949,-2.558599 1.996087,-0.859376 3.06249,-1.300784 3.195302,-1.320315 0.132811,-0.01562 1.093746,-0.429687 2.878897,-1.238284 1.789057,-0.804688 3.402332,-1.539064 4.84764,-2.199222 1.445309,-0.660157 2.871085,-1.320314 4.281237,-1.980472 1.406246,-0.660157 3.15624,-1.52344 5.246077,-2.585941 L 88.3903,9.6906996 Z m 0,0"
     stroke="#000000"
     stroke-width="0.265061"
     stroke-opacity="1"
     stroke-miterlimit="4"
     id="path15" />
  <g
     clip-path="url(#id1)"
     id="g19"
     transform="translate(-261.03125,-186.38745)">
    <path
       stroke-linecap="butt"
       transform="matrix(0.132968,0,0,0.132094,247.86688,178.51322)"
       fill-opacity="1"
       fill="#004aad"
       fill-rule="evenodd"
       stroke-linejoin="miter"
       d="m 789.01716,60.610774 h 6.02234 l 25.94014,13.041161 c 17.27384,8.694108 28.7016,14.371892 34.2539,17.092498 5.5523,2.691033 24.47127,11.444287 56.72752,26.289327 32.25624,14.84504 48.91316,22.3267 50.00012,22.47456 1.08696,0.14786 9.63574,3.6669 25.70511,10.55713 16.04001,6.9198 28.40781,12.00615 37.04471,15.28862 8.637,3.31204 21.1517,7.80695 37.4854,13.48474 16.3632,5.70735 26.704,9.31511 31.0518,10.7937 4.3185,1.50816 9.7239,3.31204 16.1869,5.41164 6.4924,2.0996 14.8355,4.64277 25.0001,7.62952 10.1939,3.01633 23.1492,6.59451 38.8955,10.79371 15.7462,4.19919 31.0224,7.95481 45.8579,11.23728 14.8061,3.31204 24.3831,5.41164 28.7016,6.29879 4.3184,0.88716 18.067,3.4599 41.2163,7.62953 23.1493,4.19919 37.6617,6.77194 43.5077,7.65909 5.8755,0.88715 20.241,3.13461 43.0671,6.74237 22.8556,3.60776 34.4302,5.38207 34.724,5.38207 0.3231,0 11.4277,2.09959 33.3432,6.29879 21.9154,4.19919 32.9613,6.38751 33.1082,6.53537 l 0.235,0.207 -1.3807,67.00968 c -0.9401,44.65341 -3.2609,102.34798 -6.9625,173.08372 -3.7015,70.73573 -6.6392,120.17977 -8.7838,148.36169 -2.1739,28.15235 -4.6416,52.28293 -7.403,72.36218 -2.7909,20.10882 -6.0224,39.12348 -9.7239,57.10314 -3.7016,17.97965 -7.7262,36.13673 -12.0447,54.4121 -4.3185,18.27537 -8.1963,34.30328 -11.5746,48.11331 -3.4078,13.78045 -7.4031,28.59592 -12.0447,44.50555 -4.6416,15.88005 -7.4031,25.46131 -8.3432,28.77335 -0.9107,3.28247 -2.3208,7.48167 -4.1715,12.56802 -1.8508,5.11592 -3.9954,11.38514 -6.463,18.89637 -2.4677,7.48162 -6.3455,18.27542 -11.5747,32.38112 -5.2585,14.0762 -9.577,25.3135 -12.9847,33.7118 -3.3784,8.3984 -7.55,18.4233 -12.4854,30.1041 -4.9354,11.7105 -11.2809,25.7866 -18.9777,42.2581 -7.7262,16.5011 -12.3678,26.0823 -13.8955,28.7734 -1.557,2.7206 -7.1974,12.5384 -16.9213,29.4535 -9.7238,16.9446 -15.5699,26.9695 -17.5676,30.1336 -2.027,3.1347 -6.8155,11.0895 -14.3655,23.8349 -7.5793,12.7159 -12.5147,20.8186 -14.8061,24.2785 -2.3208,3.4303 -5.8755,8.8419 -10.664,16.1757 -4.7885,7.3338 -8.6369,13.0412 -11.5746,17.0925 -2.9377,4.0218 -6.3161,8.842 -10.1939,14.3719 -3.8484,5.5595 -7.55,10.6459 -11.1046,15.2886 -3.5547,4.6428 -6.3455,8.5463 -8.3432,11.6809 -1.9976,3.1642 -4.9354,7.2155 -8.7838,12.154 -3.8778,4.9385 -7.5793,9.877 -11.134,14.845 -3.5252,4.9385 -7.403,10.0249 -11.5746,15.2591 -4.1422,5.2638 -7.6969,9.7587 -10.6346,13.5143 -2.9377,3.726 -9.1951,10.8528 -18.7427,21.3508 -9.577,10.4684 -20.8579,22.4746 -33.8132,35.9593 -12.9554,13.4848 -24.3832,25.0178 -34.2539,34.6286 -9.9002,9.5813 -16.4513,15.6435 -19.6828,18.1867 -3.2609,2.5431 -10.8108,8.9898 -22.7086,19.3399 -11.8685,10.3501 -19.1247,16.6489 -21.7392,18.8964 -2.644,2.2474 -9.107,7.7774 -19.44778,16.6193 -10.3408,8.842 -17.15633,14.5494 -20.38783,17.0925 -3.2315,2.5432 -6.93304,5.53 -11.10461,8.9899 -4.17158,3.4303 -9.9589,8.1618 -17.36197,14.1649 -7.43245,5.9735 -13.04351,10.4092 -16.92131,13.2481 -3.84842,2.8685 -7.54996,5.4117 -11.10461,7.6591 -3.55465,2.2475 -10.01765,6.1214 -19.44776,11.6809 -9.40072,5.5299 -15.59933,9.2855 -18.50768,11.2373 -2.93773,1.9517 -6.25736,3.9626 -9.9589,6.0622 -3.70153,2.0996 -7.57933,4.4949 -11.57464,7.2155 -4.02469,2.691 -6.96242,4.6428 -8.81318,5.8256 -1.85077,1.2125 -5.84608,3.3121 -12.04469,6.2988 -6.16922,2.9868 -13.5723,6.4467 -22.20922,10.3502 -8.63691,3.8739 -14.65926,6.4466 -18.06702,7.6295 l -5.08227,1.8039 -5.5523,-1.3603 c -3.70154,-0.8872 -7.72623,-2.3954 -12.04469,-4.495 -4.31845,-2.0996 -11.57464,-5.6777 -21.76855,-10.7937 -10.19392,-5.0863 -16.04,-8.2209 -17.59699,-9.4334 -1.52762,-1.1828 -5.46418,-3.8147 -11.80967,-7.8661 -6.31611,-4.0513 -11.10461,-7.0381 -14.36548,-8.9898 -3.2315,-1.9517 -9.54762,-5.6778 -18.97772,-11.2373 -9.40073,-5.5595 -15.89311,-9.4334 -19.44776,-11.6808 -3.55465,-2.2475 -7.25619,-4.7907 -11.10461,-7.6591 -3.84842,-2.8389 -8.25501,-6.2101 -13.19039,-10.1136 -4.93539,-3.9035 -11.5159,-9.1968 -19.68278,-15.9688 -8.19626,-6.7423 -15.27618,-12.568 -21.29852,-17.5065 -6.02234,-4.968 -14.83553,-12.4497 -26.41017,-22.5041 -11.57465,-10.0248 -18.97772,-16.3236 -22.20922,-18.8668 -3.2315,-2.5432 -10.3408,-8.5462 -21.29853,-17.9796 -10.95772,-9.463 -17.06819,-14.7564 -18.30204,-15.9688 -1.23384,-1.2125 -6.69802,-6.5058 -16.42189,-15.9688 -9.72388,-9.4334 -16.53941,-16.1758 -20.38783,-20.2271 -3.84843,-4.0513 -12.33846,-13.0412 -25.4701,-26.9695 -13.10226,-13.9283 -20.97537,-22.4745 -23.61933,-25.6387 -2.61458,-3.1346 -6.463,-7.7774 -11.57464,-13.9283 -5.08227,-6.151 -9.10696,-11.0894 -12.01531,-14.8451 -2.93773,-3.726 -5.87545,-7.6295 -8.81318,-11.6808 -2.93773,-4.0514 -6.02234,-8.2506 -9.25384,-12.5976 -3.2315,-4.3175 -6.16923,-8.221 -8.81319,-11.6809 -2.61457,-3.4303 -4.84725,-6.5058 -6.69801,-9.1968 -1.85077,-2.7206 -4.4066,-6.2396 -7.63809,-10.5867 -3.26088,-4.3471 -6.02235,-8.221 -8.34315,-11.6809 -2.32081,-3.4599 -5.40542,-7.9548 -9.25384,-13.4847 -3.8778,-5.5595 -6.78615,-9.9065 -8.81318,-13.0412 -1.99766,-3.1346 -5.22916,-8.1026 -9.72388,-14.845 -4.46535,-6.7424 -7.40308,-11.3851 -8.78381,-13.9283 -1.38073,-2.5432 -5.25853,-8.9898 -11.57464,-19.34 -6.34549,-10.3205 -10.48769,-17.0629 -12.51472,-20.2271 -1.99766,-3.1346 -7.02117,-11.7695 -15.04117,-25.8457 -8.01999,-14.0762 -14.04233,-24.722 -18.06702,-31.908 -3.99531,-7.2155 -7.54996,-13.9579 -10.63457,-20.2567 -3.08462,-6.2692 -7.40308,-15.7322 -12.98476,-28.3002 -5.5523,-12.5976 -8.31377,-19.0442 -8.31377,-19.3399 0,-0.2957 -2.79084,-7.186 -8.34314,-20.6707 -5.55231,-13.5143 -9.87077,-24.1306 -12.95538,-31.9376 -3.08462,-7.7773 -7.43245,-19.6356 -12.98476,-35.5157 -5.5523,-15.88003 -11.10461,-32.82467 -16.65691,-50.80432 -5.55231,-17.97965 -11.72153,-39.86278 -18.53706,-65.64939 -6.78615,-25.75703 -11.57465,-44.94912 -14.33611,-57.54671 -2.79084,-12.56801 -6.63927,-30.87295 -11.57465,-54.8261 -4.93538,-23.98273 -7.87311,-39.71492 -8.81318,-47.22616 -0.9107,-7.48166 -2.93773,-30.42938 -6.02234,-68.78399 -3.08462,-38.35462 -5.08227,-67.27583 -5.99297,-86.76365 -0.94007,-19.48781 -2.02703,-40.15849 -3.26087,-62.04162 -1.23385,-21.88313 -2.93773,-57.69457 -5.08227,-107.4639 -2.17392,-49.73976 -3.26088,-84.95977 -3.26088,-105.63045 v -31.02082 l 3.02586,-1.59687 c 1.99765,-1.03502 7.4912,-2.3066 16.4219,-3.81476 8.96006,-1.47859 21.3279,-3.43033 37.04474,-5.82565 15.74622,-2.39531 39.6887,-6.29879 71.76868,-11.71043 32.10936,-5.38207 55.11177,-9.28554 69.00722,-11.68086 13.89545,-2.39531 32.25625,-6.15093 55.11177,-11.23728 22.82614,-5.08635 42.59704,-9.90655 59.25396,-14.40146 16.68629,-4.49492 31.0224,-8.66454 43.06708,-12.56802 12.04468,-3.90347 21.44541,-6.89022 28.26094,-8.98982 6.78615,-2.0996 13.24915,-4.1992 19.44775,-6.29879 6.16923,-2.0996 18.50769,-6.59451 37.01537,-13.48474 18.53706,-6.89023 35.89903,-13.86917 52.11529,-20.90726 16.18687,-7.03809 24.82379,-10.64585 25.91075,-10.79371 1.08696,-0.14785 8.87194,-3.51904 23.38431,-10.11355 14.51238,-6.59451 27.64402,-12.59758 39.36555,-17.97965 11.72153,-5.41164 23.29618,-10.7937 34.72394,-16.205343 11.42776,-5.382067 25.61698,-12.420154 42.59705,-21.114262 l 25.47009,-13.041161 z m 0,0"
       stroke="#000000"
       stroke-width="2"
       stroke-opacity="1"
       stroke-miterlimit="4"
       id="path17" />
  </g>
  <path
     stroke-linecap="butt"
     fill-opacity="1"
     fill="#ffffff"
     fill-rule="evenodd"
     stroke-linejoin="miter"
     d="m 92.089507,8.7102279 h 0.738279 l 3.195302,1.5976601 c 2.1289,1.062502 3.539051,1.761722 4.222642,2.089847 0.68359,0.332031 3.01171,1.402346 6.98826,3.218756 3.97264,1.816408 6.02732,2.734378 6.16014,2.750004 0.13281,0.01953 1.18749,0.44922 3.16795,1.29297 1.97656,0.843752 3.49609,1.468753 4.56249,1.871097 1.0625,0.402345 2.60546,0.953127 4.62108,1.652347 2.01562,0.695314 3.28904,1.13672 3.8203,1.320315 0.53125,0.183594 1.19922,0.402344 1.99608,0.660157 0.80079,0.253907 1.82812,0.566407 3.08203,0.933596 1.2539,0.367188 2.85155,0.808594 4.79295,1.320315 1.9375,0.515625 3.8203,0.972658 5.64451,1.375002 1.82813,0.406251 3.0039,0.660157 3.53905,0.773438 0.53125,0.109375 2.22266,0.421876 5.07421,0.933595 2.85546,0.511721 4.64061,0.824221 5.36326,0.933596 0.72266,0.113281 2.49218,0.38672 5.30467,0.828126 2.81639,0.437501 4.24217,0.660158 4.28124,0.660158 0.0352,0 1.40624,0.253906 4.10545,0.769533 2.69921,0.511719 4.05858,0.777345 4.07812,0.796876 l 0.0312,0.02734 -0.17187,8.199233 c -0.11719,5.464853 -0.40234,12.527364 -0.85546,21.183629 -0.45703,8.656264 -0.82031,14.707056 -1.08594,18.156281 -0.26562,3.445318 -0.57031,6.398449 -0.91015,8.855483 -0.34375,2.457035 -0.74219,4.789072 -1.19922,6.988294 -0.45703,2.203134 -0.95312,4.421884 -1.48437,6.656264 -0.53125,2.23829 -1.0078,4.20313 -1.42578,5.88673 -0.41797,1.6875 -0.91406,3.50391 -1.48436,5.44923 -0.57031,1.94531 -0.91016,3.11719 -1.02344,3.51954 -0.11718,0.40624 -0.28515,0.91797 -0.51562,1.54297 -0.22657,0.62109 -0.49218,1.39453 -0.79688,2.30859 -0.30468,0.91797 -0.78124,2.23828 -1.42578,3.96095 -0.64843,1.72656 -1.17967,3.10156 -1.59765,4.12891 -0.41795,1.02735 -0.93358,2.25391 -1.54296,3.6836 -0.60547,1.43359 -1.38671,3.15626 -2.33593,5.17189 -0.95312,2.01953 -1.52342,3.19141 -1.71092,3.52344 -0.19141,0.32812 -0.88673,1.53126 -2.08594,3.60157 -1.19531,2.07422 -1.91797,3.30468 -2.16405,3.68751 -0.25001,0.38671 -0.83984,1.35938 -1.76953,2.91797 -0.93359,1.5586 -1.53906,2.54687 -1.82421,2.96876 -0.28516,0.42186 -0.72266,1.08203 -1.3125,1.98047 -0.58983,0.89844 -1.0664,1.59765 -1.42578,2.09375 -0.36328,0.49219 -0.78124,1.08203 -1.25781,1.75782 -0.47265,0.67969 -0.92968,1.30468 -1.36717,1.8711 -0.43751,0.5703 -0.78126,1.04687 -1.02734,1.42968 -0.2461,0.38671 -0.60938,0.88282 -1.08203,1.48829 -0.47657,0.60546 -0.93359,1.21093 -1.3711,1.81641 -0.43749,0.60155 -0.91405,1.22656 -1.42577,1.86719 -0.51172,0.64452 -0.94921,1.19531 -1.31249,1.65235 -0.35937,0.45703 -1.13281,1.32812 -2.30859,2.61328 -1.17968,1.28515 -2.57031,2.75 -4.16406,4.40235 -1.59765,1.64844 -3.0078,3.0625 -4.22263,4.23438 -1.21875,1.17578 -2.02734,1.91798 -2.42578,2.23047 -0.39844,0.31251 -1.33202,1.10157 -2.79296,2.36719 -1.46483,1.26172 -2.35936,2.03516 -2.68358,2.30861 -0.32422,0.27734 -1.12109,0.95312 -2.39453,2.03516 -1.27343,1.08202 -2.10937,1.78124 -2.51171,2.08984 -0.39843,0.3125 -0.85546,0.67969 -1.36718,1.10156 -0.51562,0.42188 -1.22656,1 -2.14062,1.73438 -0.91015,0.73438 -1.60546,1.27344 -2.08202,1.6211 -0.47656,0.35155 -0.92969,0.66015 -1.36719,0.9375 -0.43749,0.27343 -1.23827,0.75 -2.39843,1.42969 -1.16015,0.67969 -1.91796,1.13672 -2.28124,1.37501 -0.35937,0.23827 -0.76953,0.48827 -1.22656,0.74218 -0.45703,0.25781 -0.92968,0.55078 -1.42577,0.88281 -0.49219,0.32813 -0.85547,0.56641 -1.082032,0.71485 -0.230468,0.14453 -0.722654,0.40235 -1.484369,0.76953 -0.761717,0.36719 -1.671871,0.78906 -2.738273,1.26563 -1.066403,0.47656 -1.804681,0.78906 -2.226556,0.93359 l -0.624997,0.22266 -0.683593,-0.16797 c -0.457029,-0.10938 -0.953121,-0.29296 -1.484369,-0.54687 -0.531249,-0.25782 -1.425778,-0.69923 -2.683586,-1.32032 -1.253901,-0.62501 -1.976556,-1.01172 -2.164055,-1.15625 -0.191405,-0.14844 -0.675779,-0.46875 -1.457026,-0.96485 -0.777342,-0.49609 -1.367184,-0.85938 -1.769526,-1.09765 -0.398436,-0.23828 -1.175778,-0.69923 -2.33593,-1.37892 -1.160153,-0.67578 -1.960931,-1.15234 -2.398429,-1.42969 -0.4375,-0.27343 -0.890623,-0.58593 -1.367184,-0.93359 -0.476561,-0.34765 -1.019528,-0.76172 -1.624995,-1.23829 -0.609373,-0.47655 -1.417964,-1.1289 -2.425773,-1.95312 -1.007809,-0.82422 -1.882807,-1.54297 -2.624991,-2.14454 -0.742185,-0.60546 -1.824214,-1.52344 -3.24999,-2.75391 -1.425777,-1.22655 -2.339836,-2 -2.738272,-2.30859 -0.398436,-0.31251 -1.273433,-1.04688 -2.624992,-2.20313 -1.351559,-1.15235 -2.101555,-1.80469 -2.253899,-1.95313 -0.152343,-0.14454 -0.824216,-0.79688 -2.023432,-1.95313 -1.199214,-1.15626 -2.035149,-1.98047 -2.511709,-2.47656 -0.472655,-0.4922 -1.519527,-1.59375 -3.13671,-3.30079 -1.617182,-1.70313 -2.585928,-2.75 -2.910146,-3.13282 -0.320312,-0.38672 -0.796873,-0.95704 -1.425777,-1.70704 -0.624997,-0.7539 -1.12109,-1.35937 -1.480464,-1.8164 -0.36328,-0.45703 -0.722654,-0.9336 -1.085934,-1.42969 -0.359374,-0.49609 -0.742185,-1.00781 -1.140621,-1.54298 -0.398436,-0.53124 -0.761716,-1.00781 -1.085935,-1.42969 -0.32031,-0.42187 -0.597654,-0.79687 -0.824215,-1.12499 -0.230468,-0.33203 -0.542967,-0.76172 -0.941403,-1.29298 -0.398437,-0.53515 -0.742186,-1.01172 -1.027341,-1.43359 -0.285156,-0.42188 -0.66406,-0.97266 -1.140621,-1.64844 -0.476562,-0.67969 -0.835935,-1.21094 -1.085934,-1.59766 -0.246093,-0.38281 -0.644529,-0.98829 -1.195309,-1.81641 -0.550779,-0.82422 -0.914059,-1.39062 -1.085934,-1.70313 -0.171874,-0.3125 -0.644529,-1.10156 -1.425777,-2.36719 -0.77734,-1.26563 -1.292964,-2.08985 -1.539057,-2.47657 -0.246093,-0.38282 -0.867185,-1.4375 -1.855463,-3.16407 -0.988278,-1.72265 -1.730463,-3.02343 -2.222649,-3.90626 -0.496092,-0.8789 -0.933591,-1.70313 -1.312496,-2.47265 -0.382811,-0.77344 -0.914059,-1.92579 -1.597651,-3.46876 -0.683592,-1.53907 -1.02734,-2.32813 -1.02734,-2.36329 0,-0.0391 -0.343749,-0.88281 -1.02734,-2.53125 -0.683593,-1.65235 -1.214841,-2.95313 -1.597652,-3.90625 -0.378905,-0.95704 -0.910153,-2.40236 -1.597651,-4.34767 -0.683592,-1.94532 -1.367183,-4.01563 -2.050774,-6.21876 -0.687498,-2.19922 -1.445308,-4.87891 -2.281243,-8.03126 -0.839841,-3.15626 -1.429683,-5.50392 -1.769526,-7.04299 C 12.28117,102.08148 11.808515,99.843195 11.199143,96.909596 10.589769,93.972091 10.22649,92.046308 10.113209,91.132243 9.9999281,90.214273 9.7538349,87.409581 9.3710227,82.71426 8.9921184,78.018939 8.7460252,74.479871 8.6327445,72.093148 8.5155571,69.710332 8.3827447,67.179077 8.2304019,64.503292 8.0780592,61.823599 7.871028,57.44078 7.6054045,51.350925 7.3397796,45.261071 7.2030619,40.952471 7.2030619,38.421216 v -3.796881 l 0.3710924,-0.191407 c 0.2499985,-0.128906 0.9218725,-0.285156 2.0273365,-0.46875 1.1015602,-0.183595 2.6249922,-0.421876 4.5624862,-0.714845 1.9414,-0.29297 4.886703,-0.769533 8.843721,-1.42969 3.953112,-0.660157 6.78904,-1.136721 8.499973,-1.429691 1.710931,-0.292968 3.972644,-0.753906 6.785134,-1.375002 2.816397,-0.625 5.249983,-1.210939 7.304665,-1.761722 2.050774,-0.550781 3.820299,-1.062502 5.30467,-1.539064 1.48437,-0.480471 2.640616,-0.843752 3.480457,-1.101565 0.835934,-0.257813 1.632808,-0.515626 2.394524,-0.769532 0.761715,-0.257813 2.281243,-0.808596 4.562485,-1.652347 2.281242,-0.843751 4.421861,-1.695315 6.417949,-2.558598 1.996086,-0.863283 3.062489,-1.300784 3.195302,-1.320315 0.132811,-0.01953 1.093745,-0.429688 2.878897,-1.238283 1.789056,-0.804689 3.406238,-1.539065 4.851546,-2.199222 1.445308,-0.660158 2.871085,-1.320315 4.277331,-1.980472 1.406245,-0.660158 3.156238,-1.52344 5.249982,-2.585942 l 3.136708,-1.5976601 z m 0,0"
     stroke="#000000"
     stroke-width="0.265061"
     stroke-opacity="1"
     stroke-miterlimit="4"
     id="path21" />
  <path
     stroke-linecap="butt"
     fill-opacity="1"
     fill="#004aad"
     fill-rule="evenodd"
     stroke-linejoin="miter"
     d="m 91.835601,14.581332 h 0.687498 l 2.964835,1.503909 c 1.972649,1.000001 3.277333,1.656252 3.914049,1.964846 0.636717,0.312502 2.796867,1.324222 6.480447,3.031257 3.68749,1.710939 5.58983,2.574222 5.71483,2.589848 0.12109,0.01562 1.10156,0.421875 2.93358,1.218752 1.83593,0.792969 3.24608,1.378908 4.23436,1.757814 0.98828,0.382814 2.41405,0.89844 4.28515,1.554691 1.87109,0.656251 3.05076,1.070314 3.54296,1.24219 0.49609,0.175781 1.11327,0.382812 1.85155,0.621094 0.74219,0.242189 1.6953,0.535158 2.85936,0.882814 1.16407,0.343751 2.64453,0.757814 4.4453,1.24219 1.79687,0.484375 3.54296,0.914064 5.23436,1.296878 1.69531,0.378906 2.78905,0.621094 3.28123,0.722657 0.49611,0.105469 2.0625,0.398438 4.70703,0.882813 2.64842,0.48047 4.30467,0.77344 4.97654,0.878909 0.66797,0.101561 2.30859,0.363281 4.91796,0.777344 2.60936,0.414064 3.93358,0.621095 3.96873,0.621095 0.0352,0 1.30468,0.242188 3.80858,0.726563 2.50391,0.480471 3.76561,0.730471 3.78124,0.750002 l 0.0274,0.02344 -0.15625,7.718764 c -0.10547,5.144539 -0.37109,11.792987 -0.79688,19.941439 -0.42187,8.148451 -0.75781,13.843774 -1.0039,17.089873 -0.24609,3.246099 -0.52735,6.023447 -0.84765,8.339858 -0.31641,2.312503 -0.6875,4.503914 -1.10937,6.578136 -0.42188,2.070312 -0.88281,4.160162 -1.37499,6.265632 -0.49611,2.10547 -0.9336,3.95313 -1.32422,5.53907 -0.38672,1.58985 -0.84375,3.30079 -1.37499,5.12892 -0.52736,1.83203 -0.84766,2.9336 -0.95313,3.31641 -0.10547,0.37891 -0.26172,0.86328 -0.47656,1.44922 -0.21094,0.58594 -0.45704,1.3125 -0.73828,2.17579 -0.28125,0.86328 -0.72265,2.10547 -1.32421,3.72656 -0.59765,1.62501 -1.09376,2.91799 -1.48047,3.88674 -0.38672,0.96484 -0.86328,2.12108 -1.42968,3.46875 -0.5625,1.34766 -1.28515,2.96875 -2.16797,4.8672 -0.8828,1.90234 -1.41015,3.00391 -1.58593,3.3164 -0.17577,0.31251 -0.82031,1.44141 -1.93358,3.39454 -1.10937,1.94922 -1.78124,3.10548 -2.00781,3.46876 -0.23047,0.36327 -0.77734,1.27734 -1.64062,2.74609 -0.86328,1.46486 -1.42969,2.39844 -1.69531,2.79688 -0.26172,0.39454 -0.66796,1.01563 -1.21483,1.86329 -0.54689,0.84375 -0.98829,1.50001 -1.32422,1.96876 -0.33203,0.46484 -0.72265,1.01561 -1.16406,1.65624 -0.4375,0.63672 -0.86327,1.22658 -1.26953,1.76173 -0.40233,0.53515 -0.72265,0.98438 -0.94922,1.34375 -0.23046,0.36329 -0.5664,0.83204 -1.0078,1.39844 -0.4414,0.57032 -0.86328,1.14063 -1.26953,1.71094 -0.40624,0.57031 -0.84766,1.15625 -1.3203,1.76172 -0.47657,0.60547 -0.88282,1.12109 -1.21875,1.55469 -0.33594,0.42969 -1.05078,1.25001 -2.14062,2.45703 -1.09375,1.21095 -2.3828,2.58985 -3.86327,4.14454 -1.48047,1.5547 -2.78515,2.88282 -3.91405,3.98829 -1.12891,1.10547 -1.8789,1.80469 -2.25,2.09767 -0.37109,0.29297 -1.23437,1.03515 -2.59374,2.22656 -1.35546,1.19141 -2.18358,1.91796 -2.48436,2.17579 -0.30078,0.2578 -1.04297,0.89843 -2.22265,1.91796 -1.18359,1.01563 -1.95703,1.67189 -2.32812,1.96486 -0.37109,0.29687 -0.79297,0.64062 -1.26953,1.03905 -0.47656,0.39454 -1.13671,0.93751 -1.98436,1.62892 -0.84766,0.6914 -1.48828,1.19921 -1.92969,1.52735 -0.4414,0.32812 -0.86718,0.62109 -1.26952,0.88281 -0.40625,0.25781 -1.14844,0.70703 -2.22265,1.34375 -1.07812,0.64063 -1.78125,1.07032 -2.11718,1.29687 -0.33594,0.22266 -0.71484,0.45704 -1.13672,0.69923 -0.42187,0.24218 -0.863277,0.51562 -1.324212,0.82812 -0.45703,0.3125 -0.792967,0.53516 -1.003903,0.67187 -0.210938,0.14063 -0.671873,0.38283 -1.374995,0.72657 -0.70703,0.34375 -1.550777,0.74219 -2.539055,1.19141 -0.988278,0.44921 -1.675776,0.74219 -2.062493,0.8789 l -0.58203,0.20703 -0.636716,-0.15234 c -0.421875,-0.10546 -0.882811,-0.27734 -1.374996,-0.51953 -0.496093,-0.24219 -1.324215,-0.65625 -2.488274,-1.24218 -1.164058,-0.58594 -1.832025,-0.94923 -2.007806,-1.08986 -0.17578,-0.13671 -0.628904,-0.43749 -1.351557,-0.90624 -0.722655,-0.46485 -1.269528,-0.8086 -1.640621,-1.03515 -0.367185,-0.22266 -1.08984,-0.65626 -2.16796,-1.29298 -1.074217,-0.64063 -1.816402,-1.08984 -2.22265,-1.34766 -0.406249,-0.25781 -0.828123,-0.55078 -1.269528,-0.8789 -0.441404,-0.32814 -0.941402,-0.71875 -1.507808,-1.16798 -0.562497,-0.44922 -1.312495,-1.0625 -2.246086,-1.83593 -0.937496,-0.77735 -1.746088,-1.45313 -2.433585,-2.01955 -0.687498,-0.5703 -1.695308,-1.43359 -3.015616,-2.58985 -1.324214,-1.16015 -2.171868,-1.88281 -2.539053,-2.17577 -0.371094,-0.29297 -1.183591,-0.98438 -2.433587,-2.07423 -1.253902,-1.08593 -1.949213,-1.69922 -2.089837,-1.83594 -0.144531,-0.14063 -0.769529,-0.75391 -1.8789,-1.83984 -1.113278,-1.08595 -1.886713,-1.86329 -2.328117,-2.33204 -0.441406,-0.46484 -1.410152,-1.50001 -2.910147,-3.10548 -1.499996,-1.60547 -2.39843,-2.58985 -2.699211,-2.95312 -0.30078,-0.36329 -0.738278,-0.89845 -1.320308,-1.60548 -0.582029,-0.70702 -1.042965,-1.27734 -1.378902,-1.70703 -0.332031,-0.4336 -0.667966,-0.88282 -1.003903,-1.34766 -0.335936,-0.46875 -0.687498,-0.94922 -1.05859,-1.44922 -0.371093,-0.50391 -0.703123,-0.94922 -1.003904,-1.34766 -0.30078,-0.39844 -0.554685,-0.75 -0.769528,-1.0625 -0.210936,-0.3086 -0.499998,-0.71485 -0.871091,-1.21875 -0.371092,-0.5 -0.687497,-0.94923 -0.953122,-1.34375 -0.261717,-0.39844 -0.617186,-0.91407 -1.05859,-1.5547 -0.441405,-0.64063 -0.773435,-1.14063 -1.003903,-1.5 -0.230469,-0.36327 -0.597654,-0.93359 -1.109371,-1.71094 -0.511718,-0.77734 -0.847654,-1.3125 -1.00781,-1.60547 -0.156249,-0.29297 -0.597654,-1.03515 -1.320308,-2.22656 -0.722655,-1.19141 -1.199215,-1.96876 -1.429683,-2.33204 -0.230468,-0.36329 -0.800778,-1.35547 -1.718744,-2.97657 -0.917966,-1.625 -1.605464,-2.84767 -2.062493,-3.67969 -0.460937,-0.82813 -0.867186,-1.60548 -1.218746,-2.32813 -0.351563,-0.72657 -0.847654,-1.8125 -1.480465,-3.26173 -0.636717,-1.45313 -0.953122,-2.19531 -0.953122,-2.23047 0,-0.0313 -0.316404,-0.82813 -0.953122,-2.38282 -0.63281,-1.55078 -1.128902,-2.77734 -1.480464,-3.67578 -0.351561,-0.89844 -0.847652,-2.26173 -1.480463,-4.08985 -0.636717,-1.83204 -1.269528,-3.78126 -1.906244,-5.85548 -0.632811,-2.07032 -1.33984,-4.58985 -2.117182,-7.55861 -0.773435,-2.97266 -1.320308,-5.1797 -1.636712,-6.62892 -0.320312,-1.45312 -0.757811,-3.5586 -1.324215,-6.320318 -0.562499,-2.761723 -0.898434,-4.574226 -1.003903,-5.437509 -0.105469,-0.863282 -0.335937,-3.503913 -0.687498,-7.925795 -0.355467,-4.417976 -0.582029,-7.750013 -0.687498,-9.99611 -0.109374,-2.242192 -0.230468,-4.625009 -0.371092,-7.144543 -0.140624,-2.523442 -0.335937,-6.64845 -0.58203,-12.378928 -0.246092,-5.734384 -0.371093,-9.789079 -0.371093,-12.171895 v -3.574225 l 0.343749,-0.179689 c 0.230468,-0.121093 0.855467,-0.269531 1.878901,-0.441406 1.023434,-0.171876 2.433585,-0.398438 4.230455,-0.671877 1.800775,-0.277343 4.535142,-0.726563 8.203099,-1.347658 3.667957,-0.621094 6.292949,-1.070314 7.882787,-1.347658 1.585932,-0.277344 3.683582,-0.707033 6.292949,-1.292971 2.613272,-0.589845 4.867171,-1.140627 6.773415,-1.660159 1.906244,-0.515626 3.542958,-1.000002 4.921858,-1.449222 1.374997,-0.449219 2.449212,-0.792969 3.226553,-1.035157 0.773435,-0.242188 1.515621,-0.484377 2.222649,-0.726565 0.703123,-0.242187 2.113275,-0.757812 4.230455,-1.550783 2.117181,-0.796876 4.10155,-1.597659 5.953107,-2.410161 1.851556,-0.812501 2.839834,-1.226564 2.960927,-1.242189 0.124999,-0.01953 1.015622,-0.40625 2.671867,-1.164064 1.660151,-0.76172 3.15624,-1.453128 4.496079,-2.074222 1.339839,-0.621096 2.664054,-1.24219 3.968737,-1.863285 1.304683,-0.621096 2.929679,-1.433597 4.867171,-2.433598 l 2.910147,-1.503909 z m 0,0"
     stroke="#000000"
     stroke-width="0.265061"
     stroke-opacity="1"
     stroke-miterlimit="4"
     id="path23" />
  <g
     clip-path="url(#id2)"
     id="g27"
     transform="translate(-261.03125,-186.38745)">
    <path
       fill="#f8a126"
       d="m 381.61719,302.05469 c 6.97265,-7.28125 11.26172,-17.16016 11.26172,-28.04688 0,-22.3789 -18.125,-40.52734 -40.48438,-40.52734 -22.35937,0 -40.48437,18.14844 -40.48437,40.52734 0,10.88672 4.28515,20.76563 11.26171,28.04688 h 58.44532"
       fill-opacity="1"
       fill-rule="nonzero"
       id="path25" />
  </g>
  <g
     clip-path="url(#id3)"
     id="g31"
     transform="translate(-261.03125,-186.38745)">
    <path
       fill="#f8a126"
       d="m 352.39453,327.01562 c -7.23828,0 -25.19531,-1.22265 -25.19531,-2.12109 0,-0.90234 22.72656,-0.12891 22.72656,-1.80469 0,-1.67187 -30.47266,0.46875 -30.47266,-0.49609 0,-0.96484 31.45704,-1.0625 31.45704,-2.26563 0,-1.20703 -40.51563,-0.87109 -40.51563,-1.88281 0,-1.01172 32.64063,-0.14453 32.64063,-1.59375 0,-1.44531 -38.10547,-0.28906 -38.10547,-1.15625 0,-0.86719 25.57422,-0.33984 25.57422,-1.78515 0,-1.44922 -28.33985,0.14453 -28.33985,-1.4961 0,-1.64062 49.13281,-1.0625 49.13281,-2.41406 0,-1.34766 -45.78515,-0.38281 -45.78515,-1.78516 0,-1.39843 28.70312,-1.39843 28.70312,-2.69922 0,-1.30468 -22.07422,-0.91796 -22.07422,-2.26953 0,-1.35156 0.9961,-1.1914 0.9961,-1.1914 h 78.51562 c 0,0 0.9961,-0.16016 0.9961,1.1914 0,1.35157 -22.07422,0.96485 -22.07422,2.26953 0,1.30079 28.16797,0.21485 28.16797,1.61719 0,1.39844 -32.65235,1.51953 -32.65235,2.86719 0,1.35156 36.53516,0.77344 36.53516,2.41406 0,1.64063 -30.73438,0.0469 -30.73438,1.4961 0,1.44531 25.96094,0.91796 25.96094,1.78515 0,0.86719 -34.1875,-0.28906 -34.1875,1.15625 0,1.44922 25.96485,0.58203 25.96485,1.59375 0,1.01172 -31.15235,0.67578 -31.15235,1.88281 0,1.20313 21.70313,1.30079 21.70313,2.26563 0,0.96484 -25.31641,-1.17578 -25.31641,0.49609 0,1.67578 15.93359,0.90235 15.93359,1.80469 0,0.89844 -11.16796,2.12109 -18.40234,2.12109"
       fill-opacity="1"
       fill-rule="nonzero"
       id="path29" />
  </g>
</svg>
