<svg xmlns="http://www.w3.org/2000/svg" width="244.5" zoomAndPan="magnify" viewBox="0 0 183.375 216.321" height="288.428" preserveAspectRatio="xMidYMid meet" xmlns:v="https://vecta.io/nano"><defs><clipPath id="A"><path d="M261.031 186.352h183.375v216.387H261.031zm0 0" clip-rule="nonzero"/></clipPath><clipPath id="B"><path d="M311 233.469h82V303h-82zm0 0" clip-rule="nonzero"/></clipPath><clipPath id="C"><path d="M302 302h100.824v24.992H302zm0 0" clip-rule="nonzero"/></clipPath></defs><g fill-rule="evenodd" stroke="#000" stroke-width=".265"><path d="M92.004 7.82h.742l3.195 1.598 4.223 2.09 6.988 3.219 6.16 2.75c.133.02 1.187.449 3.164 1.293l4.566 1.871 4.621 1.648 3.82 1.32 1.996.664 3.082.934 4.789 1.32 5.648 1.375 3.539.77 5.074.938 5.363.934 5.305.824 4.281.66c.035 0 1.406.258 4.105.773l4.078.797.027.027-.168 8.199c-.117 5.465-.402 12.523-.855 21.18l-1.086 18.156c-.266 3.449-.57 6.402-.914 8.859s-.738 4.789-1.195 6.988l-1.484 6.656-1.426 5.887c-.418 1.688-.914 3.504-1.484 5.449l-1.027 3.52c-.113.402-.285.918-.512 1.539s-.496 1.395-.797 2.313-.781 2.238-1.43 3.961l-1.594 4.129-1.543 3.684a148.67 148.67 0 0 1-2.34 5.172l-1.711 3.523-2.082 3.602-2.168 3.688c-.246.387-.836 1.355-1.766 2.914l-1.828 2.973-1.309 1.98c-.59.898-1.066 1.598-1.43 2.09l-1.254 1.762a49.47 49.47 0 0 1-1.367 1.871c-.438.57-.781 1.047-1.027 1.43s-.609.883-1.086 1.484a61.35 61.35 0 0 0-1.367 1.816 48.87 48.87 0 0 1-1.426 1.871l-1.312 1.652c-.363.457-1.133 1.328-2.309 2.613l-4.168 4.402c-1.594 1.648-3.004 3.063-4.219 4.234s-2.027 1.918-2.426 2.23-1.332 1.098-2.797 2.363l-2.68 2.313-2.395 2.035-2.512 2.09-1.367 1.102-2.141 1.734-2.082 1.621c-.477.348-.93.66-1.367.938s-1.238.75-2.398 1.43l-2.281 1.375c-.359.238-.77.484-1.227.742a23.75 23.75 0 0 0-1.426.879l-1.082.715c-.23.148-.723.406-1.484.773s-1.676.789-2.738 1.266-1.809.789-2.227.934l-.625.219-.687-.164c-.453-.109-.949-.293-1.48-.551l-2.684-1.32c-1.254-.621-1.977-1.008-2.168-1.156s-.672-.465-1.453-.961l-1.77-1.102-2.336-1.375-2.398-1.43c-.437-.273-.895-.586-1.367-.938a56 56 0 0 1-1.625-1.234l-2.426-1.953-2.625-2.148a165.47 165.47 0 0 1-3.25-2.75l-2.738-2.312c-.398-.309-1.273-1.043-2.625-2.199l-2.254-1.953-2.023-1.953-2.512-2.477-3.137-3.301-2.91-3.137-1.426-1.703-1.484-1.816-1.082-1.43-1.141-1.543-1.086-1.43c-.32-.422-.598-.797-.824-1.129s-.543-.762-.941-1.293-.742-1.008-1.027-1.43l-1.141-1.652c-.477-.676-.836-1.207-1.086-1.594s-.645-.992-1.195-1.816-.914-1.395-1.086-1.703-.645-1.102-1.426-2.367l-1.539-2.477c-.25-.387-.867-1.437-1.855-3.164l-2.223-3.906c-.496-.879-.934-1.703-1.312-2.477s-.914-1.926-1.598-3.465l-1.027-2.367c0-.035-.344-.879-1.027-2.531l-1.598-3.906c-.379-.953-.91-2.402-1.598-4.344s-1.367-4.02-2.051-6.219-1.445-4.879-2.285-8.031l-1.766-7.043-1.426-6.715c-.609-2.934-.973-4.859-1.086-5.777s-.359-3.723-.742-8.418l-.742-10.617-.398-7.594-.625-13.148-.402-12.93v-3.797l.371-.191c.25-.129.922-.285 2.027-.469l4.562-.715 8.844-1.43 8.496-1.43c1.715-.297 3.977-.754 6.789-1.379s5.25-1.207 7.305-1.758a116.36 116.36 0 0 0 5.305-1.543l3.48-1.098 2.395-.773c.762-.254 2.281-.805 4.562-1.648s4.422-1.695 6.418-2.559 3.062-1.301 3.195-1.32 1.094-.43 2.879-1.238l4.852-2.199 4.277-1.984c1.406-.66 3.156-1.52 5.246-2.586l3.141-1.594h.742zm0 0"/><path d="M89.132 9.691h.742l3.195 1.594 4.223 2.09 6.984 3.219 6.164 2.75c.133.02 1.188.453 3.164 1.293l4.562 1.871 4.621 1.652 3.824 1.32 1.996.66 3.082.934 4.789 1.32 5.648 1.379 3.535.77 5.078.934 5.363.938 5.305.824 4.277.66c.039 0 1.406.258 4.109.77l4.078.797.027.027-.172 8.199c-.113 5.465-.398 12.527-.855 21.184l-1.082 18.156c-.266 3.449-.57 6.398-.914 8.859s-.742 4.785-1.199 6.984a226.12 226.12 0 0 1-1.48 6.66l-1.426 5.887c-.418 1.688-.914 3.5-1.484 5.445l-1.027 3.523c-.113.402-.285.914-.512 1.539s-.496 1.395-.801 2.313-.777 2.234-1.426 3.961l-1.598 4.125-1.539 3.688a152.09 152.09 0 0 1-2.34 5.172l-1.711 3.52-2.082 3.605-2.168 3.684c-.246.387-.836 1.359-1.77 2.918l-1.824 2.973-1.312 1.98c-.59.898-1.062 1.594-1.426 2.09l-1.254 1.762c-.477.676-.934 1.301-1.371 1.867s-.777 1.047-1.023 1.434-.609.879-1.086 1.484-.93 1.211-1.367 1.816a52.13 52.13 0 0 1-1.426 1.871l-1.312 1.648c-.363.461-1.133 1.332-2.312 2.613l-4.164 4.402c-1.598 1.652-3.004 3.063-4.223 4.238s-2.023 1.914-2.422 2.227-1.332 1.102-2.797 2.367l-2.68 2.309-2.398 2.035-2.508 2.094-1.371 1.098-2.137 1.734-2.082 1.625a23.29 23.29 0 0 1-1.371.934 98.58 98.58 0 0 1-2.395 1.43l-2.281 1.375a21.4 21.4 0 0 1-1.227.746 19.45 19.45 0 0 0-1.426.879l-1.086.715c-.227.148-.723.402-1.48.77a112.04 112.04 0 0 1-2.738 1.266c-1.066.477-1.809.789-2.227.938l-.629.219-.684-.164c-.457-.113-.949-.293-1.484-.551l-2.68-1.32c-1.254-.625-1.977-1.008-2.168-1.156s-.676-.469-1.453-.965l-1.77-1.098-2.34-1.375-2.395-1.434c-.437-.273-.895-.586-1.371-.934a70.46 70.46 0 0 1-1.625-1.238c-.609-.477-1.414-1.129-2.422-1.953l-2.625-2.145c-.742-.605-1.824-1.523-3.254-2.75l-2.738-2.312c-.398-.312-1.273-1.047-2.621-2.199l-2.254-1.953-2.027-1.953-2.508-2.477-3.137-3.301-2.91-3.137-1.426-1.707-1.484-1.816c-.359-.457-.723-.934-1.082-1.43l-1.141-1.539-1.086-1.434a29.11 29.11 0 0 1-.828-1.125c-.227-.332-.539-.762-.941-1.293s-.738-1.008-1.023-1.43l-1.145-1.652-1.082-1.594c-.246-.387-.645-.992-1.199-1.816s-.91-1.395-1.082-1.707-.648-1.102-1.426-2.367l-1.539-2.473c-.25-.387-.867-1.441-1.855-3.164l-2.227-3.906c-.492-.883-.93-1.707-1.312-2.477s-.91-1.926-1.594-3.469l-1.027-2.363c0-.039-.344-.883-1.027-2.531l-1.598-3.906c-.379-.953-.914-2.402-1.598-4.348s-1.367-4.016-2.055-6.219-1.445-4.875-2.281-8.031l-1.77-7.043-1.426-6.711c-.605-2.934-.969-4.859-1.082-5.777s-.363-3.723-.742-8.418l-.742-10.617-.398-7.594-.629-13.152-.398-12.93v-3.793l.371-.195c.246-.129.922-.281 2.023-.465l4.566-.719 8.84-1.43 8.5-1.43c1.711-.293 3.977-.75 6.789-1.375s5.25-1.211 7.301-1.762 3.824-1.063 5.305-1.539l3.48-1.102 2.398-.77c.758-.258 2.281-.809 4.562-1.652s4.422-1.695 6.418-2.559L68 19.288c.133-.016 1.094-.43 2.879-1.238l4.848-2.199 4.281-1.98c1.406-.66 3.156-1.523 5.246-2.586l3.137-1.594zm0 0"/></g><g clip-path="url(#A)" transform="translate(-261.031 -186.387)"><path fill="#004aad" fill-rule="evenodd" d="M352.806 186.52h.801l3.45 1.723 4.556 2.258 7.545 3.473 6.65 2.969c.145.02 1.282.484 3.419 1.395l4.927 2.02 4.986 1.781 4.13 1.426 2.153.715 3.325 1.008 5.173 1.426 6.099 1.484 3.817.832 5.482 1.008 5.787 1.012 5.728.891 4.618.711c.043 0 1.52.277 4.435.832l4.403.863.031.027-.184 8.852c-.125 5.899-.434 13.52-.926 22.864l-1.168 19.599c-.289 3.719-.617 6.907-.985 9.559s-.801 5.168-1.293 7.543a252.53 252.53 0 0 1-1.602 7.188l-1.539 6.356c-.453 1.82-.985 3.778-1.602 5.879l-1.11 3.801c-.121.434-.309.988-.555 1.66a90.48 90.48 0 0 0-.86 2.496c-.328.988-.844 2.414-1.539 4.278l-1.727 4.453-1.661 3.977c-.656 1.547-1.5 3.406-2.524 5.582l-1.848 3.801-2.251 3.891-2.336 3.981c-.27.414-.906 1.465-1.911 3.149l-1.969 3.207-1.418 2.137c-.637.969-1.149 1.723-1.539 2.258l-1.356 1.899c-.512.734-1.004 1.406-1.477 2.02s-.844 1.129-1.11 1.543-.656.953-1.168 1.606-1.008 1.305-1.481 1.961a48.04 48.04 0 0 1-1.539 2.016l-1.414 1.785c-.391.492-1.223 1.434-2.493 2.82l-4.497 4.75-4.556 4.574c-1.317 1.266-2.188 2.067-2.618 2.402s-1.438 1.188-3.02 2.555l-2.891 2.496-2.587 2.195-2.712 2.258-1.477 1.188-2.309 1.871-2.251 1.75a23.41 23.41 0 0 1-1.477 1.012c-.473.297-1.332.809-2.587 1.543l-2.462 1.484a22.24 22.24 0 0 1-1.325.801 22.21 22.21 0 0 0-1.539.953l-1.172.77c-.246.16-.778.438-1.602.832s-1.805.852-2.954 1.367-1.95.852-2.403 1.008l-.676.238-.738-.18c-.492-.117-1.028-.316-1.602-.594l-2.895-1.426c-1.356-.672-2.133-1.086-2.34-1.246s-.727-.504-1.571-1.039l-1.911-1.188-2.524-1.484-2.587-1.543a23.42 23.42 0 0 1-1.477-1.012c-.512-.375-1.098-.82-1.754-1.336l-2.618-2.109-2.833-2.313c-.801-.656-1.973-1.645-3.513-2.973l-2.954-2.492c-.43-.336-1.375-1.129-2.833-2.375l-2.434-2.109-2.184-2.109-2.712-2.672-3.388-3.563-3.141-3.387-1.539-1.84-1.598-1.961c-.391-.492-.781-1.008-1.172-1.543l-1.231-1.664-1.172-1.543a31.15 31.15 0 0 1-.891-1.215c-.246-.359-.586-.824-1.016-1.399a36.24 36.24 0 0 1-1.11-1.543l-1.231-1.781-1.172-1.723-1.293-1.961c-.594-.891-.985-1.504-1.168-1.84s-.699-1.188-1.539-2.555l-1.664-2.672c-.266-.414-.934-1.555-2-3.414l-2.403-4.215c-.531-.953-1.004-1.844-1.414-2.676s-.985-2.078-1.727-3.738l-1.106-2.555c0-.039-.371-.949-1.11-2.731l-1.723-4.219c-.41-1.027-.989-2.594-1.727-4.692a191.37 191.37 0 0 1-2.215-6.711c-.738-2.375-1.559-5.266-2.465-8.672l-1.907-7.602-1.539-7.243c-.656-3.168-1.047-5.246-1.172-6.239s-.391-4.02-.801-9.086l-.797-11.461-.434-8.196-.676-14.196-.434-13.954v-4.098l.402-.211c.266-.137.996-.305 2.184-.504l4.927-.77 9.545-1.547 9.178-1.543c1.848-.316 4.29-.813 7.33-1.484s5.665-1.309 7.881-1.902 4.126-1.145 5.728-1.66l3.759-1.188 2.587-.832c.821-.277 2.462-.871 4.923-1.781s4.775-1.832 6.931-2.762 3.302-1.406 3.446-1.426 1.18-.465 3.11-1.336l5.236-2.375 4.618-2.141c1.52-.711 3.407-1.641 5.665-2.789l3.388-1.723zm0 0" stroke="#000" stroke-width=".265"/></g><g fill-rule="evenodd" stroke="#000" stroke-width=".265"><path fill="#fff" d="M92.09 8.71h.738l3.195 1.598 4.223 2.09 6.988 3.219 6.16 2.75c.133.02 1.187.449 3.168 1.293l4.562 1.871 4.621 1.652 3.82 1.32 1.996.66 3.082.934 4.793 1.32 5.645 1.375 3.539.773 5.074.934 5.363.934 5.305.828 4.281.66c.035 0 1.406.254 4.105.77l4.078.797.031.027-.172 8.199c-.117 5.465-.402 12.527-.855 21.184l-1.086 18.156c-.266 3.445-.57 6.398-.91 8.855s-.742 4.789-1.199 6.988a236.19 236.19 0 0 1-1.484 6.656l-1.426 5.887c-.418 1.688-.914 3.504-1.484 5.449l-1.023 3.52c-.117.406-.285.918-.516 1.543s-.492 1.395-.797 2.309-.781 2.238-1.426 3.961l-1.598 4.129-1.543 3.684c-.605 1.434-1.387 3.156-2.336 5.172l-1.711 3.523-2.086 3.602-2.164 3.688c-.25.387-.84 1.359-1.77 2.918l-1.824 2.969-1.312 1.98c-.59.898-1.066 1.598-1.426 2.094l-1.258 1.758c-.473.68-.93 1.305-1.367 1.871s-.781 1.047-1.027 1.43-.609.883-1.082 1.488a55.36 55.36 0 0 0-1.371 1.816c-.437.602-.914 1.227-1.426 1.867l-1.312 1.652c-.359.457-1.133 1.328-2.309 2.613l-4.164 4.402-4.223 4.234c-1.219 1.176-2.027 1.918-2.426 2.23s-1.332 1.102-2.793 2.367l-2.684 2.309-2.395 2.035-2.512 2.09-1.367 1.102-2.141 1.734c-.91.734-1.605 1.273-2.082 1.621s-.93.66-1.367.938-1.238.75-2.398 1.43l-2.281 1.375c-.359.238-.77.488-1.227.742a22.02 22.02 0 0 0-1.426.883l-1.082.715c-.23.145-.723.402-1.484.77a105.59 105.59 0 0 1-2.738 1.266c-1.066.477-1.805.789-2.227.934l-.625.223-.684-.168c-.457-.109-.953-.293-1.484-.547l-2.684-1.32c-1.254-.625-1.977-1.012-2.164-1.156s-.676-.469-1.457-.965l-1.77-1.098-2.336-1.379-2.398-1.43c-.437-.273-.891-.586-1.367-.934a56.75 56.75 0 0 1-1.625-1.238l-2.426-1.953-2.625-2.145c-.742-.605-1.824-1.523-3.25-2.754l-2.738-2.309c-.398-.313-1.273-1.047-2.625-2.203l-2.254-1.953-2.023-1.953-2.512-2.477-3.137-3.301-2.91-3.133-1.426-1.707-1.48-1.816c-.363-.457-.723-.934-1.086-1.43l-1.141-1.543-1.086-1.43a31.91 31.91 0 0 1-.824-1.125c-.23-.332-.543-.762-.941-1.293a39.56 39.56 0 0 1-1.027-1.434l-1.141-1.648-1.086-1.598-1.195-1.816c-.551-.824-.914-1.391-1.086-1.703s-.645-1.102-1.426-2.367l-1.539-2.477c-.246-.383-.867-1.437-1.855-3.164l-2.223-3.906c-.496-.879-.934-1.703-1.312-2.473s-.914-1.926-1.598-3.469l-1.027-2.363c0-.039-.344-.883-1.027-2.531l-1.598-3.906c-.379-.957-.91-2.402-1.598-4.348s-1.367-4.016-2.051-6.219-1.445-4.879-2.281-8.031l-1.77-7.043-1.426-6.711c-.609-2.938-.973-4.863-1.086-5.777s-.359-3.723-.742-8.418l-.738-10.621-.402-7.59-.625-13.152-.402-12.93v-3.797l.371-.191c.25-.129.922-.285 2.027-.469l4.562-.715 8.844-1.43 8.5-1.43c1.711-.293 3.973-.754 6.785-1.375s5.25-1.211 7.305-1.762 3.82-1.063 5.305-1.539l3.48-1.102 2.395-.77c.762-.258 2.281-.809 4.562-1.652s4.422-1.695 6.418-2.559 3.062-1.301 3.195-1.32 1.094-.43 2.879-1.238l4.852-2.199 4.277-1.98c1.406-.66 3.156-1.523 5.25-2.586l3.137-1.598zm0 0"/><path fill="#004aad" d="M91.836 14.581h.687l2.965 1.504 3.914 1.965 6.48 3.031 5.715 2.59c.121.016 1.102.422 2.934 1.219l4.234 1.758 4.285 1.555 3.543 1.242 1.852.621 2.859.883 4.445 1.242 5.234 1.297 3.281.723 4.707.883 4.977.879 4.918.777 3.969.621c.035 0 1.305.242 3.809.727l3.781.75.027.023-.156 7.719c-.105 5.145-.371 11.793-.797 19.941l-1.004 17.09c-.246 3.246-.527 6.023-.848 8.34s-.687 4.504-1.109 6.578l-1.375 6.266-1.324 5.539a120.51 120.51 0 0 1-1.375 5.129l-.953 3.316a19.53 19.53 0 0 1-.477 1.449c-.211.586-.457 1.313-.738 2.176s-.723 2.105-1.324 3.727l-1.48 3.887-1.43 3.469a137.07 137.07 0 0 1-2.168 4.867l-1.586 3.316-1.934 3.395-2.008 3.469c-.23.363-.777 1.277-1.641 2.746l-1.695 2.797-1.215 1.863c-.547.844-.988 1.5-1.324 1.969l-1.164 1.656a46.13 46.13 0 0 1-1.27 1.762c-.402.535-.723.984-.949 1.344s-.566.832-1.008 1.398-.863 1.141-1.27 1.711a50.39 50.39 0 0 1-1.32 1.762l-1.219 1.555c-.336.43-1.051 1.25-2.141 2.457a219.6 219.6 0 0 1-3.863 4.145c-1.48 1.555-2.785 2.883-3.914 3.988s-1.879 1.805-2.25 2.098-1.234 1.035-2.594 2.227l-2.484 2.176-2.223 1.918-2.328 1.965-1.27 1.039-1.984 1.629c-.848.691-1.488 1.199-1.93 1.527a24.72 24.72 0 0 1-1.27.883c-.406.258-1.148.707-2.223 1.344l-2.117 1.297a20.87 20.87 0 0 1-1.137.699 20.88 20.88 0 0 0-1.324.828l-1.004.672c-.211.141-.672.383-1.375.727l-2.539 1.191c-.988.449-1.676.742-2.062.879l-.582.207-.637-.152c-.422-.105-.883-.277-1.375-.52l-2.488-1.242c-1.164-.586-1.832-.949-2.008-1.09s-.629-.437-1.352-.906l-1.641-1.035-2.168-1.293-2.223-1.348a21.01 21.01 0 0 1-1.27-.879c-.441-.328-.941-.719-1.508-1.168l-2.246-1.836-2.434-2.02a159.07 159.07 0 0 1-3.016-2.59l-2.539-2.176c-.371-.293-1.184-.984-2.434-2.074l-2.09-1.836-1.879-1.84-2.328-2.332-2.91-3.105-2.699-2.953-1.32-1.605-1.379-1.707-1.004-1.348-1.059-1.449-1.004-1.348a29.76 29.76 0 0 1-.77-1.062c-.211-.309-.5-.715-.871-1.219a36.03 36.03 0 0 1-.953-1.344c-.262-.398-.617-.914-1.059-1.555l-1.004-1.5-1.109-1.711c-.512-.777-.848-1.312-1.008-1.605s-.598-1.035-1.32-2.227l-1.43-2.332c-.23-.363-.801-1.355-1.719-2.977l-2.062-3.68a47.9 47.9 0 0 1-1.219-2.328c-.352-.727-.848-1.812-1.48-3.262l-.953-2.23c0-.031-.316-.828-.953-2.383l-1.48-3.676c-.352-.898-.848-2.262-1.48-4.09s-1.27-3.781-1.906-5.855-1.34-4.59-2.117-7.559l-1.637-6.629-1.324-6.32c-.562-2.762-.898-4.574-1.004-5.438s-.336-3.504-.687-7.926l-.687-9.996-.371-7.145-.582-12.379-.371-12.172v-3.574l.344-.18c.23-.121.855-.27 1.879-.441l4.23-.672 8.203-1.348 7.883-1.348c1.586-.277 3.684-.707 6.293-1.293s4.867-1.141 6.773-1.66 3.543-1 4.922-1.449l3.227-1.035 2.223-.727c.703-.242 2.113-.758 4.23-1.551s4.102-1.598 5.953-2.41 2.84-1.227 2.961-1.242 1.016-.406 2.672-1.164l4.496-2.074 3.969-1.863a174.77 174.77 0 0 0 4.867-2.434l2.91-1.504zm0 0"/></g><g transform="translate(-261.031 -186.387)"><g clip-path="url(#B)"><path fill="#f8a126" d="M381.617 302.055c6.973-7.281 11.262-17.16 11.262-28.047 0-22.379-18.125-40.527-40.484-40.527s-40.484 18.148-40.484 40.527a40.4 40.4 0 0 0 11.262 28.047h58.445"/></g><g clip-path="url(#C)"><path fill="#f8a126" d="M352.395 327.016c-7.238 0-25.195-1.223-25.195-2.121s22.727-.129 22.727-1.805-30.473.469-30.473-.496 31.457-1.062 31.457-2.266-40.516-.871-40.516-1.883 32.641-.145 32.641-1.594-38.105-.289-38.105-1.156 25.574-.34 25.574-1.785-28.34.145-28.34-1.496 49.133-1.062 49.133-2.414-45.785-.383-45.785-1.785 28.703-1.398 28.703-2.699-22.074-.918-22.074-2.27.996-1.191.996-1.191h78.516s.996-.16.996 1.191-22.074.965-22.074 2.27 28.168.215 28.168 1.617-32.652 1.52-32.652 2.867 36.535.773 36.535 2.414-30.734.047-30.734 1.496 25.961.918 25.961 1.785-34.187-.289-34.187 1.156 25.965.582 25.965 1.594-31.152.676-31.152 1.883 21.703 1.301 21.703 2.266-25.316-1.176-25.316.496 15.934.902 15.934 1.805-11.168 2.121-18.402 2.121"/></g></g></svg>