<?xml version="1.0" encoding="UTF-8" standalone="no"?>
<svg
   width="278.90305"
   zoomAndPan="magnify"
   viewBox="0 0 209.17728 243.52735"
   height="324.70312"
   preserveAspectRatio="xMidYMid meet"
   version="1.0"
   id="svg48"
   sodipodi:docname="le_fauci_grondanti.svg"
   inkscape:version="1.1.1 (1:1.1+202109281946+c3084ef5ed)"
   xmlns:inkscape="http://www.inkscape.org/namespaces/inkscape"
   xmlns:sodipodi="http://sodipodi.sourceforge.net/DTD/sodipodi-0.dtd"
   xmlns="http://www.w3.org/2000/svg"
   xmlns:svg="http://www.w3.org/2000/svg">
  <sodipodi:namedview
     id="namedview50"
     pagecolor="#ffffff"
     bordercolor="#666666"
     borderopacity="1.0"
     inkscape:pageshadow="2"
     inkscape:pageopacity="0.0"
     inkscape:pagecheckerboard="0"
     showgrid="false"
     fit-margin-top="0"
     fit-margin-left="0"
     fit-margin-right="0"
     fit-margin-bottom="0"
     inkscape:zoom="1.107868"
     inkscape:cx="139.45704"
     inkscape:cy="162.47423"
     inkscape:window-width="3440"
     inkscape:window-height="1371"
     inkscape:window-x="0"
     inkscape:window-y="32"
     inkscape:window-maximized="1"
     inkscape:current-layer="svg48" />
  <defs
     id="defs8">
    <clipPath
       id="id1">
      <path
         d="M 247,173.23437 H 458 V 416.76562 H 247 Z m 0,0"
         clip-rule="nonzero"
         id="path2" />
    </clipPath>
    <clipPath
       id="id2">
      <path
         d="m 300.16016,288.78906 h 104.18359 v 71.62891 H 300.16016 Z m 0,0"
         clip-rule="nonzero"
         id="path5" />
    </clipPath>
  </defs>
  <g
     clip-path="url(#id1)"
     id="g12"
     transform="translate(-247.93327,-173.23437)">
    <path
       fill="#5d757e"
       d="m 454.53125,204.61328 c -0.11719,-0.0117 -0.23828,-0.0234 -0.35547,-0.0312 -2.125,-0.42578 -25.64844,-5.12891 -49.97656,-11.62891 -27.75,-8.97656 -52.19141,-19.72656 -52.19141,-19.72656 0,0 -23.375,10.44922 -50.33984,19.34375 -24.5625,6.69922 -48.66797,11.58203 -50.80078,12.01172 -0.11719,0.008 -0.23828,0.0195 -0.35547,0.0312 0,0 -28.19922,147.41406 101.91406,212.14844 l 0.0977,-0.20313 0.0976,0.20313 C 482.73437,352.02734 454.53125,204.61328 454.53125,204.61328"
       fill-opacity="1"
       fill-rule="nonzero"
       id="path10" />
  </g>
  <path
     fill="#2d2d2d"
     d="m 195.14485,41.523435 c -0.10546,-0.004 -0.21093,-0.0156 -0.3164,-0.0273 -1.88672,-0.3711 -22.76563,-4.55078 -44.36328,-10.32031 -24.63672,-7.96875 -46.33203,-17.51172 -46.33203,-17.51172 0,0 -20.749997,9.27734 -44.687497,17.17187 -21.80469,5.94531 -43.20313,10.28125 -45.09766,10.66016 -0.10156,0.0117 -0.21094,0.0234 -0.3125,0.0273 0,0 -25.03516,130.867185 90.468747,188.335935 l 0.0859,-0.1875 0.0859,0.1875 C 220.18001,172.39062 195.14485,41.523435 195.14485,41.523435"
     fill-opacity="1"
     fill-rule="nonzero"
     id="path14" />
  <path
     fill="#7f0000"
     d="m 189.20735,46.785155 c -0.0937,-0.008 -0.19531,-0.0156 -0.29296,-0.0273 -1.76172,-0.35157 -21.27344,-4.25391 -41.45704,-9.64453 -23.01953,-7.44532 -43.29687,-16.36329 -43.29687,-16.36329 0,0 -19.386717,8.66797 -41.757807,16.04688 -20.375,5.55469 -40.3711,9.60547 -42.14063,9.96094 -0.0976,0.0117 -0.19531,0.0195 -0.29297,0.0273 0,0 -23.3945304,122.285155 84.539067,175.988275 l 0.082,-0.17187 0.082,0.17187 C 212.60183,169.07031 189.20729,46.785155 189.20729,46.785155"
     fill-opacity="1"
     fill-rule="nonzero"
     id="path16" />
  <path
     fill="#feffff"
     d="m 188.91439,46.757815 c -1.76172,-0.35157 -21.27344,-4.25391 -41.45704,-9.64453 -23.01953,-7.44532 -43.29687,-16.36329 -43.29687,-16.36329 0,0 -19.386717,8.66797 -41.757807,16.04688 -20.375,5.55469 -40.3711,9.60547 -42.14063,9.96094 -0.0976,0.0117 -0.19531,0.0195 -0.29297,0.0273 l 84.472657,64.257805 84.47266,-64.285145"
     fill-opacity="1"
     fill-rule="nonzero"
     id="path18" />
  <path
     fill="#7f0000"
     d="m 19.969073,46.785155 c 0,0 -23.3945304,122.285155 84.539067,175.988275 L 104.44173,111.04296 19.969073,46.785155"
     fill-opacity="1"
     fill-rule="nonzero"
     id="path20" />
  <g
     clip-path="url(#id2)"
     id="g24"
     transform="translate(-247.93327,-173.23437)">
    <path
       fill="#feffff"
       d="m 354.19141,308.71484 c 0,0 -2.30469,-0.80859 -2.63672,-3.68359 l -2.17969,-6.41406 -4.64844,-3.51563 -2.47265,1.61328 -0.6211,7.78125 -0.75,-5.73437 -2.92578,6.41406 c -0.51953,5.52344 0.58203,10.98828 1.39063,13.19922 0.80859,2.21484 3.36328,3.26953 3.36328,3.26953 l 0.70703,-3.41406 -0.20703,-5.75 1.57422,5.71094 c 0,0 4.75781,1.80078 7.43359,4.59375 l 2.41016,-2.44141 c 0,-0.0234 0.28906,-8.77344 -0.4375,-11.62891 z m -42.27344,5.52344 0.45703,-1.28125 c -1.09766,-1.71875 -1.72266,-4.71875 -1.72266,-4.71875 0.60157,1.65625 1.99219,3.70313 1.99219,3.70313 -0.64062,-1.53125 -0.99609,-3.32813 -1.20312,-4.96485 0.5625,2.04688 1.30859,4.28125 2.30468,6.64063 0,0 0.64453,2.9375 2.36719,5.79297 1.92969,3.20703 6.4375,4.98828 6.4375,4.98828 -0.91406,-2.05078 -1.35156,-3.58203 -1.08203,-5.79297 l 0.125,-1.05469 1.08203,-0.23047 1.57813,-3.84765 0.58203,-2.37891 c 0.76562,3.33203 2.19922,7.24219 4.73047,9.125 l 0.89453,-2.64844 0.25,-5.21484 c -0.0234,0.375 -0.125,4.67578 3.13281,6.62109 l 2.63672,-2.17187 c 0,0 -0.33203,-1.88282 0.95703,-3.64063 l -1.37109,-7.42969 c 0,0 -1.89063,-1.90234 -2.55469,-5.58593 l -2.55078,-5.31641 -2.99219,-2.77344 -3.07422,2.54688 -0.95312,10.67578 c 0,0 0.16406,2.625 0.89453,5.77344 l -2.22266,-7.53125 -3.63281,-7.53125 1.47265,8.04687 -4.17187,-12.57812 -3.36328,-2.67188 -2.20313,2.75391 c 0,0 -0.60156,3.76562 1.6211,12.30859 l -2.53516,-7.94531 c 0,0 -0.0391,1.78125 0.35547,4.69922 -1.33203,-2.31641 -1.82813,-5.07031 -1.82813,-5.07031 l -1.39062,0.45703 -1.97266,2.73047 c 0,0 -0.80859,3.41406 1.1836,8.71093 2.01172,5.37891 5.76953,6.80469 5.76953,6.80469 z m -9.38281,-5.6875 c 0.93359,2.08984 3.42578,3.08203 3.42578,3.08203 -0.082,-1.11719 0.47656,-1.98828 0.47656,-1.98828 l -2.67578,-7.44531 -1.4961,-1.16016 -1.28906,1.67578 -0.76562,3.125 c 0.39453,3.1836 3.13281,5.02735 3.13281,5.02735 -0.53906,-1.16016 -0.80859,-2.31641 -0.80859,-2.31641 z m 59.85937,11.48047 c 1.28516,-1.67578 3.69531,-0.14453 3.69531,-0.14453 l 1.86719,-0.70313 c 2.07813,-2.77343 2.67969,-8.21484 2.07813,-11.98047 -0.60157,-3.76562 -2.88672,-9.37109 -2.88672,-9.37109 l 0.1875,4.92578 -1.84766,-5.79297 c -0.5,-1.46875 -3.03125,-3.89062 -3.03125,-3.89062 -3.32422,2.91797 -4.02734,8.17187 -4.02734,8.17187 l -0.51953,10.38672 -0.60157,-7.28515 -1.35156,3.62109 -0.62109,9.89062 1.61718,4.71875 c 3.71875,-0.23046 5.44141,-2.54687 5.44141,-2.54687 z m 8.76172,-7.98438 c 1.70312,1.19922 1.39062,3.74219 1.39062,3.74219 l 1.5586,0.7461 1.86719,-1.05469 c 0.33203,4.03515 -0.78907,5.79297 -0.78907,5.79297 0,0 3.65625,-1.40625 5.52344,-4.61328 0.60156,-1.03516 1.05859,-2.54688 1.39063,-4.09766 2.13671,3.80859 2.03515,11.37891 2.03515,11.37891 3.65235,-4.09375 4.31641,-15.125 4.31641,-15.125 0.875,6.375 -0.0391,10.55468 -0.0391,10.55468 3.48828,-3.49609 3.65234,-8.4414 3.65234,-8.4414 0.3125,-6.23047 2.74219,-11.27735 2.74219,-11.27735 -0.16797,-2.15234 -0.23047,-5.9375 -0.23047,-5.9375 -1.36719,-2.64843 -3.57031,-3.55859 -3.57031,-3.55859 -1.28516,4.28125 -4.00782,6.37109 -4.00782,6.37109 l -3.05078,5.64844 c -0.51953,0.97266 -0.91406,2.00781 -1.20312,3.02344 -0.41797,-1.03516 -1.22657,-3.4375 -1.47657,-6.95313 -0.35156,-4.78125 -2.73828,-8.00781 -2.73828,-8.00781 -1.76562,1.40625 -3.09375,4.53125 -4.50781,7.55078 -1.42969,3.02344 -1.55469,1.86328 -1.55469,1.86328 0,0 -1.57812,6.78516 -1.51562,7.05469 z m 22.52734,0.59766 0.70703,2.05078 c 0,0 3.71485,-2.21484 4.96094,-7.67578 1.2461,-5.46484 0.6836,-8.05078 0.6836,-8.05078 0,0 -0.20704,-3.0625 -3.75782,-3.91016 l -3.23828,12.7461 c 0.0195,0 1.89063,2.00781 0.64453,4.83984 z m 8.96875,-11.76953 c 0,0 -0.082,1.67578 -1.55859,2.17187 l -1.39063,2.17188 0.10547,3.0625 c 0,0 1.22657,0.99219 0.95313,2.35937 0,0 3.24219,-1.57421 3.19922,-5.07031 0.043,-0.0195 0.33203,-3.39453 -1.3086,-4.69531 z m -73.64453,37.88281 c -3.57031,-1.96875 -3.30078,-9.55859 -3.30078,-9.55859 -5.79297,2.04687 -7.14453,11.73047 -7.14453,11.73047 -0.22656,-1.63672 -0.22656,-3.3125 -0.20703,-3.9336 0.91406,-2.6875 2.34765,-3.72265 2.34765,-3.72265 -1.66015,-0.60157 -2.11718,-2.8125 -2.11718,-2.8125 l -3.24219,-2.46485 c -2.82031,2.11328 -4.02734,5.98047 -4.21484,9.10547 -0.1836,3.125 0.5,6.76563 0.5,6.76563 -0.10547,-1.07813 0.39453,-4.01563 0.39453,-4.01563 -0.26953,2.32031 1.16406,6.20703 1.16406,6.20703 l 1.74219,-1.07422 c -0.1875,-1.69531 1.51562,-4.55078 2.47265,-6.04296 -0.99609,3.20703 -1.41406,7.55078 -1.41406,7.55078 l 0.87109,7.34765 3.21875,3.35157 c -1.05859,-2.54688 -0.89062,-8.25782 -0.89062,-8.25782 0.082,3 2.01172,7.59375 2.01172,7.59375 l 2.47265,0.9336 4.52735,-8.50391 1.36719,-7.11719 z m 10.10938,2.60547 c 0,0 -2.07422,0.082 -2.63672,-3.14453 0,0 -3.57031,1.21875 -4.46094,6.55859 l -1.18359,-2.48437 -1.60157,8.17187 c 0,0 0.16797,4.22266 1.22657,7.34766 0,0 1.67968,0.39062 2.11718,2.08984 0,0 2.49219,-1.07812 3.50782,-3.02343 0,0 -0.2461,-4.05469 2.80468,-5.06641 l 2.30469,-8.29688 z m -25.5586,-12.26953 -0.10156,-2.75 c 0,0 -1.74609,-1.69922 -1.74609,-4.17969 0,0 -3.92188,1.63281 -5.48047,6.10156 l -1.16406,5.13282 1.30859,4.85937 c 0,0 1.20703,-1.71484 2.05469,-1.73437 0,0 0.60547,-3.5 1.82812,-5.48438 l -0.25,3.28906 c 0,0 1.1836,-3.28906 3.55078,-5.23437 z m 36.54297,11.29687 -2.51172,6.04297 0.91407,-4.90625 c 0,0 -2.59375,-0.37109 -3.15625,-2.58593 0,0 -2.63672,2.33984 -3.36329,4.17968 l -1.32812,6 c 0,0 -0.35547,3.25 0.28906,7.55078 l 1.66016,2.85547 c 0,0 2.47265,-3 3.38672,-0.12109 l 3.34375,-4.78125 c 0,0 2.13672,-6.08203 2.86328,-10.67578 l -0.53906,-1.82031 z m 13.03906,2.29688 c -0.82812,-2.00781 -2.28515,-2.95703 -2.28515,-2.95703 l -3.03125,2.17187 c 0.625,1.96485 0.14844,4.03125 0.14844,4.03125 l -0.95704,-3.57812 -1.70312,-1.92188 -1.76172,1.63282 -0.54297,2.4414 c -0.99609,6.125 0.0234,9.125 0.0234,9.125 l 2.38672,4.24219 c 1.47265,-0.66406 3.21875,1.09375 3.21875,1.09375 l 1.59765,-0.74219 1.51563,-6.53906 0.043,4.53125 c 1.36719,-3.43359 1.49219,-9.04297 1.49219,-9.04297 -0.53907,-2.19141 -0.14454,-4.48828 -0.14454,-4.48828 z m 8.09766,-1.30469 -3.03125,-1.32422 c 0,0 0.0625,3.04297 -3.25781,4.24219 l -1.1211,2.00781 c 0,0 -0.25,3.45313 0.84766,6.86719 l 0.4375,-4.44531 c 0,0 0.39453,6.10156 1.95313,9.55859 0,0 1.70312,0.26563 2.51171,2.12891 0,0 1.97266,-0.8086 3.44532,-3.84766 0,0 1.41406,-6.41406 0.51953,-12.0625 z m 5.48047,-9.47656 -0.24609,5.89844 c 0,0 0.87109,3.89062 -2.86719,4.36718 l 1.18359,5.39844 c 0,0 2.55469,2.79297 3.53125,7.30469 0,0 3.48828,0.49609 4.39844,3.51562 0,0 0.58203,-6.16406 -0.37109,-9.89062 0,0 2.03515,3.53906 2.28125,8.67187 l 1.66406,-4.32421 c 0,0 0.45703,-4.28516 -1.20703,-12.26954 -1.61719,-7.98828 -8.36719,-8.67187 -8.36719,-8.67187 z m 14.57812,-0.16406 -2.99218,-1.96485 -1.1211,2.66797 c -0.1875,2.02735 -1.43359,1.46875 -1.43359,1.46875 l -0.70313,2.9375 c 0.95313,1.86328 1.49219,7.11719 1.49219,7.11719 0.97656,1.09766 2.16016,3.08203 2.16016,3.08203 0.375,-2.54297 -0.60156,-5.29297 -0.60156,-5.29297 2.55468,4.57031 1.53515,8.52344 1.53515,8.52344 0,0 2.84766,-0.043 3.69922,-2.875 0.84766,-2.83594 0.41406,-8.89844 0.41406,-8.89844 z m 7.76563,-3.04297 c -0.60547,-1.79688 -3.28125,-3.86719 -3.28125,-3.86719 l -2.09766,-0.1875 c 0.28907,1.84375 -0.29297,4.61328 -0.29297,4.61328 l -0.99609,3.08594 c 1.82813,1.32422 2.88672,4.42578 2.88672,4.42578 l -2.49219,-3.16406 1.72656,4.15625 c 2.13672,3.04297 1.96875,4.86328 1.96875,4.86328 l 2.91016,-5.04688 c 1.26563,-2.54687 0.72656,-6.1875 0.72656,-6.1875 -1.53906,-0.84765 -1.05859,-2.6914 -1.05859,-2.6914 z m -93.33203,-2.91406 c -0.22656,1.40625 0.0625,1.88281 0.0625,1.88281 L 307,325.32812 l 0.93359,-1.26171 c -0.58203,-1.28125 -2.05468,-1.77735 -2.05468,-1.77735 -0.45704,-0.76562 -0.64454,-1.69922 -0.64454,-1.69922 0,0 -2.41015,1.88282 -2.07812,4.86328 0.33203,2.95704 2.03516,5.08985 2.03516,5.08985 -0.3711,-3.99219 0.53906,-4.75781 0.53906,-4.75781 z m 0,0"
       fill-opacity="1"
       fill-rule="nonzero"
       id="path22" />
  </g>
  <path
     fill="#7f0000"
     d="m 125.20735,43.933595 c -0.88281,-4.21485 -3.46875,-6.17969 -6.28515,-6.32813 -0.91016,-1.79297 -7.56641,-6.14062 -13.46485,-2.87109 -1.11328,-0.60547 -4.51562,-0.69531 -5.921867,-0.64844 -3.89063,0.13281 -7.44531,1.1875 -10.27734,3.04688 -6.41407,4.20703 -8.71485,12.69922 -7.60938,14.85937 -4.70703,4.24219 -6.60937,17.97266 2.15234,22.10938 1.85547,6.58984 6.84766,9.10156 14.875,4.85937 3.839847,5.67578 7.968747,6.78125 10.800787,6.6836 4.70312,-0.16016 8.33984,-3.56641 9.82031,-5.20313 9.22265,-2.09766 11.88672,-10.33984 9.21875,-17.78906 -0.004,-0.008 -0.004,-0.0117 -0.008,-0.0195 3.65625,-3.625 5.11328,-14.96485 -3.30079,-18.69922 z m 0,0"
     fill-opacity="1"
     fill-rule="nonzero"
     id="path26" />
  <path
     fill="#000000"
     d="m 91.355793,50.230465 c 0,0 -2.84765,8.78516 5.67188,12.37891 8.515617,3.59375 13.445307,4.03516 16.167967,8.44141 0,0 -1.84375,-2.39063 -6.26954,-0.8086 -4.42578,1.58594 -18.976557,16.19531 -21.582027,1.5625 0,0 -6.67187,-1.20312 -5.53515,-10.23828 1.13281,-9.03516 5.3789,-10.51172 11.54687,-11.33594 z m 0,0"
     fill-opacity="1"
     fill-rule="nonzero"
     id="path28" />
  <path
     fill="#000000"
     d="m 96.898763,60.570315 c 0,0 -1.65234,-14.46094 12.277337,-17.80469 0,0 -14.726557,-6.44531 -16.398427,6.08594 0,0 -1.71094,8.85156 4.12109,11.71875 z m 0,0"
     fill-opacity="1"
     fill-rule="nonzero"
     id="path30" />
  <path
     fill="#000000"
     d="m 100.80501,50.621095 c 0,0 -4.773437,8.13672 -0.808587,11.27344 3.964837,3.13281 6.710927,1.8125 14.058587,-1.30079 0,0 -0.86719,-1.8125 -4.14062,-2.92578 -3.27344,-1.11328 -7.48829,-2.19531 -5.69922,-6.75781 0,0 -2.67188,-0.51953 -3.41016,-0.28906 z m 0,0"
     fill-opacity="1"
     fill-rule="nonzero"
     id="path32" />
  <path
     fill="#000000"
     d="m 101.81673,48.746095 c 0,0 7.625,-1.69531 9.6875,7.23047 0,0 3.24609,-5.42578 -1.23828,-10.79297 0.004,0 -3.3711,0.32031 -8.44922,3.5625 z m 0,0"
     fill-opacity="1"
     fill-rule="nonzero"
     id="path34" />
  <path
     fill="#000000"
     d="m 112.25814,43.835935 c 0,0 7.39062,0.61328 8.03515,7.95313 0.64063,7.33984 -7.54297,12.12109 -9.26953,14.63281 0,0 1.78906,1.52344 3.47266,4.32812 0,0 0.14843,-3.30078 4.16015,-5.8164 5.54688,-3.47656 8.97266,-3.53125 9.96485,-8.01172 1.37109,-6.17969 -0.62891,-10.10156 -5.66016,-11.46094 0,0 0.0117,-7.57031 -6.26562,-5.30469 -1.46094,0.52735 -2.05079,1.92188 -4.4375,3.67969 z m 0,0"
     fill-opacity="1"
     fill-rule="nonzero"
     id="path36" />
  <path
     fill="#000000"
     d="m 113.19173,46.718745 c 0,0 3.40234,6.21875 -0.29297,10.4375 0,0 1.52734,0.35547 2.03125,2.38282 0,0 4.33594,-3.01172 3.45703,-8.09375 -0.88281,-5.08203 -5.19531,-4.72657 -5.19531,-4.72657 z m 0,0"
     fill-opacity="1"
     fill-rule="nonzero"
     id="path38" />
  <path
     fill="#000000"
     d="m 91.168293,48.214845 c 0,0 0.52344,-8.48047 9.718747,-8.4336 l 3.13672,-3.32812 c 0,0 -17.335937,-3.75 -20.785157,13.54297 0,0 4.16797,-1.65235 7.92969,-1.78125 z m 0,0"
     fill-opacity="1"
     fill-rule="nonzero"
     id="path40" />
  <path
     fill="#000000"
     d="m 102.98079,40.117185 c 0,0 4.54688,-8.69531 13.57813,-2.10156 0,0 -3.19532,0.875 -5.52735,4.32812 0.004,0 -6.19531,-2.69921 -8.05078,-2.22656 z m 0,0"
     fill-opacity="1"
     fill-rule="nonzero"
     id="path42" />
  <path
     fill="#000000"
     d="m 100.1722,76.816405 c 0,0 3.88672,-3.73828 8.32422,-4.78906 2.04687,-0.48047 4.1289,0.18359 6.14062,1.01562 0,0 3.10938,-6.85156 11.65625,-9.60156 0,0 4.33594,12.12109 -8.33984,14.39844 0,0 -9.42188,12.18359 -17.78125,-1.02344 z m 0,0"
     fill-opacity="1"
     fill-rule="nonzero"
     id="path44" />
  <path
     fill="#000000"
     d="m 105.78548,51.878905 c 0,0 -0.40234,2.67188 3.80078,3.55078 0,0 1.95313,-1.91015 -3.80078,-3.55078 z m 0,0"
     fill-opacity="1"
     fill-rule="nonzero"
     id="path46" />
</svg>
