<svg xmlns="http://www.w3.org/2000/svg" width="278.903" zoomAndPan="magnify" viewBox="0 0 209.177 243.527" height="324.703" preserveAspectRatio="xMidYMid meet" xmlns:v="https://vecta.io/nano"><defs><clipPath id="A"><path d="M247 173.234h211v243.531H247zm0 0" clip-rule="nonzero"/></clipPath><clipPath id="B"><path d="M300.16 288.789h104.184v71.629H300.16zm0 0" clip-rule="nonzero"/></clipPath></defs><g clip-path="url(#A)" transform="translate(-247.933 -173.234)"><path fill="#5d757e" d="M454.531 204.613l-.355-.031c-2.125-.426-25.648-5.129-49.977-11.629-27.75-8.977-52.191-19.727-52.191-19.727s-23.375 10.449-50.34 19.344c-24.562 6.699-48.668 11.582-50.801 12.012-.117.008-.238.019-.355.031 0 0-28.199 147.414 101.914 212.148l.098-.203.098.203c130.113-64.734 101.91-212.148 101.91-212.148"/></g><path fill="#2d2d2d" d="M195.145 41.523l-.316-.027c-1.887-.371-22.766-4.551-44.363-10.32-24.637-7.969-46.332-17.512-46.332-17.512s-20.75 9.277-44.687 17.172c-21.805 5.945-43.203 10.281-45.098 10.66-.102.012-.211.023-.312.027 0 0-25.035 130.867 90.469 188.336l.086-.187.086.188c115.504-57.469 90.469-188.336 90.469-188.336"/><path fill="#7f0000" d="M189.207 46.785l-.293-.027c-1.762-.352-21.273-4.254-41.457-9.645-23.02-7.445-43.297-16.363-43.297-16.363s-19.387 8.668-41.758 16.047c-20.375 5.555-40.371 9.605-42.141 9.961-.098.012-.195.02-.293.027 0 0-23.395 122.285 84.539 175.988l.082-.172.082.172c107.93-53.703 84.535-175.988 84.535-175.988"/><path fill="#feffff" d="M188.914 46.758c-1.762-.352-21.273-4.254-41.457-9.645-23.02-7.445-43.297-16.363-43.297-16.363s-19.387 8.668-41.758 16.047c-20.375 5.555-40.371 9.605-42.141 9.961-.098.012-.195.02-.293.027l84.473 64.258 84.473-64.285"/><path fill="#7f0000" d="M19.969 46.785S-3.425 169.07 104.508 222.773l-.066-111.73-84.473-64.258"/><g clip-path="url(#B)" transform="translate(-247.933 -173.234)"><path fill="#feffff" d="M354.191 308.715s-2.305-.809-2.637-3.684l-2.18-6.414-4.648-3.516-2.473 1.613-.621 7.781-.75-5.734-2.926 6.414c-.52 5.523.582 10.988 1.391 13.199s3.363 3.27 3.363 3.27l.707-3.414-.207-5.75 1.574 5.711s4.758 1.801 7.434 4.594l2.41-2.441c0-.023.289-8.773-.437-11.629zm-42.273 5.523l.457-1.281c-1.098-1.719-1.723-4.719-1.723-4.719.602 1.656 1.992 3.703 1.992 3.703-.641-1.531-.996-3.328-1.203-4.965a53.56 53.56 0 0 0 2.305 6.641 21.55 21.55 0 0 0 2.367 5.793c1.93 3.207 6.438 4.988 6.438 4.988-.914-2.051-1.352-3.582-1.082-5.793l.125-1.055 1.082-.23 1.578-3.848.582-2.379c.766 3.332 2.199 7.242 4.73 9.125l.895-2.648.25-5.215c-.023.375-.125 4.676 3.133 6.621l2.637-2.172s-.332-1.883.957-3.641l-1.371-7.43s-1.891-1.902-2.555-5.586l-2.551-5.316-2.992-2.773-3.074 2.547-.953 10.676s.164 2.625.895 5.773l-2.223-7.531-3.633-7.531 1.473 8.047-4.172-12.578-3.363-2.672-2.203 2.754s-.602 3.766 1.621 12.309l-2.535-7.945s-.039 1.781.355 4.699c-1.332-2.316-1.828-5.07-1.828-5.07l-1.391.457-1.973 2.73s-.809 3.414 1.184 8.711c2.012 5.379 5.77 6.805 5.77 6.805zm-9.383-5.687c.934 2.09 3.426 3.082 3.426 3.082-.082-1.117.477-1.988.477-1.988l-2.676-7.445-1.496-1.16-1.289 1.676-.766 3.125c.395 3.184 3.133 5.027 3.133 5.027-.539-1.16-.809-2.316-.809-2.316zm59.859 11.48c1.285-1.676 3.695-.145 3.695-.145l1.867-.703c2.078-2.773 2.68-8.215 2.078-11.98s-2.887-9.371-2.887-9.371l.188 4.926-1.848-5.793c-.5-1.469-3.031-3.891-3.031-3.891-3.324 2.918-4.027 8.172-4.027 8.172l-.52 10.387-.602-7.285-1.352 3.621-.621 9.891 1.617 4.719c3.719-.23 5.441-2.547 5.441-2.547zm8.762-7.984c1.703 1.199 1.391 3.742 1.391 3.742l1.559.746 1.867-1.055c.332 4.035-.789 5.793-.789 5.793s3.656-1.406 5.523-4.613c.602-1.035 1.059-2.547 1.391-4.098 2.137 3.809 2.035 11.379 2.035 11.379 3.652-4.094 4.316-15.125 4.316-15.125.875 6.375-.039 10.555-.039 10.555 3.488-3.496 3.652-8.441 3.652-8.441.313-6.23 2.742-11.277 2.742-11.277-.168-2.152-.23-5.937-.23-5.937-1.367-2.648-3.57-3.559-3.57-3.559-1.285 4.281-4.008 6.371-4.008 6.371l-3.051 5.648c-.52.973-.914 2.008-1.203 3.023-.418-1.035-1.227-3.437-1.477-6.953-.352-4.781-2.738-8.008-2.738-8.008-1.766 1.406-3.094 4.531-4.508 7.551-1.43 3.023-1.555 1.863-1.555 1.863s-1.578 6.785-1.516 7.055zm22.527.598l.707 2.051s3.715-2.215 4.961-7.676.684-8.051.684-8.051-.207-3.062-3.758-3.91l-3.238 12.746c.019 0 1.891 2.008.645 4.84zm8.969-11.77s-.082 1.676-1.559 2.172l-1.391 2.172.105 3.063s1.227.992.953 2.359c0 0 3.242-1.574 3.199-5.07.043-.019.332-3.395-1.309-4.695zm-73.645 37.883c-3.57-1.969-3.301-9.559-3.301-9.559-5.793 2.047-7.145 11.73-7.145 11.73-.227-1.637-.227-3.312-.207-3.934.914-2.687 2.348-3.723 2.348-3.723-1.66-.602-2.117-2.812-2.117-2.812l-3.242-2.465c-2.82 2.113-4.027 5.98-4.215 9.105s.5 6.766.5 6.766c-.105-1.078.395-4.016.395-4.016-.27 2.32 1.164 6.207 1.164 6.207l1.742-1.074c-.187-1.695 1.516-4.551 2.473-6.043-.996 3.207-1.414 7.551-1.414 7.551l.871 7.348 3.219 3.352c-1.059-2.547-.891-8.258-.891-8.258.082 3 2.012 7.594 2.012 7.594l2.473.934 4.527-8.504 1.367-7.117zm10.109 2.605s-2.074.082-2.637-3.145c0 0-3.57 1.219-4.461 6.559l-1.184-2.484-1.602 8.172s.168 4.223 1.227 7.348c0 0 1.68.391 2.117 2.09 0 0 2.492-1.078 3.508-3.023 0 0-.246-4.055 2.805-5.066l2.305-8.297zm-25.559-12.27l-.102-2.75s-1.746-1.699-1.746-4.18c0 0-3.922 1.633-5.48 6.102l-1.164 5.133 1.309 4.859s1.207-1.715 2.055-1.734c0 0 .605-3.5 1.828-5.484l-.25 3.289s1.184-3.289 3.551-5.234zm36.543 11.297l-2.512 6.043.914-4.906s-2.594-.371-3.156-2.586c0 0-2.637 2.34-3.363 4.18l-1.328 6s-.355 3.25.289 7.551l1.66 2.855s2.473-3 3.387-.121l3.344-4.781s2.137-6.082 2.863-10.676l-.539-1.82zm13.039 2.297c-.828-2.008-2.285-2.957-2.285-2.957l-3.031 2.172c.625 1.965.148 4.031.148 4.031l-.957-3.578-1.703-1.922-1.762 1.633-.543 2.441c-.996 6.125.023 9.125.023 9.125l2.387 4.242c1.473-.664 3.219 1.094 3.219 1.094l1.598-.742 1.516-6.539.043 4.531c1.367-3.434 1.492-9.043 1.492-9.043-.539-2.191-.145-4.488-.145-4.488zm8.098-1.305l-3.031-1.324s.063 3.043-3.258 4.242l-1.121 2.008s-.25 3.453.848 6.867l.438-4.445s.395 6.102 1.953 9.559c0 0 1.703.266 2.512 2.129 0 0 1.973-.809 3.445-3.848 0 0 1.414-6.414.52-12.062zm5.48-9.477l-.246 5.898s.871 3.891-2.867 4.367l1.184 5.398s2.555 2.793 3.531 7.305c0 0 3.488.496 4.398 3.516 0 0 .582-6.164-.371-9.891 0 0 2.035 3.539 2.281 8.672l1.664-4.324s.457-4.285-1.207-12.27c-1.617-7.988-8.367-8.672-8.367-8.672zm14.578-.164l-2.992-1.965-1.121 2.668c-.187 2.027-1.434 1.469-1.434 1.469l-.703 2.938c.953 1.863 1.492 7.117 1.492 7.117.977 1.098 2.16 3.082 2.16 3.082.375-2.543-.602-5.293-.602-5.293 2.555 4.57 1.535 8.523 1.535 8.523s2.848-.043 3.699-2.875.414-8.898.414-8.898zm7.766-3.043c-.605-1.797-3.281-3.867-3.281-3.867l-2.098-.187c.289 1.844-.293 4.613-.293 4.613l-.996 3.086c1.828 1.324 2.887 4.426 2.887 4.426l-2.492-3.164 1.727 4.156c2.137 3.043 1.969 4.863 1.969 4.863l2.91-5.047c1.266-2.547.727-6.187.727-6.187-1.539-.848-1.059-2.691-1.059-2.691zm-93.332-2.914c-.227 1.406.063 1.883.063 1.883l1.207-2.34.934-1.262c-.582-1.281-2.055-1.777-2.055-1.777-.457-.766-.645-1.699-.645-1.699s-2.41 1.883-2.078 4.863c.332 2.957 2.035 5.09 2.035 5.09-.371-3.992.539-4.758.539-4.758zm0 0"/></g><path fill="#7f0000" d="M125.207 43.934c-.883-4.215-3.469-6.18-6.285-6.328-.91-1.793-7.566-6.141-13.465-2.871-1.113-.605-4.516-.695-5.922-.648-3.891.133-7.445 1.188-10.277 3.047-6.414 4.207-8.715 12.699-7.609 14.859-4.707 4.242-6.609 17.973 2.152 22.109 1.855 6.59 6.848 9.102 14.875 4.859 3.84 5.676 7.969 6.781 10.801 6.684 4.703-.16 8.34-3.566 9.82-5.203 9.223-2.098 11.887-10.34 9.219-17.789-.004-.008-.004-.012-.008-.02 3.656-3.625 5.113-14.965-3.301-18.699zm0 0"/><path d="M91.356 50.23s-2.848 8.785 5.672 12.379 13.445 4.035 16.168 8.441c0 0-1.844-2.391-6.27-.809S87.95 86.437 85.344 71.805c0 0-6.672-1.203-5.535-10.238s5.379-10.512 11.547-11.336zm5.543 10.34s-1.652-14.461 12.277-17.805c0 0-14.727-6.445-16.398 6.086 0 0-1.711 8.852 4.121 11.719zm3.906-9.949s-4.773 8.137-.809 11.273 6.711 1.813 14.059-1.301c0 0-.867-1.812-4.141-2.926s-7.488-2.195-5.699-6.758c0 0-2.672-.52-3.41-.289zm1.012-1.875s7.625-1.695 9.688 7.23c0 0 3.246-5.426-1.238-10.793.004 0-3.371.32-8.449 3.563zm10.441-4.91s7.391.613 8.035 7.953-7.543 12.121-9.27 14.633c0 0 1.789 1.523 3.473 4.328 0 0 .148-3.301 4.16-5.816 5.547-3.477 8.973-3.531 9.965-8.012 1.371-6.18-.629-10.102-5.66-11.461 0 0 .012-7.57-6.266-5.305-1.461.527-2.051 1.922-4.437 3.68zm.934 2.883s3.402 6.219-.293 10.438c0 0 1.527.355 2.031 2.383 0 0 4.336-3.012 3.457-8.094s-5.195-4.727-5.195-4.727zm-22.024 1.496s.523-8.48 9.719-8.434l3.137-3.328s-17.336-3.75-20.785 13.543c0 0 4.168-1.652 7.93-1.781zm11.813-8.098s4.547-8.695 13.578-2.102c0 0-3.195.875-5.527 4.328.004 0-6.195-2.699-8.051-2.227zm-2.809 36.699s3.887-3.738 8.324-4.789c2.047-.48 4.129.184 6.141 1.016 0 0 3.109-6.852 11.656-9.602 0 0 4.336 12.121-8.34 14.398 0 0-9.422 12.184-17.781-1.023zm5.613-24.937s-.402 2.672 3.801 3.551c0 0 1.953-1.91-3.801-3.551zm0 0"/></svg>