<svg width="96" height="96" viewBox="0 0 96 96" fill="none" xmlns="http://www.w3.org/2000/svg">
  <mask id="path-1-inside-1_54_100" fill="white">
  <path d="M42 51L46.5 48V37.5V24H49.5V48L54 51L84 3L64.5 39L55.5 60L52.5 70.5L51 79.5L49.5 87L48 96L46.5 87L45 79.5L43.5 70.5L40.5 60L31.5 39L12 0L42 51Z"/>
  </mask>
  <path d="M42 51L46.5 48V37.5V24H49.5V48L54 51L84 3L64.5 39L55.5 60L52.5 70.5L51 79.5L49.5 87L48 96L46.5 87L45 79.5L43.5 70.5L40.5 60L31.5 39L12 0L42 51Z" fill="white"/>
  <path d="M49.5 47.5H46.5V48.5H49.5V47.5ZM46.5 48L47.0547 48.8321L47.5 48.5352V48H46.5ZM42 51L41.1381 51.507L41.6745 52.4189L42.5547 51.8321L42 51ZM12 0L12.8619 -0.50702C12.5886 -0.971636 11.9963 -1.13602 11.5226 -0.87869C11.049 -0.621356 10.8645 -0.034917 11.1056 0.447214L12 0ZM84 3L84.8793 3.47628L83.152 2.47L84 3ZM54 51L53.4453 51.8321L54.3022 52.4033L54.848 51.53L54 51ZM46.5 24V23H45.5V24H46.5ZM49.5 24H50.5V23H49.5V24ZM49.5 48H48.5V48.5352L48.9453 48.8321L49.5 48ZM31.5 39L32.4191 38.6061L32.4076 38.5791L32.3944 38.5528L31.5 39ZM40.5 60L41.4615 59.7253L41.4441 59.6643L41.4191 59.6061L40.5 60ZM55.5 60L54.5809 59.6061L54.5559 59.6643L54.5385 59.7253L55.5 60ZM64.5 39L63.6207 38.5237L63.5989 38.564L63.5809 38.6061L64.5 39ZM43.5 70.5L44.4864 70.3356L44.4771 70.2797L44.4615 70.2253L43.5 70.5ZM45 79.5L44.0136 79.6644L44.0163 79.6803L44.0194 79.6961L45 79.5ZM51 79.5L51.9806 79.6961L51.9837 79.6803L51.9864 79.6644L51 79.5ZM52.5 70.5L51.5385 70.2253L51.5229 70.2797L51.5136 70.3356L52.5 70.5ZM46.5 87L47.4864 86.8356L47.4837 86.8197L47.4806 86.8039L46.5 87ZM48 96L47.0136 96.1644L48 102.083L48.9864 96.1644L48 96ZM49.5 87L48.5194 86.8039L48.5163 86.8197L48.5136 86.8356L49.5 87ZM45.9453 47.1679L41.4453 50.1679L42.5547 51.8321L47.0547 48.8321L45.9453 47.1679ZM42.8619 50.493L12.8619 -0.50702L11.1381 0.50702L41.1381 51.507L42.8619 50.493ZM83.152 2.47L53.152 50.47L54.848 51.53L84.848 3.53L83.152 2.47ZM47.5 48V37.5H45.5V48H47.5ZM47.5 37.5V24H45.5V37.5H47.5ZM46.5 25H49.5V23H46.5V25ZM54.5547 50.1679L50.0547 47.1679L48.9453 48.8321L53.4453 51.8321L54.5547 50.1679ZM48.5 24V48H50.5V24H48.5ZM11.1056 0.447214L30.6056 39.4472L32.3944 38.5528L12.8944 -0.447214L11.1056 0.447214ZM30.5809 39.3939L39.5809 60.3939L41.4191 59.6061L32.4191 38.6061L30.5809 39.3939ZM56.4191 60.3939L65.4191 39.3939L63.5809 38.6061L54.5809 59.6061L56.4191 60.3939ZM65.3793 39.4763L84.8793 3.47628L83.1207 2.52372L63.6207 38.5237L65.3793 39.4763ZM39.5385 60.2747L42.5385 70.7747L44.4615 70.2253L41.4615 59.7253L39.5385 60.2747ZM42.5136 70.6644L44.0136 79.6644L45.9864 79.3356L44.4864 70.3356L42.5136 70.6644ZM51.9864 79.6644L53.4864 70.6644L51.5136 70.3356L50.0136 79.3356L51.9864 79.6644ZM53.4615 70.7747L56.4615 60.2747L54.5385 59.7253L51.5385 70.2253L53.4615 70.7747ZM44.0194 79.6961L45.5194 87.1961L47.4806 86.8039L45.9806 79.3039L44.0194 79.6961ZM45.5136 87.1644L47.0136 96.1644L48.9864 95.8356L47.4864 86.8356L45.5136 87.1644ZM48.9864 96.1644L50.4864 87.1644L48.5136 86.8356L47.0136 95.8356L48.9864 96.1644ZM50.4806 87.1961L51.9806 79.6961L50.0194 79.3039L48.5194 86.8039L50.4806 87.1961Z" fill="white" mask="url(#path-1-inside-1_54_100)"/>
</svg>
