<?xml version="1.0" encoding="UTF-8" standalone="no"?>
<svg
   width="96"
   height="96"
   viewBox="0 0 96 96"
   fill="none"
   version="1.1"
   id="svg9"
   sodipodi:docname="arrow.svg"
   inkscape:version="1.1.1 (1:1.1+202109281946+c3084ef5ed)"
   xmlns:inkscape="http://www.inkscape.org/namespaces/inkscape"
   xmlns:sodipodi="http://sodipodi.sourceforge.net/DTD/sodipodi-0.dtd"
   xmlns="http://www.w3.org/2000/svg"
   xmlns:svg="http://www.w3.org/2000/svg">
  <defs
     id="defs13" />
  <sodipodi:namedview
     id="namedview11"
     pagecolor="#ffffff"
     bordercolor="#666666"
     borderopacity="1.0"
     inkscape:pageshadow="2"
     inkscape:pageopacity="0.0"
     inkscape:pagecheckerboard="true"
     showgrid="false"
     inkscape:zoom="6.4302523"
     inkscape:cx="66.016072"
     inkscape:cy="41.989021"
     inkscape:window-width="3440"
     inkscape:window-height="1371"
     inkscape:window-x="0"
     inkscape:window-y="32"
     inkscape:window-maximized="1"
     inkscape:current-layer="svg9" />
  <mask
     id="path-1-inside-1_54_100"
     fill="white">
    <path
       d="M42 51L46.5 48V37.5V24H49.5V48L54 51L84 3L64.5 39L55.5 60L52.5 70.5L51 79.5L49.5 87L48 96L46.5 87L45 79.5L43.5 70.5L40.5 60L31.5 39L12 0L42 51Z"
       id="path2" />
  </mask>
  <path
     d="m 42,51 4.5,-3 V 37.5 24 h 3 V 48 L 54,51 84,3 64.5,39 l -9,21 -3,10.5 -1.5,9 L 49.5,87 48,96 46.5,87 45,79.5 43.5,70.5 40.5,60 31.5,39 12,0 Z"
     fill="#ffffff"
     id="path5" />
</svg>
