<?xml version="1.0" encoding="UTF-8" standalone="no"?>
<!-- Created with Inkscape (http://www.inkscape.org/) -->

<svg
   width="24"
   height="24"
   viewBox="0 0 6.3500001 6.35"
   version="1.1"
   id="svg5"
   xml:space="preserve"
   inkscape:version="1.2.1 (0b8a7e5fb6, 2022-09-14, custom)"
   sodipodi:docname="chevron.svg"
   inkscape:export-filename="chevron.svg"
   inkscape:export-xdpi="96"
   inkscape:export-ydpi="96"
   xmlns:inkscape="http://www.inkscape.org/namespaces/inkscape"
   xmlns:sodipodi="http://sodipodi.sourceforge.net/DTD/sodipodi-0.dtd"
   xmlns="http://www.w3.org/2000/svg"
   xmlns:svg="http://www.w3.org/2000/svg"><sodipodi:namedview
     id="namedview7"
     pagecolor="#ffffff"
     bordercolor="#666666"
     borderopacity="1.0"
     inkscape:showpageshadow="2"
     inkscape:pageopacity="0.0"
     inkscape:pagecheckerboard="0"
     inkscape:deskcolor="#d1d1d1"
     inkscape:document-units="mm"
     showgrid="true"
     showguides="true"
     inkscape:zoom="29.276992"
     inkscape:cx="20.015717"
     inkscape:cy="14.49944"
     inkscape:window-width="3440"
     inkscape:window-height="1376"
     inkscape:window-x="0"
     inkscape:window-y="27"
     inkscape:window-maximized="1"
     inkscape:current-layer="layer1"><inkscape:grid
       type="xygrid"
       id="grid232" /></sodipodi:namedview><defs
     id="defs2" /><g
     inkscape:label="Layer 1"
     inkscape:groupmode="layer"
     id="layer1"><g
       style="fill:none"
       id="g220"
       transform="matrix(-0.26458333,0,0,0.26458333,5.9389851,0.525866)"><path
         d="M 12.5964,7 H 7.26096 C 6.52732,7 6.16051,7 5.95938,7.15281 5.78419,7.28591 5.67628,7.48923 5.66422,7.70892 5.65039,7.96113 5.85597,8.26493 6.26712,8.87252 v 0 l 2.52731,3.73478 c 0.31779,0.4696 0.47669,0.7045 0.67884,0.7912 0.17693,0.0759 0.37627,0.0809 0.55673,0.0139 0.2062,-0.0766 0.3766,-0.3032 0.7174,-0.7564 L 13.5555,8.92115 C 14.0203,8.30294 14.2528,7.99383 14.2476,7.73504 14.2431,7.50984 14.1376,7.29858 13.9603,7.15965 13.7566,7 13.3699,7 12.5964,7 Z"
         fill="#ffffff"
         id="path211" /></g></g></svg>
