<svg version="1.1" viewBox="0 0 96 96" xmlns="http://www.w3.org/2000/svg">
 <g transform="translate(8.2)" fill="param(fill) #FFF">
  <path fill="param(fill) #FFF" d="m40.595 31.785c-4.6538-4.6939-9.5582-9.2061-14.693-13.337-3.2562-1.4784-6.425-3.2204-9.7362-4.533-5.2689-0.87446-10.607-1.3852-15.851-2.3567 7.5999 4.2303 15.248 8.569 22.853 12.857 5.256 3.3943 10.277 7.1487 14.715 11.575 7.194 6.2054 13.945 12.881 20.532 19.719 6.8782 7.0152 13.756 14.03 20.635 21.046-12.818-14.99-25.637-29.98-38.455-44.971z"/>
  <path fill="param(fill) #FFF" d="m28.555 52.015c-5.4886 3.4452-10.686 7.3873-15.852 11.276-2.1807 2.8398-4.3615 5.6795-6.5422 8.5193-1.7855 4.1151-2.8863 8.4339-4.6848 12.542-0.20449 0.74385-1.4605 3.2378-0.97564 2.8343 4.0261-4.9051 8.3729-9.5276 12.533-14.314 2.4211-2.9247 4.89-5.8038 7.7873-8.2735 2.5255-2.4339 5.0849-4.8265 8.0426-6.7346 6.9458-4.9033 13.642-10.176 20.929-14.575 10.248-6.5122 20.496-13.024 30.744-19.537-17.327 9.4211-34.654 18.842-51.981 28.263z"/>
 </g>
</svg>
