<svg xmlns="http://www.w3.org/2000/svg" fill="none" viewBox="0 0 406.66 125.66" xmlns:v="https://vecta.io/nano"><style><![CDATA[.B{stroke-width:3.78}.C{stroke-linecap:round}]]></style><g stroke="#fff" class="B"><g class="C"><path d="M221.19 38.738c1.58-25.455 27.217 2.847 9.946 8.672-34.406 11.6-36.23-41.849-6.768-40.819 55.534 1.931 82.728 67.783 48.734 104.09-11.273 12.038-39.074 18.43-54.514 7.374-22.572-16.168-13.113-40.503-13.113-40.503s1.256-10.959 23.853-11.949c0 0 12.547.617 14.573 7.56 7.602 25.918-25.872 25.812-14.451 9.053"/><path d="M243.6 33.717c7.506-7.633 18.674 5.313 7.757 9.953-10.813 4.599-35.071-23.581 9.92-24.303 0 0 38.928 36.658 75.004 24.036 18.852-6.595 26.372-39.497 48.224-41.444 19.645-1.752 30.393 34.565 6.824 37.477-28.562 3.529-17.814-28.976-3.655-12.33"/></g><path d="M292.91 39.695c30.621-10.448 43.06-37.631 57.949-28.084 7.71 4.948 4.96 12.979-.924 21.391zm-12.451-6.433C267.792 2.907 299.191-1.052 304.128 9.34c0 0 4.602 8.712-1.907 13.644-7.173 5.435-14.904-5.5-8.996-10.189z"/><g class="C"><path d="M185.48 38.73c-1.581-25.455-27.216 2.848-9.945 8.672 34.406 11.6 36.229-41.85 6.768-40.819-55.535 1.931-82.728 67.783-48.735 104.09 11.274 12.038 39.074 18.43 54.514 7.374 22.572-16.168 13.113-40.503 13.113-40.503s-1.256-10.959-23.852-11.949c0 0-12.547.617-14.573 7.561-7.603 25.918 25.871 25.812 14.451 9.053"/><path d="M163.06 33.709c-7.506-7.633-18.674 5.313-7.757 9.953 10.812 4.599 35.071-23.581-9.92-24.303 0 0-38.928 36.658-75.004 24.036C51.527 36.8 44.005 3.898 22.154 1.951 2.508.199-8.24 36.516 15.33 39.428c28.562 3.529 17.815-28.976 3.655-12.33"/></g><path d="M113.76 39.695C83.139 29.247 70.698 2.064 55.81 11.611c-7.708 4.948-4.96 12.979.924 21.391zm12.449-6.433c12.668-30.355-18.73-34.314-23.666-23.922 0 0-4.604 8.712 1.904 13.644 7.173 5.435 14.906-5.5 8.997-10.189zm41.381 59.153c8.227 7.382 7.976 14.561 1.581 21.789-18.415 20.815-28.757-13.588-9.029-10.473zm-46.798-37.234c-6.727 21.618 5.617 29.795 19.541 29.763 6.111-.016 15.837-2.669 19.225-6.1 11.42-11.543-3.015-30.996-13.47-21.837-3.339 2.928-4.118 11.121 4.506 10.148z"/></g></svg>