<svg fill="none" version="1.1" viewBox="0 0 96 96" xmlns="http://www.w3.org/2000/svg">
 <path fill="param(fill) #FFF" d="m44.135 41.048s-1.0111-0.46185-19.215-1.2611l-10.645 2.5514c-6.7617 3.7224-6.5347 3.9747-6.5347 3.9747l-7.9442 4.4877 8.9703-1.6686 7.5607-1.1556 8.9703-1.6686 10.893-0.77213 22.812 1.2748 43.317 4.9852z"/>
 <path fill="param(fill) #FFF" d="m44.669 20.351s-0.95728-0.56501-18.978-3.2627l-10.853 1.4247c-7.1138 2.9952-6.9144 3.2699-6.9144 3.2699l-8.3698 3.6327 9.0956-0.72181 7.6401-0.35896 9.0956-0.72181 10.914 0.37073 22.554 3.6523 42.559 9.4858z"/>
 <path fill="param(fill) #FFF" d="m43.677 61.798s-1.0538-0.35363-19.242 0.75432l-10.32 3.6501c-6.3356 4.4088-6.0834 4.636-6.0834 4.636l-7.4316 5.2935 8.7467-2.5971 7.3985-1.9396 8.7467-2.5971 10.753-1.9065 22.82-1.1167 43.601 0.43003z" />
</svg>
