<svg fill="none" version="1.1" viewBox="0 0 96 96" xmlns="http://www.w3.org/2000/svg">
 <path class="claw-mark first" d="m44.669 20.351s-0.95728-0.56501-18.978-3.2627l-10.853 1.4247-6.9144 3.2699-7.9236 3.6331 8.6494-0.72221 7.6401-0.35896 9.0956-0.72181 10.914 0.37073 22.554 3.6523 37.147 9.486z" />
 <path class="claw-mark second" d="m44.135 46.342-19.215 0.74023-10.645 0.95117-6.5352 1.1758-7.0566 1.398-0.68359 0.19153 0.25586 3e-4 -0.25586-3e-4 0.68359 0.19247 7.0566 1.3977 6.5352 1.1758 10.645 0.95117 19.215 0.73828 51.865-4.4551z"/>
 <path class="claw-mark third" d="m44.668 81.247s-0.95728 0.56501-18.978 3.2627l-10.853-1.4247-6.9144-3.2699-7.9236-3.6331 8.6494 0.72221 7.6401 0.35896 9.0956 0.72181 10.914-0.37073 22.554-3.6523 37.147-9.486z" />
</svg>
