<svg xmlns="http://www.w3.org/2000/svg" width="24" height="24" viewBox="0 0 6.35 6.35" xmlns:v="https://vecta.io/nano"><path d="M3.14 1.122c-.146.039-.294.161-.425.236l-.922.533c-.122.07-.371.156-.415.303s-.01.343-.01.494v1.016c0 .141-.047.388.028.512.059.098.208.152.303.207l.685.397.567.326c.085.05.179.128.284.1.146-.039.294-.161.425-.236l.922-.533c.122-.07.371-.156.415-.303s.01-.343.01-.494V2.664c0-.141.047-.388-.028-.512-.059-.098-.208-.152-.303-.207l-.685-.397-.567-.326c-.085-.05-.179-.128-.284-.1M4.7 2.167v.047l-1.063.608-.449.23-.449-.23-1.063-.608v-.047l1.087-.621.425-.217.425.217 1.087.621m-1.867-.024c-.031-.134.116-.225.228-.128.068.059.023.146.05.22.064.171.233.115.336.026-.128-.116-.024-.282-.167-.385-.189-.137-.62-.072-.727.149-.111.23.166.191.279.118m.663.203c-.178.051-.014.202.115.165.178-.051.014-.202-.115-.165m-1.916.01l1.063.614.425.269.024.487v1.276L1.982 4.37l-.401-.254-.024-.436v-.898l.024-.425m3.237 0v1.229l-.014.512-.387.258-1.134.647V3.727l.024-.487.425-.269 1.087-.614m-2.623.993c.09-.088.233-.017.223.117-.007.092-.107.103-.159.159-.115.127.011.26.124.314.05-.146.234-.159.256-.307.038-.245-.236-.649-.515-.583-.235.055-.041.247.07.299m1.536.26c.105-.055.252-.302.351-.302.075 0 .058.093.04.137-.078.189-.176.308-.202.52.193-.058.58-.666.411-.867-.074-.088-.209-.047-.293.001-.191.108-.303.296-.307.511m-1.347.662c.035-.081.001-.375-.151-.28-.138.087.076.255.151.28m1.655-.26c-.091.027-.18.281-.045.262.126-.018.188-.305.045-.262z" fill="#0a0a0a"/><g fill="#fff"><path d="M2.532 4.677l-.746-.438-.201-.127-.011-.206a22.22 22.22 0 0 1 0-1.349l.012-.188c.005-.006 1.06.609 1.247.727l.219.142c.023.021.038.466.038 1.128l-.007.621c-.004 0-.252-.14-.552-.311zm-.135-.439c.018-.076-.014-.211-.058-.248s-.083-.029-.132.016-.011.142.082.212c.086.066.097.067.108.02zm-.002-.311c0-.017.086-.103.159-.159.065-.049.087-.09.092-.166.01-.158-.104-.379-.253-.488-.058-.043-.149-.076-.206-.076-.045 0-.119.023-.148.045-.065.051-.019.158.108.245l.042.029.034-.019c.044-.025.089-.024.127.001.055.037.078.117.049.169-.007.012-.042.043-.078.068-.086.059-.107.091-.107.158 0 .041.005.059.026.092.045.072.155.144.155.103z"/><path d="M3.293 4.2l.01-.872.005-.083.209-.133 1.296-.745a69.14 69.14 0 0 1-.012 1.643l-.006.084-.191.128c-.124.083-.387.239-.75.447l-.563.319a39.24 39.24 0 0 1 .002-.788zm.759.047c.063-.056.095-.182.056-.225-.024-.027-.069-.024-.105.006-.063.053-.104.196-.067.232.024.024.08.018.116-.013zm-.074-.308c.06-.038.151-.139.221-.243.213-.32.236-.616.05-.65-.103-.019-.23.038-.345.153-.107.107-.156.211-.175.369-.004.035-.003.047.006.047s.072-.063.147-.14c.151-.155.188-.18.228-.154s.027.083-.062.271c-.099.208-.101.213-.13.354-.006.028.009.026.061-.008zm-1.01-1.005l-.752-.417-.534-.326c0-.018.074-.063.544-.332l.754-.417.21-.106.206.106.755.419.549.332c0 .014-.111.081-.558.336l-.953.518a11.32 11.32 0 0 1-.221-.112zm.665-.425c.017-.006.039-.022.049-.035.024-.032.013-.062-.034-.1-.032-.026-.04-.028-.106-.028-.085 0-.12.019-.125.067-.007.075.118.131.215.096zm-.264-.191c.087-.044.091-.05.058-.092s-.041-.073-.055-.178c-.012-.086-.036-.134-.089-.174-.122-.093-.399-.094-.571-.002-.103.055-.159.119-.181.209-.008.034-.008.049.001.071.026.064.149.071.266.016.039-.018.04-.02.04-.059 0-.111.119-.166.207-.095.041.033.054.07.055.149.001.066.019.116.057.152.05.047.123.049.212.004z"/></g></svg>