<?xml version="1.0" encoding="UTF-8" standalone="no"?>
<svg
   width="283.9375"
   zoomAndPan="magnify"
   viewBox="0 0 212.95312 257.53125"
   height="343.375"
   preserveAspectRatio="xMidYMid meet"
   version="1.0"
   id="svg22"
   sodipodi:docname="Progetto senza titolo (1).svg"
   inkscape:version="1.1.1 (1:1.1+202109281946+c3084ef5ed)"
   xmlns:inkscape="http://www.inkscape.org/namespaces/inkscape"
   xmlns:sodipodi="http://sodipodi.sourceforge.net/DTD/sodipodi-0.dtd"
   xmlns="http://www.w3.org/2000/svg"
   xmlns:svg="http://www.w3.org/2000/svg">
  <sodipodi:namedview
     id="namedview24"
     pagecolor="#ff39ff"
     bordercolor="#666666"
     borderopacity="1.0"
     inkscape:pageshadow="2"
     inkscape:pageopacity="0"
     inkscape:pagecheckerboard="0"
     showgrid="false"
     fit-margin-top="0"
     fit-margin-left="0"
     fit-margin-right="0"
     fit-margin-bottom="0"
     inkscape:zoom="1.566762"
     inkscape:cx="546.03061"
     inkscape:cy="181.26557"
     inkscape:window-width="3440"
     inkscape:window-height="1371"
     inkscape:window-x="0"
     inkscape:window-y="32"
     inkscape:window-maximized="1"
     inkscape:current-layer="layer1" />
  <defs
     id="defs8">
    <clipPath
       id="id1">
      <path
         d="M 246.28516,166.68359 H 459.25391 V 424.27734 H 246.28516 Z m 0,0"
         clip-rule="nonzero"
         id="path2" />
    </clipPath>
    <clipPath
       id="id2">
      <path
         d="m 315,294 h 83 v 54.99609 h -83 z m 0,0"
         clip-rule="nonzero"
         id="path5" />
    </clipPath>
  </defs>
  <g
     clip-path="url(#id1)"
     id="g12"
     transform="translate(-246.28516,-166.71484)">
    <path
       fill="#7f0000"
       d="m 423.41797,356.38672 -70.19922,52.92187 -69.28516,-52.92187 -24.20703,-156.94141 93.46485,-20.54297 92.71093,20.54297 z m -70.21485,-189.67188 -106.92968,23.4961 26.64453,172.73047 80.2539,61.30468 81.31641,-61.30859 24.75,-172.72656 -106.03516,-23.4961"
       fill-opacity="1"
       fill-rule="nonzero"
       id="path10"
       sodipodi:nodetypes="cccccccccccccc" />
  </g>
  <g
     inkscape:groupmode="layer"
     id="layer1"
     inkscape:label="new">
    <path
       d="M 177.13281,189.67188 106.93358,242.59375 37.64843,189.67188 13.4414,32.730468 l 93.46485,-20.54297 92.71093,20.54297 z"
       style="fill:#ffffff;fill-opacity:1;fill-rule:nonzero;stroke-width:0.75"
       id="path2271" />
  </g>
  <path
     fill="#7f0000"
     d="m 38.335934,65.992186 14.125,118.871094 -0.80468,-1.36718 53.374996,43.41015 -55.921876,-40.0664 -0.64453,-0.46094 -0.16016,-0.90234 -25.39453,-144.785164 15.42578,25.30078"
     fill-opacity="1"
     fill-rule="nonzero"
     id="path14" />
  <path
     fill="#146630"
     d="m 142.69921,90.867186 c 0,0 -7.32421,-6.11719 -14.26953,-5.09766 l -4.54297,0.50782 c 0,0 8.45704,-10.82813 20.57813,-12.61328 l -2.65234,2.16796 c 0,0 5.68359,8.15235 0.88671,15.03516 z m -29.92578,12.867194 c 0,0 2.27344,-4.078134 6.1875,-5.097664 3.91407,-1.01953 4.29297,3.312504 4.29297,3.312504 z m -16.160146,-1.78516 c 0,0 0.3789,-4.332034 4.292966,-3.312504 3.91406,1.01953 6.1875,5.097664 6.1875,5.097664 z m -5.17578,-16.179694 c -6.94532,-1.01953 -14.26954,5.09766 -14.26954,5.09766 -4.79687,-6.88281 0.88672,-15.03516 0.88672,-15.03516 l -2.65234,-2.16796 c 12.12109,1.78515 20.57812,12.61328 20.57812,12.61328 z m 58.457026,-18.73046 c -4.54297,-10.50782 -39.96094,1.91406 -39.96094,1.91406 0,0 -35.414056,-12.42188 -39.960936,-1.91406 -4.54687,10.51171 -28.97656,55.804684 -3.59765,60.007814 0,0 8.0039,-8.15235 20.36718,-13.17969 -0.37109,29.41797 11.44922,39.74609 11.44922,39.74609 -6.92969,-11.96484 -5.84375,-34.03906 -5.19922,-41.87109 5.17188,-1.41406 10.882816,-2.12109 16.941406,-1.51172 6.05859,-0.60937 11.76953,0.0977 16.94141,1.51172 0.64453,7.83203 1.73046,29.90625 -5.19922,41.87109 0,0 11.82031,-10.32812 11.45312,-39.74609 12.35938,5.02734 20.36328,13.17969 20.36328,13.17969 25.37891,-4.20313 0.94922,-49.496104 -3.59765,-60.007814"
     fill-opacity="1"
     fill-rule="nonzero"
     id="path16" />
  <g
     clip-path="url(#id2)"
     id="g20"
     transform="translate(-246.28516,-166.71484)">
    <path
       fill="#146630"
       d="m 385.38672,294.91016 c 0,0 4.73437,6.8789 -3.22266,24.07812 -3.76172,8.14063 -9.77344,12.55469 -15.0664,14.94922 0.043,-3.14453 -0.96485,-6.79688 -0.96485,-6.79688 -0.28125,2.625 -1.14062,6.14454 -1.57422,7.82032 -4.71484,1.68359 -8.33984,1.80078 -8.33984,1.80078 0,0 -3.625,-0.11719 -8.33984,-1.80078 -0.4336,-1.67578 -1.29297,-5.19532 -1.57032,-7.82032 0,0 -1.01172,3.65235 -0.96875,6.79688 -5.28906,-2.39453 -11.30078,-6.80859 -15.0664,-14.94922 -7.95313,-17.19922 -3.21875,-24.07812 -3.21875,-24.07812 0,0 -7.38672,5.54296 -11.74219,3.25 0,0 13.63672,39.9375 40.90625,50.83203 27.27344,-10.89453 40.91016,-50.83203 40.91016,-50.83203 -4.35938,2.29296 -11.74219,-3.25 -11.74219,-3.25"
       fill-opacity="1"
       fill-rule="nonzero"
       id="path18" />
  </g>
</svg>
