<?xml version="1.0" encoding="UTF-8" standalone="no"?>
<svg
   width="265.01562"
   zoomAndPan="magnify"
   viewBox="0 0 198.76172 242.23048"
   height="322.97397"
   preserveAspectRatio="xMidYMid meet"
   version="1.0"
   id="svg44"
   sodipodi:docname="Progetto senza titolo.svg"
   inkscape:version="1.1.1 (1:1.1+202109281946+c3084ef5ed)"
   xmlns:inkscape="http://www.inkscape.org/namespaces/inkscape"
   xmlns:sodipodi="http://sodipodi.sourceforge.net/DTD/sodipodi-0.dtd"
   xmlns="http://www.w3.org/2000/svg"
   xmlns:svg="http://www.w3.org/2000/svg">
  <sodipodi:namedview
     id="namedview46"
     pagecolor="#ffffff"
     bordercolor="#666666"
     borderopacity="1.0"
     inkscape:pageshadow="2"
     inkscape:pageopacity="0.0"
     inkscape:pagecheckerboard="0"
     showgrid="false"
     fit-margin-top="0"
     fit-margin-left="0"
     fit-margin-right="0"
     fit-margin-bottom="0"
     inkscape:zoom="1.107868"
     inkscape:cx="131.33333"
     inkscape:cy="161.57159"
     inkscape:window-width="3440"
     inkscape:window-height="1371"
     inkscape:window-x="0"
     inkscape:window-y="32"
     inkscape:window-maximized="1"
     inkscape:current-layer="svg44" />
  <defs
     id="defs14">
    <clipPath
       id="id1">
      <path
         d="M 253.62891,174.05469 H 452.39062 V 416.29687 H 253.62891 Z m 0,0"
         clip-rule="nonzero"
         id="path2" />
    </clipPath>
    <clipPath
       id="id2">
      <path
         d="m 334,289 h 45 v 84.32031 h -45 z m 0,0"
         clip-rule="nonzero"
         id="path5" />
    </clipPath>
    <clipPath
       id="id3">
      <path
         d="M 322.72266,268 H 345 v 21 h -22.27734 z m 0,0"
         clip-rule="nonzero"
         id="path8" />
    </clipPath>
    <clipPath
       id="id4">
      <path
         d="m 349,205.61328 h 28 V 284 h -28 z m 0,0"
         clip-rule="nonzero"
         id="path11" />
    </clipPath>
  </defs>
  <g
     clip-path="url(#id1)"
     id="g18"
     transform="translate(-253.62891,-174.05859)">
    <path
       fill="#000000"
       d="m 353.07812,174.05859 h 0.86719 l 3.74219,1.9336 c 2.49609,1.28515 4.14453,2.1289 4.94531,2.52734 0.80078,0.40234 3.53125,1.69922 8.1875,3.89453 4.65625,2.19922 7.0625,3.3086 7.21875,3.33203 0.15625,0.0195 1.39063,0.54297 3.70703,1.5625 2.32032,1.02344 4.10157,1.77735 5.34766,2.26563 1.25,0.48828 3.05469,1.15234 5.41406,1.99609 2.36328,0.84375 3.85547,1.375 4.47656,1.59766 0.625,0.22265 1.40625,0.48828 2.33985,0.80078 0.9375,0.30859 2.14062,0.6875 3.60937,1.13281 1.47266,0.44141 3.34375,0.97656 5.61328,1.59766 2.27344,0.62109 4.48047,1.17578 6.61719,1.66406 2.14063,0.48828 3.51953,0.79688 4.14453,0.92969 0.625,0.13281 2.60547,0.51172 5.94922,1.13281 3.33985,0.62109 5.4336,1 6.28125,1.13281 0.84766,0.13282 2.91797,0.46485 6.21485,1 3.29687,0.53125 4.96875,0.79688 5.01171,0.79688 0.0469,0 1.64844,0.3125 4.8125,0.93359 3.16407,0.6211 4.75782,0.94141 4.78125,0.96485 l 0.0312,0.0312 -0.19921,9.92187 c -0.13282,6.61328 -0.46875,15.16016 -1.00391,25.63672 -0.53516,10.47656 -0.95703,17.80078 -1.26953,21.97266 -0.3125,4.17187 -0.66797,7.74609 -1.07031,10.71875 -0.39844,2.97265 -0.86719,5.79296 -1.40235,8.45703 -0.53515,2.66406 -1.11328,5.34765 -1.73828,8.05468 -0.62109,2.70704 -1.17969,5.08204 -1.67187,7.125 -0.48829,2.04297 -1.06641,4.23829 -1.73438,6.59375 -0.66797,2.35157 -1.07031,3.77344 -1.20312,4.26172 -0.13672,0.48828 -0.33594,1.10938 -0.60157,1.86328 -0.26953,0.75391 -0.58203,1.6875 -0.9375,2.79688 -0.35547,1.10937 -0.91406,2.70703 -1.67187,4.79297 -0.75391,2.08594 -1.37891,3.75 -1.8711,4.99219 -0.48828,1.24609 -1.08984,2.73046 -1.80468,4.46093 -0.71094,1.73438 -1.625,3.82032 -2.73828,6.26172 -1.11329,2.44141 -1.78125,3.85938 -2.00391,4.26172 -0.22266,0.39844 -1.03906,1.85156 -2.44141,4.35938 -1.40234,2.50781 -2.25,3.99609 -2.53906,4.46093 -0.28906,0.46485 -0.98047,1.64453 -2.07031,3.53125 -1.09375,1.88282 -1.80469,3.08203 -2.14063,3.59375 -0.33203,0.51172 -0.84765,1.3086 -1.53515,2.39844 -0.69141,1.08594 -1.25,1.92969 -1.67188,2.52734 -0.42578,0.60157 -0.91406,1.3125 -1.47265,2.13282 -0.55469,0.82031 -1.08985,1.57422 -1.60157,2.26172 -0.51172,0.6875 -0.91406,1.26562 -1.20312,1.73437 -0.28906,0.46484 -0.71485,1.0625 -1.26953,1.79688 -0.5586,0.73046 -1.09375,1.46484 -1.60547,2.19531 -0.51172,0.73437 -1.07031,1.48828 -1.67188,2.26562 -0.60156,0.77735 -1.11328,1.44141 -1.53515,1.9961 -0.42578,0.55468 -1.32422,1.60937 -2.70703,3.16406 -1.38282,1.55469 -3.00782,3.32812 -4.87891,5.32422 -1.87109,2 -3.51953,3.70703 -4.94531,5.1289 -1.42578,1.42188 -2.375,2.32032 -2.83985,2.69532 -0.46875,0.3789 -1.5625,1.33203 -3.27734,2.86328 -1.71484,1.53125 -2.76172,2.46484 -3.14063,2.79687 -0.3789,0.33203 -1.3125,1.15625 -2.80468,2.46485 -1.4961,1.30859 -2.47266,2.15234 -2.94141,2.53125 -0.46875,0.375 -1.00391,0.82031 -1.60547,1.32812 -0.60156,0.51172 -1.4375,1.21094 -2.5039,2.09766 -1.07032,0.89062 -1.88282,1.54297 -2.44141,1.96484 -0.55859,0.42188 -1.08984,0.80078 -1.60547,1.13281 -0.51172,0.33204 -1.44531,0.91016 -2.80469,1.73047 -1.35937,0.82032 -2.25,1.375 -2.67578,1.66407 -0.42187,0.28906 -0.90234,0.58984 -1.43359,0.89843 -0.53516,0.3125 -1.09375,0.66797 -1.67188,1.06641 -0.57812,0.39844 -1.0039,0.6875 -1.26953,0.86719 -0.26953,0.17578 -0.84765,0.48828 -1.73828,0.92968 -0.89062,0.44532 -1.96094,0.95704 -3.20703,1.53125 -1.25,0.57813 -2.11719,0.95704 -2.60938,1.13282 l -0.73437,0.26562 -0.80078,-0.19922 c -0.53516,-0.13281 -1.11328,-0.35547 -1.73828,-0.66406 -0.625,-0.3125 -1.67188,-0.84375 -3.14063,-1.59766 -1.47265,-0.75781 -2.3164,-1.22265 -2.53906,-1.39843 -0.22266,-0.17969 -0.79297,-0.56641 -1.70703,-1.16797 -0.91016,-0.59766 -1.60156,-1.04297 -2.07031,-1.32813 -0.46875,-0.28906 -1.38282,-0.84375 -2.73829,-1.66797 -1.35937,-0.82031 -2.29687,-1.39843 -2.80859,-1.73046 -0.51172,-0.33204 -1.04687,-0.71094 -1.60547,-1.13282 -0.55469,-0.42187 -1.1914,-0.91797 -1.90234,-1.49609 -0.71485,-0.57813 -1.66016,-1.36719 -2.83985,-2.36328 -1.18359,-1 -2.20703,-1.86328 -3.07421,-2.59766 -0.8711,-0.73047 -2.14063,-1.84375 -3.8125,-3.32812 -1.66797,-1.48828 -2.73829,-2.42188 -3.20704,-2.79688 -0.46875,-0.3789 -1.49218,-1.26562 -3.07421,-2.66406 -1.58204,-1.39844 -2.46094,-2.1875 -2.64063,-2.36328 -0.17578,-0.17969 -0.96875,-0.96485 -2.37109,-2.36328 -1.40625,-1.39844 -2.38282,-2.39844 -2.94141,-2.9961 -0.55859,-0.60156 -1.78125,-1.93359 -3.67578,-3.99609 -1.89453,-2.0625 -3.03125,-3.32813 -3.41016,-3.79688 -0.3789,-0.46484 -0.93359,-1.15234 -1.66797,-2.0625 -0.73828,-0.91015 -1.3164,-1.64062 -1.73828,-2.19531 -0.42578,-0.55469 -0.84765,-1.13281 -1.26953,-1.73437 -0.42578,-0.59766 -0.87109,-1.21875 -1.33984,-1.86328 -0.46485,-0.64454 -0.89063,-1.21875 -1.26953,-1.73047 -0.37891,-0.51172 -0.69922,-0.96485 -0.96875,-1.36719 -0.26563,-0.39844 -0.63282,-0.91797 -1.10157,-1.5625 -0.46875,-0.64453 -0.86718,-1.22266 -1.20312,-1.73047 -0.33594,-0.51172 -0.78125,-1.17578 -1.33594,-2 -0.55859,-0.82031 -0.98047,-1.46484 -1.26953,-1.92969 -0.28906,-0.46484 -0.75781,-1.19922 -1.40625,-2.19531 -0.64453,-1 -1.06641,-1.6875 -1.26953,-2.06641 -0.19922,-0.375 -0.75781,-1.33203 -1.66797,-2.86328 -0.91406,-1.53125 -1.51562,-2.53125 -1.80469,-2.99609 -0.28906,-0.46484 -1.01562,-1.74219 -2.17187,-3.82813 -1.16016,-2.08593 -2.02735,-3.66015 -2.60938,-4.72656 -0.57812,-1.0664 -1.08984,-2.0664 -1.53515,-2.99609 -0.44532,-0.9336 -1.07032,-2.33203 -1.8711,-4.19531 -0.80468,-1.86329 -1.20312,-2.82032 -1.20312,-2.86329 0,-0.043 -0.40235,-1.0664 -1.20313,-3.0625 -0.80078,-1.99609 -1.42578,-3.57421 -1.87109,-4.72656 -0.44531,-1.15625 -1.07031,-2.91015 -1.87109,-5.26172 -0.80469,-2.35156 -1.60547,-4.85937 -2.40625,-7.52343 -0.80469,-2.66407 -1.69532,-5.90235 -2.67579,-9.72266 -0.98046,-3.81641 -1.66796,-6.65625 -2.07031,-8.51953 -0.40234,-1.86719 -0.95703,-4.57422 -1.67187,-8.125 -0.71094,-3.55078 -1.13672,-5.88281 -1.26953,-6.99219 -0.13282,-1.10937 -0.42188,-4.50391 -0.86719,-10.1875 -0.44531,-5.67969 -0.73438,-9.96484 -0.8711,-12.85156 -0.13281,-2.88281 -0.28906,-5.94531 -0.46484,-9.1875 -0.17969,-3.23828 -0.42578,-8.54297 -0.73828,-15.91406 -0.30859,-7.36719 -0.46484,-12.58204 -0.46484,-15.64454 v -4.59375 l 0.43359,-0.23437 c 0.28906,-0.15625 1.07812,-0.34375 2.37109,-0.56641 1.29297,-0.22265 3.07422,-0.51172 5.34766,-0.86718 2.27344,-0.35157 5.72656,-0.92969 10.35937,-1.73047 4.63282,-0.79688 7.95313,-1.375 9.95704,-1.73047 2.00781,-0.35547 4.65625,-0.91016 7.95312,-1.66406 3.29688,-0.75391 6.14844,-1.46485 8.55469,-2.13282 2.40625,-0.66406 4.48047,-1.28515 6.21484,-1.86328 1.73828,-0.57812 3.09766,-1.01953 4.07813,-1.33203 0.98047,-0.30859 1.91797,-0.62109 2.80859,-0.92969 0.89063,-0.3125 2.67188,-0.97656 5.34375,-2 2.67578,-1.01953 5.17969,-2.05078 7.51953,-3.09375 2.33985,-1.04297 3.58985,-1.57812 3.74219,-1.59765 0.15625,-0.0234 1.28125,-0.52344 3.375,-1.5 2.09766,-0.97657 3.98828,-1.86328 5.68359,-2.66407 1.69141,-0.79687 3.36328,-1.59765 5.01172,-2.39453 1.64844,-0.80078 3.69922,-1.84375 6.14844,-3.1289 l 3.67578,-1.9336 z m 0,0"
       fill-opacity="1"
       fill-rule="nonzero"
       id="path16" />
  </g>
  <path
     fill="#7f0000"
     d="m 99.742184,5.124996 h 0.824216 l 3.55078,1.83985 c 2.36719,1.22265 3.9336,2.02734 4.69532,2.40625 0.76171,0.3789 3.34765,1.61718 7.76953,3.70703 4.41797,2.08984 6.69922,3.14844 6.84765,3.16797 0.14844,0.0195 1.32032,0.51562 3.51953,1.48828 2.19922,0.97265 3.89063,1.6914 5.07422,2.15625 1.1836,0.46484 2.89453,1.09765 5.13672,1.89844 2.23828,0.80468 3.65625,1.30859 4.25,1.52343 0.58985,0.21094 1.33203,0.46485 2.21875,0.75782 0.88672,0.29687 2.02735,0.65625 3.42188,1.07812 1.39843,0.42188 3.17187,0.92969 5.32812,1.51953 2.15625,0.59375 4.25,1.1211 6.27735,1.58594 2.03125,0.46484 3.34375,0.75781 3.93359,0.88672 0.59375,0.125 2.47266,0.48437 5.64453,1.07812 3.17188,0.58985 5.15625,0.94922 5.96094,1.07422 0.80469,0.12891 2.76953,0.44531 5.89844,0.95313 3.1289,0.5039 4.71484,0.75781 4.75781,0.75781 0.0391,0 1.5625,0.29687 4.5625,0.88672 3.0039,0.59375 4.51562,0.89844 4.53515,0.92187 l 0.0312,0.0312 -0.1875,9.44141 c -0.1289,6.29297 -0.44531,14.42578 -0.95312,24.39453 -0.50781,9.96875 -0.91016,16.9375 -1.20313,20.91016 -0.29687,3.96875 -0.63671,7.37109 -1.01562,10.19922 -0.37891,2.832034 -0.82422,5.511714 -1.33203,8.046874 -0.50781,2.53516 -1.0586,5.08984 -1.64844,7.66797 -0.59375,2.57812 -1.12109,4.83594 -1.58594,6.78125 -0.46484,1.94141 -1.01562,4.03125 -1.64843,6.26953 -0.63282,2.24219 -1.01563,3.59375 -1.14063,4.05859 -0.12891,0.46485 -0.32031,1.05469 -0.57031,1.77344 -0.25391,0.71875 -0.55078,1.60547 -0.89063,2.66016 -0.33593,1.05469 -0.86718,2.57812 -1.58593,4.5625 -0.71875,1.98437 -1.3086,3.57031 -1.77344,4.7539 -0.46485,1.17969 -1.03516,2.59766 -1.71485,4.24219 -0.67578,1.64844 -1.54296,3.63281 -2.59765,5.95703 -1.0586,2.32422 -1.69141,3.67578 -1.90235,4.05469 -0.21093,0.37891 -0.98437,1.76563 -2.3164,4.15234 -1.33203,2.38672 -2.13281,3.80079 -2.41016,4.24219 -0.27344,0.44531 -0.92969,1.56641 -1.96484,3.35938 -1.03516,1.79687 -1.71094,2.9375 -2.03125,3.42187 -0.31641,0.48438 -0.80078,1.2461 -1.45703,2.28125 -0.65625,1.03516 -1.1836,1.83594 -1.58594,2.40625 -0.40234,0.57031 -0.86719,1.2461 -1.39453,2.02735 -0.52735,0.78515 -1.03516,1.5 -1.52344,2.15625 -0.48437,0.65625 -0.86328,1.20312 -1.14062,1.64843 -0.27344,0.44141 -0.67579,1.01172 -1.20313,1.71094 -0.53125,0.69531 -1.03516,1.39453 -1.52344,2.08984 -0.48437,0.69532 -1.01562,1.41407 -1.58593,2.15235 -0.57032,0.74219 -1.05469,1.375 -1.45704,1.90234 -0.40234,0.52735 -1.25781,1.53125 -2.57031,3.01172 -1.30859,1.47656 -2.85156,3.16797 -4.6289,5.06641 -1.77344,1.90234 -3.33985,3.52734 -4.69141,4.8789 -1.35547,1.35157 -2.25391,2.20703 -2.69531,2.56641 -0.44532,0.35937 -1.48047,1.26953 -3.10938,2.72656 -1.625,1.45703 -2.62109,2.34375 -2.98047,2.66016 -0.35937,0.3164 -1.24609,1.09765 -2.66406,2.34375 -1.41406,1.24609 -2.34375,2.05078 -2.78906,2.41015 -0.44531,0.35547 -0.95313,0.78125 -1.52344,1.26563 -0.57031,0.48437 -1.36328,1.15234 -2.37891,1.99609 -1.01171,0.84375 -1.78515,1.46875 -2.3125,1.86719 -0.52734,0.40234 -1.03515,0.76172 -1.52343,1.07813 -0.48438,0.3164 -1.375,0.86718 -2.66407,1.64843 -1.28906,0.78125 -2.13281,1.3086 -2.53515,1.58203 -0.40235,0.27735 -0.85547,0.5625 -1.36328,0.85547 -0.50782,0.29688 -1.03516,0.63672 -1.58594,1.01563 -0.55078,0.3789 -0.95313,0.65625 -1.20313,0.82422 -0.2539,0.16797 -0.80468,0.46484 -1.65234,0.88672 -0.84375,0.42187 -1.85937,0.90625 -3.04297,1.45703 -1.18359,0.55078 -2.00781,0.90625 -2.47265,1.07812 l -0.699216,0.25391 -0.75782,-0.19141 c -0.50781,-0.1289 -1.05859,-0.33984 -1.65234,-0.63281 -0.58984,-0.29688 -1.58203,-0.80469 -2.98047,-1.52344 -1.39453,-0.71484 -2.19531,-1.16015 -2.41015,-1.32812 -0.21094,-0.16797 -0.75,-0.53907 -1.61719,-1.10938 -0.86328,-0.57031 -1.51953,-0.99219 -1.96485,-1.26953 -0.4414,-0.27344 -1.30859,-0.80078 -2.59765,-1.58203 -1.29297,-0.78125 -2.17969,-1.33203 -2.66406,-1.64844 -0.48829,-0.3164 -0.9961,-0.67578 -1.52344,-1.07812 -0.52735,-0.39844 -1.12891,-0.875 -1.8086,-1.42188 -0.67578,-0.55078 -1.57421,-1.30078 -2.69531,-2.25 -1.11719,-0.95312 -2.08984,-1.77734 -2.91406,-2.47265 -0.82813,-0.69532 -2.03125,-1.75391 -3.61719,-3.16797 -1.58594,-1.41407 -2.59765,-2.30078 -3.04297,-2.66016 -0.44531,-0.35937 -1.41797,-1.20312 -2.91797,-2.53516 -1.5,-1.33203 -2.33593,-2.08203 -2.5039,-2.25 -0.16797,-0.16796 -0.92188,-0.91796 -2.25391,-2.25 -1.32812,-1.32812 -2.26172,-2.28125 -2.78906,-2.85156 -0.52734,-0.57031 -1.69141,-1.83594 -3.48828,-3.80078 -1.79688,-1.96484 -2.875,-3.16797 -3.23438,-3.60937 -0.35937,-0.44532 -0.88672,-1.10157 -1.58593,-1.96485 -0.69532,-0.86719 -1.2461,-1.5625 -1.64844,-2.09375 -0.40235,-0.52734 -0.80078,-1.07422 -1.20313,-1.64453 -0.40234,-0.57031 -0.82422,-1.16406 -1.26953,-1.77734 -0.44531,-0.60938 -0.84375,-1.16016 -1.20312,-1.64453 -0.35938,-0.48829 -0.66797,-0.91797 -0.92188,-1.30079 -0.2539,-0.3789 -0.60156,-0.875 -1.04687,-1.48828 -0.44141,-0.61328 -0.82422,-1.16015 -1.14063,-1.64843 -0.3164,-0.48438 -0.73828,-1.11719 -1.26953,-1.89844 -0.52734,-0.78125 -0.92969,-1.39453 -1.20312,-1.83985 -0.27344,-0.4414 -0.71875,-1.14062 -1.33204,-2.08984 -0.61328,-0.94922 -1.01562,-1.60547 -1.20312,-1.96484 -0.19141,-0.35938 -0.71875,-1.26563 -1.58594,-2.72266 -0.86719,-1.45703 -1.4375,-2.41016 -1.71484,-2.85156 -0.27344,-0.44531 -0.96094,-1.66016 -2.0586,-3.64453 -1.10156,-1.98438 -1.92578,-3.48438 -2.47656,-4.5 -0.54687,-1.01172 -1.03515,-1.96485 -1.45703,-2.85157 -0.42187,-0.88671 -1.01562,-2.21484 -1.77344,-3.99218 -0.76172,-1.77344 -1.14453,-2.67969 -1.14453,-2.72266 0,-0.043 -0.3789,-1.01562 -1.14062,-2.91406 -0.76172,-1.90235 -1.35157,-3.40235 -1.77344,-4.5 -0.42578,-1.09766 -1.01563,-2.76563 -1.77734,-5.00391 -0.76172,-2.23828 -1.52344,-4.625 -2.28516,-7.16015 -0.75781,-2.53516 -1.60547,-5.6211 -2.53516,-9.25391 -0.92968,-3.62891 -1.58593,-6.33594 -1.96484,-8.10938 -0.38281,-1.77343 -0.91016,-4.35156 -1.58594,-7.73046 -0.67578,-3.37891 -1.07812,-5.59766 -1.20703,-6.65235 -0.125,-1.054694 -0.39844,-4.285154 -0.82422,-9.695314 -0.42187,-5.40625 -0.69531,-9.48047 -0.82422,-12.22656 -0.125,-2.7461 -0.27343,-5.66016 -0.4414,-8.7461 -0.17188,-3.08203 -0.40235,-8.1289 -0.69922,-15.14453 -0.29688,-7.01172 -0.44531,-11.97265 -0.44531,-14.89062 v -4.3711 l 0.41406,-0.22265 c 0.27344,-0.14453 1.02344,-0.32422 2.25,-0.53516 1.22656,-0.21484 2.91797,-0.48828 5.07422,-0.82422 2.15625,-0.33984 5.43359,-0.88672 9.83203,-1.64844 4.39453,-0.76171 7.54687,-1.30859 9.44922,-1.64843 1.90234,-0.33594 4.41797,-0.86719 7.54687,-1.58203 3.125,-0.71875 5.83203,-1.39454 8.11719,-2.02735 2.28125,-0.63672 4.24609,-1.22656 5.89453,-1.77734 1.65234,-0.54688 2.94141,-0.96875 3.87109,-1.26563 0.92969,-0.29687 1.81641,-0.58984 2.66407,-0.88672 0.84375,-0.29687 2.53515,-0.92968 5.07031,-1.90234 2.53906,-0.96875 4.91797,-1.95312 7.13672,-2.94531 2.21875,-0.99219 3.40234,-1.5 3.55078,-1.51953 0.14844,-0.0234 1.21484,-0.4961 3.20312,-1.42578 1.98829,-0.92969 3.78516,-1.77344 5.39063,-2.53516 1.60547,-0.76172 3.19141,-1.51953 4.75781,-2.28125 1.5625,-0.76172 3.50781,-1.75391 5.83203,-2.97656 l 3.48828,-1.83985 z m 0,0"
     fill-opacity="1"
     fill-rule="nonzero"
     id="path20" />
  <g
     clip-path="url(#id2)"
     id="g24"
     transform="translate(-253.62891,-174.05859)">
    <path
       fill="#000000"
       d="m 352.18359,365.26172 0.91016,5.07031 c 0,0 2.98047,2.94141 3.25781,3 0,0 0.004,0.004 0.004,0.004 0,0 0,-0.004 0,-0.004 0.004,0 0.008,0.004 0.008,0.004 0,0 0,-0.004 0.004,-0.004 0.27734,-0.0586 3.25781,-3 3.25781,-3 l 0.91016,-5.07031 -4.17969,0.35937 z m 4.17188,-73.31641 h 0.008 c 1.08594,0 18.92578,0 18.92578,0 l 0.1836,-2.0625 c 0,0 -18.19532,0 -19.10938,0 h -0.008 c -0.91406,0 -19.10938,0 -19.10938,0 l 0.17969,2.0625 c 0,0 17.83984,0 18.92969,0 z m -22.24219,0.67188 1.22656,5.24609 c 0,0 20.01172,0 21.01563,0 h 0.008 c 1.00391,0 21.01563,0 21.01563,0 l 1.22656,-5.24609 z m 7.12891,11.83984 c 0,0 13.5664,0 15.07031,0 h 0.0937 c 1.50391,0 15.07031,0 15.07031,0 l 4.04297,-5.78516 h -38.32031 z m 15.07031,0.62891 c -1.42188,0 -11.4375,0 -11.4375,0 l 7.12891,59.68359 c 0,0 3.83203,0.3125 4.35156,0.3125 v 0.004 c 0.004,0 0.008,0 0.008,0 v -0.004 c 0.51563,0 4.35156,-0.3125 4.35156,-0.3125 l 7.12891,-59.68359 c 0,0 -10.01563,0 -11.4375,0 z m 0,0"
       fill-opacity="1"
       fill-rule="nonzero"
       id="path22" />
  </g>
  <g
     clip-path="url(#id3)"
     id="g28"
     transform="translate(-253.62891,-174.05859)">
    <path
       fill="#ffffff"
       d="m 344.64453,287.66406 c 0,0 -5.24219,1.88281 -10.48828,-2.625 -5.24219,-4.50781 -7.21875,-14.39453 -11.375,-16.21094 0,0 4.90625,0.67188 9.33203,6.1875 4.42969,5.51563 5.51953,11.36719 12.53125,12.64844 z m 0,0"
       fill-opacity="1"
       fill-rule="nonzero"
       id="path26" />
  </g>
  <path
     fill="#ffffff"
     d="m 101.84765,115.15235 c 0,0 -1.976556,-2.01953 -4.972646,-3.23047 -2.9961,-1.21094 -11.57813,-1.14453 -15.59766,-9.95313 -4.01563,-8.812504 3.20312,-23.007814 -1.76953,-28.386724 0,0 6.40234,0.67188 7.6289,12.03907 1.22657,11.36718 -1.08984,12.78125 2.31641,17.625004 3.40234,4.84375 10.964836,5.3789 12.394526,11.90625 z m 0,0"
     fill-opacity="1"
     fill-rule="nonzero"
     id="path30" />
  <path
     fill="#ffffff"
     d="m 103.14062,115.08203 c 0,0 -1.35937,-3.96875 -5.449216,-7.46484 -4.08594,-3.49609 -7.6289,-4.91016 -8.71875,-15.199224 -1.08594,-10.29297 3.40625,-21.125 4.97266,-28.38672 1.5664,-7.26562 -1.4961,-11.83984 -1.4961,-11.83984 0,0 10.148436,2.28906 11.304686,10.49219 1.15625,8.20703 -9.773436,16.67968 -10.078116,26.5039 -0.41016,13.050784 10.148426,20.246104 9.464836,25.894534 z m 0,0"
     fill-opacity="1"
     fill-rule="nonzero"
     id="path32" />
  <g
     clip-path="url(#id4)"
     id="g36"
     transform="translate(-253.62891,-174.05859)">
    <path
       fill="#ffffff"
       d="m 356.56641,283.76172 c 0,0 -6.67579,-8.54297 -6.67579,-17.35547 0,-8.8125 8.64844,-18.98828 13.82813,-27.86719 5.17578,-8.8789 0.63281,-27.89453 -9.90234,-32.64844 0,0 12.26171,-0.26953 19.4375,14.44141 7.17187,14.70703 0.45312,26.36719 -6.72266,37.12891 -7.17188,10.76172 -12.84766,20.3125 -9.96484,26.30078 z m 0,0"
       fill-opacity="1"
       fill-rule="nonzero"
       id="path34" />
  </g>
  <path
     fill="#ffffff"
     d="m 106.72656,113.71485 c 0,0 -5.62891,-3.58594 -2.17969,-13.36328 3.45313,-9.773444 16.62109,-17.308604 19.34375,-33.718754 0,0 4.90625,14.79687 -1.72656,26.54687 -6.625,11.746094 -15.80078,11.656254 -15.25391,20.535164 z m 0,0"
     fill-opacity="1"
     fill-rule="nonzero"
     id="path38" />
  <path
     fill="#ffffff"
     d="m 108.36328,115.24219 c 0,0 -1.17969,-5.82812 3.63281,-9.14844 4.8125,-3.32031 12.53125,-5.74218 12.53125,-14.621094 0,0 2.99609,7.625 -0.54297,13.812504 -3.54297,6.1875 -12.71484,6.63672 -15.62109,9.95703 z m 0,0"
     fill-opacity="1"
     fill-rule="nonzero"
     id="path40" />
  <path
     fill="#ffffff"
     d="m 112.26953,114.07422 c 0,0 10.4414,-0.89453 15.71093,-10.67187 0,0 1.08594,11.92968 -15.71093,10.67187 z m 0,0"
     fill-opacity="1"
     fill-rule="nonzero"
     id="path42" />
</svg>
