<svg xmlns="http://www.w3.org/2000/svg" width="284.932" zoomAndPan="magnify" viewBox="0 0 213.699 234.011" height="312.014" preserveAspectRatio="xMidYMid meet" xmlns:v="https://vecta.io/nano"><style><![CDATA[.B{clip-rule:nonzero}.C{fill:#c1a49a}.D{fill:#ceb7ad}.E{fill:#e5c7b3}.F{fill:#280003}]]></style><defs><clipPath id="A"><path d="M245 177.867h215V412H245zm0 0" class="B"/></clipPath><clipPath id="B"><path d="M306.203 247.496h90.098v78.297h-90.098zm0 0" class="B"/></clipPath><clipPath id="C"><path d="M306.203 309.699h14.363v16.094h-14.363zm0 0" class="B"/></clipPath><clipPath id="D"><path d="M348.105 279.684h50.633v29.621h-50.633zm0 0" class="B"/></clipPath><clipPath id="E"><path d="M392.367 306.539h6.371v2.766h-6.371zm0 0" class="B"/></clipPath><clipPath id="F"><path d="M308 246h92v77h-92zm0 0" class="B"/></clipPath><clipPath id="G"><path d="M382.445 231.949l20.734 90.18-76.48 17.586-20.738-90.18zm0 0" class="B"/></clipPath><clipPath id="H"><path d="M382.445 231.949l20.734 90.18-76.48 17.586-20.738-90.18zm0 0" class="B"/></clipPath><clipPath id="I"><path d="M382.445 231.949l20.734 90.18-76.48 17.586-20.738-90.18zm0 0" class="B"/></clipPath><clipPath id="J"><path d="M382.359 231.969l20.188 87.805-76.402 17.566-20.191-87.805zm0 0" class="B"/></clipPath><clipPath id="K"><path d="M382.359 231.969l20.188 87.805-76.309 17.547-20.187-87.805zm0 0" class="B"/></clipPath><clipPath id="L"><path d="M386 308h13v8h-13zm0 0" class="B"/></clipPath><clipPath id="M"><path d="M382.445 231.949l20.734 90.18-76.48 17.586-20.738-90.18zm0 0" class="B"/></clipPath><clipPath id="N"><path d="M382.445 231.949l20.734 90.18-76.48 17.586-20.738-90.18zm0 0" class="B"/></clipPath><clipPath id="O"><path d="M382.445 231.949l20.734 90.18-76.48 17.586-20.738-90.18zm0 0" class="B"/></clipPath><clipPath id="P"><path d="M308 246h15v17h-15zm0 0" class="B"/></clipPath><clipPath id="Q"><path d="M382.445 231.949l20.734 90.18-76.48 17.586-20.738-90.18zm0 0" class="B"/></clipPath><clipPath id="R"><path d="M382.445 231.949l20.734 90.18-76.48 17.586-20.738-90.18zm0 0" class="B"/></clipPath><clipPath id="S"><path d="M382.445 231.949l20.734 90.18-76.48 17.586-20.738-90.18zm0 0" class="B"/></clipPath><clipPath id="T"><path d="M321.734 245.91l3.219 13.992-15.781 3.629-3.219-13.996zm0 0" class="B"/></clipPath><clipPath id="U"><path d="M321.734 245.91l3.219 13.992-15.684 3.609-3.219-13.996zm0 0" class="B"/></clipPath><clipPath id="V"><path d="M310 253h10v9h-10zm0 0" class="B"/></clipPath><clipPath id="W"><path d="M382.445 231.949l20.734 90.18-76.48 17.586-20.738-90.18zm0 0" class="B"/></clipPath><clipPath id="X"><path d="M382.445 231.949l20.734 90.18-76.48 17.586-20.738-90.18zm0 0" class="B"/></clipPath><clipPath id="Y"><path d="M382.445 231.949l20.734 90.18-76.48 17.586-20.738-90.18zm0 0" class="B"/></clipPath><clipPath id="Z"><path d="M309 248h12v8h-12zm0 0" class="B"/></clipPath><clipPath id="a"><path d="M382.445 231.949l20.734 90.18-76.48 17.586-20.738-90.18zm0 0" class="B"/></clipPath><clipPath id="b"><path d="M382.445 231.949l20.734 90.18-76.48 17.586-20.738-90.18zm0 0" class="B"/></clipPath><clipPath id="c"><path d="M382.445 231.949l20.734 90.18-76.48 17.586-20.738-90.18zm0 0" class="B"/></clipPath><clipPath id="d"><path d="M341 280h20v56h-20zm0 0" class="B"/></clipPath><clipPath id="e"><path d="M382.445 231.949l20.734 90.18-76.48 17.586-20.738-90.18zm0 0" class="B"/></clipPath><clipPath id="f"><path d="M382.445 231.949l20.734 90.18-76.48 17.586-20.738-90.18zm0 0" class="B"/></clipPath><clipPath id="g"><path d="M382.445 231.949l20.734 90.18-76.48 17.586-20.738-90.18zm0 0" class="B"/></clipPath><clipPath id="h"><path d="M360.379 280.016l11.371 49.461-28.867 6.641-11.375-49.461zm0 0" class="B"/></clipPath><clipPath id="i"><path d="M360.379 280.016l11.344 49.348L342.855 336l-11.348-49.344zm0 0" class="B"/></clipPath><clipPath id="j"><path d="M342 329h4v7h-4zm0 0" class="B"/></clipPath><clipPath id="k"><path d="M382.445 231.949l20.734 90.18-76.48 17.586-20.738-90.18zm0 0" class="B"/></clipPath><clipPath id="l"><path d="M382.445 231.949l20.734 90.18-76.48 17.586-20.738-90.18zm0 0" class="B"/></clipPath><clipPath id="m"><path d="M382.445 231.949l20.734 90.18-76.48 17.586-20.738-90.18zm0 0" class="B"/></clipPath><clipPath id="n"><path d="M344.121 329.172l1.457 6.324-2.695.621-1.457-6.328zm0 0" class="B"/></clipPath><clipPath id="o"><path d="M344.121 329.172l1.43 6.211-2.695.617-1.43-6.211zm0 0" class="B"/></clipPath><clipPath id="p"><path d="M341 327h3v3h-3zm0 0" class="B"/></clipPath><clipPath id="q"><path d="M382.445 231.949l20.734 90.18-76.48 17.586-20.738-90.18zm0 0" class="B"/></clipPath><clipPath id="r"><path d="M382.445 231.949l20.734 90.18-76.48 17.586-20.738-90.18zm0 0" class="B"/></clipPath><clipPath id="s"><path d="M382.445 231.949l20.734 90.18-76.48 17.586-20.738-90.18zm0 0" class="B"/></clipPath><clipPath id="t"><path d="M341 328h3v3h-3zm0 0" class="B"/></clipPath><clipPath id="u"><path d="M382.445 231.949l20.734 90.18-76.48 17.586-20.738-90.18zm0 0" class="B"/></clipPath><clipPath id="v"><path d="M382.445 231.949l20.734 90.18-76.48 17.586-20.738-90.18zm0 0" class="B"/></clipPath><clipPath id="w"><path d="M382.445 231.949l20.734 90.18-76.48 17.586-20.738-90.18zm0 0" class="B"/></clipPath><clipPath id="x"><path d="M341 323h3v6h-3zm0 0" class="B"/></clipPath><clipPath id="y"><path d="M382.445 231.949l20.734 90.18-76.48 17.586-20.738-90.18zm0 0" class="B"/></clipPath><clipPath id="z"><path d="M382.445 231.949l20.734 90.18-76.48 17.586-20.738-90.18zm0 0" class="B"/></clipPath><clipPath id="AA"><path d="M382.445 231.949l20.734 90.18-76.48 17.586-20.738-90.18zm0 0" class="B"/></clipPath><clipPath id="AB"><path d="M341 319h3v5h-3zm0 0" class="B"/></clipPath><clipPath id="AC"><path d="M382.445 231.949l20.734 90.18-76.48 17.586-20.738-90.18zm0 0" class="B"/></clipPath><clipPath id="AD"><path d="M382.445 231.949l20.734 90.18-76.48 17.586-20.738-90.18zm0 0" class="B"/></clipPath><clipPath id="AE"><path d="M382.445 231.949l20.734 90.18-76.48 17.586-20.738-90.18zm0 0" class="B"/></clipPath><clipPath id="AF"><path d="M342 314h2v6h-2zm0 0" class="B"/></clipPath><clipPath id="AG"><path d="M382.445 231.949l20.734 90.18-76.48 17.586-20.738-90.18zm0 0" class="B"/></clipPath><clipPath id="AH"><path d="M382.445 231.949l20.734 90.18-76.48 17.586-20.738-90.18zm0 0" class="B"/></clipPath><clipPath id="AI"><path d="M382.445 231.949l20.734 90.18-76.48 17.586-20.738-90.18zm0 0" class="B"/></clipPath><clipPath id="AJ"><path d="M344 309h2v4h-2zm0 0" class="B"/></clipPath><clipPath id="AK"><path d="M382.445 231.949l20.734 90.18-76.48 17.586-20.738-90.18zm0 0" class="B"/></clipPath><clipPath id="AL"><path d="M382.445 231.949l20.734 90.18-76.48 17.586-20.738-90.18zm0 0" class="B"/></clipPath><clipPath id="AM"><path d="M382.445 231.949l20.734 90.18-76.48 17.586-20.738-90.18zm0 0" class="B"/></clipPath><clipPath id="AN"><path d="M346 304h2v5h-2zm0 0" class="B"/></clipPath><clipPath id="AO"><path d="M382.445 231.949l20.734 90.18-76.48 17.586-20.738-90.18zm0 0" class="B"/></clipPath><clipPath id="AP"><path d="M382.445 231.949l20.734 90.18-76.48 17.586-20.738-90.18zm0 0" class="B"/></clipPath><clipPath id="AQ"><path d="M382.445 231.949l20.734 90.18-76.48 17.586-20.738-90.18zm0 0" class="B"/></clipPath><clipPath id="AR"><path d="M348 302h2v4h-2zm0 0" class="B"/></clipPath><clipPath id="AS"><path d="M382.445 231.949l20.734 90.18-76.48 17.586-20.738-90.18zm0 0" class="B"/></clipPath><clipPath id="AT"><path d="M382.445 231.949l20.734 90.18-76.48 17.586-20.738-90.18zm0 0" class="B"/></clipPath><clipPath id="AU"><path d="M382.445 231.949l20.734 90.18-76.48 17.586-20.738-90.18zm0 0" class="B"/></clipPath><clipPath id="AV"><path d="M350 299h2v5h-2zm0 0" class="B"/></clipPath><clipPath id="AW"><path d="M382.445 231.949l20.734 90.18-76.48 17.586-20.738-90.18zm0 0" class="B"/></clipPath><clipPath id="AX"><path d="M382.445 231.949l20.734 90.18-76.48 17.586-20.738-90.18zm0 0" class="B"/></clipPath><clipPath id="AY"><path d="M382.445 231.949l20.734 90.18-76.48 17.586-20.738-90.18zm0 0" class="B"/></clipPath><clipPath id="AZ"><path d="M352 296h3v5h-3zm0 0" class="B"/></clipPath><clipPath id="Aa"><path d="M382.445 231.949l20.734 90.18-76.48 17.586-20.738-90.18zm0 0" class="B"/></clipPath><clipPath id="Ab"><path d="M382.445 231.949l20.734 90.18-76.48 17.586-20.738-90.18zm0 0" class="B"/></clipPath><clipPath id="Ac"><path d="M382.445 231.949l20.734 90.18-76.48 17.586-20.738-90.18zm0 0" class="B"/></clipPath><clipPath id="Ad"><path d="M355 292h2v5h-2zm0 0" class="B"/></clipPath><clipPath id="Ae"><path d="M382.445 231.949l20.734 90.18-76.48 17.586-20.738-90.18zm0 0" class="B"/></clipPath><clipPath id="Af"><path d="M382.445 231.949l20.734 90.18-76.48 17.586-20.738-90.18zm0 0" class="B"/></clipPath><clipPath id="Ag"><path d="M382.445 231.949l20.734 90.18-76.48 17.586-20.738-90.18zm0 0" class="B"/></clipPath><clipPath id="Ah"><path d="M357 283h2v6h-2zm0 0" class="B"/></clipPath><clipPath id="Ai"><path d="M382.445 231.949l20.734 90.18-76.48 17.586-20.738-90.18zm0 0" class="B"/></clipPath><clipPath id="Aj"><path d="M382.445 231.949l20.734 90.18-76.48 17.586-20.738-90.18zm0 0" class="B"/></clipPath><clipPath id="Ak"><path d="M382.445 231.949l20.734 90.18-76.48 17.586-20.738-90.18zm0 0" class="B"/></clipPath><clipPath id="Al"><path d="M358 281h3v4h-3zm0 0" class="B"/></clipPath><clipPath id="Am"><path d="M382.445 231.949l20.734 90.18-76.48 17.586-20.738-90.18zm0 0" class="B"/></clipPath><clipPath id="An"><path d="M382.445 231.949l20.734 90.18-76.48 17.586-20.738-90.18zm0 0" class="B"/></clipPath><clipPath id="Ao"><path d="M382.445 231.949l20.734 90.18-76.48 17.586-20.738-90.18zm0 0" class="B"/></clipPath><clipPath id="Ap"><path d="M350 274h12v21h-12zm0 0" class="B"/></clipPath><clipPath id="Aq"><path d="M382.445 231.949l20.734 90.18-76.48 17.586-20.738-90.18zm0 0" class="B"/></clipPath><clipPath id="Ar"><path d="M382.445 231.949l20.734 90.18-76.48 17.586-20.738-90.18zm0 0" class="B"/></clipPath><clipPath id="As"><path d="M382.445 231.949l20.734 90.18-76.48 17.586-20.738-90.18zm0 0" class="B"/></clipPath><clipPath id="At"><path d="M359 275h1v3h-1zm0 0" class="B"/></clipPath><clipPath id="Au"><path d="M382.445 231.949l20.734 90.18-76.48 17.586-20.738-90.18zm0 0" class="B"/></clipPath><clipPath id="Av"><path d="M382.445 231.949l20.734 90.18-76.48 17.586-20.738-90.18zm0 0" class="B"/></clipPath><clipPath id="Aw"><path d="M382.445 231.949l20.734 90.18-76.48 17.586-20.738-90.18zm0 0" class="B"/></clipPath><clipPath id="Ax"><path d="M360 277h1v3h-1zm0 0" class="B"/></clipPath><clipPath id="Ay"><path d="M382.445 231.949l20.734 90.18-76.48 17.586-20.738-90.18zm0 0" class="B"/></clipPath><clipPath id="Az"><path d="M382.445 231.949l20.734 90.18-76.48 17.586-20.738-90.18zm0 0" class="B"/></clipPath><clipPath id="BA"><path d="M382.445 231.949l20.734 90.18-76.48 17.586-20.738-90.18zm0 0" class="B"/></clipPath><clipPath id="BB"><path d="M359 281h2v3h-2zm0 0" class="B"/></clipPath><clipPath id="BC"><path d="M382.445 231.949l20.734 90.18-76.48 17.586-20.738-90.18zm0 0" class="B"/></clipPath><clipPath id="BD"><path d="M382.445 231.949l20.734 90.18-76.48 17.586-20.738-90.18zm0 0" class="B"/></clipPath><clipPath id="BE"><path d="M382.445 231.949l20.734 90.18-76.48 17.586-20.738-90.18zm0 0" class="B"/></clipPath><clipPath id="BF"><path d="M358 284h3v3h-3zm0 0" class="B"/></clipPath><clipPath id="BG"><path d="M382.445 231.949l20.734 90.18-76.48 17.586-20.738-90.18zm0 0" class="B"/></clipPath><clipPath id="BH"><path d="M382.445 231.949l20.734 90.18-76.48 17.586-20.738-90.18zm0 0" class="B"/></clipPath><clipPath id="BI"><path d="M382.445 231.949l20.734 90.18-76.48 17.586-20.738-90.18zm0 0" class="B"/></clipPath><clipPath id="BJ"><path d="M357 287h3v3h-3zm0 0" class="B"/></clipPath><clipPath id="BK"><path d="M382.445 231.949l20.734 90.18-76.48 17.586-20.738-90.18zm0 0" class="B"/></clipPath><clipPath id="BL"><path d="M382.445 231.949l20.734 90.18-76.48 17.586-20.738-90.18zm0 0" class="B"/></clipPath><clipPath id="BM"><path d="M382.445 231.949l20.734 90.18-76.48 17.586-20.738-90.18zm0 0" class="B"/></clipPath><clipPath id="BN"><path d="M355 290h3v2h-3zm0 0" class="B"/></clipPath><clipPath id="BO"><path d="M382.445 231.949l20.734 90.18-76.48 17.586-20.738-90.18zm0 0" class="B"/></clipPath><clipPath id="BP"><path d="M382.445 231.949l20.734 90.18-76.48 17.586-20.738-90.18zm0 0" class="B"/></clipPath><clipPath id="BQ"><path d="M382.445 231.949l20.734 90.18-76.48 17.586-20.738-90.18zm0 0" class="B"/></clipPath><clipPath id="BR"><path d="M353 292h3v2h-3zm0 0" class="B"/></clipPath><clipPath id="BS"><path d="M382.445 231.949l20.734 90.18-76.48 17.586-20.738-90.18zm0 0" class="B"/></clipPath><clipPath id="BT"><path d="M382.445 231.949l20.734 90.18-76.48 17.586-20.738-90.18zm0 0" class="B"/></clipPath><clipPath id="BU"><path d="M382.445 231.949l20.734 90.18-76.48 17.586-20.738-90.18zm0 0" class="B"/></clipPath><clipPath id="BV"><path d="M351 293h2v2h-2zm0 0" class="B"/></clipPath><clipPath id="BW"><path d="M382.445 231.949l20.734 90.18-76.48 17.586-20.738-90.18zm0 0" class="B"/></clipPath><clipPath id="BX"><path d="M382.445 231.949l20.734 90.18-76.48 17.586-20.738-90.18zm0 0" class="B"/></clipPath><clipPath id="BY"><path d="M382.445 231.949l20.734 90.18-76.48 17.586-20.738-90.18zm0 0" class="B"/></clipPath><clipPath id="BZ"><path d="M326 274h35v51h-35zm0 0" class="B"/></clipPath><clipPath id="Ba"><path d="M382.445 231.949l20.734 90.18-76.48 17.586-20.738-90.18zm0 0" class="B"/></clipPath><clipPath id="Bb"><path d="M382.445 231.949l20.734 90.18-76.48 17.586-20.738-90.18zm0 0" class="B"/></clipPath><clipPath id="Bc"><path d="M382.445 231.949l20.734 90.18-76.48 17.586-20.738-90.18zm0 0" class="B"/></clipPath><clipPath id="Bd"><path d="M348 293h3v6h-3zm0 0" class="B"/></clipPath><clipPath id="Be"><path d="M382.445 231.949l20.734 90.18-76.48 17.586-20.738-90.18zm0 0" class="B"/></clipPath><clipPath id="Bf"><path d="M382.445 231.949l20.734 90.18-76.48 17.586-20.738-90.18zm0 0" class="B"/></clipPath><clipPath id="Bg"><path d="M382.445 231.949l20.734 90.18-76.48 17.586-20.738-90.18zm0 0" class="B"/></clipPath><clipPath id="Bh"><path d="M344 299h3v4h-3zm0 0" class="B"/></clipPath><clipPath id="Bi"><path d="M382.445 231.949l20.734 90.18-76.48 17.586-20.738-90.18zm0 0" class="B"/></clipPath><clipPath id="Bj"><path d="M382.445 231.949l20.734 90.18-76.48 17.586-20.738-90.18zm0 0" class="B"/></clipPath><clipPath id="Bk"><path d="M382.445 231.949l20.734 90.18-76.48 17.586-20.738-90.18zm0 0" class="B"/></clipPath><clipPath id="Bl"><path d="M340 303h3v5h-3zm0 0" class="B"/></clipPath><clipPath id="Bm"><path d="M382.445 231.949l20.734 90.18-76.48 17.586-20.738-90.18zm0 0" class="B"/></clipPath><clipPath id="Bn"><path d="M382.445 231.949l20.734 90.18-76.48 17.586-20.738-90.18zm0 0" class="B"/></clipPath><clipPath id="Bo"><path d="M382.445 231.949l20.734 90.18-76.48 17.586-20.738-90.18zm0 0" class="B"/></clipPath><clipPath id="Bp"><path d="M336 308h3v3h-3zm0 0" class="B"/></clipPath><clipPath id="Bq"><path d="M382.445 231.949l20.734 90.18-76.48 17.586-20.738-90.18zm0 0" class="B"/></clipPath><clipPath id="Br"><path d="M382.445 231.949l20.734 90.18-76.48 17.586-20.738-90.18zm0 0" class="B"/></clipPath><clipPath id="Bs"><path d="M382.445 231.949l20.734 90.18-76.48 17.586-20.738-90.18zm0 0" class="B"/></clipPath><clipPath id="Bt"><path d="M333 310h3v4h-3zm0 0" class="B"/></clipPath><clipPath id="Bu"><path d="M382.445 231.949l20.734 90.18-76.48 17.586-20.738-90.18zm0 0" class="B"/></clipPath><clipPath id="Bv"><path d="M382.445 231.949l20.734 90.18-76.48 17.586-20.738-90.18zm0 0" class="B"/></clipPath><clipPath id="Bw"><path d="M382.445 231.949l20.734 90.18-76.48 17.586-20.738-90.18zm0 0" class="B"/></clipPath><clipPath id="Bx"><path d="M331 313h2v4h-2zm0 0" class="B"/></clipPath><clipPath id="By"><path d="M382.445 231.949l20.734 90.18-76.48 17.586-20.738-90.18zm0 0" class="B"/></clipPath><clipPath id="Bz"><path d="M382.445 231.949l20.734 90.18-76.48 17.586-20.738-90.18zm0 0" class="B"/></clipPath><clipPath id="CA"><path d="M382.445 231.949l20.734 90.18-76.48 17.586-20.738-90.18zm0 0" class="B"/></clipPath><clipPath id="CB"><path d="M326 317h4v7h-4zm0 0" class="B"/></clipPath><clipPath id="CC"><path d="M382.445 231.949l20.734 90.18-76.48 17.586-20.738-90.18zm0 0" class="B"/></clipPath><clipPath id="CD"><path d="M382.445 231.949l20.734 90.18-76.48 17.586-20.738-90.18zm0 0" class="B"/></clipPath><clipPath id="CE"><path d="M382.445 231.949l20.734 90.18-76.48 17.586-20.738-90.18zm0 0" class="B"/></clipPath><clipPath id="CF"><path d="M353 277h13v20h-13zm0 0" class="B"/></clipPath><clipPath id="CG"><path d="M382.445 231.949l20.734 90.18-76.48 17.586-20.738-90.18zm0 0" class="B"/></clipPath><clipPath id="CH"><path d="M382.445 231.949l20.734 90.18-76.48 17.586-20.738-90.18zm0 0" class="B"/></clipPath><clipPath id="CI"><path d="M382.445 231.949l20.734 90.18-76.48 17.586-20.738-90.18zm0 0" class="B"/></clipPath><clipPath id="CJ"><path d="M362 278h3v4h-3zm0 0" class="B"/></clipPath><clipPath id="CK"><path d="M382.445 231.949l20.734 90.18-76.48 17.586-20.738-90.18zm0 0" class="B"/></clipPath><clipPath id="CL"><path d="M382.445 231.949l20.734 90.18-76.48 17.586-20.738-90.18zm0 0" class="B"/></clipPath><clipPath id="CM"><path d="M382.445 231.949l20.734 90.18-76.48 17.586-20.738-90.18zm0 0" class="B"/></clipPath><clipPath id="CN"><path d="M363 281h3v4h-3zm0 0" class="B"/></clipPath><clipPath id="CO"><path d="M382.445 231.949l20.734 90.18-76.48 17.586-20.738-90.18zm0 0" class="B"/></clipPath><clipPath id="CP"><path d="M382.445 231.949l20.734 90.18-76.48 17.586-20.738-90.18zm0 0" class="B"/></clipPath><clipPath id="CQ"><path d="M382.445 231.949l20.734 90.18-76.48 17.586-20.738-90.18zm0 0" class="B"/></clipPath><clipPath id="CR"><path d="M363 284h3v3h-3zm0 0" class="B"/></clipPath><clipPath id="CS"><path d="M382.445 231.949l20.734 90.18-76.48 17.586-20.738-90.18zm0 0" class="B"/></clipPath><clipPath id="CT"><path d="M382.445 231.949l20.734 90.18-76.48 17.586-20.738-90.18zm0 0" class="B"/></clipPath><clipPath id="CU"><path d="M382.445 231.949l20.734 90.18-76.48 17.586-20.738-90.18zm0 0" class="B"/></clipPath><clipPath id="CV"><path d="M363 287h2v4h-2zm0 0" class="B"/></clipPath><clipPath id="CW"><path d="M382.445 231.949l20.734 90.18-76.48 17.586-20.738-90.18zm0 0" class="B"/></clipPath><clipPath id="CX"><path d="M382.445 231.949l20.734 90.18-76.48 17.586-20.738-90.18zm0 0" class="B"/></clipPath><clipPath id="CY"><path d="M382.445 231.949l20.734 90.18-76.48 17.586-20.738-90.18zm0 0" class="B"/></clipPath><clipPath id="CZ"><path d="M362 289h2v4h-2zm0 0" class="B"/></clipPath><clipPath id="Ca"><path d="M382.445 231.949l20.734 90.18-76.48 17.586-20.738-90.18zm0 0" class="B"/></clipPath><clipPath id="Cb"><path d="M382.445 231.949l20.734 90.18-76.48 17.586-20.738-90.18zm0 0" class="B"/></clipPath><clipPath id="Cc"><path d="M382.445 231.949l20.734 90.18-76.48 17.586-20.738-90.18zm0 0" class="B"/></clipPath><clipPath id="Cd"><path d="M361 292h2v3h-2zm0 0" class="B"/></clipPath><clipPath id="Ce"><path d="M382.445 231.949l20.734 90.18-76.48 17.586-20.738-90.18zm0 0" class="B"/></clipPath><clipPath id="Cf"><path d="M382.445 231.949l20.734 90.18-76.48 17.586-20.738-90.18zm0 0" class="B"/></clipPath><clipPath id="Cg"><path d="M382.445 231.949l20.734 90.18-76.48 17.586-20.738-90.18zm0 0" class="B"/></clipPath><clipPath id="Ch"><path d="M359 294h2v3h-2zm0 0" class="B"/></clipPath><clipPath id="Ci"><path d="M382.445 231.949l20.734 90.18-76.48 17.586-20.738-90.18zm0 0" class="B"/></clipPath><clipPath id="Cj"><path d="M382.445 231.949l20.734 90.18-76.48 17.586-20.738-90.18zm0 0" class="B"/></clipPath><clipPath id="Ck"><path d="M382.445 231.949l20.734 90.18-76.48 17.586-20.738-90.18zm0 0" class="B"/></clipPath><clipPath id="Cl"><path d="M356 295h3v2h-3zm0 0" class="B"/></clipPath><clipPath id="Cm"><path d="M382.445 231.949l20.734 90.18-76.48 17.586-20.738-90.18zm0 0" class="B"/></clipPath><clipPath id="Cn"><path d="M382.445 231.949l20.734 90.18-76.48 17.586-20.738-90.18zm0 0" class="B"/></clipPath><clipPath id="Co"><path d="M382.445 231.949l20.734 90.18-76.48 17.586-20.738-90.18zm0 0" class="B"/></clipPath><clipPath id="Cp"><path d="M354 295h2v2h-2zm0 0" class="B"/></clipPath><clipPath id="Cq"><path d="M382.445 231.949l20.734 90.18-76.48 17.586-20.738-90.18zm0 0" class="B"/></clipPath><clipPath id="Cr"><path d="M382.445 231.949l20.734 90.18-76.48 17.586-20.738-90.18zm0 0" class="B"/></clipPath><clipPath id="Cs"><path d="M382.445 231.949l20.734 90.18-76.48 17.586-20.738-90.18zm0 0" class="B"/></clipPath><clipPath id="Ct"><path d="M344 270h13v21h-13zm0 0" class="B"/></clipPath><clipPath id="Cu"><path d="M382.445 231.949l20.734 90.18-76.48 17.586-20.738-90.18zm0 0" class="B"/></clipPath><clipPath id="Cv"><path d="M382.445 231.949l20.734 90.18-76.48 17.586-20.738-90.18zm0 0" class="B"/></clipPath><clipPath id="Cw"><path d="M382.445 231.949l20.734 90.18-76.48 17.586-20.738-90.18zm0 0" class="B"/></clipPath><clipPath id="Cx"><path d="M353 272h3v3h-3zm0 0" class="B"/></clipPath><clipPath id="Cy"><path d="M382.445 231.949l20.734 90.18-76.48 17.586-20.738-90.18zm0 0" class="B"/></clipPath><clipPath id="Cz"><path d="M382.445 231.949l20.734 90.18-76.48 17.586-20.738-90.18zm0 0" class="B"/></clipPath><clipPath id="DA"><path d="M382.445 231.949l20.734 90.18-76.48 17.586-20.738-90.18zm0 0" class="B"/></clipPath><clipPath id="DB"><path d="M355 275h2v3h-2zm0 0" class="B"/></clipPath><clipPath id="DC"><path d="M382.445 231.949l20.734 90.18-76.48 17.586-20.738-90.18zm0 0" class="B"/></clipPath><clipPath id="DD"><path d="M382.445 231.949l20.734 90.18-76.48 17.586-20.738-90.18zm0 0" class="B"/></clipPath><clipPath id="DE"><path d="M382.445 231.949l20.734 90.18-76.48 17.586-20.738-90.18zm0 0" class="B"/></clipPath><clipPath id="DF"><path d="M355 278h2v3h-2zm0 0" class="B"/></clipPath><clipPath id="DG"><path d="M382.445 231.949l20.734 90.18-76.48 17.586-20.738-90.18zm0 0" class="B"/></clipPath><clipPath id="DH"><path d="M382.445 231.949l20.734 90.18-76.48 17.586-20.738-90.18zm0 0" class="B"/></clipPath><clipPath id="DI"><path d="M382.445 231.949l20.734 90.18-76.48 17.586-20.738-90.18zm0 0" class="B"/></clipPath><clipPath id="DJ"><path d="M354 281h2v3h-2zm0 0" class="B"/></clipPath><clipPath id="DK"><path d="M382.445 231.949l20.734 90.18-76.48 17.586-20.738-90.18zm0 0" class="B"/></clipPath><clipPath id="DL"><path d="M382.445 231.949l20.734 90.18-76.48 17.586-20.738-90.18zm0 0" class="B"/></clipPath><clipPath id="DM"><path d="M382.445 231.949l20.734 90.18-76.48 17.586-20.738-90.18zm0 0" class="B"/></clipPath><clipPath id="DN"><path d="M353 283h2v4h-2zm0 0" class="B"/></clipPath><clipPath id="DO"><path d="M382.445 231.949l20.734 90.18-76.48 17.586-20.738-90.18zm0 0" class="B"/></clipPath><clipPath id="DP"><path d="M382.445 231.949l20.734 90.18-76.48 17.586-20.738-90.18zm0 0" class="B"/></clipPath><clipPath id="DQ"><path d="M382.445 231.949l20.734 90.18-76.48 17.586-20.738-90.18zm0 0" class="B"/></clipPath><clipPath id="DR"><path d="M352 285h2v3h-2zm0 0" class="B"/></clipPath><clipPath id="DS"><path d="M382.445 231.949l20.734 90.18-76.48 17.586-20.738-90.18zm0 0" class="B"/></clipPath><clipPath id="DT"><path d="M382.445 231.949l20.734 90.18-76.48 17.586-20.738-90.18zm0 0" class="B"/></clipPath><clipPath id="DU"><path d="M382.445 231.949l20.734 90.18-76.48 17.586-20.738-90.18zm0 0" class="B"/></clipPath><clipPath id="DV"><path d="M350 287h2v3h-2zm0 0" class="B"/></clipPath><clipPath id="DW"><path d="M382.445 231.949l20.734 90.18-76.48 17.586-20.738-90.18zm0 0" class="B"/></clipPath><clipPath id="DX"><path d="M382.445 231.949l20.734 90.18-76.48 17.586-20.738-90.18zm0 0" class="B"/></clipPath><clipPath id="DY"><path d="M382.445 231.949l20.734 90.18-76.48 17.586-20.738-90.18zm0 0" class="B"/></clipPath><clipPath id="DZ"><path d="M348 288h2v3h-2zm0 0" class="B"/></clipPath><clipPath id="Da"><path d="M382.445 231.949l20.734 90.18-76.48 17.586-20.738-90.18zm0 0" class="B"/></clipPath><clipPath id="Db"><path d="M382.445 231.949l20.734 90.18-76.48 17.586-20.738-90.18zm0 0" class="B"/></clipPath><clipPath id="Dc"><path d="M382.445 231.949l20.734 90.18-76.48 17.586-20.738-90.18zm0 0" class="B"/></clipPath><clipPath id="Dd"><path d="M345 289h3v2h-3zm0 0" class="B"/></clipPath><clipPath id="De"><path d="M382.445 231.949l20.734 90.18-76.48 17.586-20.738-90.18zm0 0" class="B"/></clipPath><clipPath id="Df"><path d="M382.445 231.949l20.734 90.18-76.48 17.586-20.738-90.18zm0 0" class="B"/></clipPath><clipPath id="Dg"><path d="M382.445 231.949l20.734 90.18-76.48 17.586-20.738-90.18zm0 0" class="B"/></clipPath><clipPath id="Dh"><path d="M348 279h17v16h-17zm0 0" class="B"/></clipPath><clipPath id="Di"><path d="M382.445 231.949l20.734 90.18-76.48 17.586-20.738-90.18zm0 0" class="B"/></clipPath><clipPath id="Dj"><path d="M382.445 231.949l20.734 90.18-76.48 17.586-20.738-90.18zm0 0" class="B"/></clipPath><clipPath id="Dk"><path d="M382.445 231.949l20.734 90.18-76.48 17.586-20.738-90.18zm0 0" class="B"/></clipPath><clipPath id="Dl"><path d="M356 281h8v12h-8zm0 0" class="B"/></clipPath><clipPath id="Dm"><path d="M382.445 231.949l20.734 90.18-76.48 17.586-20.738-90.18zm0 0" class="B"/></clipPath><clipPath id="Dn"><path d="M382.445 231.949l20.734 90.18-76.48 17.586-20.738-90.18zm0 0" class="B"/></clipPath><clipPath id="Do"><path d="M382.445 231.949l20.734 90.18-76.48 17.586-20.738-90.18zm0 0" class="B"/></clipPath><clipPath id="Dp"><path d="M348 281h16v14h-16zm0 0" class="B"/></clipPath><clipPath id="Dq"><path d="M382.445 231.949l20.734 90.18-76.48 17.586-20.738-90.18zm0 0" class="B"/></clipPath><clipPath id="Dr"><path d="M382.445 231.949l20.734 90.18-76.48 17.586-20.738-90.18zm0 0" class="B"/></clipPath><clipPath id="Ds"><path d="M382.445 231.949l20.734 90.18-76.48 17.586-20.738-90.18zm0 0" class="B"/></clipPath><clipPath id="Dt"><path d="M351 280h8v4h-8zm0 0" class="B"/></clipPath><clipPath id="Du"><path d="M382.445 231.949l20.734 90.18-76.48 17.586-20.738-90.18zm0 0" class="B"/></clipPath><clipPath id="Dv"><path d="M382.445 231.949l20.734 90.18-76.48 17.586-20.738-90.18zm0 0" class="B"/></clipPath><clipPath id="Dw"><path d="M382.445 231.949l20.734 90.18-76.48 17.586-20.738-90.18zm0 0" class="B"/></clipPath><clipPath id="Dx"><path d="M352 283h10v8h-10zm0 0" class="B"/></clipPath><clipPath id="Dy"><path d="M382.445 231.949l20.734 90.18-76.48 17.586-20.738-90.18zm0 0" class="B"/></clipPath><clipPath id="Dz"><path d="M382.445 231.949l20.734 90.18-76.48 17.586-20.738-90.18zm0 0" class="B"/></clipPath><clipPath id="EA"><path d="M382.445 231.949l20.734 90.18-76.48 17.586-20.738-90.18zm0 0" class="B"/></clipPath><clipPath id="EB"><path d="M296.676 253.316h115.961v65.594H296.676zm0 0" class="B"/></clipPath></defs><path fill="#2d2d2d" d="M152.609 36.691a60.14 60.14 0 0 1-7.039-13.461H68.125c-1.785 4.813-4.148 9.332-7.023 13.461-6.32 9.066-18.133 20.391-38.91 23.949.668 11.105 2.813 30.75 9.629 52.504 13.617 43.488 38.855 76.176 75.027 97.191 36.172-21.016 61.418-53.711 75.031-97.191 6.813-21.754 8.961-41.391 9.633-52.504-20.781-3.559-32.594-14.883-38.902-23.949"/><path fill="#ffeabd" d="M152.609 36.691l1.906-1.324c-2.77-3.977-5.043-8.312-6.766-12.941-.336-.91-1.199-1.512-2.18-1.512H68.125a2.32 2.32 0 0 0-2.18 1.512 57.92 57.92 0 0 1-6.754 12.945v-.004c-3.031 4.352-7.375 9.238-13.453 13.465s-13.883 7.801-23.937 9.523c-1.172.199-1.996 1.242-1.926 2.426.672 11.238 2.836 31.055 9.73 53.055 6.879 21.973 16.715 41.273 29.43 57.746s28.309 30.105 46.645 40.758a2.33 2.33 0 0 0 2.34-.004c18.332-10.648 33.926-24.285 46.645-40.758s22.555-35.773 29.43-57.742c6.895-22 9.055-41.812 9.738-53.055a2.32 2.32 0 0 0-1.93-2.426c-10.055-1.723-17.863-5.301-23.941-9.523s-10.418-9.113-13.441-13.461l-.004-.004-1.906 1.324-1.91 1.32c3.281 4.719 8 10.027 14.605 14.621s15.09 8.457 25.813 10.293l.395-2.285-2.32-.141c-.66 10.98-2.789 30.445-9.531 51.953s-16.328 40.301-28.68 56.297-27.465 29.219-45.301 39.582l1.168 2.004 1.172-2.004C90.183 197.968 75.07 184.75 62.719 168.75s-21.941-34.781-28.68-56.297c-6.742-21.508-8.871-40.977-9.527-51.953l-2.32.141.395 2.285c10.723-1.836 19.211-5.699 25.812-10.293s11.324-9.902 14.613-14.621c2.984-4.289 5.438-8.984 7.293-13.973l-2.18-.809v2.32h77.445v-2.32l-2.176.809c1.855 4.992 4.309 9.676 7.309 13.973h-.004l1.91-1.32"/><path fill="#2d2d2d" d="M197.328 58.363c-.496 10.73-2.449 32.336-10.016 56.469-14.234 45.465-40.832 79.52-79.051 101.238l-1.414.805-1.402-.805c-38.227-21.719-64.816-55.773-79.059-101.238-7.566-24.141-9.512-45.738-10.008-56.469l-.129-2.59 2.582-.355c20.34-2.75 31.672-13.457 37.59-21.969 2.949-4.234 5.301-8.934 7.004-13.953l.648-1.934h85.547l.656 1.934c1.691 5.012 4.043 9.707 7 13.953 5.926 8.512 17.246 19.219 37.594 21.969l2.57.355zm13.996-15.176c-47.812 0-52.367-40.871-52.367-40.871H54.742S50.195 43.188 2.375 43.188c0 0-5.641 130.25 104.199 188.203v.305c.098-.051.184-.113.273-.152.094.039.18.102.277.152v-.305c109.84-57.953 104.199-188.203 104.199-188.203"/><g transform="translate(-245.977 -177.93)"><g clip-path="url(#A)"><path fill="#ffeabd" d="M443.305 236.293l-2.324-.105c-.484 10.59-2.426 32.016-9.91 55.883-7.047 22.5-17.129 42.117-30.148 58.789s-28.977 30.41-47.832 41.125l-.004.004-.258.145-.254-.145-.004-.004c-18.859-10.715-34.816-24.449-47.84-41.125-13.016-16.672-23.102-36.289-30.148-58.789-7.484-23.871-9.418-45.289-9.906-55.887v-.008l-.023-.469.473-.062h-.004c10.512-1.418 18.789-4.922 25.184-9.195s10.91-9.301 14.004-13.746c3.074-4.422 5.527-9.316 7.293-14.535l.004-.008.121-.352h82.207l.121.359v-.004c1.758 5.211 4.207 10.105 7.285 14.539h.004c3.098 4.445 7.609 9.473 14.004 13.746s14.672 7.777 25.191 9.195h-.012l.477.063-.023.48 2.324.105 2.32.102.117-2.586c.055-1.195-.812-2.234-2-2.398l-2.57-.359h-.012c-9.832-1.332-17.391-4.559-23.227-8.453a48.15 48.15 0 0 1-12.773-12.539c-2.824-4.062-5.078-8.562-6.703-13.375h-.004l-.652-1.933c-.32-.941-1.207-1.574-2.203-1.574h-85.547a2.33 2.33 0 0 0-2.203 1.578l-.648 1.934v-.004c-1.633 4.82-3.891 9.328-6.707 13.375-2.828 4.059-6.941 8.645-12.773 12.539s-13.395 7.121-23.223 8.453h-.008l-2.582.359c-1.191.164-2.059 1.207-2 2.41l.129 2.586v-.008c.504 10.867 2.461 32.645 10.113 57.055 7.191 22.965 17.523 43.109 30.914 60.254 13.395 17.152 29.844 31.305 49.207 42.305l-.004-.004 1.402.805a2.32 2.32 0 0 0 2.309 0l1.414-.801h-.004c19.363-11 35.813-25.152 49.203-42.305 13.391-17.145 23.727-37.289 30.914-60.258 7.652-24.398 9.621-46.184 10.121-57.051zm13.996-15.176v-2.316c-11.625-.004-20.461-2.473-27.254-6.113-5.094-2.727-9.051-6.125-12.145-9.707-4.637-5.363-7.32-11.16-8.828-15.598-.754-2.223-1.219-4.102-1.488-5.41-.137-.652-.223-1.168-.277-1.504l-.055-.379-.012-.086v-.016l-1.418.16 1.418-.16-1.418.16 1.418-.16a2.32 2.32 0 0 0-2.309-2.059H300.719a2.32 2.32 0 0 0-2.309 2.059l.684.074-.684-.074.684.074-.684-.074c-.004.047-.301 2.539-1.449 6.227-.867 2.762-2.207 6.195-4.262 9.77-3.086 5.363-7.746 11.039-14.805 15.391-7.066 4.348-16.566 7.422-29.543 7.426-1.242 0-2.266.98-2.32 2.215-.004.031-.055 1.195-.055 3.328.004 10.379 1.168 43.727 14.914 81.23 6.875 18.746 16.902 38.539 31.523 56.98s33.852 35.52 59.051 48.816l1.086-2.051h-2.324v.305c0 .809.43 1.566 1.125 1.984a2.34 2.34 0 0 0 2.289.063c.125-.066.199-.113.227-.125l.008-.008-.594-1.035.484 1.086c.074-.031.105-.051.109-.051l-.594-1.035.484 1.086-.941-2.117-.937 2.117.555-1.246-.648 1.203.094.043.555-1.246-.648 1.203.332-.625-.348.617.016.008.332-.625-.348.617c.012.008.09.051.23.129a2.33 2.33 0 0 0 3.418-2.043v-.305h-2.324l1.086 2.051c25.199-13.297 44.426-30.379 59.047-48.816 21.938-27.664 33.531-58.352 39.656-84.039s6.781-46.387 6.785-54.172c0-2.133-.051-3.297-.055-3.324a2.32 2.32 0 0 0-2.32-2.219v2.316l-2.32.098.004.043c.008.219.043 1.281.043 3.086.004 10.031-1.152 42.891-14.633 79.637-6.734 18.375-16.543 37.719-30.805 55.699s-32.969 34.609-57.574 47.594c-.762.398-1.238 1.191-1.238 2.047v.305h2.324l1.09-2.047-.293.551.309-.543-.016-.008-.293.551.309-.543-.023-.012c-.051-.027-.168-.109-.418-.223-.602-.262-1.281-.262-1.879 0-.187.086-.305.152-.371.191l-.062.039-.004.004.313.555-.301-.562-.012.008.313.555-.301-.562 1.09 2.047h2.324v-.305c0-.855-.477-1.648-1.238-2.047-24.605-12.984-43.312-29.613-57.574-47.594-21.395-26.969-32.77-57.016-38.781-82.234s-6.656-45.578-6.656-53.102l.023-2.348.016-.59c.004-.07.004-.113.004-.145l.004-.043-2.32-.102v2.316c12.285.004 21.945-2.633 29.457-6.66 5.633-3.016 10.039-6.805 13.465-10.77 5.133-5.945 8.055-12.281 9.707-17.133s2.035-8.246 2.051-8.371l-2.312-.254v2.316h104.215v-2.316l-2.312.254c.016.113.32 2.801 1.547 6.809 1.84 6.004 5.758 15.008 13.977 22.578 4.102 3.781 9.281 7.188 15.746 9.625 6.461 2.445 14.195 3.922 23.41 3.922v-2.316l-2.32.098 2.32-.098"/></g><g clip-path="url(#B)"><path fill="#f6dbc7" d="M396.051 260.52a3.22 3.22 0 0 1-.539.902l-35.285 29.699-1.129.953-38.828 32.891-.219.199a2.85 2.85 0 0 1-.797.473c-.281.113-1.34.477-3.566-.543-.512-.234-1.324-.648-2.633-1.695l-.328-.266-.738-.633c-1.32-1.164-2.062-1.809-2.906-2.891-1.133-1.453-3.027-3.875-2.867-7.008a7.55 7.55 0 0 1 .375-1.984c.004-.016.008-.035.016-.051l36-30.199 1.52-1.273 37.668-31.602 1.297.234 5.227 1.121c1.008.387 1.715.988 2.66 2l.523.574.648.734c1.793 2.027 4.973 5.621 3.902 8.363"/></g></g><path d="M145.523 73.492l-10.102 8.848L145 72.918l.523.574" class="E"/><g clip-path="url(#C)" transform="translate(-245.977 -177.93)"><path fill="#efd3bf" d="M318.289 315.637c.664.969 1.844 2.734 2.152 5.254.094.777.227 1.883-.082 3.25-.09.398-.195.73-.309 1.023a2.85 2.85 0 0 1-.797.473c-.281.113-1.34.477-3.566-.543-.512-.234-1.324-.648-2.633-1.695l-.328-.266-.738-.633c-1.32-1.164-2.062-1.809-2.906-2.891-1.133-1.453-3.027-3.875-2.867-7.008a7.55 7.55 0 0 1 .375-1.984c.863-.543 1.914-.934 3.027-.914 1.176.023 1.98.492 3.477 1.359 1.375.801 3.465 2.047 5.195 4.574"/></g><g class="E"><path d="M67.395 136.055c-.855.266-.922 2.23-.937 2.656-.055 1.582.484 2.785.672 3.168.844 1.75 2.859 4.129 4.645 3.711.719-.172 1.402-.797 1.594-1.527.137-.531-.012-1.023-.535-2.047-1.406-2.75-2.883-4.207-3.566-4.836-1.309-1.203-1.68-1.187-1.871-1.125"/><path d="M68.219 136.938c-.051.039-.703-1.246-2.035-1.668-.172-.055-1.301-.41-1.98.195-.426.375-.477.949-.516 1.527-.094 1.34.316 2.383.379 2.527.57 1.402 1.863 3.867 3.012 5.949l-.328-.266-.914-1.492c-.234-.387.082.133-1.887-3.328-1.004-1.766-1.594-2.785-1.613-4.219-.012-.594-.012-1.41.531-1.863.758-.629 2.078-.148 2.492.004.738.27 1.215.688 1.586 1.016.871.773 1.313 1.586 1.273 1.617"/></g><g transform="translate(-245.977 -177.93)"><g clip-path="url(#D)" class="D"><path d="M398.648 306.633c.125.117-.051.324 0 .832.027.305.105.371.09.668l-.055.434-.062.395c-.16.398-1.613.188-2.004.133l-2.605-.324c-.691-.133-1.199-.176-1.629-.18-.324-.004-.605.016-.887.039l-1.34.043a10.44 10.44 0 0 1-1.07-.098c-.555-.074-1.121-.211-1.848-.43l-1.02-.32-1.621-.539-.164-.059-2.012-.703-1.566-.676-2.062-1.117-.859-.535-.437-.285-2.891-2.137-.309-.242-.816-.656a6.71 6.71 0 0 0-.73-.523c-.816-.523-1.27-.687-2.016-1.309l-.52-.473-.566-.598-.359-.398-.91-1.137-.613-.785-.113-.137-1.09-1.328c-.012-.012-.023-.023-.031-.035l-1.387-1.797-1.531-2.043-.137-.172-.961-1.207c-.586-.699-.914-.992-1.348-1.281-.289-.191-.504-.305-.82-.441l-.828-.355-.273-.117-1.637-.773-2.25-1.094-.348-.16-1.914-.875c-.914-.422-1.168-.57-1.516-.984l-.121-.145c-.285-.371-.449-.684-.719-.969-.137-.145-.305-.281-.531-.414-.336-.195-.68-.34-.988-.445-.613-.211-1.086-.27-1.086-.27s.477-.609.898-.75c.77-.25 1.488.105 1.785.258.109.055.211.117.309.18.48.316.766.691 1.035 1.027l.145.172c.164.191.52.578 2.277 1.461l1.086.52.293.137 2.613 1.039a7.15 7.15 0 0 1 1.496.648l.043.023c.852.477 1.578 1 2.18 1.508l.82.734 1.07 1.125c.711.797.902 1.16 1.223 1.684l.703 1.051.801 1.027 1.188 1.391.781.934.781 1.094.242.375.453.652.219.273c.352.418.684.746 1.063 1.07l1.027.809.207.156c1.168.883 2.145 1.453 2.586 1.703l.316.18.973.48.617.324c1.285.691 2.043 1.105 2.957 1.789l.73.605c.18.168.254.25.551.418.289.16.523.258.742.32.621.176 1.117.102 2.25.543.492.191.754.344 1.012.484s.5.262.953.402c.016.004.027.008.043.016.262.078.695.195 1.273.457l.629.324.145.07c.664.281 1.211.152 2.051.063.184-.019.504-.035 1.023-.047l.379-.008.992-.019c.019-.004.035-.004.051-.004 2.164-.039 2.063.105 2.684-.051l2.152-.535c.086-.039.238-.105.383-.133.113-.023.219-.019.281.043"/></g><g clip-path="url(#E)" class="C"><path d="M398.648 306.633c.125.117-.051.324 0 .832.027.305.105.371.09.668l-.055.434-.062.395c-.16.398-1.613.188-2.004.133l-2.605-.324c-.691-.133-1.199-.176-1.629-.18.324-.133.797-.227 1.25-.312 1.176-.227 1.578-.016 2.301-.105 1.195-.156 1.879-.977 2.434-1.582.113-.023.219-.019.281.043"/></g></g><g class="C"><path d="M144.18 130.742l.895-.543c.492-.328.762-.555 1.055-.797m-.61 1.297a7.36 7.36 0 0 0 .727-.477c.313-.238.348-.309.926-.844"/><path d="M145.75 129.41c-.527.457-.773.52-.887.547-.395.082-.523-.031-1.488-.027l-1.113.063c-.406.043-.711.121-1 .223l-1.02-.32c.516-.012.957.031 1.68-.242.285-.109.34-.16.609-.328l.145.07c.664.281 1.211.152 2.051.063.184-.019.504-.035 1.023-.047m-5.164-.885l-.758.234-1.371.535-2.012-.703.398-.129c.434-.125.809-.18 1.406-.234l1.383-.105a4.71 4.71 0 0 0 .953.402m-4.214-1.429l-.629.004c-.562-.004-1.301-.016-2.25-.172l-.676-.129-.859-.535.879.121c.883.086 1.164.004 2.242-.027.18.168.254.25.551.418.289.16.523.258.742.32m-5.598-3.457a34.15 34.15 0 0 1-2.012-.019l-.441-.019-.816-.656.859.051 1.438.164.973.48m-4.083-2.521l-.543-.059c-.672-.09-1.316-.242-1.91-.422l-.566-.598-.359-.398 2.352.668 1.027.809m-2.762-2.805l.453.652a15 15 0 0 1-1.98-.461l-.613-.785-.113-.137 1.066.348 1.188.383m-1.806-2.402a37.06 37.06 0 0 0-2.957-1.488l1.387 1.797c.008.012.019.023.031.035.977.367 1.852.566 2.32.59m-3.472-4.403l.703 1.051-1.039-.461-1.461-.652-.137-.172-.961-1.207a6.18 6.18 0 0 1 .895.316c.566.242.953.473 1.328.699l.672.426m-3.114-3.543l.82.734a9.19 9.19 0 0 0-1.203-.258c-.574-.086-1.105-.105-1.566-.098l-.828-.355c.289-.074.621-.137.965-.168a5.46 5.46 0 0 1 1.813.145m-6.333-3.218c-.437.145-.926.258-1.449.293-.535.035-.988-.016-1.418-.07-.914-.422-1.168-.57-1.516-.984l-.121-.145 1.199.094 1.926.156 1.086.52.293.137m-3.8-2.29l-1.422.414c-.137-.145-.305-.281-.531-.414a5.55 5.55 0 0 0-.988-.445l.73-.352c.375-.156.777-.223 1.176-.23.48.316.766.691 1.035 1.027"/></g><path d="M112.789 107.738l.113.156c.238.344.633.922.941 1.68.109.266.203.555.281.859.07.281.121.578.148.891.051.594.023 1.031-.031 1.34a2.16 2.16 0 0 1-.117.453c-.055.141-.121.273-.191.391v.004c-.23.398-.508.672-.609.609-.055-.035-.031-.16.023-.359l.156-.621a4.83 4.83 0 0 0 .109-1.258 4.73 4.73 0 0 0-.062-.59 5.71 5.71 0 0 0-.191-.762c-.145-.434-.32-.797-.453-1.074-.109-.227-.227-.434-.348-.633a7.59 7.59 0 0 0-.617-.863c-.465-.566-.988-1.051-1.547-1.566-.019-.019-.043-.039-.066-.059l-.738-.637-1.449-1.078-.918-.598-.34-.207-1.465-.855-.773-.402c-.977-.477-1.988-.828-3.16-.945l-.692-.043a7.71 7.71 0 0 0-1.352.09l-.398.074c-.316.07-.609.156-.875.254-1.48.535-2.25 1.367-2.34 1.258-.078-.102.441-.855 1.395-1.5a5.71 5.71 0 0 1 .934-.508 5.91 5.91 0 0 1 1.355-.395l.406-.051c.23-.023.461-.031.688-.027 1.117.012 2.188.313 3.223.742l1.066.488 1.719.902c.008.004.016.012.027.016l1.297.766 1.402.957.926.715.121.098 1.398 1.168a7.69 7.69 0 0 1 1.004 1.121" class="D"/><path d="M99.043 101.734c-.316.07-.609.156-.875.254a4.31 4.31 0 0 0-.945-.242 5.71 5.71 0 0 1 .934-.508c.32.117.625.297.887.496m2.436-.121l-.687-.043a6.39 6.39 0 0 0-1.281-.727l.406-.051a5.89 5.89 0 0 1 .688-.027 3.5 3.5 0 0 1 .875.848m3.414.383a4.01 4.01 0 0 1 .523.965l-.773-.402-.234-.324-.582-.727 1.066.488m3.043 1.684c.113.277.207.609.203.941l-.918-.598-.172-.332-.41-.777 1.297.766m2.328 1.672c.09.422.082.773.063.984l-.738-.637-.133-.602-.117-.461.926.715m2.522 2.387c-.004.395-.078.672-.086.703-.039.133-.09.262-.145.383a7.59 7.59 0 0 0-.617-.863 3.76 3.76 0 0 0-.027-.684c-.027-.238-.074-.461-.129-.66a7.69 7.69 0 0 1 1.004 1.121m1.055 1.836a6.6 6.6 0 0 1 .281.859 2.32 2.32 0 0 1-.367.645c-.066.078-.137.148-.207.215a5.71 5.71 0 0 0-.191-.762l.188-.355.297-.602m.397 3.09l-.125.098-.238.156-.375.223-.156.621a2.91 2.91 0 0 0 .379-.141l.207-.109.309-.848" class="C"/><path d="M136.531 142.316l-.113-.035.09.063 1.152.813-.008.016-.734 1.074-1.492-1.07-1.031-.805-1.25-1.066-1.25-1.168-.312-.309-.227-.23-1.355-1.465-1.215-1.48-1.332-1.855-.965-1.492-1.187-1.961-.809-1.363-1.656-2.738-.422-.676-1.09-1.723-2.184-3.25-1.105-1.535-2.422-3.078-.437-.512-1.742-1.98-.312-.344c-3.312-3.605-8.891-8.875-16.492-11.707l1.52-1.273a41.29 41.29 0 0 1 5.266 2.75c3.555 2.199 5.867 4.379 8.152 6.563a64.01 64.01 0 0 1 2.684 2.715 62.09 62.09 0 0 1 1.594 1.766c.555.641 1.055 1.238 1.5 1.785l1.051 1.309c.242.309.801 1.012 1.574 2.055l1.082 1.484c.625.875 1.328 1.895 2.086 3.031l1.074 1.648a111.46 111.46 0 0 1 1.902 3.078v.004l.348.586.512.879 1.227 2.07a37.78 37.78 0 0 0 .789 1.227 30.71 30.71 0 0 0 1.766 2.379l.535.629c.117.137.246.277.379.426.461.508 1.012 1.066 1.664 1.633a15.57 15.57 0 0 0 1.137.895c.488.352 1.02.695 1.605 1.016.203.109.41.219.625.324l.379.18a15.44 15.44 0 0 0 1.188.488l-.242.688-1.492-.453" class="D"/><path d="M117.344 116.742l-1.73.238-.437-.516-1.742-1.977a16.48 16.48 0 0 0 2.41.469l1.5 1.785m3.706 4.849a15.6 15.6 0 0 1-1.91.004l-1.105-1.535 1.934.047 1.082 1.484m3.159 4.68a7.25 7.25 0 0 1-1.797.297l-1.09-1.723c.574-.031 1.18-.098 1.813-.223l1.074 1.648m2.762 4.547c-.566.262-1.137.426-1.672.527l-.809-1.363a11.33 11.33 0 0 0 1.621-.633l.348.59.512.879m2.015 3.297a4.55 4.55 0 0 1-1.535.684l-.965-1.492 1.715-.418.785 1.227m2.68 3.433a3.9 3.9 0 0 1-1.668.586l-1.215-1.484c.594.051 1.285.055 1.969-.156l.535.629.379.426m5.984 5.624l-.734 1.074-1.492-1.07-1.031-.805-1.25-1.066-1.25-1.168c1.785.707 2.047 1.281 2.613 1.547l3.145 1.488" class="C"/><path d="M117.32 105.207a6 6 0 0 1 .168.656 6.22 6.22 0 0 1 .09.691c.043.582.008 1.129-.043 1.609l-.035.348-.055.43c-.133.855-.34 1.316-.437 1.516l-.055.109a5.59 5.59 0 0 1-.395.641c-.391.543-.793.887-.891.824s.188-.508.473-1.437l.148-.523.09-.371c.137-.559.223-.953.254-1.375l.008-.406a5.47 5.47 0 0 0-.051-.641 6.13 6.13 0 0 0-.391-1.437l-.164-.395-.152-.344h-.004c-.336-.707-.703-1.219-.91-1.484l-.117-.148-.457-.5a7.11 7.11 0 0 0-1.129-.895l-1.012-.598-1-.531-.266-.137-.852-.426a14.62 14.62 0 0 0-1.551-.629l-.199-.066-.699-.219a14.32 14.32 0 0 0-1.648-.371 12.29 12.29 0 0 0-1.816-.168h-.066c-.383-.004-.746.012-1.086.043-.789.066-1.469.203-2.016.344-.945.246-1.492.504-1.523.418-.043-.121.91-.766 2.363-1.246.656-.219 1.414-.402 2.23-.492.047-.008.094-.012.141-.016.578-.055 1.117-.055 1.594-.031a12.8 12.8 0 0 1 1.59.195l.23.043 1.207.309 1.027.352.73.305c.543.242 1.039.5 1.488.766l.93.59c.535.367.984.727 1.352 1.043l.602.555.105.105.859.871.473.539a4.8 4.8 0 0 1 .867 1.586" class="D"/><path d="M104.266 97.98c-.441.328-.754.629-1.195.992a12.1 12.1 0 0 0-2.016.344 9.4 9.4 0 0 1 .84-.828c.656-.219 1.414-.402 2.23-.492a1.69 1.69 0 0 1 .141-.016m3.183.165a15.67 15.67 0 0 1-1.41.953 12.29 12.29 0 0 0-1.816-.168 13.14 13.14 0 0 1 1.637-.98 12.8 12.8 0 0 1 1.59.195m2.464.703l-1.527.84-.699-.219c.461-.43.836-.746 1.199-.973l1.027.352m3.149 1.66a11.21 11.21 0 0 0-1.605.195l-.469.105-.852-.426a4.13 4.13 0 0 1 .84-.328 4.06 4.06 0 0 1 1.156-.137l.93.59m1.953 1.598l-.703-.023-1.047-.008-1.012-.598a5.95 5.95 0 0 1 1.469-.023l.691.098.602.555m1.437 1.515l-.543.031a8.28 8.28 0 0 1-.941-.035l-.117-.148-.457-.5.609.023.977.09.473.539m1.034 2.242a6.22 6.22 0 0 1 .09.691l-.344-.176-1.035-.539-.164-.395-.152-.344a7 7 0 0 1 1.129.477 5.29 5.29 0 0 1 .477.285m.046 2.302l-.035.348-.055.43-.562-.414c-.086-.062-.168-.133-.25-.203l.008-.406a5.47 5.47 0 0 0-.051-.641 6.56 6.56 0 0 1 .566.492 5.15 5.15 0 0 1 .379.395m-.582 2.401a5.59 5.59 0 0 1-.395.641l-.418-.613.148-.523.09-.371a7.1 7.1 0 0 1 .574.867" class="C"/><path d="M109.152 112.121a5.78 5.78 0 0 1 .168.656 6.22 6.22 0 0 1 .09.691c.043.582.008 1.129-.039 1.609l-.039.348-.055.43c-.133.855-.34 1.316-.437 1.516l-.055.109a5.59 5.59 0 0 1-.395.641c-.391.543-.793.887-.891.824s.188-.508.473-1.437l.148-.523.094-.371c.137-.559.219-.953.25-1.371l.008-.41a5.49 5.49 0 0 0-.047-.641c-.082-.566-.238-1.043-.395-1.437l-.164-.395-.152-.344c-.34-.707-.707-1.219-.914-1.484-.047-.066-.09-.113-.117-.148l-.457-.5a7.11 7.11 0 0 0-1.129-.895l-1.012-.598-1-.531-.266-.137-.852-.426c-.457-.215-.953-.426-1.551-.629l-.199-.066-.695-.219c-.457-.129-1.016-.27-1.652-.371a12.24 12.24 0 0 0-1.816-.168h-.066c-.383-.004-.746.012-1.086.043-.789.066-1.469.203-2.012.348-.945.246-1.492.5-1.527.414-.043-.121.91-.766 2.367-1.246.656-.219 1.414-.402 2.227-.492l.141-.016a11.15 11.15 0 0 1 1.598-.031 12.82 12.82 0 0 1 1.586.195l.23.043 1.207.309 1.027.352.734.305a15.52 15.52 0 0 1 1.488.766l.926.59c.535.367.988.727 1.352 1.043l.602.555.109.105.855.871.473.539a4.8 4.8 0 0 1 .867 1.586" class="D"/><path d="M96.098 104.895c-.441.328-.754.629-1.195.992-.789.066-1.469.203-2.012.348a8.07 8.07 0 0 1 .84-.832 10.86 10.86 0 0 1 2.227-.492l.141-.016m3.182.164a15.69 15.69 0 0 1-1.41.953 12.24 12.24 0 0 0-1.816-.168 13.29 13.29 0 0 1 1.641-.98 12.82 12.82 0 0 1 1.586.195m2.464.703l-1.527.84-.695-.219c.457-.43.832-.746 1.195-.973l1.027.352m3.149 1.66c-.461.027-1.016.078-1.605.195l-.469.105-.852-.426a4.46 4.46 0 0 1 .84-.328 4.07 4.07 0 0 1 1.16-.137l.926.59m1.953 1.599l-.703-.023-1.047-.008-1.012-.598a5.92 5.92 0 0 1 1.469-.023l.691.098.602.555m1.437 1.514l-.539.031c-.324.008-.645-.008-.945-.035-.047-.066-.09-.113-.117-.148l-.457-.5.609.023.977.09.473.539m1.034 2.242a6.22 6.22 0 0 1 .09.691l-.344-.176-1.035-.539-.164-.395-.152-.344c.406.141.762.277 1.133.477a4.73 4.73 0 0 1 .473.285m.05 2.302l-.039.348-.055.43-.562-.41-.25-.203.008-.41a5.49 5.49 0 0 0-.047-.641l.566.492.379.395m-.586 2.401a5.59 5.59 0 0 1-.395.641l-.418-.613.148-.523.094-.371a7.18 7.18 0 0 1 .57.867" class="C"/><path fill="#410005" d="M115.34 104.773c.504 1.777.195 3.23.059 3.859-.125.59-.387 1.809-.895 2.199-.066.051-.379.27-.574.68-.062.133-.09.238-.109.293-.121.422-.477 1.031-1.031 1.426-.199.141-.785.563-1.445.438-.512-.094-.891-.484-.914-.449s.457.297.563.781c.004.023.063.32-.066.594-.191.406-.715.555-1.406.652-.906.121-1.715.234-2.922-.039-.457-.102-1.953-.48-3.469-1.711a9.6 9.6 0 0 1-1.656-1.727c-.492-.668-.84-1.352-.934-1.926-.019-.102-.09-.57-.152-1.156l-.109-1.219c-.059-.953-.086-1.441.051-1.918.102-.352.238-.574.434-.906.445-.758.984-1.66 1.738-1.723.449-.039.758.238.988.031.172-.152.18-.465.18-.562.004-.09-.008-.156-.023-.219l-.078-.309s-.059-.355.074-.781c.055-.18.199-.504.902-.996.383-.262.953-.656 1.848-.863l.277-.059c.961-.164 1.754 0 2.453.152.805.176 2.18.477 3.574 1.57.008.008.016.016.027.023.48.379 1.98 1.629 2.617 3.863"/><g class="F"><path d="M112.727 103.676c.41.668.75 1.211.91 2.035.27 1.383-.137 2.656-.258 2.648-.102-.012.141-.977-.172-2.262-.535-2.199-2.254-3.5-2.844-3.945-.684-.52-1.215-.918-2.047-1.07-1.437-.262-2.797.41-2.906.465-.512.258-.602.426-1.066.543a3.18 3.18 0 0 1-.699.082l-.078-.309s-.059-.355.074-.781c.055-.18.199-.504.902-.996.383-.262.953-.656 1.848-.863l.277-.059c-.402.363-.883.711-1.316.914-.164.074-.664.289-.66.563a.35.35 0 0 0 .219.289c.164.059.344-.062.41-.102.414-.258.957-.328 1.563-.406.793-.102 1.512.086 1.512.086.332.086.594.207.914.09.27-.098.449-.324.516-.273s-.113.258-.047.457c.078.234.426.305.523.332 1 .25 2.117 2.063 2.426 2.563m2.612 1.096c.504 1.777.195 3.23.059 3.859-.125.59-.387 1.809-.895 2.199-.066.051-.379.27-.574.68-.062.133-.09.238-.109.293a2.86 2.86 0 0 1-1.031 1.426c-.199.141-.785.563-1.445.438-.512-.094-.891-.484-.914-.449s.457.297.563.781c.004.023.063.32-.066.594-.191.406-.715.555-1.406.652-.906.121-1.715.234-2.922-.039-.457-.102-1.953-.48-3.469-1.711a9.6 9.6 0 0 1-1.656-1.727c.363.188.793.461 1.238.742.863.543.879.703 1.625 1.184.566.367 1.555.988 2.934 1.207a5.92 5.92 0 0 0 2.465-.215c.316-.098.723-.258.754-.516.008-.074-.016-.148-.414-.746-.211-.316-.266-.379-.242-.477.059-.281.613-.371.648-.379.145-.019.285-.004.563.027.551.063.547.117.707.094.207-.027.234-.125.801-.613.484-.414.594-.453.672-.664.09-.223 0-.266.082-.605.055-.207.098-.238.324-.73.254-.559.254-.648.234-.727-.086-.305-.508-.41-.484-.477.031-.086.629.238 1.008.016.449-.262.395-1.16.375-1.496-.039-.621-.203-.582-.238-1.27-.035-.609.086-.793-.09-1.113-.16-.289-.387-.371-.395-.641-.008-.207.129-.266.184-.473.027-.098.07-.359-.555-1.211-.344-.469-.586-.699-.926-1.262-.223-.363-.219-.422-.195-.457s.086-.059.176-.059c.48.379 1.98 1.629 2.617 3.863m-12.175 6.393c-.066.035-.598-.695-1.023-1.672-.711-1.633-.687-2.957-.676-3.238.039-1.145.352-1.785.578-2.137.199-.312.453-.695.852-.711s.734.34.867.668c.176.426.074.977-.141 1.047-.16.051-.289-.191-.578-.164-.187.016-.316.137-.387.203-.582.543-.543 1.75-.543 1.75.063 2.164 1.16 4.195 1.051 4.254"/><path d="M104.301 106.727c-.207.426-.016.879.332 1.711.188.445.773 1.691 2.137 2.578.488.32.926.605 1.543.609.473 0 .828-.164 1.469-.457.688-.312 1.031-.469 1.109-.727.199-.652-.965-1.383-.734-1.801.129-.234.52-.039.977-.383.195-.148.254-.281.578-.867l.633-1.117c.184-.758-.48-1.52-1.016-2.133-.566-.652-1.504-1.727-2.738-1.664-.684.039-1.359.422-1.344.695.019.316.93.301 1.047.746.148.559-1.102 1.352-1.297 1.473-1.426.906-2.367.648-2.695 1.336"/></g><g transform="translate(-245.977 -177.93)"><g clip-path="url(#F)"><g clip-path="url(#G)"><g clip-path="url(#H)"><g clip-path="url(#I)"><g clip-path="url(#J)"><g clip-path="url(#K)"><path fill="#f6dbc7" d="M389.797 322.449c-.437-.066-.781-.215-1-.324l-36.848-27.73-1.184-.891-40.754-30.465a2.87 2.87 0 0 1-.246-.172 2.94 2.94 0 0 1-.641-.668c-.172-.254-.762-1.203-.27-3.602.113-.551.336-1.434 1.063-2.941a16.92 16.92 0 0 1 .188-.383l.449-.859c.84-1.547 1.305-2.414 2.168-3.48 1.16-1.434 3.094-3.82 6.184-4.367.828-.145 1.539-.125 2.02-.078.019 0 .035.004.055.004l37.5 28.32 1.582 1.191 39.234 29.633.063 1.316.082 5.344c-.152 1.066-.578 1.895-1.355 3.043l-.441.637-.57.797c-1.574 2.203-4.363 6.105-7.277 5.676"/></g></g></g></g></g></g><g clip-path="url(#L)" class="E"><g clip-path="url(#M)"><g clip-path="url(#N)"><g clip-path="url(#O)"><path d="M397.645 315.977l-10.887-7.863 11.328 7.227-.441.637"/></g></g></g></g><g clip-path="url(#P)"><g clip-path="url(#Q)"><g clip-path="url(#R)"><g clip-path="url(#S)"><g clip-path="url(#T)"><g clip-path="url(#U)"><path fill="#efd3bf" d="M318.656 259.016c-.797.867-2.25 2.41-4.637 3.273-.738.266-1.785.645-3.187.652a7.6 7.6 0 0 1-1.066-.074 2.94 2.94 0 0 1-.641-.668c-.172-.254-.762-1.203-.27-3.602.113-.551.336-1.434 1.063-2.941l.188-.383.449-.859c.84-1.547 1.305-2.414 2.168-3.48 1.16-1.434 3.094-3.82 6.184-4.367.828-.145 1.539-.125 2.02-.078.723.719 1.34 1.656 1.57 2.746.242 1.148-.035 2.043-.547 3.691-.473 1.52-1.219 3.836-3.293 6.09"/></g></g></g></g></g></g><g clip-path="url(#V)" class="E"><g clip-path="url(#W)"><g clip-path="url(#X)"><g clip-path="url(#Y)"><path d="M319.168 253.852c-.453-.773-2.383-.398-2.805-.316a6.81 6.81 0 0 0-2.934 1.363c-1.516 1.215-3.383 3.715-2.574 5.355.324.664 1.09 1.191 1.84 1.215.555.016 1-.242 1.879-.98 2.363-1.988 3.453-3.754 3.914-4.559.879-1.547.781-1.902.68-2.078"/></g></g></g></g><g clip-path="url(#Z)" class="E"><g clip-path="url(#a)"><g clip-path="url(#b)"><g clip-path="url(#c)"><path d="M318.488 254.852c-.051-.039 1.059-.961 1.172-2.355.016-.176.109-1.359-.633-1.887-.465-.332-1.035-.25-1.605-.16-1.328.207-2.25.844-2.383.934-1.234.871-3.348 2.688-5.121 4.273l.188-.383 1.25-1.223c.324-.316-.113.109 2.82-2.586 1.496-1.375 2.355-2.176 3.75-2.52.574-.141 1.371-.324 1.934.102.785.602.609 1.992.555 2.434-.098.777-.398 1.336-.633 1.77-.562 1.02-1.254 1.633-1.293 1.602"/></g></g></g></g><g clip-path="url(#d)" class="D"><g clip-path="url(#e)"><g clip-path="url(#f)"><g clip-path="url(#g)"><g clip-path="url(#h)"><g clip-path="url(#i)"><path d="M345.441 335.313c-.09.148-.328.023-.816.188-.285.098-.336.184-.625.234a5.06 5.06 0 0 1-.437.047l-.398.027c-.422-.066-.547-1.531-.578-1.922l-.27-2.613c-.027-.703-.098-1.207-.191-1.629a8.99 8.99 0 0 0-.234-.855l-.34-1.293c-.059-.301-.109-.648-.148-1.066-.051-.559-.043-1.141.008-1.898l.082-1.066.164-1.695.019-.176.234-2.117.309-1.676c.055-.246.25-1.098.625-2.266l.328-.957.184-.488 1.434-3.297.164-.355.457-.941a7.06 7.06 0 0 0 .348-.828c.328-.914.387-1.391.82-2.258l.348-.613.457-.687.305-.437.906-1.145.625-.773.109-.137 1.047-1.363c.012-.012.019-.023.031-.039l1.438-1.75 1.648-1.953.141-.168.957-1.211c.551-.73.762-1.113.945-1.598.125-.328.188-.562.25-.898l.16-.887.051-.293.391-1.773.559-2.437.078-.371.426-2.062c.203-.984.297-1.266.617-1.695l.117-.152c.297-.363.566-.594.781-.914a2.27 2.27 0 0 0 .285-.617c.113-.367.18-.734.211-1.059.07-.645.019-1.121.019-1.121s.703.328.93.707c.422.695.234 1.477.152 1.801l-.105.336c-.203.543-.504.906-.77 1.246l-.133.176c-.152.199-.449.637-.914 2.547l-.266 1.176-.066.316-.426 2.777a7.29 7.29 0 0 1-.297 1.602c-.004.019-.008.035-.016.051a14.04 14.04 0 0 1-.977 2.461l-.535.965-.855 1.297c-.621.871-.93 1.141-1.367 1.566l-.867.922-.82 1.012-1.09 1.469-.738.969-.891 1.008-.309.32-.531.586-.219.273a8.33 8.33 0 0 0-.805 1.277l-.562 1.18-.105.238c-.594 1.336-.934 2.414-1.078 2.902l-.102.352-.254 1.051-.176.676c-.387 1.406-.621 2.238-1.082 3.285l-.426.844c-.121.211-.187.309-.285.633a3.33 3.33 0 0 0-.145.797c-.031.645.152 1.109-.023 2.313-.078.523-.168.813-.246 1.094a4.62 4.62 0 0 0-.18 1.02c-.004.016-.004.031-.004.047-.019.27-.035.719-.164 1.344-.078.387-.133.516-.176.684l-.031.156c-.125.707.125 1.215.398 2.016.059.172.145.48.273.984l.094.367.242.965.012.047c.523 2.098.363 2.031.652 2.605l1.004 1.977c.059.074.156.211.215.344.047.102.066.207.023.281"/></g></g></g></g></g></g><g clip-path="url(#j)" class="C"><g clip-path="url(#k)"><g clip-path="url(#l)"><g clip-path="url(#m)"><g clip-path="url(#n)"><g clip-path="url(#o)"><path d="M345.441 335.313c-.09.148-.328.023-.816.188-.285.098-.336.184-.625.234a5.06 5.06 0 0 1-.437.047l-.398.027c-.422-.066-.547-1.531-.578-1.922l-.27-2.613c-.027-.703-.098-1.207-.191-1.629.207.289.402.73.586 1.148.488 1.098.371 1.539.621 2.219.418 1.129 1.371 1.613 2.086 2.02.047.102.066.207.023.281"/></g></g></g></g></g></g><g clip-path="url(#p)" class="C"><g clip-path="url(#q)"><g clip-path="url(#r)"><g clip-path="url(#s)"><path d="M341.551 327.496l.73.75c.426.406.707.617 1.012.848"/></g></g></g></g><g clip-path="url(#t)" class="C"><g clip-path="url(#u)"><g clip-path="url(#v)"><g clip-path="url(#w)"><path d="M341.891 328.789a6.6 6.6 0 0 0 .629.602c.301.254.379.27 1.027.715"/></g></g></g></g><g clip-path="url(#x)" class="C"><g clip-path="url(#y)"><g clip-path="url(#z)"><g clip-path="url(#AA)"><path d="M343.199 328.727c-.562-.414-.68-.637-.73-.742-.172-.367-.086-.516-.309-1.453l-.309-1.074c-.133-.387-.281-.668-.441-.926l.082-1.066c.129.504.184.945.613 1.586.168.254.23.293.453.52l-.031.156c-.125.707.125 1.215.398 2.016.059.172.145.48.273.984"/></g></g></g></g><g clip-path="url(#AB)" class="C"><g clip-path="url(#AC)"><g clip-path="url(#AD)"><g clip-path="url(#AE)"><path d="M342.902 323.496l-.398-.687-.828-1.215.234-2.117.215.359c.219.395.355.746.543 1.316l.414 1.324a4.62 4.62 0 0 0-.18 1.02"/></g></g></g></g><g clip-path="url(#AF)" class="C"><g clip-path="url(#AG)"><g clip-path="url(#AH)"><g clip-path="url(#AI)"><path d="M343.352 319.07l-.145-.617c-.121-.547-.277-1.27-.34-2.227l-.023-.691.328-.957.078.887c.117.879.258 1.133.531 2.176-.121.211-.187.309-.285.633a3.33 3.33 0 0 0-.145.797"/></g></g></g></g><g clip-path="url(#AJ)" class="C"><g clip-path="url(#AK)"><g clip-path="url(#AL)"><g clip-path="url(#AM)"><path d="M345.465 312.836l-.43-1.965-.082-.434.457-.941.141.848.168 1.441-.254 1.051"/></g></g></g></g><g clip-path="url(#AN)" class="C"><g clip-path="url(#AO)"><g clip-path="url(#AP)"><g clip-path="url(#AQ)"><path d="M347.004 308.293l-.062-.539c-.062-.676-.059-1.336-.016-1.957l.457-.687.305-.437-.121 2.441-.562 1.18"/></g></g></g></g><g clip-path="url(#AR)" class="C"><g clip-path="url(#AS)"><g clip-path="url(#AT)"><g clip-path="url(#AU)"><path d="M349.121 304.977l-.531.586a14.13 14.13 0 0 1 .004-2.035l.625-.773.109-.137-.102 1.117-.105 1.242"/></g></g></g></g><g clip-path="url(#AV)" class="C"><g clip-path="url(#AW)"><g clip-path="url(#AX)"><g clip-path="url(#AY)"><path d="M351.059 302.68c.266-.891.563-2.102.785-3.215l-1.437 1.75c-.012.016-.019.027-.031.039-.137 1.035-.133 1.934-.055 2.395"/></g></g></g></g><g clip-path="url(#AZ)" class="C"><g clip-path="url(#Aa)"><g clip-path="url(#Ab)"><g clip-path="url(#Ac)"><path d="M353.836 299.277l-.867.922.219-1.113.305-1.574.141-.168.957-1.211c-.008.258-.035.547-.105.941a9.9 9.9 0 0 1-.387 1.453l-.262.75"/></g></g></g></g><g clip-path="url(#Ad)" class="C"><g clip-path="url(#Ae)"><g clip-path="url(#Af)"><g clip-path="url(#Ag)"><path d="M356.594 295.449l-.535.965c.019-.383.019-.793-.016-1.23-.047-.578-.145-1.102-.258-1.547l.16-.887a6.15 6.15 0 0 1 .379.898c.219.668.277 1.281.27 1.801"/></g></g></g></g><g clip-path="url(#Ah)" class="C"><g clip-path="url(#Ai)"><g clip-path="url(#Aj)"><g clip-path="url(#Ak)"><path d="M358.309 288.559c-.238-.395-.457-.848-.609-1.348-.152-.512-.207-.969-.25-1.398.203-.984.297-1.266.617-1.695l.117-.152.176 1.191.281 1.91-.266 1.176-.066.316"/></g></g></g></g><g clip-path="url(#Al)" class="C"><g clip-path="url(#Am)"><g clip-path="url(#An)"><g clip-path="url(#Ao)"><path d="M359.688 284.344c-.32-.652-.543-.992-.723-1.293a2.27 2.27 0 0 0 .285-.617c.113-.367.18-.734.211-1.059l.508.633c.234.332.391.707.488 1.09-.203.543-.504.906-.77 1.246"/></g></g></g></g><g clip-path="url(#Ap)" class="D"><g clip-path="url(#Aq)"><g clip-path="url(#Ar)"><g clip-path="url(#As)"><path d="M356.934 291.746l-.125.145c-.281.309-.758.824-1.43 1.297a6.14 6.14 0 0 1-.773.465 5.3 5.3 0 0 1-.832.344c-.57.184-1 .254-1.316.273a2.38 2.38 0 0 1-.469-.016 2.88 2.88 0 0 1-.422-.098c-.441-.133-.77-.344-.73-.457.019-.062.148-.066.355-.059l.637.016a5.15 5.15 0 0 0 1.25-.176 5.02 5.02 0 0 0 .563-.195c.254-.105.488-.23.699-.355a8.63 8.63 0 0 0 .945-.684c.195-.156.371-.316.539-.48a7.75 7.75 0 0 0 .703-.793c.445-.582.801-1.199 1.18-1.859l.043-.078.453-.863.727-1.652.379-1.031.125-.379.504-1.617.219-.844c.246-1.059.359-2.121.215-3.293l-.113-.68a7.72 7.72 0 0 0-.391-1.297l-.164-.371c-.137-.293-.289-.559-.441-.801-.852-1.32-1.84-1.883-1.75-1.996.082-.098.934.238 1.773 1.023a5.93 5.93 0 0 1 .707.797c.184.254.453.664.684 1.23l.145.387.18.664c.238 1.09.184 2.199-.004 3.309l-.234 1.145-.496 1.879c-.004.008-.008.019-.008.027l-.453 1.438-.621 1.582-.492 1.063a1.48 1.48 0 0 1-.066.137l-.824 1.625c-.254.441-.52.828-.867 1.23"/></g></g></g></g><g clip-path="url(#At)" class="C"><g clip-path="url(#Au)"><g clip-path="url(#Av)"><g clip-path="url(#Aw)"><path d="M359.703 277.008c-.137-.293-.289-.559-.441-.801.035-.266.059-.605.023-.973a5.93 5.93 0 0 1 .707.797c-.047.34-.152.672-.289.977"/></g></g></g></g><g clip-path="url(#Ax)" class="C"><g clip-path="url(#Ay)"><g clip-path="url(#Az)"><g clip-path="url(#BA)"><path d="M360.371 279.352l-.113-.676c.227-.516.344-1.008.418-1.414l.145.387.18.664a3.51 3.51 0 0 1-.629 1.039"/></g></g></g></g><g clip-path="url(#BB)" class="C"><g clip-path="url(#BC)"><g clip-path="url(#BD)"><g clip-path="url(#BE)"><path d="M360.762 282.766a3.91 3.91 0 0 1-.824.727l.219-.844.262-.301a8.55 8.55 0 0 0 .578-.727l-.234 1.145"/></g></g></g></g><g clip-path="url(#BF)" class="C"><g clip-path="url(#BG)"><g clip-path="url(#BH)"><g clip-path="url(#BI)"><path d="M359.805 286.109c-.25.172-.551.34-.875.41l.379-1.031.281-.242.668-.574-.453 1.438"/></g></g></g></g><g clip-path="url(#BJ)" class="C"><g clip-path="url(#BK)"><g clip-path="url(#BL)"><g clip-path="url(#BM)"><path d="M358.691 288.754c-.387.184-.734.254-.941.281l.453-.863.559-.262.422-.219-.492 1.063"/></g></g></g></g><g clip-path="url(#BN)" class="C"><g clip-path="url(#BO)"><g clip-path="url(#BP)"><g clip-path="url(#BQ)"><path d="M356.934 291.746c-.387.086-.676.074-.703.074-.141-.008-.277-.027-.406-.055a7.75 7.75 0 0 0 .703-.793 4.1 4.1 0 0 0 .66-.18c.223-.082.43-.18.613-.277-.254.441-.52.828-.867 1.23"/></g></g></g></g><g clip-path="url(#BR)" class="C"><g clip-path="url(#BS)"><g clip-path="url(#BT)"><g clip-path="url(#BU)"><path d="M355.379 293.188a6.14 6.14 0 0 1-.773.465c-.242-.031-.484-.098-.707-.215a1.67 1.67 0 0 1-.258-.152c.254-.105.488-.23.699-.355l.387.102.652.156"/></g></g></g></g><g clip-path="url(#BV)" class="C"><g clip-path="url(#BW)"><g clip-path="url(#BX)"><g clip-path="url(#BY)"><path d="M352.457 294.27l-.121-.102-.203-.199-.305-.312c-.254.004-.473-.008-.637-.016a2.64 2.64 0 0 0 .219.34l.156.176.891.113"/></g></g></g></g><g clip-path="url(#BZ)" class="D"><g clip-path="url(#Ba)"><g clip-path="url(#Bb)"><g clip-path="url(#Bc)"><path d="M328.555 322.637l.008-.121-.039.102-.535 1.309-.016-.008-1.215-.477.711-1.691.555-1.184.762-1.461.855-1.477.23-.375.176-.273 1.121-1.648 1.172-1.516 1.508-1.715 1.238-1.273 1.645-1.598 1.148-1.09 2.301-2.234.559-.559 1.438-1.449 2.676-2.855 1.25-1.422 2.457-3.047.402-.547 1.539-2.141.266-.383c2.77-4.035 6.656-10.648 7.715-18.691l1.582 1.191a41.15 41.15 0 0 1-1.504 5.75c-1.344 3.957-2.953 6.699-4.566 9.418-.703 1.184-1.391 2.254-2.043 3.223-.477.703-.934 1.348-1.367 1.945-.5.688-.969 1.309-1.402 1.863l-1.043 1.316c-.242.309-.801 1.008-1.645 1.996l-1.207 1.387c-.715.805-1.547 1.719-2.484 2.711l-1.367 1.418a123.9 123.9 0 0 1-2.574 2.547l-.496.469-.742.695-1.742 1.66c-.34.336-.68.68-1.02 1.043a30.91 30.91 0 0 0-1.922 2.254l-.496.664-.328.461a20.38 20.38 0 0 0-1.219 1.988 16.36 16.36 0 0 0-.617 1.309c-.234.555-.445 1.152-.629 1.793-.062.223-.121.449-.176.68-.035.141-.062.277-.09.41-.105.512-.172.945-.211 1.266l-.727-.078.109-1.555"/></g></g></g></g><g clip-path="url(#Bd)" class="C"><g clip-path="url(#Be)"><g clip-path="url(#Bf)"><g clip-path="url(#Bg)"><path d="M349.18 298.203l-.621-1.629.402-.547 1.539-2.141c-.023.75-.016 1.594.082 2.453l-1.402 1.863"/></g></g></g></g><g clip-path="url(#Bh)" class="C"><g clip-path="url(#Bi)"><g clip-path="url(#Bj)"><g clip-path="url(#Bk)"><path d="M345.285 302.902c-.199-.672-.336-1.297-.434-1.859l1.25-1.422.391 1.895-1.207 1.387"/></g></g></g></g><g clip-path="url(#Bl)" class="C"><g clip-path="url(#Bm)"><g clip-path="url(#Bn)"><g clip-path="url(#Bo)"><path d="M341.434 307.031c-.324-.562-.543-1.137-.695-1.684l1.438-1.449c.156.551.359 1.129.625 1.715l-1.367 1.418"/></g></g></g></g><g clip-path="url(#Bp)" class="C"><g clip-path="url(#Bq)"><g clip-path="url(#Br)"><g clip-path="url(#Bs)"><path d="M337.621 310.742a7.08 7.08 0 0 1-.891-1.512l1.148-1.09a11.2 11.2 0 0 0 .98 1.438l-.496.469-.742.695"/></g></g></g></g><g clip-path="url(#Bt)" class="C"><g clip-path="url(#Bu)"><g clip-path="url(#Bv)"><g clip-path="url(#Bw)"><path d="M334.859 313.445c-.441-.391-.766-.867-1.012-1.344l1.238-1.273.793 1.574-1.02 1.043"/></g></g></g></g><g clip-path="url(#Bx)" class="C"><g clip-path="url(#By)"><g clip-path="url(#Bz)"><g clip-path="url(#CA)"><path d="M332.113 316.824c-.418-.414-.754-.926-.945-1.492l1.172-1.516c.086.59.238 1.266.598 1.883l-.496.664-.328.461"/></g></g></g></g><g clip-path="url(#CB)" class="C"><g clip-path="url(#CC)"><g clip-path="url(#CD)"><g clip-path="url(#CE)"><path d="M327.973 323.918l-1.215-.477.711-1.691.555-1.184.762-1.461.855-1.477c-.289 1.895-.793 2.281-.922 2.891l-.746 3.398"/></g></g></g></g><g clip-path="url(#CF)" class="D"><g clip-path="url(#CG)"><g clip-path="url(#CH)"><g clip-path="url(#CI)"><path d="M360.418 295.594a5.53 5.53 0 0 1-.602.313 5.56 5.56 0 0 1-.656.242c-.559.176-1.098.258-1.578.32l-.344.043-.434.043c-.863.063-1.359-.035-1.574-.086l-.121-.031a5.23 5.23 0 0 1-.711-.238c-.617-.258-1.043-.574-1.004-.684s.535.066 1.508.141l.543.023.383.008c.574.008.98.004 1.395-.062l.398-.082a5.97 5.97 0 0 0 .613-.191c.535-.203.965-.469 1.313-.707l.352-.246.297-.227v-.004a8.2 8.2 0 0 0 1.246-1.219l.117-.148.383-.555a7.1 7.1 0 0 0 .617-1.301c.129-.344.242-.715.355-1.125l.293-1.094.074-.285.227-.926c.109-.496.199-1.027.266-1.656l.019-.207.055-.727c.027-.477.039-1.051-.004-1.695-.035-.559-.109-1.168-.246-1.805-.004-.023-.012-.047-.016-.066l-.281-1.051a12.28 12.28 0 0 0-.789-1.883c-.453-.867-.828-1.34-.746-1.391.105-.07.945.711 1.742 2.023a10.88 10.88 0 0 1 .98 2.063l.043.133a11.22 11.22 0 0 1 .391 1.547c.109.656.148 1.207.164 1.594l.012.234c.004.152.016.602-.031 1.246l-.113 1.078-.133.781c-.113.582-.254 1.121-.41 1.621h-.004l-.363 1.035c-.238.605-.488 1.129-.715 1.551l-.406.715-.078.129-.656 1.031-.418.578c-.383.48-.789.863-1.352 1.199"/></g></g></g></g><g clip-path="url(#CJ)" class="C"><g clip-path="url(#CK)"><g clip-path="url(#CL)"><g clip-path="url(#CM)"><path d="M364.531 281.254c-.418-.355-.781-.594-1.23-.945a12.28 12.28 0 0 0-.789-1.883 8.9 8.9 0 0 1 .996.633 10.88 10.88 0 0 1 .98 2.063l.043.133"/></g></g></g></g><g clip-path="url(#CN)" class="C"><g clip-path="url(#CO)"><g clip-path="url(#CP)"><g clip-path="url(#CQ)"><path d="M365.086 284.395c-.383-.316-.816-.719-1.242-1.164-.035-.559-.109-1.168-.246-1.805a13.6 13.6 0 0 1 1.324 1.375c.109.656.148 1.207.164 1.594"/></g></g></g></g><g clip-path="url(#CR)" class="C"><g clip-path="url(#CS)"><g clip-path="url(#CT)"><g clip-path="url(#CU)"><path d="M364.953 286.953l-1.16-1.301.055-.727c.523.348.914.645 1.219.949l-.113 1.078"/></g></g></g></g><g clip-path="url(#CV)" class="C"><g clip-path="url(#CW)"><g clip-path="url(#CX)"><g clip-path="url(#CY)"><path d="M364.043 290.391c-.129-.441-.305-.969-.555-1.52l-.207-.43.227-.926a4.51 4.51 0 0 1 .508.742 4.28 4.28 0 0 1 .395 1.098h-.004l-.363 1.035"/></g></g></g></g><g clip-path="url(#CZ)" class="C"><g clip-path="url(#Ca)"><g clip-path="url(#Cb)"><g clip-path="url(#Cc)"><path d="M362.922 292.656l-.133-.691-.23-1.02c.129-.344.242-.715.355-1.125.148.375.281.844.355 1.43l.059.691-.406.715"/></g></g></g></g><g clip-path="url(#Cd)" class="C"><g clip-path="url(#Ce)"><g clip-path="url(#Cf)"><g clip-path="url(#Cg)"><path d="M361.77 294.395l-.156-.52c-.078-.312-.137-.625-.172-.926l.117-.148.383-.555.113.598.133.973-.418.578"/></g></g></g></g><g clip-path="url(#Ch)" class="C"><g clip-path="url(#Ci)"><g clip-path="url(#Cj)"><g clip-path="url(#Ck)"><path d="M359.816 295.906a5.56 5.56 0 0 1-.656.242l.098-.375.289-1.129.352-.246.297-.227c-.043.426-.098.801-.211 1.207-.047.18-.105.359-.168.527"/></g></g></g></g><g clip-path="url(#Cl)" class="C"><g clip-path="url(#Cm)"><g clip-path="url(#Cn)"><g clip-path="url(#Co)"><path d="M357.582 296.469l-.344.043-.434.043.273-.641.145-.289.398-.082a5.97 5.97 0 0 0 .613-.191l-.352.66-.301.457"/></g></g></g></g><g clip-path="url(#Cp)" class="C"><g clip-path="url(#Cq)"><g clip-path="url(#Cr)"><g clip-path="url(#Cs)"><path d="M355.109 296.438a5.23 5.23 0 0 1-.711-.238l.504-.543.543.023.383.008c-.211.254-.453.512-.719.75"/></g></g></g></g><g clip-path="url(#Ct)" class="D"><g clip-path="url(#Cu)"><g clip-path="url(#Cv)"><g clip-path="url(#Cw)"><path d="M351.848 289.188a5.84 5.84 0 0 1-.602.309c-.219.098-.437.176-.652.242-.559.176-1.098.262-1.578.32l-.348.043-.43.043c-.867.063-1.359-.039-1.578-.086l-.117-.031c-.254-.066-.496-.148-.715-.238-.613-.258-1.039-.574-1-.684s.535.066 1.504.141l.547.023.379.008c.574.008.98.004 1.395-.062l.402-.082c.219-.055.422-.121.609-.191a6.17 6.17 0 0 0 1.313-.707l.352-.246.301-.227a8.29 8.29 0 0 0 1.242-1.223l.117-.148.383-.559a6.88 6.88 0 0 0 .621-1.301l.355-1.121.293-1.094.074-.285.223-.926c.109-.496.203-1.027.27-1.656l.019-.207.055-.727a14.49 14.49 0 0 0-.008-1.695 12.28 12.28 0 0 0-.246-1.805l-.012-.066a11.31 11.31 0 0 0-.285-1.051 12.06 12.06 0 0 0-.789-1.883c-.453-.867-.824-1.34-.746-1.391.105-.07.949.715 1.746 2.023.359.59.707 1.289.977 2.063l.047.133a10.64 10.64 0 0 1 .387 1.547c.113.656.148 1.207.168 1.594l.008.234-.027 1.246-.117 1.078-.129.781c-.117.582-.258 1.121-.414 1.621v.004l-.367 1.031c-.238.605-.488 1.129-.715 1.555l-.406.711-.078.129-.656 1.031-.418.578c-.379.48-.789.863-1.352 1.203"/></g></g></g></g><g clip-path="url(#Cx)" class="C"><g clip-path="url(#Cy)"><g clip-path="url(#Cz)"><g clip-path="url(#DA)"><path d="M355.965 274.844c-.418-.355-.785-.594-1.234-.945a12.06 12.06 0 0 0-.789-1.883 8.93 8.93 0 0 1 1 .633c.359.59.707 1.289.977 2.063l.047.133"/></g></g></g></g><g clip-path="url(#DB)" class="C"><g clip-path="url(#DC)"><g clip-path="url(#DD)"><g clip-path="url(#DE)"><path d="M356.52 277.984c-.383-.316-.82-.719-1.246-1.164a12.28 12.28 0 0 0-.246-1.805c.434.387.891.855 1.324 1.375.113.656.148 1.207.168 1.594"/></g></g></g></g><g clip-path="url(#DF)" class="C"><g clip-path="url(#DG)"><g clip-path="url(#DH)"><g clip-path="url(#DI)"><path d="M356.383 280.543l-1.156-1.301.055-.727c.52.348.914.645 1.219.949l-.117 1.078"/></g></g></g></g><g clip-path="url(#DJ)" class="C"><g clip-path="url(#DK)"><g clip-path="url(#DL)"><g clip-path="url(#DM)"><path d="M355.473 283.98c-.129-.441-.301-.969-.551-1.52l-.207-.43.223-.926c.188.219.363.469.508.742.199.371.32.742.395 1.098v.004l-.367 1.031"/></g></g></g></g><g clip-path="url(#DN)" class="C"><g clip-path="url(#DO)"><g clip-path="url(#DP)"><g clip-path="url(#DQ)"><path d="M354.352 286.246l-.129-.691-.23-1.023.355-1.121c.145.375.277.844.352 1.43.031.23.051.469.059.695l-.406.711"/></g></g></g></g><g clip-path="url(#DR)" class="C"><g clip-path="url(#DS)"><g clip-path="url(#DT)"><g clip-path="url(#DU)"><path d="M353.199 287.984l-.152-.52c-.082-.312-.137-.629-.176-.926l.117-.148.383-.559.117.602.129.973-.418.578"/></g></g></g></g><g clip-path="url(#DV)" class="C"><g clip-path="url(#DW)"><g clip-path="url(#DX)"><g clip-path="url(#DY)"><path d="M351.246 289.496c-.219.098-.437.176-.652.242l.094-.375.289-1.129.352-.246.301-.227c-.047.426-.102.801-.211 1.207l-.172.527"/></g></g></g></g><g clip-path="url(#DZ)" class="C"><g clip-path="url(#Da)"><g clip-path="url(#Db)"><g clip-path="url(#Dc)"><path d="M349.016 290.059l-.348.043-.43.043.273-.641.141-.289.402-.082c.219-.055.422-.121.609-.191a6.67 6.67 0 0 1-.348.66l-.301.457"/></g></g></g></g><g clip-path="url(#Dd)" class="C"><g clip-path="url(#De)"><g clip-path="url(#Df)"><g clip-path="url(#Dg)"><path d="M346.543 290.027c-.254-.066-.496-.148-.715-.238l.504-.543.547.023.379.008a7.11 7.11 0 0 1-.715.75"/></g></g></g></g><g clip-path="url(#Dh)"><g clip-path="url(#Di)"><g clip-path="url(#Dj)"><g clip-path="url(#Dk)"><path fill="#410005" d="M360.395 293.566c-1.617.891-3.105.914-3.746.926-.602.008-1.852.027-2.348-.383-.062-.051-.344-.305-.789-.406-.145-.031-.25-.035-.312-.039a2.87 2.87 0 0 1-1.617-.684c-.184-.164-.723-.641-.754-1.312-.019-.52.273-.977.234-.992s-.184.512-.633.723c-.023.012-.301.137-.594.07-.437-.098-.703-.574-.949-1.227-.324-.855-.613-1.621-.621-2.855 0-.469.035-2.012.891-3.766.348-.715.813-1.414 1.313-2 .543-.629 1.129-1.121 1.668-1.344l1.094-.406 1.164-.379c.914-.27 1.383-.406 1.879-.379.363.023.613.102.98.219.836.266 1.836.586 2.07 1.309.133.43-.062.793.188.973.191.133.492.066.59.047a.8.8 0 0 0 .207-.07c.086-.043.16-.094.285-.145 0 0 .332-.137.777-.105.184.012.535.078 1.172.66.344.313.855.777 1.258 1.605l.117.258c.375.895.391 1.703.398 2.422.012.824.027 2.234-.727 3.836-.004.008-.012.019-.016.031-.266.555-1.145 2.297-3.18 3.414"/></g></g></g></g><g clip-path="url(#Dl)" class="F"><g clip-path="url(#Dm)"><g clip-path="url(#Dn)"><g clip-path="url(#Do)"><path d="M360.879 290.777c-.559.551-1.016 1-1.777 1.34-1.293.574-2.621.465-2.641.344-.016-.102.98-.082 2.164-.676 2.023-1.012 2.906-2.977 3.211-3.652.352-.781.621-1.391.582-2.234-.07-1.461-1.027-2.637-1.102-2.73-.371-.441-.555-.488-.77-.918-.094-.184-.18-.418-.238-.66.086-.043.16-.094.285-.145 0 0 .332-.137.777-.105.184.012.535.078 1.172.66.344.313.855.777 1.258 1.605l.117.258c-.445-.312-.891-.703-1.184-1.082-.113-.141-.434-.582-.699-.516-.113.031-.215.156-.23.277-.019.176.137.324.188.375.348.348.535.859.746 1.434.277.75.258 1.492.258 1.492-.012.344-.07.629.117.91.156.242.414.367.379.441s-.273-.051-.453.059c-.211.129-.203.484-.207.582-.019 1.031-1.535 2.531-1.953 2.941"/></g></g></g></g><g clip-path="url(#Dp)" class="F"><g clip-path="url(#Dq)"><g clip-path="url(#Dr)"><g clip-path="url(#Ds)"><path d="M360.395 293.566c-1.617.891-3.105.914-3.746.926-.602.008-1.852.027-2.348-.383-.062-.051-.344-.305-.789-.406-.145-.031-.25-.035-.312-.039a2.87 2.87 0 0 1-1.617-.684c-.184-.164-.723-.641-.754-1.312-.019-.52.273-.977.234-.992s-.184.512-.633.723c-.023.012-.301.137-.594.07-.437-.098-.703-.574-.949-1.227-.324-.855-.613-1.621-.621-2.855 0-.469.035-2.012.891-3.766.348-.715.813-1.414 1.313-2-.102.398-.27.879-.445 1.375-.336.965-.488 1.012-.789 1.848-.23.637-.613 1.738-.52 3.133a5.92 5.92 0 0 0 .762 2.348c.168.289.414.652.672.621.074-.008.141-.047.633-.57.262-.277.313-.34.414-.344.285-.004.496.516.512.551.051.133.07.277.102.555.063.547.004.559.063.707.074.195.176.203.777.645.516.379.578.477.801.508.238.035.258-.062.609-.059.215.008.254.043.785.152.602.125.688.105.758.066.281-.152.285-.586.359-.578.086.008-.094.664.207.984.355.379 1.219.125 1.543.031.598-.176.523-.328 1.184-.52.586-.168.793-.09 1.066-.336.242-.219.273-.461.531-.527.203-.055.293.066.504.074.102.004.367-.016 1.055-.812.383-.441.551-.727 1.023-1.187.305-.297.363-.305.402-.293.043.019.078.074.098.16-.266.555-1.145 2.297-3.18 3.414"/></g></g></g></g><g clip-path="url(#Dt)" class="F"><g clip-path="url(#Du)"><g clip-path="url(#Dv)"><g clip-path="url(#Dw)"><path d="M351.441 283.141c-.051-.059.539-.742 1.395-1.375 1.434-1.059 2.73-1.332 3.008-1.383 1.125-.219 1.816-.059 2.215.086.348.125.777.285.883.668s-.168.793-.457.996c-.379.27-.937.289-1.055.098-.086-.145.125-.324.031-.602-.059-.176-.203-.273-.285-.328-.66-.445-1.828-.141-1.828-.141-2.094.547-3.828 2.07-3.906 1.98"/></g></g></g></g><g clip-path="url(#Dx)" class="F"><g clip-path="url(#Dy)"><g clip-path="url(#Dz)"><g clip-path="url(#EA)"><path d="M356.02 283.246c-.465-.105-.863.184-1.598.711-.391.281-1.473 1.129-2.031 2.656-.203.551-.383 1.043-.246 1.645.105.457.344.77.77 1.328.461.598.691.898.957.914.684.051 1.133-1.246 1.594-1.117.258.074.152.5.59.867.188.156.332.184.977.371l1.23.363c.777.012 1.375-.809 1.852-1.465.508-.699 1.348-1.855 1.008-3.043-.191-.66-.715-1.23-.98-1.156-.301.09-.082.977-.488 1.188-.516.273-1.566-.77-1.73-.93-1.199-1.191-1.16-2.164-1.902-2.332"/></g></g></g></g><g clip-path="url(#EB)"><path fill="#7ecdc5" d="M408.992 253.316c.019.398-.086.781-.18 1.16-1.445 5.516-5.848 7.398.129 4.926 1.461-.629 3.133-1.375 3.559-3.027.121 2.449-1.059 5.133-2.703 7.156-.859 1.125-1.902 1.957-1.887 2.371.324.109 3.156-.75 3.379-1.941l.074-.027c.102 2.688-2.652 7.762-7.687 10.637-.32.207-.723.316-.953.648-.078.078 0 .176.051.246.078.117.219.164.34.23 1.582.762 2.027 2.832 2.805 3.168-3.613 2.176-4.156 2.816-6.77 3.273-1.598.395-.094.727.457 1.477.586.73.805 1.66 1.227 2.48.082.133.203.234.293.363-.348.117-.711.168-1.055.281-.852.266-1.605.75-2.414 1.113-2.699 1.191-5.473-.125-5.887-.125-.086.059-.203.141-.199.254.109.285 1.227 1.375.391 3.43-.113.266-.062.559-.062.84-.016.004-.043.019-.055.023-.867-.727-1.375.164-2.543.16-.395.008-.766-.141-1.148-.211-.25-.012-.445.223-.484.461-.207.969-.937 1.363-.582 2.414-.168-.066-.297-.211-.473-.254-.508-.105-1 .098-1.48.223-.352.102-.719.023-1.078.047-.246.047-.383.281-.516.473-.164.258-.793.727-1.016 1.117-.117.191-.074.426-.059.641-.355-.191-.184-.453-1.398-.191-.602.137-.867-.352-1.359.262-.551.711-1.055.598-1.398 1.773-.102-.145-.18-.336-.367-.375-.543-.121-1.625.332-2.223-.039-.211-.117-.418-.348-.684-.27-.262.129-.445.371-.703.504-.754.391-1.293.301-1.918 1.09-.523-1.609-2.137-.047-2.937-1.137-.133-.172-.234-.395-.457-.457-.23-.059-.449.055-.668.09-.395.07-.809.055-1.18.23-.41-1.887-2.691-1.02-1.824-5.531.383-2.012 1.934-6.402 1.023-8.035-.363-.668-1.176-.633-1.402-.449-.289.234-.215.219-.215 1.863.09 5.289-1.5 5.832-2 9.574-.809 6.363 5.219 8.781 7.004 12.84.613 1.383-.398 1.816-.113 2.887-.566-.023-.855.582-1.594.563-.254 0-.516.121-.641.355-.5.934-1.836 1.164-1.555 2.313-.023 0-.066.004-.09.008-.395-.359-.719-.383-1.852-.176-.312.055-.625-.09-.937-.016-.293.094-.328.441-.492.664-.297.469-.879.617-1.227 1.031-.285.324-.398.668-.019.883-.004.023-.008.074-.008.098-.191-.082-.383-.191-.594-.211-.871-.062-1.316.344-1.918.281-.812-.105-.871-.734-1.395-.609-.195.117-.328.316-.523.426-.445.266-.977.277-1.441.484-.641.262-.609.664-.715.844-.383-1.238-1.605-.84-2.312-1.437-.156-.133-.309-.293-.52-.324-.496.098-.566.555-1.266.617-.598.047-1.184-.375-1.953-.277-.191.031-.363.145-.555.176.07-.129.242-.211.242-.371.035-.684-1.195-1.098-1.539-1.699-.172-.262-.129-.715-.695-.613-1.078.191-1.789-.437-2.543.234-.012-.016-.039-.047-.051-.062.023-.168.074-.352-.012-.512-.262-.574-.816-.91-1.262-1.324-.316-.297-.379-.863-.789-.773-.68.148-1.227-.629-1.754-.562.031-.16.109-.32.082-.488-.164-1.062-1.117-1.391.824-4.051 3.035-4.078 7.137-5.84 5.758-12.543-.484-2.051-1.473-2.945-1.719-6.687-.066-.527-.023-2.352-.027-3.105.027-.367-1.078-.715-1.598.09-1.645 2.594 2.883 9.547.395 12.004-1.25 1.16-.996 1.059-1.25 1.629-.418-.223-.906-.145-1.348-.277-.184-.047-.379-.16-.559-.047-.336.109-.359.887-1.258.863-.84.035-1.637-.531-2.078.723-.504-.742-1.34-.758-1.969-1.121-.402-.223-.527-.781-1.117-.34a1.47 1.47 0 0 1-1.137.305c-1.469-.285-1.422-.117-1.641.254-.195-.441-.023-.562-1.012-1.371-.562-.453-.535-.891-1.223-.684-.66.215-1.375-.492-1.906.215-.062-.18.051-.375-.047-.547-.262-.57-.875-.859-1.184-1.402a.57.57 0 0 0-.426-.32c-.219.023-.434.094-.656.07-.496-.07-1.492-.484-1.941-.281-.137.059-.25.16-.383.23.223-1.156-.187-1.16-.52-2.145-.07-.184-.105-.387-.207-.559-.332-.48-.934.219-1.898-.004-.766-.121-1.68-.816-2.164-.078-.016-.012-.047-.031-.062-.043.277-1.094-.895-1.574-.047-3.656.07-.184.211-.359.18-.566.008-.074-.055-.121-.109-.148-.551-.102-2.738.906-5.023.227-1.219-.352-2.242-1.187-3.484-1.477-.238-.07-.492-.094-.715-.215.699-.719.805-2.184 1.746-3.066.281-.301.719-.441.922-.824.023-.504-1.48-.316-3.238-1.16-.785-.363-4.039-2.418-4.223-2.543.828-.297 1.035-2.191 2.805-3.156.129-.074.277-.145.348-.285.105-.32-.402-.535-.719-.719-5.395-3.008-8.164-8.551-7.875-10.766.121.184.223.637.887 1.055.602.402 1.965.984 2.617 1.012.008-.051.019-.102.023-.152-.41-.836-4.766-4.125-4.699-9.441.012.004.031.008.043.012.41 1.719 2.418 2.523 3.965 3.176 2.457 1.074 2.461.977 2.625.914.027-.547-.23-.496-1.023-1.828-.852-1.367-1.957-3.637-2.094-5.266.019-.004.059-.008.078-.012 1.496 3.203 8.777 4.785 15.301 7.547a227.82 227.82 0 0 1 6.773 3.023c2.559 1.16 3.289 2.363 3.445 1.629-.062-.406-1.082-4.387-1.023-4.793 6.625 3.5 4.059 5.363 7.129 7.852 4.09 3.246 12.492 6.344 12.539 4.91.543-3.66-.41-5.07-.594-5.98 1.352.328 2.148 1.422 4.941 1.738 1.641.074 2.691-.105 3.477-.164.551-.086 3.52-.094 3.848-.043.879.019 2.508.242 2.898.219 4.52-.086 4.504-1.41 6.281-1.742-.121.445-.957 2.379-.766 4.684.207 1.648-.066 1.973 2.02 1.492 5.254-1.371 9.695-4.152 11.105-5.488 1.188-1.117 1.48-2.777 2.301-4.031 1.211-1.914 4.289-3.391 4.434-3.434-1.383 7.254-2.184 5.211 2.797 2.965 3.801-1.742 8.688-3.953 12.258-5.094 7.668-2.539 8.652-4.066 9.473-5.352zm0 0"/></g></g></svg>