<svg xmlns="http://www.w3.org/2000/svg" width="414.974" zoomAndPan="magnify" viewBox="0 0 311.23 374.867" height="499.823" preserveAspectRatio="xMidYMid meet" xmlns:v="https://vecta.io/nano"><style><![CDATA[.B{clip-rule:nonzero}.C{fill:#7f0000}]]></style><defs><clipPath id="A"><path d="M32.293 0h311.25v375H32.293zm0 0" class="B"/></clipPath><clipPath id="B"><path d="M240 269h15v16h-15zm0 0" class="B"/></clipPath><clipPath id="C"><path d="M119.367 29.723l131.227-2.43L255.375 286l-131.227 2.426zm0 0" class="B"/></clipPath><clipPath id="D"><path d="M119.367 29.723l131.227-2.43L255.375 286l-131.227 2.426zm0 0" class="B"/></clipPath><clipPath id="E"><path d="M119.367 29.723l131.227-2.43L255.375 286l-131.227 2.426zm0 0" class="B"/></clipPath><clipPath id="F"><path d="M141 80h105v199H141zm0 0" class="B"/></clipPath><clipPath id="G"><path d="M119.367 29.723l131.227-2.43L255.375 286l-131.227 2.426zm0 0" class="B"/></clipPath><clipPath id="H"><path d="M119.367 29.723l131.227-2.43L255.375 286l-131.227 2.426zm0 0" class="B"/></clipPath><clipPath id="I"><path d="M119.367 29.723l131.227-2.43L255.375 286l-131.227 2.426zm0 0" class="B"/></clipPath><clipPath id="J"><path d="M208 273h6v6h-6zm0 0" class="B"/></clipPath><clipPath id="K"><path d="M119.367 29.723l131.227-2.43L255.375 286l-131.227 2.426zm0 0" class="B"/></clipPath><clipPath id="L"><path d="M119.367 29.723l131.227-2.43L255.375 286l-131.227 2.426zm0 0" class="B"/></clipPath><clipPath id="M"><path d="M119.367 29.723l131.227-2.43L255.375 286l-131.227 2.426zm0 0" class="B"/></clipPath><clipPath id="N"><path d="M247 266h3v3h-3zm0 0" class="B"/></clipPath><clipPath id="O"><path d="M119.367 29.723l131.227-2.43L255.375 286l-131.227 2.426zm0 0" class="B"/></clipPath><clipPath id="P"><path d="M119.367 29.723l131.227-2.43L255.375 286l-131.227 2.426zm0 0" class="B"/></clipPath><clipPath id="Q"><path d="M119.367 29.723l131.227-2.43L255.375 286l-131.227 2.426zm0 0" class="B"/></clipPath><clipPath id="R"><path d="M233 252h2v3h-2zm0 0" class="B"/></clipPath><clipPath id="S"><path d="M119.367 29.723l131.227-2.43L255.375 286l-131.227 2.426zm0 0" class="B"/></clipPath><clipPath id="T"><path d="M119.367 29.723l131.227-2.43L255.375 286l-131.227 2.426zm0 0" class="B"/></clipPath><clipPath id="U"><path d="M119.367 29.723l131.227-2.43L255.375 286l-131.227 2.426zm0 0" class="B"/></clipPath><clipPath id="V"><path d="M196 224h3v3h-3zm0 0" class="B"/></clipPath><clipPath id="W"><path d="M119.367 29.723l131.227-2.43L255.375 286l-131.227 2.426zm0 0" class="B"/></clipPath><clipPath id="X"><path d="M119.367 29.723l131.227-2.43L255.375 286l-131.227 2.426zm0 0" class="B"/></clipPath><clipPath id="Y"><path d="M119.367 29.723l131.227-2.43L255.375 286l-131.227 2.426zm0 0" class="B"/></clipPath><clipPath id="Z"><path d="M213 217h6v6h-6zm0 0" class="B"/></clipPath><clipPath id="a"><path d="M119.367 29.723l131.227-2.43L255.375 286l-131.227 2.426zm0 0" class="B"/></clipPath><clipPath id="b"><path d="M119.367 29.723l131.227-2.43L255.375 286l-131.227 2.426zm0 0" class="B"/></clipPath><clipPath id="c"><path d="M119.367 29.723l131.227-2.43L255.375 286l-131.227 2.426zm0 0" class="B"/></clipPath><clipPath id="d"><path d="M199 218h4v3h-4zm0 0" class="B"/></clipPath><clipPath id="e"><path d="M119.367 29.723l131.227-2.43L255.375 286l-131.227 2.426zm0 0" class="B"/></clipPath><clipPath id="f"><path d="M119.367 29.723l131.227-2.43L255.375 286l-131.227 2.426zm0 0" class="B"/></clipPath><clipPath id="g"><path d="M119.367 29.723l131.227-2.43L255.375 286l-131.227 2.426zm0 0" class="B"/></clipPath><clipPath id="h"><path d="M176 207h11v12h-11zm0 0" class="B"/></clipPath><clipPath id="i"><path d="M119.367 29.723l131.227-2.43L255.375 286l-131.227 2.426zm0 0" class="B"/></clipPath><clipPath id="j"><path d="M119.367 29.723l131.227-2.43L255.375 286l-131.227 2.426zm0 0" class="B"/></clipPath><clipPath id="k"><path d="M119.367 29.723l131.227-2.43L255.375 286l-131.227 2.426zm0 0" class="B"/></clipPath><clipPath id="l"><path d="M195 214h5v4h-5zm0 0" class="B"/></clipPath><clipPath id="m"><path d="M119.367 29.723l131.227-2.43L255.375 286l-131.227 2.426zm0 0" class="B"/></clipPath><clipPath id="n"><path d="M119.367 29.723l131.227-2.43L255.375 286l-131.227 2.426zm0 0" class="B"/></clipPath><clipPath id="o"><path d="M119.367 29.723l131.227-2.43L255.375 286l-131.227 2.426zm0 0" class="B"/></clipPath><clipPath id="p"><path d="M160 205h9v9h-9zm0 0" class="B"/></clipPath><clipPath id="q"><path d="M119.367 29.723l131.227-2.43L255.375 286l-131.227 2.426zm0 0" class="B"/></clipPath><clipPath id="r"><path d="M119.367 29.723l131.227-2.43L255.375 286l-131.227 2.426zm0 0" class="B"/></clipPath><clipPath id="s"><path d="M119.367 29.723l131.227-2.43L255.375 286l-131.227 2.426zm0 0" class="B"/></clipPath><clipPath id="t"><path d="M208 208h2v3h-2zm0 0" class="B"/></clipPath><clipPath id="u"><path d="M119.367 29.723l131.227-2.43L255.375 286l-131.227 2.426zm0 0" class="B"/></clipPath><clipPath id="v"><path d="M119.367 29.723l131.227-2.43L255.375 286l-131.227 2.426zm0 0" class="B"/></clipPath><clipPath id="w"><path d="M119.367 29.723l131.227-2.43L255.375 286l-131.227 2.426zm0 0" class="B"/></clipPath><clipPath id="x"><path d="M223 206h4v3h-4zm0 0" class="B"/></clipPath><clipPath id="y"><path d="M119.367 29.723l131.227-2.43L255.375 286l-131.227 2.426zm0 0" class="B"/></clipPath><clipPath id="z"><path d="M119.367 29.723l131.227-2.43L255.375 286l-131.227 2.426zm0 0" class="B"/></clipPath><clipPath id="AA"><path d="M119.367 29.723l131.227-2.43L255.375 286l-131.227 2.426zm0 0" class="B"/></clipPath><clipPath id="AB"><path d="M184 203h2v4h-2zm0 0" class="B"/></clipPath><clipPath id="AC"><path d="M119.367 29.723l131.227-2.43L255.375 286l-131.227 2.426zm0 0" class="B"/></clipPath><clipPath id="AD"><path d="M119.367 29.723l131.227-2.43L255.375 286l-131.227 2.426zm0 0" class="B"/></clipPath><clipPath id="AE"><path d="M119.367 29.723l131.227-2.43L255.375 286l-131.227 2.426zm0 0" class="B"/></clipPath><clipPath id="AF"><path d="M216 201h6v6h-6zm0 0" class="B"/></clipPath><clipPath id="AG"><path d="M119.367 29.723l131.227-2.43L255.375 286l-131.227 2.426zm0 0" class="B"/></clipPath><clipPath id="AH"><path d="M119.367 29.723l131.227-2.43L255.375 286l-131.227 2.426zm0 0" class="B"/></clipPath><clipPath id="AI"><path d="M119.367 29.723l131.227-2.43L255.375 286l-131.227 2.426zm0 0" class="B"/></clipPath><clipPath id="AJ"><path d="M205 190h7v7h-7zm0 0" class="B"/></clipPath><clipPath id="AK"><path d="M119.367 29.723l131.227-2.43L255.375 286l-131.227 2.426zm0 0" class="B"/></clipPath><clipPath id="AL"><path d="M119.367 29.723l131.227-2.43L255.375 286l-131.227 2.426zm0 0" class="B"/></clipPath><clipPath id="AM"><path d="M119.367 29.723l131.227-2.43L255.375 286l-131.227 2.426zm0 0" class="B"/></clipPath><clipPath id="AN"><path d="M171 192h5v5h-5zm0 0" class="B"/></clipPath><clipPath id="AO"><path d="M119.367 29.723l131.227-2.43L255.375 286l-131.227 2.426zm0 0" class="B"/></clipPath><clipPath id="AP"><path d="M119.367 29.723l131.227-2.43L255.375 286l-131.227 2.426zm0 0" class="B"/></clipPath><clipPath id="AQ"><path d="M119.367 29.723l131.227-2.43L255.375 286l-131.227 2.426zm0 0" class="B"/></clipPath><clipPath id="AR"><path d="M215 185h9v11h-9zm0 0" class="B"/></clipPath><clipPath id="AS"><path d="M119.367 29.723l131.227-2.43L255.375 286l-131.227 2.426zm0 0" class="B"/></clipPath><clipPath id="AT"><path d="M119.367 29.723l131.227-2.43L255.375 286l-131.227 2.426zm0 0" class="B"/></clipPath><clipPath id="AU"><path d="M119.367 29.723l131.227-2.43L255.375 286l-131.227 2.426zm0 0" class="B"/></clipPath><clipPath id="AV"><path d="M235 182h5v5h-5zm0 0" class="B"/></clipPath><clipPath id="AW"><path d="M119.367 29.723l131.227-2.43L255.375 286l-131.227 2.426zm0 0" class="B"/></clipPath><clipPath id="AX"><path d="M119.367 29.723l131.227-2.43L255.375 286l-131.227 2.426zm0 0" class="B"/></clipPath><clipPath id="AY"><path d="M119.367 29.723l131.227-2.43L255.375 286l-131.227 2.426zm0 0" class="B"/></clipPath><clipPath id="AZ"><path d="M175 139h20v33h-20zm0 0" class="B"/></clipPath><clipPath id="Aa"><path d="M119.367 29.723l131.227-2.43L255.375 286l-131.227 2.426zm0 0" class="B"/></clipPath><clipPath id="Ab"><path d="M119.367 29.723l131.227-2.43L255.375 286l-131.227 2.426zm0 0" class="B"/></clipPath><clipPath id="Ac"><path d="M119.367 29.723l131.227-2.43L255.375 286l-131.227 2.426zm0 0" class="B"/></clipPath><clipPath id="Ad"><path d="M229 127h5v5h-5zm0 0" class="B"/></clipPath><clipPath id="Ae"><path d="M119.367 29.723l131.227-2.43L255.375 286l-131.227 2.426zm0 0" class="B"/></clipPath><clipPath id="Af"><path d="M119.367 29.723l131.227-2.43L255.375 286l-131.227 2.426zm0 0" class="B"/></clipPath><clipPath id="Ag"><path d="M119.367 29.723l131.227-2.43L255.375 286l-131.227 2.426zm0 0" class="B"/></clipPath><clipPath id="Ah"><path d="M178 127h5v5h-5zm0 0" class="B"/></clipPath><clipPath id="Ai"><path d="M119.367 29.723l131.227-2.43L255.375 286l-131.227 2.426zm0 0" class="B"/></clipPath><clipPath id="Aj"><path d="M119.367 29.723l131.227-2.43L255.375 286l-131.227 2.426zm0 0" class="B"/></clipPath><clipPath id="Ak"><path d="M119.367 29.723l131.227-2.43L255.375 286l-131.227 2.426zm0 0" class="B"/></clipPath><clipPath id="Al"><path d="M221 126h5v5h-5zm0 0" class="B"/></clipPath><clipPath id="Am"><path d="M119.367 29.723l131.227-2.43L255.375 286l-131.227 2.426zm0 0" class="B"/></clipPath><clipPath id="An"><path d="M119.367 29.723l131.227-2.43L255.375 286l-131.227 2.426zm0 0" class="B"/></clipPath><clipPath id="Ao"><path d="M119.367 29.723l131.227-2.43L255.375 286l-131.227 2.426zm0 0" class="B"/></clipPath><clipPath id="Ap"><path d="M145 128h4v3h-4zm0 0" class="B"/></clipPath><clipPath id="Aq"><path d="M119.367 29.723l131.227-2.43L255.375 286l-131.227 2.426zm0 0" class="B"/></clipPath><clipPath id="Ar"><path d="M119.367 29.723l131.227-2.43L255.375 286l-131.227 2.426zm0 0" class="B"/></clipPath><clipPath id="As"><path d="M119.367 29.723l131.227-2.43L255.375 286l-131.227 2.426zm0 0" class="B"/></clipPath><clipPath id="At"><path d="M195 125h3v4h-3zm0 0" class="B"/></clipPath><clipPath id="Au"><path d="M119.367 29.723l131.227-2.43L255.375 286l-131.227 2.426zm0 0" class="B"/></clipPath><clipPath id="Av"><path d="M119.367 29.723l131.227-2.43L255.375 286l-131.227 2.426zm0 0" class="B"/></clipPath><clipPath id="Aw"><path d="M119.367 29.723l131.227-2.43L255.375 286l-131.227 2.426zm0 0" class="B"/></clipPath><clipPath id="Ax"><path d="M212 125h4v3h-4zm0 0" class="B"/></clipPath><clipPath id="Ay"><path d="M119.367 29.723l131.227-2.43L255.375 286l-131.227 2.426zm0 0" class="B"/></clipPath><clipPath id="Az"><path d="M119.367 29.723l131.227-2.43L255.375 286l-131.227 2.426zm0 0" class="B"/></clipPath><clipPath id="BA"><path d="M119.367 29.723l131.227-2.43L255.375 286l-131.227 2.426zm0 0" class="B"/></clipPath><clipPath id="BB"><path d="M216 125h2v3h-2zm0 0" class="B"/></clipPath><clipPath id="BC"><path d="M119.367 29.723l131.227-2.43L255.375 286l-131.227 2.426zm0 0" class="B"/></clipPath><clipPath id="BD"><path d="M119.367 29.723l131.227-2.43L255.375 286l-131.227 2.426zm0 0" class="B"/></clipPath><clipPath id="BE"><path d="M119.367 29.723l131.227-2.43L255.375 286l-131.227 2.426zm0 0" class="B"/></clipPath><clipPath id="BF"><path d="M131 108h20v20h-20zm0 0" class="B"/></clipPath><clipPath id="BG"><path d="M119.367 29.723l131.227-2.43L255.375 286l-131.227 2.426zm0 0" class="B"/></clipPath><clipPath id="BH"><path d="M119.367 29.723l131.227-2.43L255.375 286l-131.227 2.426zm0 0" class="B"/></clipPath><clipPath id="BI"><path d="M119.367 29.723l131.227-2.43L255.375 286l-131.227 2.426zm0 0" class="B"/></clipPath><clipPath id="BJ"><path d="M204 122h4v4h-4zm0 0" class="B"/></clipPath><clipPath id="BK"><path d="M119.367 29.723l131.227-2.43L255.375 286l-131.227 2.426zm0 0" class="B"/></clipPath><clipPath id="BL"><path d="M119.367 29.723l131.227-2.43L255.375 286l-131.227 2.426zm0 0" class="B"/></clipPath><clipPath id="BM"><path d="M119.367 29.723l131.227-2.43L255.375 286l-131.227 2.426zm0 0" class="B"/></clipPath><clipPath id="BN"><path d="M125 122h3v4h-3zm0 0" class="B"/></clipPath><clipPath id="BO"><path d="M119.367 29.723l131.227-2.43L255.375 286l-131.227 2.426zm0 0" class="B"/></clipPath><clipPath id="BP"><path d="M119.367 29.723l131.227-2.43L255.375 286l-131.227 2.426zm0 0" class="B"/></clipPath><clipPath id="BQ"><path d="M119.367 29.723l131.227-2.43L255.375 286l-131.227 2.426zm0 0" class="B"/></clipPath><clipPath id="BR"><path d="M167 115h9v9h-9zm0 0" class="B"/></clipPath><clipPath id="BS"><path d="M119.367 29.723l131.227-2.43L255.375 286l-131.227 2.426zm0 0" class="B"/></clipPath><clipPath id="BT"><path d="M119.367 29.723l131.227-2.43L255.375 286l-131.227 2.426zm0 0" class="B"/></clipPath><clipPath id="BU"><path d="M119.367 29.723l131.227-2.43L255.375 286l-131.227 2.426zm0 0" class="B"/></clipPath><clipPath id="BV"><path d="M194 116h8v8h-8zm0 0" class="B"/></clipPath><clipPath id="BW"><path d="M119.367 29.723l131.227-2.43L255.375 286l-131.227 2.426zm0 0" class="B"/></clipPath><clipPath id="BX"><path d="M119.367 29.723l131.227-2.43L255.375 286l-131.227 2.426zm0 0" class="B"/></clipPath><clipPath id="BY"><path d="M119.367 29.723l131.227-2.43L255.375 286l-131.227 2.426zm0 0" class="B"/></clipPath><clipPath id="BZ"><path d="M125 109h7v6h-7zm0 0" class="B"/></clipPath><clipPath id="Ba"><path d="M119.367 29.723l131.227-2.43L255.375 286l-131.227 2.426zm0 0" class="B"/></clipPath><clipPath id="Bb"><path d="M119.367 29.723l131.227-2.43L255.375 286l-131.227 2.426zm0 0" class="B"/></clipPath><clipPath id="Bc"><path d="M119.367 29.723l131.227-2.43L255.375 286l-131.227 2.426zm0 0" class="B"/></clipPath><clipPath id="Bd"><path d="M131 105h3v4h-3zm0 0" class="B"/></clipPath><clipPath id="Be"><path d="M119.367 29.723l131.227-2.43L255.375 286l-131.227 2.426zm0 0" class="B"/></clipPath><clipPath id="Bf"><path d="M119.367 29.723l131.227-2.43L255.375 286l-131.227 2.426zm0 0" class="B"/></clipPath><clipPath id="Bg"><path d="M119.367 29.723l131.227-2.43L255.375 286l-131.227 2.426zm0 0" class="B"/></clipPath><clipPath id="Bh"><path d="M171 70h14v25h-14zm0 0" class="B"/></clipPath><clipPath id="Bi"><path d="M119.367 29.723l131.227-2.43L255.375 286l-131.227 2.426zm0 0" class="B"/></clipPath><clipPath id="Bj"><path d="M119.367 29.723l131.227-2.43L255.375 286l-131.227 2.426zm0 0" class="B"/></clipPath><clipPath id="Bk"><path d="M119.367 29.723l131.227-2.43L255.375 286l-131.227 2.426zm0 0" class="B"/></clipPath><clipPath id="Bl"><path d="M195 81h12v12h-12zm0 0" class="B"/></clipPath><clipPath id="Bm"><path d="M119.367 29.723l131.227-2.43L255.375 286l-131.227 2.426zm0 0" class="B"/></clipPath><clipPath id="Bn"><path d="M119.367 29.723l131.227-2.43L255.375 286l-131.227 2.426zm0 0" class="B"/></clipPath><clipPath id="Bo"><path d="M119.367 29.723l131.227-2.43L255.375 286l-131.227 2.426zm0 0" class="B"/></clipPath><clipPath id="Bp"><path d="M123 86h3v2h-3zm0 0" class="B"/></clipPath><clipPath id="Bq"><path d="M119.367 29.723l131.227-2.43L255.375 286l-131.227 2.426zm0 0" class="B"/></clipPath><clipPath id="Br"><path d="M119.367 29.723l131.227-2.43L255.375 286l-131.227 2.426zm0 0" class="B"/></clipPath><clipPath id="Bs"><path d="M119.367 29.723l131.227-2.43L255.375 286l-131.227 2.426zm0 0" class="B"/></clipPath><clipPath id="Bt"><path d="M130 53h4v8h-4zm0 0" class="B"/></clipPath><clipPath id="Bu"><path d="M119.367 29.723l131.227-2.43L255.375 286l-131.227 2.426zm0 0" class="B"/></clipPath><clipPath id="Bv"><path d="M119.367 29.723l131.227-2.43L255.375 286l-131.227 2.426zm0 0" class="B"/></clipPath><clipPath id="Bw"><path d="M119.367 29.723l131.227-2.43L255.375 286l-131.227 2.426zm0 0" class="B"/></clipPath><clipPath id="Bx"><path d="M126 46h3v6h-3zm0 0" class="B"/></clipPath><clipPath id="By"><path d="M119.367 29.723l131.227-2.43L255.375 286l-131.227 2.426zm0 0" class="B"/></clipPath><clipPath id="Bz"><path d="M119.367 29.723l131.227-2.43L255.375 286l-131.227 2.426zm0 0" class="B"/></clipPath><clipPath id="CA"><path d="M119.367 29.723l131.227-2.43L255.375 286l-131.227 2.426zm0 0" class="B"/></clipPath><clipPath id="CB"><path d="M196 43h3v2h-3zm0 0" class="B"/></clipPath><clipPath id="CC"><path d="M119.367 29.723l131.227-2.43L255.375 286l-131.227 2.426zm0 0" class="B"/></clipPath><clipPath id="CD"><path d="M119.367 29.723l131.227-2.43L255.375 286l-131.227 2.426zm0 0" class="B"/></clipPath><clipPath id="CE"><path d="M119.367 29.723l131.227-2.43L255.375 286l-131.227 2.426zm0 0" class="B"/></clipPath><clipPath id="CF"><path d="M119 32h5v8h-5zm0 0" class="B"/></clipPath><clipPath id="CG"><path d="M119.367 29.723l131.227-2.43L255.375 286l-131.227 2.426zm0 0" class="B"/></clipPath><clipPath id="CH"><path d="M119.367 29.723l131.227-2.43L255.375 286l-131.227 2.426zm0 0" class="B"/></clipPath><clipPath id="CI"><path d="M119.367 29.723l131.227-2.43L255.375 286l-131.227 2.426zm0 0" class="B"/></clipPath><clipPath id="CJ"><path d="M210 29h3v4h-3zm0 0" class="B"/></clipPath><clipPath id="CK"><path d="M119.367 29.723l131.227-2.43L255.375 286l-131.227 2.426zm0 0" class="B"/></clipPath><clipPath id="CL"><path d="M119.367 29.723l131.227-2.43L255.375 286l-131.227 2.426zm0 0" class="B"/></clipPath><clipPath id="CM"><path d="M119.367 29.723l131.227-2.43L255.375 286l-131.227 2.426zm0 0" class="B"/></clipPath><clipPath id="CN"><path d="M213 28h5v4h-5zm0 0" class="B"/></clipPath><clipPath id="CO"><path d="M119.367 29.723l131.227-2.43L255.375 286l-131.227 2.426zm0 0" class="B"/></clipPath><clipPath id="CP"><path d="M119.367 29.723l131.227-2.43L255.375 286l-131.227 2.426zm0 0" class="B"/></clipPath><clipPath id="CQ"><path d="M119.367 29.723l131.227-2.43L255.375 286l-131.227 2.426zm0 0" class="B"/></clipPath><clipPath id="CR"><path d="M133 186h121v78.52H133zm0 0" class="B"/></clipPath></defs><g clip-path="url(#A)" transform="translate(-32.293 -.066)"><path d="M291.172 276.152l-102.594 77.039L87.32 276.152 51.941 47.707l136.598-29.895 135.492 29.898zM188.551.066L32.281 34.27l38.938 251.43 117.293 89.234 118.84-89.238 36.172-251.43L188.551.066" class="C"/><path d="M291.172 276.152l-102.594 77.039L87.32 276.152 51.941 47.707l136.598-29.895 135.492 29.898z" fill="#fff"/></g><path d="M56.027 96.059L76.672 269.09l-1.176-1.992 78.008 63.188-81.73-58.32-.941-.672-.234-1.312L33.484 59.234l22.543 36.824" class="C"/><g transform="translate(-32.293 -.066)" class="C"><g clip-path="url(#B)"><g clip-path="url(#C)"><g clip-path="url(#D)"><g clip-path="url(#E)"><path d="M242.906 282.363c-3.336-3.363-3.488-7.187-.418-10.383 3.656-3.801 8.273-2.984 11.016 1.953 1.691 3.051 1.484 5.488-.723 8.41-2.621 3.473-6.445 3.48-9.875.019zm0 0"/></g></g></g></g><g clip-path="url(#F)"><g clip-path="url(#G)"><g clip-path="url(#H)"><g clip-path="url(#I)"><path d="M224.152 278.531c-3.984-1.047-7.148-4.965-7.219-8.953-.043-2.285-.727-3.562-2.5-4.68-1.34-.848-2.453-2.211-2.465-3.035-.039-2.066 4.605-8.219 6.23-8.246 2.484-.047 1.313-1.715-1.574-2.238-1.578-.289-3.816-1.437-4.973-2.551-1.852-1.793-2.266-1.859-3.5-.574s-1.914 1.27-5.773-.121c-2.406-.863-4.754-2.16-5.211-2.875-1.988-3.094 1.527-10.777 5.555-12.141 1.223-.414 1.512-1.574 1.266-5.121-.523-7.695-1.074-9.43-5.137-16.234-2.152-3.609-4.758-8.723-5.789-11.363s-5.949-14.086-10.937-25.43l-15.051-35.027c-3.297-7.918-7.238-16.984-8.766-20.148s-4.461-10.148-6.516-15.523c-2.27-5.93-4.875-10.945-6.629-12.762-3.375-3.492-5.008-9.34-2.98-10.684 2.012-1.328 3.152-1.125 6.758 1.215 6.043 3.918 7.137 10.047 2.102 11.754-1.777.602-1.699 1.008 1.633 8.5 1.922 4.328 3.625 8.582 3.781 9.461s.73 2.168 1.27 2.875c1.113 1.461 3.496 6.535 13 27.664 8.527 18.953 24.102 50.82 27.875 57.035 1.598 2.629 3.465 6.297 4.145 8.145s1.699 3.355 2.266 3.344c1.703-.031 2.688 1.457 1.48 2.234-.82.531-.441 2.145 1.398 5.938 1.527 3.152 2.789 4.758 3.199 4.066.43-.73 1.738.387 3.621 3.086 2.813 4.039 5.539 5.336 6.785 3.234.906-1.539 5.012-1.223 5.684.438.332.824.961 1.273 1.395.992 1.164-.75 4.266 3.102 3.52 4.367-.437.742-.98.637-1.723-.34-1.051-1.371-4.734-3.602-5.918-3.578-.32.004.926 1.289 2.77 2.848s3.879 2.832 4.527 2.82.957.605.68 1.371c-1.328 3.668-1.539 8.289-.465 10.211 1.57 2.816.547 3.637-1.883 1.512-1.93-1.687-1.969-1.66-1.914 1.297.055 2.785-2.648 5.848-4.004 4.539-.273-.266-.703.375-.957 1.422-.402 1.676-.074 1.832 2.715 1.324 3.387-.613 4.316-.125 9.891 5.207 1.84 1.758 3.582 2.953 3.871 2.652.793-.828-1.629-7.094-3.238-8.383-1.648-1.32-1.891-2.828-.465-2.855.543-.008 1.387.957 1.867 2.145s2.504 3.535 4.488 5.219c3.973 3.371 4.34 6.277.867 6.84-1.184.191-2.164-.117-2.172-.687-.031-1.703-1.777-1.133-2.34.766-.859 2.898-6.477 8.648-9.051 9.266-1.32.316-3.789.211-5.488-.234zm0 0"/></g></g></g></g><g clip-path="url(#J)"><g clip-path="url(#K)"><g clip-path="url(#L)"><g clip-path="url(#M)"><path d="M209.363 277.469c-.977-1.141-.988-1.727-.051-2.902 1.535-1.93 3.465-1.91 4.254.047.617 1.531-.809 4.242-2.246 4.27-.402.008-1.281-.629-1.957-1.414zm0 0"/></g></g></g></g><g clip-path="url(#N)"><g clip-path="url(#O)"><g clip-path="url(#P)"><g clip-path="url(#Q)"><path d="M247.281 267.578c.316-.535.984-.984 1.484-.992s.914.418.926.949-.66.98-1.484.996-1.246-.414-.926-.953zm0 0"/></g></g></g></g><g clip-path="url(#R)"><g clip-path="url(#S)"><g clip-path="url(#T)"><g clip-path="url(#U)"><path d="M233.512 253.324c-.336-.523-.152-.965.41-.973s1.027.414 1.039.945-.176.973-.41.977-.699-.422-1.039-.949zm0 0"/></g></g></g></g><g clip-path="url(#V)"><g clip-path="url(#W)"><g clip-path="url(#X)"><g clip-path="url(#Y)"><path d="M196.836 225.953a.97.97 0 0 1 .949-.984c.531-.012.973.418.98.949s-.414.973-.945.984a.97.97 0 0 1-.984-.949zm0 0"/></g></g></g></g><g clip-path="url(#Z)"><g clip-path="url(#a)"><g clip-path="url(#b)"><g clip-path="url(#c)"><path d="M214.367 222.09c-1.664-.641-1.562-2.707.215-4.242 1.211-1.047 1.742-1.004 3.027.234 2.738 2.648.484 5.434-3.242 4.008zm0 0"/></g></g></g></g><g clip-path="url(#d)"><g clip-path="url(#e)"><g clip-path="url(#f)"><g clip-path="url(#g)"><path d="M199.605 219.133c-.012-.531.391-.977.891-.984s1.184.414 1.52.938-.062.969-.891.984-1.512-.406-1.52-.937zm0 0"/></g></g></g></g><g clip-path="url(#h)"><g clip-path="url(#i)"><g clip-path="url(#j)"><g clip-path="url(#k)"><path d="M178.508 216.883c-2.492-2.703-2.215-5.508.816-8.238 1.723-1.551 2.156-1.578 4.73-.305 2.09 1.035 2.844 2.102 2.871 4.039.043 3.246-.664 4.32-3.785 5.758-2.121.98-2.723.816-4.633-1.254zm0 0"/></g></g></g></g><g clip-path="url(#l)"><g clip-path="url(#m)"><g clip-path="url(#n)"><g clip-path="url(#o)"><path d="M196.637 216.738c-1.711-1.992-.332-3.098 1.57-1.262.918.891 1.164 1.738.605 2.098-.516.332-1.492-.043-2.176-.836zm0 0"/></g></g></g></g><g clip-path="url(#p)"><g clip-path="url(#q)"><g clip-path="url(#r)"><g clip-path="url(#s)"><path d="M162.398 211.531c-.848-.82-1.551-1.867-1.559-2.32-.016-.883 2.637-3.918 3.434-3.934 1.453-.027 4.25 2.113 4.27 3.27.027 1.484-2.469 4.434-3.773 4.461-.457.008-1.523-.656-2.371-1.477zm0 0"/></g></g></g></g><g clip-path="url(#t)"><g clip-path="url(#u)"><g clip-path="url(#v)"><g clip-path="url(#w)"><path d="M208.648 209.582c-.547-1.367-.437-1.48.531-.551.672.645.98 1.418.691 1.723s-.84-.227-1.223-1.172zm0 0"/></g></g></g></g><g clip-path="url(#x)"><g clip-path="url(#y)"><g clip-path="url(#z)"><g clip-path="url(#AA)"><path d="M223.715 207.902c.473-1.516 2.535-1.801 2.914-.402.145.523-.547 1.121-1.531 1.328-1.168.25-1.648-.074-1.383-.926zm0 0"/></g></g></g></g><g clip-path="url(#AB)"><g clip-path="url(#AC)"><g clip-path="url(#AD)"><g clip-path="url(#AE)"><path d="M184.488 206.004c-.426-.664-.52-1.477-.207-1.801.844-.883 1.809.375 1.371 1.785-.309.988-.535.992-1.164.016zm0 0"/></g></g></g></g><g clip-path="url(#AF)"><g clip-path="url(#AG)"><g clip-path="url(#AH)"><g clip-path="url(#AI)"><path d="M216.809 204.926c-.844-.988-.797-1.582.199-2.441 1.77-1.527 4.465-.426 4.508 1.844.039 2.164-3.023 2.551-4.707.598zm0 0"/></g></g></g></g><g clip-path="url(#AJ)"><g clip-path="url(#AK)"><g clip-path="url(#AL)"><g clip-path="url(#AM)"><path d="M205.988 194.988c-1.164-2.086.246-4.023 2.961-4.074 2.266-.039 3.281 2.445 1.777 4.332-1.582 1.984-3.547 1.875-4.738-.258zm0 0"/></g></g></g></g><g clip-path="url(#AN)"><g clip-path="url(#AO)"><g clip-path="url(#AP)"><g clip-path="url(#AQ)"><path d="M171.516 194.949c-.328-.816-.344-1.75-.031-2.074.672-.699 3.543 1.434 3.566 2.652.027 1.457-2.906.977-3.535-.578zm0 0"/></g></g></g></g><g clip-path="url(#AR)"><g clip-path="url(#AS)"><g clip-path="url(#AT)"><g clip-path="url(#AU)"><path d="M216.984 194.012c-1.789-1.73-1.391-5.652.813-7.996 1.098-1.164 1.594-.887 3.344 1.875 2.555 4.031 2.605 5.313.258 6.625-2.398 1.348-2.512 1.332-4.414-.504zm0 0"/></g></g></g></g><g clip-path="url(#AV)"><g clip-path="url(#AW)"><g clip-path="url(#AX)"><g clip-path="url(#AY)"><path d="M235.621 184.691c-.027-1.387.582-2.02 1.961-2.043 2.473-.047 2.25 3.16-.254 3.691-1.152.246-1.684-.266-1.707-1.648zm0 0"/></g></g></g></g><g clip-path="url(#AZ)"><g clip-path="url(#Aa)"><g clip-path="url(#Ab)"><g clip-path="url(#Ac)"><path d="M188.422 170.453c-.328-.812-.348-1.742-.039-2.062s-.527-1.402-1.855-2.41c-2.516-1.91-3.23-4.961-1.434-6.121.59-.379-.605-1.375-2.77-2.301-3.551-1.516-5.555-4.223-6.359-8.594-.422-2.305 2.523-7.25 5.223-8.766 1.82-1.02 3.418-1.168 6.008-.559 7.352 1.723 10.258 10.809 4.973 15.539-2.422 2.168-2.551 2.551-1.098 3.328 1.973 1.063 2.227 5.055.43 6.801-1.094 1.063-1.062 1.426.199 2.313 1.797 1.27.98 4.246-1.172 4.285-.828.016-1.773-.637-2.105-1.453zm0 0"/></g></g></g></g><g clip-path="url(#Ad)"><g clip-path="url(#Ae)"><g clip-path="url(#Af)"><g clip-path="url(#Ag)"><path d="M231.027 131.77c-2.047-.691-1.516-4.113.645-4.152 1.266-.023 1.941.609 1.965 1.84.039 2.133-.844 2.914-2.609 2.313zm0 0"/></g></g></g></g><g clip-path="url(#Ah)"><g clip-path="url(#Ai)"><g clip-path="url(#Aj)"><g clip-path="url(#Ak)"><path d="M179.84 130.336c-1.844-1.781-1.441-2.859.953-2.562 1.195.148 2.188.887 2.203 1.641.031 1.84-1.687 2.344-3.156.922zm0 0"/></g></g></g></g><g clip-path="url(#Al)"><g clip-path="url(#Am)"><g clip-path="url(#An)"><g clip-path="url(#Ao)"><path d="M221.66 129.137c-.379-.934-.137-2 .555-2.457 1.789-1.184 3.16-.496 3.199 1.605.043 2.359-2.879 3.023-3.754.852zm0 0"/></g></g></g></g><g clip-path="url(#Ap)"><g clip-path="url(#Aq)"><g clip-path="url(#Ar)"><g clip-path="url(#As)"><path d="M145.859 129.203c-.012-.531.633-.977 1.426-.992s1.457.41 1.465.941-.633.977-1.426.992-1.457-.406-1.465-.941zm0 0"/></g></g></g></g><g clip-path="url(#At)"><g clip-path="url(#Au)"><g clip-path="url(#Av)"><g clip-path="url(#Aw)"><path d="M195.422 127.93c-.844-2.09-.293-2.664 1.523-1.586 1.117.664 1.18 1.109.285 2.039s-1.289.832-1.809-.453zm0 0"/></g></g></g></g><g clip-path="url(#Ax)"><g clip-path="url(#Ay)"><g clip-path="url(#Az)"><g clip-path="url(#BA)"><path d="M212.359 126.445c-.031-1.707 2.051-1.445 2.68.336.223.625-.285 1.152-1.125 1.168s-1.539-.66-1.555-1.504zm0 0"/></g></g></g></g><g clip-path="url(#BB)"><g clip-path="url(#BC)"><g clip-path="url(#BD)"><g clip-path="url(#BE)"><path d="M216.227 126.938c-.008-.531.176-.973.406-.977s.703.422 1.039.949.156.965-.406.973-1.027-.414-1.039-.945zm0 0"/></g></g></g></g><g clip-path="url(#BF)"><g clip-path="url(#BG)"><g clip-path="url(#BH)"><g clip-path="url(#BI)"><path d="M137.809 125.707c-1.91-1.137-2.902-2.684-3.355-5.23-.383-2.145-1.187-3.609-1.969-3.594-.727.012-1.332-.41-1.34-.941-.019-.895 1.617-1.367 4.555-1.312 1.434.027 1.566-3.262.168-4.094-.539-.32-.984-1.016-.996-1.547s.516-.652 1.168-.266 2.719.816 4.598.953c4.582.336 7.352 1.809 8.695 4.629 1.863 3.91 1.379 7.047-1.562 10.109-3.137 3.262-6.027 3.637-9.961 1.293zm0 0"/></g></g></g></g><g clip-path="url(#BJ)"><g clip-path="url(#BK)"><g clip-path="url(#BL)"><g clip-path="url(#BM)"><path d="M204.594 123.766c-.016-.797.625-1.461 1.418-1.477s1.461.625 1.477 1.426-.625 1.461-1.422 1.477a1.46 1.46 0 0 1-1.473-1.426zm0 0"/></g></g></g></g><g clip-path="url(#BN)"><g clip-path="url(#BO)"><g clip-path="url(#BP)"><g clip-path="url(#BQ)"><path d="M125.512 124.262c-.016-.887.516-1.441 1.184-1.23 1.371.43 1.25 1.988-.195 2.5-.527.188-.973-.383-.988-1.27zm0 0"/></g></g></g></g><g clip-path="url(#BR)"><g clip-path="url(#BS)"><g clip-path="url(#BT)"><g clip-path="url(#BU)"><path d="M168.277 121.516c-1.539-2.258-1.535-2.535.047-4.352 2.965-3.41 7.176-1.98 7.258 2.469.035 2.039-2.352 4.234-4.66 4.277-.551.012-1.742-1.066-2.645-2.395zm0 0"/></g></g></g></g><g clip-path="url(#BV)"><g clip-path="url(#BW)"><g clip-path="url(#BX)"><g clip-path="url(#BY)"><path d="M195.414 121.887c-2.258-2.184-1.52-4.637 1.52-5.047 1.785-.242 2.898.234 3.633 1.555 2.273 4.074-1.734 6.793-5.152 3.492zm0 0"/></g></g></g></g><g clip-path="url(#BZ)"><g clip-path="url(#Ba)"><g clip-path="url(#Bb)"><g clip-path="url(#Bc)"><path d="M125.652 113.609c-.668-1.66 1.145-4.363 2.949-4.395.668-.012 1.805.668 2.527 1.508 1.117 1.301 1.043 1.738-.496 2.91-2.355 1.797-4.246 1.789-4.98-.023zm0 0"/></g></g></g></g><g clip-path="url(#Bd)"><g clip-path="url(#Be)"><g clip-path="url(#Bf)"><g clip-path="url(#Bg)"><path d="M132.676 108.555c-.391-.379-.727-1.359-.742-2.172-.019-1.09.262-1.203 1.066-.43.602.582.934 1.563.742 2.176s-.672.809-1.066.426zm0 0"/></g></g></g></g><g clip-path="url(#Bh)"><g clip-path="url(#Bi)"><g clip-path="url(#Bj)"><g clip-path="url(#Bk)"><path d="M175.594 90.992c.152-2.934-.352-4.387-2.184-6.297-3.043-3.172-3.078-6.312-.109-9.984 5.09-6.301 11.453-4.344 11.602 3.566.059 3.313-.445 4.391-3.117 6.66-1.75 1.488-3.27 3.762-3.375 5.051l-.293 3.559c-.059.664-.691 1.219-1.414 1.234-.93.016-1.25-1.086-1.109-3.789zm0 0"/></g></g></g></g><g clip-path="url(#Bl)"><g clip-path="url(#Bm)"><g clip-path="url(#Bn)"><g clip-path="url(#Bo)"><path d="M197.227 90.531c-2.445-2.363-2.555-4.969-.293-7.098 4.281-4.035 11.402.129 8.863 5.184-2.133 4.246-5.398 4.977-8.57 1.914zm0 0"/></g></g></g></g><g clip-path="url(#Bp)"><g clip-path="url(#Bq)"><g clip-path="url(#Br)"><g clip-path="url(#Bs)"><path d="M123.387 87.082c-.344-.535.055-.984.879-1 1.695-.031 1.953.543.633 1.398-.488.313-1.168.137-1.512-.398zm0 0"/></g></g></g></g><g clip-path="url(#Bt)"><g clip-path="url(#Bu)"><g clip-path="url(#Bv)"><g clip-path="url(#Bw)"><path d="M131.59 58.039c-.863-1.605-1.562-3.48-1.555-4.172s.934.398 2.047 2.422 1.809 3.902 1.551 4.172-1.18-.82-2.043-2.422zm0 0"/></g></g></g></g><g clip-path="url(#Bx)"><g clip-path="url(#By)"><g clip-path="url(#Bz)"><g clip-path="url(#CA)"><path d="M127.191 49.742c-.687-1.445-1.059-2.832-.82-3.078.641-.668 2.77 3.484 2.395 4.68-.176.566-.883-.156-1.574-1.602zm0 0"/></g></g></g></g><g clip-path="url(#CB)"><g clip-path="url(#CC)"><g clip-path="url(#CD)"><g clip-path="url(#CE)"><path d="M196.371 44.18c-.012-.562.414-1.031.945-1.043s.969.176.973.41-.422.703-.945 1.043-.961.152-.973-.41zm0 0"/></g></g></g></g><g clip-path="url(#CF)"><g clip-path="url(#CG)"><g clip-path="url(#CH)"><g clip-path="url(#CI)"><path d="M120.684 36.293c-.91-1.82-1.234-3.32-.727-3.332 1.285-.023 4.145 5.504 3.172 6.133-.437.281-1.539-.977-2.445-2.801zm0 0"/></g></g></g></g><g clip-path="url(#CJ)"><g clip-path="url(#CK)"><g clip-path="url(#CL)"><g clip-path="url(#CM)"><path d="M210.309 31.637c-.785-.758.059-2.281 1.273-2.305.5-.012.918.637.934 1.434.027 1.496-1.102 1.941-2.207.871zm0 0"/></g></g></g></g><g clip-path="url(#CN)"><g clip-path="url(#CO)"><g clip-path="url(#CP)"><g clip-path="url(#CQ)"><path d="M214.148 30.602c-.918-.887.145-2.289 1.754-2.316.766-.016 1.402.625 1.418 1.422.027 1.457-2 2.027-3.172.895zm0 0"/></g></g></g></g></g><path fill="#146630" d="M209.238 132.242s-10.754-8.848-20.953-7.371l-6.676.734s12.426-15.66 30.227-18.242l-3.895 3.137s8.344 11.789 1.297 21.742zm-43.945 18.609s3.34-5.898 9.09-7.371 6.301 4.789 6.301 4.789zm-23.73-2.582s.555-6.266 6.305-4.789 9.082 7.371 9.082 7.371zm-7.602-23.398c-10.199-1.477-20.953 7.371-20.953 7.371-7.047-9.953 1.297-21.742 1.297-21.742l-3.895-3.137c17.801 2.582 30.223 18.242 30.223 18.242zm85.848-27.09c-6.676-15.199-58.687 2.766-58.687 2.766s-52.008-17.965-58.684-2.766-42.551 80.707-5.285 86.789c0 0 11.758-11.793 29.91-19.062-.543 42.543 16.816 57.48 16.816 57.48-10.176-17.305-8.586-49.223-7.633-60.555 7.594-2.043 15.98-3.07 24.875-2.187 8.898-.883 17.285.145 24.879 2.188.949 11.332 2.543 43.25-7.633 60.555 0 0 17.359-14.937 16.816-57.48 18.152 7.27 29.91 19.063 29.91 19.063 37.266-6.082 1.387-71.586-5.285-86.789"/><g clip-path="url(#CR)" transform="translate(-32.293 -.066)"><path fill="#146630" d="M236.25 186.297s6.953 9.949-4.73 34.824c-5.527 11.773-14.355 18.156-22.125 21.617.059-4.543-1.422-9.824-1.422-9.824-.41 3.793-1.672 8.883-2.309 11.309-6.926 2.434-12.25 2.602-12.25 2.602s-5.32-.168-12.242-2.602c-.641-2.426-1.902-7.516-2.312-11.309 0 0-1.48 5.281-1.422 9.824-7.766-3.461-16.598-9.844-22.125-21.617-11.68-24.875-4.727-34.824-4.727-34.824s-10.848 8.016-17.246 4.699c0 0 20.027 57.766 60.074 73.52 40.051-15.754 60.078-73.52 60.078-73.52-6.398 3.316-17.242-4.699-17.242-4.699"/></g></svg>